<svg width="50" height="51" viewBox="0 0 50 51" fill="none" xmlns="http://www.w3.org/2000/svg">
<circle cx="25" cy="25.6572" r="25" fill="#8030F2"/>
<path d="M17.4999 25.3632C17.1685 25.3632 16.8999 25.6266 16.8999 25.9515V37.7162C16.8999 38.041 17.1685 38.3044 17.4999 38.3044H29.4999C29.8313 38.3044 30.0999 38.041 30.0999 37.7162V25.9515C30.0999 25.6266 29.8313 25.3632 29.4999 25.3632H17.4999ZM28.8999 37.1279H18.0999V26.5397H28.8999V37.1279Z" fill="white"/>
<path d="M20.5299 34.7462C20.5302 34.7464 20.5303 34.7466 20.5305 34.7467C21.3237 35.5241 22.3782 35.9522 23.4998 35.9522C24.6217 35.9522 25.6764 35.5239 26.4696 34.7462C27.2629 33.9684 27.6998 32.9344 27.6998 31.8346C27.6998 29.5619 25.8208 27.7169 23.4998 27.7169C21.1786 27.7169 19.2998 29.5586 19.2998 31.8346C19.2998 32.9342 19.7365 33.968 20.5294 34.7456C20.5296 34.7458 20.5297 34.746 20.5299 34.7462ZM25.6211 33.9143C25.0545 34.4698 24.3011 34.7757 23.4998 34.7757C22.9024 34.7757 22.3317 34.6054 21.8451 34.2887L26.0031 30.2123C26.3261 30.6894 26.4998 31.2489 26.4998 31.8346C26.4998 32.6202 26.1877 33.3588 25.6211 33.9143ZM23.4998 28.8934C24.0972 28.8934 24.6679 29.0637 25.1545 29.3804L20.9965 33.4568C20.6735 32.9797 20.4998 32.4203 20.4998 31.8346C20.4998 30.2091 21.8416 28.8934 23.4998 28.8934Z" fill="white"/>
<path d="M34.9 17.7161H32.3186C31.4734 13.6433 27.8085 10.6572 23.5 10.6572C18.5374 10.6572 14.5 14.6155 14.5 19.4808C14.5 19.8056 14.7686 20.069 15.1 20.069H18.7389C18.888 21.2352 19.4734 22.2696 20.3302 23.0102H15.1C14.7686 23.0102 14.5 23.2735 14.5 23.5984V40.069C14.5 40.3939 14.7686 40.6572 15.1 40.6572H31.9C32.2314 40.6572 32.5 40.3939 32.5 40.069V21.2455H34.9C35.2314 21.2455 35.5 20.9821 35.5 20.6572V18.3043C35.5 17.9794 35.2314 17.7161 34.9 17.7161ZM23.5 11.8337C27.1214 11.8337 30.2689 14.3188 31.0903 17.7161H27.9485C27.2285 15.9806 25.5088 14.7749 23.5 14.7749C21.0566 14.7749 19.0352 16.5745 18.7389 18.8925H15.7229C16.0302 14.9497 19.4009 11.8337 23.5 11.8337ZM19.9 19.4808C19.9 17.5346 21.515 15.9513 23.5 15.9513C24.7953 15.9513 25.9815 16.6478 26.6157 17.7161H23.5C22.5075 17.7161 21.7 18.5077 21.7 19.4808C21.7 20.4538 22.5075 21.2455 23.5 21.2455H26.6157C25.9815 22.3137 24.7953 23.0102 23.5 23.0102C21.515 23.0102 19.9 21.4269 19.9 19.4808ZM31.3 39.4808H15.7V24.1866H23.5C25.5062 24.1866 27.2275 22.9833 27.9485 21.2455H31.3V39.4808ZM34.3 20.069C33.6836 20.069 24.1155 20.069 23.5 20.069C23.1692 20.069 22.9 19.8051 22.9 19.4808C22.9 19.1564 23.1692 18.8925 23.5 18.8925H34.3V20.069Z" fill="white"/>
</svg>
