<svg width="438" height="406" viewBox="0 0 438 406" fill="none" xmlns="http://www.w3.org/2000/svg">
<path d="M55.7502 404.85C55.7502 404.85 -33.6198 282.46 21.7502 188.39C77.1202 94.3199 187.19 158.88 208.13 71.0899C229.07 -16.7001 305.55 -31.0901 378.07 78.6899C450.59 188.47 433.25 341.14 394.85 404.85H55.7502Z" fill="#00042D" fill-opacity="0.3"/>
<path opacity="0.7" d="M55.7502 404.85C55.7502 404.85 -33.6198 282.46 21.7502 188.39C77.1202 94.3199 187.19 158.88 208.13 71.0899C229.07 -16.7001 305.55 -31.0901 378.07 78.6899C450.59 188.47 433.25 341.14 394.85 404.85H55.7502Z" fill="white"/>
<path d="M1.05957 404.85H436.89" stroke="#263238" stroke-linecap="round" stroke-linejoin="round"/>
<path d="M299.42 52.8601H137.47C132.356 52.8601 128.21 57.006 128.21 62.1201V395.6C128.21 400.714 132.356 404.86 137.47 404.86H299.42C304.534 404.86 308.68 400.714 308.68 395.6V62.1201C308.68 57.006 304.534 52.8601 299.42 52.8601Z" fill="white" stroke="#263238" stroke-linecap="round" stroke-linejoin="round"/>
<path d="M204.5 61.6501C204.5 62.1485 204.352 62.6358 204.075 63.0502C203.798 63.4646 203.405 63.7876 202.944 63.9783C202.484 64.169 201.977 64.2189 201.488 64.1217C201 64.0245 200.55 63.7845 200.198 63.432C199.846 63.0796 199.606 62.6306 199.508 62.1418C199.411 61.6529 199.461 61.1462 199.652 60.6858C199.843 60.2253 200.166 59.8317 200.58 59.5548C200.994 59.2779 201.482 59.1301 201.98 59.1301C202.311 59.1301 202.639 59.1953 202.944 59.322C203.25 59.4486 203.528 59.6342 203.762 59.8682C203.996 60.1022 204.182 60.38 204.308 60.6858C204.435 60.9915 204.5 61.3192 204.5 61.6501Z" fill="#00042D" stroke="#263238" stroke-linecap="round" stroke-linejoin="round"/>
<path d="M237.43 61.6501C237.43 61.9626 237.337 62.268 237.164 62.5279C236.99 62.7877 236.743 62.9902 236.455 63.1098C236.166 63.2294 235.848 63.2607 235.542 63.1997C235.235 63.1387 234.954 62.9883 234.733 62.7673C234.512 62.5463 234.361 62.2648 234.3 61.9583C234.239 61.6518 234.271 61.3341 234.39 61.0454C234.51 60.7567 234.712 60.51 234.972 60.3363C235.232 60.1627 235.538 60.0701 235.85 60.0701C236.269 60.0701 236.671 60.2365 236.967 60.5328C237.264 60.8291 237.43 61.231 237.43 61.6501Z" fill="#00042D" stroke="#263238" stroke-linecap="round" stroke-linejoin="round"/>
<path d="M228.62 60.76H209.44C209.032 60.76 208.7 61.0913 208.7 61.5V61.8C208.7 62.2087 209.032 62.54 209.44 62.54H228.62C229.029 62.54 229.36 62.2087 229.36 61.8V61.5C229.36 61.0913 229.029 60.76 228.62 60.76Z" fill="#00042D" stroke="#263238" stroke-linecap="round" stroke-linejoin="round"/>
<path opacity="0.4" d="M303.46 64.75V393.81C303.46 394.609 303.303 395.401 302.996 396.139C302.69 396.877 302.242 397.548 301.676 398.113C301.11 398.677 300.439 399.125 299.7 399.43C298.961 399.735 298.169 399.891 297.37 399.89H139.52C137.907 399.89 136.359 399.25 135.217 398.11C134.076 396.97 133.433 395.423 133.43 393.81V64.75C133.43 63.1348 134.072 61.5858 135.214 60.4437C136.356 59.3016 137.905 58.66 139.52 58.66H171.93C172.98 58.6532 174.006 58.9702 174.868 59.568C175.731 60.1657 176.388 61.015 176.75 62L178.13 65.7C178.495 66.6756 179.149 67.5165 180.005 68.1098C180.862 68.7032 181.879 69.0208 182.92 69.02H254.06C255.1 69.0187 256.115 68.7002 256.969 68.107C257.823 67.5138 258.476 66.674 258.84 65.7L260.22 62C260.583 61.0225 261.237 60.1796 262.093 59.5843C262.95 58.989 263.967 58.67 265.01 58.67H297.41C299.017 58.6806 300.554 59.3255 301.687 60.4643C302.82 61.6031 303.458 63.1435 303.46 64.75Z" fill="#00042D"/>
<path d="M303.47 374.64V393.81C303.467 395.424 302.824 396.97 301.683 398.11C300.541 399.25 298.993 399.89 297.38 399.89H139.52C137.907 399.89 136.361 399.25 135.221 398.109C134.081 396.969 133.44 395.423 133.44 393.81V374.64H303.47Z" fill="#00042D"/>
<path d="M303.47 64.7502V79.8801H133.47V64.7502C133.47 63.1367 134.11 61.5892 135.25 60.4474C136.39 59.3056 137.937 58.6628 139.55 58.6602H171.96C173.004 58.6609 174.023 58.9814 174.879 59.5785C175.736 60.1757 176.389 61.0208 176.75 62.0002L178.12 65.7001C178.485 66.6758 179.139 67.5166 179.995 68.11C180.852 68.7033 181.869 69.0209 182.91 69.0201H254.05C255.091 69.0181 256.107 68.6994 256.962 68.1064C257.818 67.5134 258.473 66.6742 258.84 65.7001L260.21 62.0002C260.571 61.021 261.224 60.1765 262.081 59.5808C262.938 58.9852 263.957 58.6673 265 58.6702H297.41C299.018 58.6781 300.558 59.3218 301.694 60.4609C302.829 61.6 303.468 63.1419 303.47 64.7502Z" fill="#00042D"/>
<path d="M303.46 64.7001V393.76C303.46 395.375 302.819 396.924 301.676 398.066C300.534 399.209 298.985 399.85 297.37 399.85H139.52C137.905 399.85 136.356 399.209 135.214 398.066C134.072 396.924 133.43 395.375 133.43 393.76V64.7001C133.433 63.0867 134.076 61.5402 135.217 60.4003C136.359 59.2604 137.907 58.6201 139.52 58.6201H171.93C172.971 58.6186 173.987 58.936 174.841 59.5296C175.696 60.1232 176.348 60.9645 176.71 61.9401L178.09 65.6401C178.454 66.6166 179.108 67.4582 179.964 68.0517C180.821 68.6453 181.838 68.9623 182.88 68.9601H254.02C255.061 68.9617 256.077 68.6443 256.931 68.0507C257.786 67.4571 258.438 66.6158 258.8 65.6401L260.18 61.9401C260.545 60.9645 261.199 60.1237 262.055 59.5303C262.912 58.9369 263.929 58.6194 264.97 58.6201H297.37C298.169 58.6188 298.961 58.7751 299.7 59.0801C300.439 59.385 301.11 59.8327 301.676 60.3974C302.242 60.9621 302.69 61.6328 302.996 62.3711C303.303 63.1094 303.46 63.9008 303.46 64.7001V64.7001Z" stroke="#263238" stroke-linecap="round" stroke-linejoin="round"/>
<path d="M264.326 230.754C289.663 205.417 289.663 164.337 264.326 139C238.988 113.662 197.909 113.662 172.571 139C147.234 164.337 147.234 205.417 172.571 230.754C197.909 256.091 238.988 256.091 264.326 230.754Z" fill="#00042D"/>
<path d="M250.82 176.04H186.07V178.75H250.82V176.04Z" fill="#757575" stroke="#263238" stroke-linecap="round" stroke-linejoin="round"/>
<path d="M224.38 212.97H212.51V236.74H224.38V212.97Z" fill="#757575"/>
<path opacity="0.3" d="M224.38 213V225.17C220.33 224.264 216.36 223.03 212.51 221.48V213H224.38Z" fill="black" fill-opacity="0.7"/>
<path d="M224.38 212.97H212.51V236.74H224.38V212.97Z" stroke="#263238" stroke-linecap="round" stroke-linejoin="round"/>
<path d="M241.59 150.27V187.75C241.59 190.104 241.126 192.435 240.225 194.61C239.324 196.785 238.003 198.761 236.338 200.425C234.673 202.089 232.696 203.409 230.521 204.309C228.345 205.209 226.014 205.671 223.66 205.67H213.22C208.467 205.67 203.909 203.782 200.548 200.421C197.188 197.061 195.3 192.503 195.3 187.75V150.27C195.3 145.517 197.188 140.959 200.548 137.599C203.909 134.238 208.467 132.35 213.22 132.35H223.66C226.014 132.349 228.345 132.811 230.521 133.711C232.696 134.611 234.673 135.931 236.338 137.595C238.003 139.259 239.324 141.235 240.225 143.41C241.126 145.585 241.59 147.916 241.59 150.27Z" fill="#BFBFBF" stroke="#263238" stroke-linecap="round" stroke-linejoin="round"/>
<path d="M252.12 174.59V186C252.12 189.847 251.362 193.655 249.89 197.209C248.418 200.763 246.261 203.991 243.541 206.711C240.821 209.431 237.592 211.589 234.039 213.061C230.485 214.532 226.676 215.29 222.83 215.29H214.06C210.212 215.293 206.401 214.537 202.845 213.066C199.289 211.595 196.058 209.438 193.336 206.718C190.614 203.998 188.455 200.768 186.981 197.214C185.508 193.659 184.75 189.848 184.75 186V174.6C184.75 174.358 184.798 174.119 184.89 173.896C184.983 173.673 185.118 173.47 185.289 173.299C185.46 173.128 185.663 172.993 185.886 172.9C186.109 172.808 186.348 172.76 186.59 172.76C186.832 172.76 187.071 172.808 187.294 172.9C187.517 172.993 187.72 173.128 187.891 173.299C188.062 173.47 188.197 173.673 188.29 173.896C188.382 174.119 188.43 174.358 188.43 174.6V186.17C188.43 192.846 191.082 199.248 195.802 203.968C200.522 208.688 206.925 211.34 213.6 211.34H223.25C226.555 211.34 229.828 210.689 232.882 209.424C235.936 208.159 238.711 206.305 241.048 203.968C243.385 201.631 245.239 198.856 246.504 195.802C247.769 192.748 248.42 189.475 248.42 186.17V174.59C248.42 174.102 248.614 173.634 248.959 173.289C249.304 172.944 249.772 172.75 250.26 172.75C250.503 172.747 250.745 172.793 250.97 172.884C251.196 172.976 251.401 173.111 251.574 173.282C251.747 173.453 251.884 173.657 251.978 173.881C252.072 174.106 252.12 174.347 252.12 174.59Z" fill="#999999" stroke="#263238" stroke-linecap="round" stroke-linejoin="round"/>
<path d="M241.59 178.75V187.75C241.59 190.104 241.126 192.435 240.225 194.61C239.324 196.785 238.003 198.761 236.338 200.425C234.673 202.089 232.696 203.409 230.521 204.309C228.345 205.209 226.014 205.671 223.66 205.67H213.22C208.467 205.67 203.909 203.782 200.548 200.421C197.188 197.061 195.3 192.503 195.3 187.75V178.75H241.59Z" fill="#757575" stroke="#263238" stroke-linecap="round" stroke-linejoin="round"/>
<path d="M242.58 173.6H194.31C193.454 173.6 192.76 174.294 192.76 175.15V181.28C192.76 182.136 193.454 182.83 194.31 182.83H242.58C243.436 182.83 244.13 182.136 244.13 181.28V175.15C244.13 174.294 243.436 173.6 242.58 173.6Z" fill="#999999" stroke="#263238" stroke-linecap="round" stroke-linejoin="round"/>
<path d="M236.64 239.82H200.25C200.25 239.003 200.575 238.22 201.152 237.642C201.73 237.065 202.513 236.74 203.33 236.74H233.56C233.965 236.739 234.366 236.817 234.74 236.972C235.115 237.126 235.455 237.353 235.741 237.639C236.027 237.925 236.254 238.266 236.408 238.64C236.563 239.014 236.641 239.415 236.64 239.82Z" fill="#999999" stroke="#263238" stroke-linecap="round" stroke-linejoin="round"/>
<path opacity="0.4" d="M220.15 138.71V171.3H197.1V151.54C197.1 146.947 198.925 142.541 202.173 139.293C205.421 136.045 209.827 134.22 214.42 134.22H215.67C216.859 134.223 217.999 134.697 218.839 135.539C219.678 136.381 220.15 137.521 220.15 138.71Z" fill="white"/>
<path d="M202.33 170.12C202.342 170.356 202.283 170.589 202.161 170.791C202.039 170.993 201.859 171.153 201.645 171.252C201.431 171.351 201.192 171.383 200.959 171.344C200.726 171.306 200.51 171.198 200.339 171.036C200.168 170.873 200.05 170.664 199.999 170.433C199.949 170.203 199.968 169.963 200.055 169.743C200.143 169.524 200.294 169.336 200.489 169.204C200.684 169.071 200.914 169 201.15 169C201.453 169 201.744 169.116 201.964 169.324C202.184 169.533 202.315 169.818 202.33 170.12Z" fill="#263238"/>
<path d="M206.92 171.3C207.572 171.3 208.1 170.772 208.1 170.12C208.1 169.468 207.572 168.94 206.92 168.94C206.269 168.94 205.74 169.468 205.74 170.12C205.74 170.772 206.269 171.3 206.92 171.3Z" fill="#263238"/>
<path d="M212.68 171.3C213.332 171.3 213.86 170.772 213.86 170.12C213.86 169.468 213.332 168.94 212.68 168.94C212.028 168.94 211.5 169.468 211.5 170.12C211.5 170.772 212.028 171.3 212.68 171.3Z" fill="#263238"/>
<path d="M218.45 171.3C219.102 171.3 219.63 170.772 219.63 170.12C219.63 169.468 219.102 168.94 218.45 168.94C217.798 168.94 217.27 169.468 217.27 170.12C217.27 170.772 217.798 171.3 218.45 171.3Z" fill="#263238"/>
<path d="M224.21 171.3C224.862 171.3 225.39 170.772 225.39 170.12C225.39 169.468 224.862 168.94 224.21 168.94C223.559 168.94 223.03 169.468 223.03 170.12C223.03 170.772 223.559 171.3 224.21 171.3Z" fill="#263238"/>
<path d="M231.15 170.12C231.152 170.354 231.084 170.584 230.955 170.779C230.826 170.975 230.642 171.128 230.426 171.218C230.21 171.309 229.972 171.333 229.742 171.288C229.512 171.243 229.301 171.13 229.136 170.964C228.97 170.799 228.857 170.588 228.812 170.358C228.767 170.128 228.791 169.89 228.882 169.674C228.972 169.458 229.125 169.274 229.321 169.145C229.516 169.016 229.746 168.948 229.98 168.95C230.29 168.95 230.588 169.073 230.807 169.293C231.027 169.512 231.15 169.81 231.15 170.12Z" fill="#263238"/>
<path d="M235.74 171.3C236.392 171.3 236.92 170.772 236.92 170.12C236.92 169.468 236.392 168.94 235.74 168.94C235.088 168.94 234.56 169.468 234.56 170.12C234.56 170.772 235.088 171.3 235.74 171.3Z" fill="#263238"/>
<path d="M198.27 167.16C198.922 167.16 199.45 166.632 199.45 165.98C199.45 165.328 198.922 164.8 198.27 164.8C197.618 164.8 197.09 165.328 197.09 165.98C197.09 166.632 197.618 167.16 198.27 167.16Z" fill="#263238"/>
<path d="M204.04 167.16C204.692 167.16 205.22 166.632 205.22 165.98C205.22 165.328 204.692 164.8 204.04 164.8C203.388 164.8 202.86 165.328 202.86 165.98C202.86 166.632 203.388 167.16 204.04 167.16Z" fill="#263238"/>
<path d="M210.98 166C210.98 166.233 210.911 166.462 210.781 166.656C210.652 166.85 210.467 167.001 210.252 167.09C210.036 167.18 209.799 167.203 209.57 167.157C209.341 167.112 209.131 167 208.966 166.834C208.801 166.669 208.688 166.459 208.643 166.23C208.597 166.001 208.621 165.764 208.71 165.549C208.799 165.333 208.95 165.149 209.145 165.019C209.339 164.889 209.567 164.82 209.8 164.82C209.955 164.819 210.109 164.848 210.253 164.907C210.397 164.966 210.528 165.053 210.637 165.163C210.747 165.273 210.834 165.403 210.893 165.547C210.952 165.691 210.981 165.845 210.98 166Z" fill="#263238"/>
<path d="M215.56 167.16C216.212 167.16 216.74 166.632 216.74 165.98C216.74 165.328 216.212 164.8 215.56 164.8C214.908 164.8 214.38 165.328 214.38 165.98C214.38 166.632 214.908 167.16 215.56 167.16Z" fill="#263238"/>
<path d="M222.5 166C222.473 166.293 222.337 166.565 222.12 166.764C221.903 166.962 221.619 167.072 221.325 167.072C221.031 167.072 220.747 166.962 220.53 166.764C220.313 166.565 220.177 166.293 220.15 166C220.135 165.837 220.154 165.672 220.206 165.516C220.258 165.361 220.343 165.218 220.453 165.097C220.564 164.975 220.698 164.878 220.848 164.812C220.999 164.746 221.161 164.712 221.325 164.712C221.489 164.712 221.651 164.746 221.802 164.812C221.952 164.878 222.086 164.975 222.197 165.097C222.308 165.218 222.392 165.361 222.444 165.516C222.496 165.672 222.515 165.837 222.5 166Z" fill="#263238"/>
<path d="M227.09 167.16C227.742 167.16 228.27 166.632 228.27 165.98C228.27 165.328 227.742 164.8 227.09 164.8C226.438 164.8 225.91 165.328 225.91 165.98C225.91 166.632 226.438 167.16 227.09 167.16Z" fill="#263238"/>
<path d="M232.86 167.16C233.512 167.16 234.04 166.632 234.04 165.98C234.04 165.328 233.512 164.8 232.86 164.8C232.208 164.8 231.68 165.328 231.68 165.98C231.68 166.632 232.208 167.16 232.86 167.16Z" fill="#263238"/>
<path d="M239.8 166C239.8 166.233 239.731 166.462 239.601 166.656C239.471 166.85 239.287 167.001 239.072 167.09C238.856 167.18 238.619 167.203 238.39 167.157C238.161 167.112 237.951 167 237.786 166.834C237.621 166.669 237.508 166.459 237.463 166.23C237.417 166.001 237.44 165.764 237.53 165.549C237.619 165.333 237.77 165.149 237.964 165.019C238.158 164.889 238.387 164.82 238.62 164.82C238.775 164.819 238.929 164.848 239.073 164.907C239.217 164.966 239.347 165.053 239.457 165.163C239.567 165.273 239.654 165.403 239.713 165.547C239.772 165.691 239.801 165.845 239.8 166Z" fill="#263238"/>
<path d="M202.33 161.83C202.345 161.993 202.326 162.158 202.274 162.314C202.222 162.469 202.138 162.612 202.027 162.734C201.916 162.855 201.782 162.952 201.632 163.018C201.482 163.084 201.319 163.119 201.155 163.119C200.991 163.119 200.829 163.084 200.679 163.018C200.528 162.952 200.394 162.855 200.283 162.734C200.173 162.612 200.089 162.469 200.036 162.314C199.984 162.158 199.965 161.993 199.98 161.83C200.007 161.537 200.143 161.265 200.36 161.067C200.577 160.868 200.861 160.759 201.155 160.759C201.449 160.759 201.733 160.868 201.95 161.067C202.168 161.265 202.303 161.537 202.33 161.83Z" fill="#263238"/>
<path d="M206.92 163.01C207.572 163.01 208.1 162.482 208.1 161.83C208.1 161.178 207.572 160.65 206.92 160.65C206.269 160.65 205.74 161.178 205.74 161.83C205.74 162.482 206.269 163.01 206.92 163.01Z" fill="#263238"/>
<path d="M212.68 163.01C213.332 163.01 213.86 162.482 213.86 161.83C213.86 161.178 213.332 160.65 212.68 160.65C212.028 160.65 211.5 161.178 211.5 161.83C211.5 162.482 212.028 163.01 212.68 163.01Z" fill="#263238"/>
<path d="M218.45 163.01C219.102 163.01 219.63 162.482 219.63 161.83C219.63 161.178 219.102 160.65 218.45 160.65C217.798 160.65 217.27 161.178 217.27 161.83C217.27 162.482 217.798 163.01 218.45 163.01Z" fill="#263238"/>
<path d="M224.21 163.01C224.862 163.01 225.39 162.482 225.39 161.83C225.39 161.178 224.862 160.65 224.21 160.65C223.559 160.65 223.03 161.178 223.03 161.83C223.03 162.482 223.559 163.01 224.21 163.01Z" fill="#263238"/>
<path d="M231.15 161.83C231.152 162.064 231.084 162.294 230.955 162.489C230.826 162.685 230.642 162.838 230.426 162.928C230.21 163.019 229.972 163.043 229.742 162.998C229.512 162.953 229.301 162.84 229.136 162.675C228.97 162.509 228.857 162.298 228.812 162.068C228.767 161.838 228.791 161.6 228.882 161.384C228.972 161.168 229.125 160.984 229.321 160.855C229.516 160.726 229.746 160.658 229.98 160.66C230.29 160.66 230.588 160.783 230.807 161.003C231.027 161.222 231.15 161.52 231.15 161.83Z" fill="#263238"/>
<path d="M235.74 163.01C236.392 163.01 236.92 162.482 236.92 161.83C236.92 161.178 236.392 160.65 235.74 160.65C235.088 160.65 234.56 161.178 234.56 161.83C234.56 162.482 235.088 163.01 235.74 163.01Z" fill="#263238"/>
<path d="M198.27 158.87C198.922 158.87 199.45 158.342 199.45 157.69C199.45 157.038 198.922 156.51 198.27 156.51C197.618 156.51 197.09 157.038 197.09 157.69C197.09 158.342 197.618 158.87 198.27 158.87Z" fill="#263238"/>
<path d="M204.04 158.87C204.692 158.87 205.22 158.342 205.22 157.69C205.22 157.038 204.692 156.51 204.04 156.51C203.388 156.51 202.86 157.038 202.86 157.69C202.86 158.342 203.388 158.87 204.04 158.87Z" fill="#263238"/>
<path d="M210.98 157.69C210.98 157.923 210.911 158.152 210.781 158.346C210.652 158.54 210.467 158.691 210.252 158.78C210.036 158.87 209.799 158.893 209.57 158.847C209.341 158.802 209.131 158.689 208.966 158.524C208.801 158.359 208.688 158.149 208.643 157.92C208.597 157.691 208.621 157.454 208.71 157.238C208.799 157.023 208.95 156.839 209.145 156.709C209.339 156.579 209.567 156.51 209.8 156.51C209.955 156.509 210.109 156.538 210.253 156.597C210.397 156.656 210.528 156.743 210.637 156.853C210.747 156.963 210.834 157.093 210.893 157.237C210.952 157.381 210.981 157.535 210.98 157.69Z" fill="#263238"/>
<path d="M215.56 158.87C216.212 158.87 216.74 158.342 216.74 157.69C216.74 157.038 216.212 156.51 215.56 156.51C214.908 156.51 214.38 157.038 214.38 157.69C214.38 158.342 214.908 158.87 215.56 158.87Z" fill="#263238"/>
<path d="M222.5 157.69C222.473 157.983 222.337 158.255 222.12 158.454C221.903 158.652 221.619 158.762 221.325 158.762C221.031 158.762 220.747 158.652 220.53 158.454C220.313 158.255 220.177 157.983 220.15 157.69C220.135 157.527 220.154 157.362 220.206 157.206C220.258 157.051 220.343 156.908 220.453 156.787C220.564 156.665 220.698 156.568 220.848 156.502C220.999 156.436 221.161 156.402 221.325 156.402C221.489 156.402 221.651 156.436 221.802 156.502C221.952 156.568 222.086 156.665 222.197 156.787C222.308 156.908 222.392 157.051 222.444 157.206C222.496 157.362 222.515 157.527 222.5 157.69Z" fill="#263238"/>
<path d="M227.09 158.87C227.742 158.87 228.27 158.342 228.27 157.69C228.27 157.038 227.742 156.51 227.09 156.51C226.438 156.51 225.91 157.038 225.91 157.69C225.91 158.342 226.438 158.87 227.09 158.87Z" fill="#263238"/>
<path d="M232.86 158.87C233.512 158.87 234.04 158.342 234.04 157.69C234.04 157.038 233.512 156.51 232.86 156.51C232.208 156.51 231.68 157.038 231.68 157.69C231.68 158.342 232.208 158.87 232.86 158.87Z" fill="#263238"/>
<path d="M239.8 157.69C239.8 157.923 239.731 158.152 239.601 158.346C239.471 158.54 239.287 158.691 239.072 158.78C238.856 158.87 238.619 158.893 238.39 158.847C238.161 158.802 237.951 158.689 237.786 158.524C237.621 158.359 237.508 158.149 237.463 157.92C237.417 157.691 237.44 157.454 237.53 157.238C237.619 157.023 237.77 156.839 237.964 156.709C238.158 156.579 238.387 156.51 238.62 156.51C238.775 156.509 238.929 156.538 239.073 156.597C239.217 156.656 239.347 156.743 239.457 156.853C239.567 156.963 239.654 157.093 239.713 157.237C239.772 157.381 239.801 157.535 239.8 157.69Z" fill="#263238"/>
<path d="M202.33 153.54C202.345 153.703 202.326 153.868 202.274 154.024C202.222 154.179 202.138 154.322 202.027 154.444C201.916 154.565 201.782 154.662 201.632 154.728C201.482 154.794 201.319 154.829 201.155 154.829C200.991 154.829 200.829 154.794 200.679 154.728C200.528 154.662 200.394 154.565 200.283 154.444C200.173 154.322 200.089 154.179 200.036 154.024C199.984 153.868 199.965 153.703 199.98 153.54C200.007 153.247 200.143 152.975 200.36 152.777C200.577 152.578 200.861 152.469 201.155 152.469C201.449 152.469 201.733 152.578 201.95 152.777C202.168 152.975 202.303 153.247 202.33 153.54Z" fill="#263238"/>
<path d="M206.92 154.72C207.572 154.72 208.1 154.192 208.1 153.54C208.1 152.888 207.572 152.36 206.92 152.36C206.269 152.36 205.74 152.888 205.74 153.54C205.74 154.192 206.269 154.72 206.92 154.72Z" fill="#263238"/>
<path d="M212.68 154.72C213.332 154.72 213.86 154.192 213.86 153.54C213.86 152.888 213.332 152.36 212.68 152.36C212.028 152.36 211.5 152.888 211.5 153.54C211.5 154.192 212.028 154.72 212.68 154.72Z" fill="#263238"/>
<path d="M218.45 154.72C219.102 154.72 219.63 154.192 219.63 153.54C219.63 152.888 219.102 152.36 218.45 152.36C217.798 152.36 217.27 152.888 217.27 153.54C217.27 154.192 217.798 154.72 218.45 154.72Z" fill="#263238"/>
<path d="M224.21 154.72C224.862 154.72 225.39 154.192 225.39 153.54C225.39 152.888 224.862 152.36 224.21 152.36C223.559 152.36 223.03 152.888 223.03 153.54C223.03 154.192 223.559 154.72 224.21 154.72Z" fill="#263238"/>
<path d="M231.15 153.54C231.152 153.774 231.084 154.004 230.955 154.199C230.826 154.395 230.642 154.548 230.426 154.638C230.21 154.729 229.972 154.753 229.742 154.708C229.512 154.663 229.301 154.55 229.136 154.385C228.97 154.219 228.857 154.008 228.812 153.778C228.767 153.548 228.791 153.31 228.882 153.094C228.972 152.878 229.125 152.694 229.321 152.565C229.516 152.436 229.746 152.368 229.98 152.37C230.29 152.37 230.588 152.493 230.807 152.713C231.027 152.932 231.15 153.23 231.15 153.54Z" fill="#263238"/>
<path d="M235.74 154.72C236.392 154.72 236.92 154.192 236.92 153.54C236.92 152.888 236.392 152.36 235.74 152.36C235.088 152.36 234.56 152.888 234.56 153.54C234.56 154.192 235.088 154.72 235.74 154.72Z" fill="#263238"/>
<path d="M198.27 150.58C198.922 150.58 199.45 150.052 199.45 149.4C199.45 148.749 198.922 148.22 198.27 148.22C197.618 148.22 197.09 148.749 197.09 149.4C197.09 150.052 197.618 150.58 198.27 150.58Z" fill="#263238"/>
<path d="M204.04 150.58C204.692 150.58 205.22 150.052 205.22 149.4C205.22 148.749 204.692 148.22 204.04 148.22C203.388 148.22 202.86 148.749 202.86 149.4C202.86 150.052 203.388 150.58 204.04 150.58Z" fill="#263238"/>
<path d="M210.98 149.4C210.98 149.633 210.911 149.862 210.781 150.056C210.652 150.25 210.467 150.401 210.252 150.49C210.036 150.579 209.799 150.603 209.57 150.557C209.341 150.512 209.131 150.399 208.966 150.234C208.801 150.069 208.688 149.859 208.643 149.63C208.597 149.401 208.621 149.164 208.71 148.948C208.799 148.733 208.95 148.549 209.145 148.419C209.339 148.289 209.567 148.22 209.8 148.22C209.955 148.219 210.109 148.248 210.253 148.307C210.397 148.366 210.528 148.453 210.637 148.563C210.747 148.672 210.834 148.803 210.893 148.947C210.952 149.091 210.981 149.245 210.98 149.4Z" fill="#263238"/>
<path d="M215.56 150.58C216.212 150.58 216.74 150.052 216.74 149.4C216.74 148.749 216.212 148.22 215.56 148.22C214.908 148.22 214.38 148.749 214.38 149.4C214.38 150.052 214.908 150.58 215.56 150.58Z" fill="#263238"/>
<path d="M222.5 149.4C222.473 149.693 222.337 149.965 222.12 150.163C221.903 150.362 221.619 150.472 221.325 150.472C221.031 150.472 220.747 150.362 220.53 150.163C220.313 149.965 220.177 149.693 220.15 149.4C220.135 149.237 220.154 149.072 220.206 148.916C220.258 148.761 220.343 148.618 220.453 148.496C220.564 148.375 220.698 148.278 220.848 148.212C220.999 148.146 221.161 148.112 221.325 148.112C221.489 148.112 221.651 148.146 221.802 148.212C221.952 148.278 222.086 148.375 222.197 148.496C222.308 148.618 222.392 148.761 222.444 148.916C222.496 149.072 222.515 149.237 222.5 149.4Z" fill="#263238"/>
<path d="M227.09 150.58C227.742 150.58 228.27 150.052 228.27 149.4C228.27 148.749 227.742 148.22 227.09 148.22C226.438 148.22 225.91 148.749 225.91 149.4C225.91 150.052 226.438 150.58 227.09 150.58Z" fill="#263238"/>
<path d="M232.86 150.58C233.512 150.58 234.04 150.052 234.04 149.4C234.04 148.749 233.512 148.22 232.86 148.22C232.208 148.22 231.68 148.749 231.68 149.4C231.68 150.052 232.208 150.58 232.86 150.58Z" fill="#263238"/>
<path d="M239.8 149.4C239.8 149.633 239.731 149.862 239.601 150.056C239.471 150.25 239.287 150.401 239.072 150.49C238.856 150.579 238.619 150.603 238.39 150.557C238.161 150.512 237.951 150.399 237.786 150.234C237.621 150.069 237.508 149.859 237.463 149.63C237.417 149.401 237.44 149.164 237.53 148.948C237.619 148.733 237.77 148.549 237.964 148.419C238.158 148.289 238.387 148.22 238.62 148.22C238.775 148.219 238.929 148.248 239.073 148.307C239.217 148.366 239.347 148.453 239.457 148.563C239.567 148.672 239.654 148.803 239.713 148.947C239.772 149.091 239.801 149.245 239.8 149.4Z" fill="#263238"/>
<path d="M202.33 145.25C202.345 145.414 202.326 145.578 202.274 145.734C202.222 145.89 202.138 146.033 202.027 146.154C201.916 146.275 201.782 146.372 201.632 146.438C201.482 146.504 201.319 146.539 201.155 146.539C200.991 146.539 200.829 146.504 200.679 146.438C200.528 146.372 200.394 146.275 200.283 146.154C200.173 146.033 200.089 145.89 200.036 145.734C199.984 145.578 199.965 145.414 199.98 145.25C200.007 144.957 200.143 144.685 200.36 144.487C200.577 144.289 200.861 144.179 201.155 144.179C201.449 144.179 201.733 144.289 201.95 144.487C202.168 144.685 202.303 144.957 202.33 145.25Z" fill="#263238"/>
<path d="M206.92 146.43C207.572 146.43 208.1 145.902 208.1 145.25C208.1 144.598 207.572 144.07 206.92 144.07C206.269 144.07 205.74 144.598 205.74 145.25C205.74 145.902 206.269 146.43 206.92 146.43Z" fill="#263238"/>
<path d="M212.68 146.43C213.332 146.43 213.86 145.902 213.86 145.25C213.86 144.598 213.332 144.07 212.68 144.07C212.028 144.07 211.5 144.598 211.5 145.25C211.5 145.902 212.028 146.43 212.68 146.43Z" fill="#263238"/>
<path d="M218.45 146.43C219.102 146.43 219.63 145.902 219.63 145.25C219.63 144.598 219.102 144.07 218.45 144.07C217.798 144.07 217.27 144.598 217.27 145.25C217.27 145.902 217.798 146.43 218.45 146.43Z" fill="#263238"/>
<path d="M224.21 146.43C224.862 146.43 225.39 145.902 225.39 145.25C225.39 144.598 224.862 144.07 224.21 144.07C223.559 144.07 223.03 144.598 223.03 145.25C223.03 145.902 223.559 146.43 224.21 146.43Z" fill="#263238"/>
<path d="M231.15 145.25C231.152 145.484 231.084 145.714 230.955 145.909C230.826 146.105 230.642 146.258 230.426 146.348C230.21 146.439 229.972 146.463 229.742 146.418C229.512 146.373 229.301 146.26 229.136 146.094C228.97 145.929 228.857 145.718 228.812 145.488C228.767 145.258 228.791 145.02 228.882 144.804C228.972 144.588 229.125 144.404 229.321 144.275C229.516 144.146 229.746 144.078 229.98 144.08C230.29 144.08 230.588 144.203 230.807 144.423C231.027 144.642 231.15 144.94 231.15 145.25Z" fill="#263238"/>
<path d="M235.74 146.43C236.392 146.43 236.92 145.902 236.92 145.25C236.92 144.598 236.392 144.07 235.74 144.07C235.088 144.07 234.56 144.598 234.56 145.25C234.56 145.902 235.088 146.43 235.74 146.43Z" fill="#263238"/>
<path d="M204.04 142.29C204.692 142.29 205.22 141.762 205.22 141.11C205.22 140.458 204.692 139.93 204.04 139.93C203.388 139.93 202.86 140.458 202.86 141.11C202.86 141.762 203.388 142.29 204.04 142.29Z" fill="#263238"/>
<path d="M210.98 141.11C210.98 141.344 210.911 141.572 210.781 141.766C210.652 141.96 210.467 142.111 210.252 142.2C210.036 142.29 209.799 142.313 209.57 142.268C209.341 142.222 209.131 142.11 208.966 141.945C208.801 141.78 208.688 141.569 208.643 141.34C208.597 141.112 208.621 140.874 208.71 140.659C208.799 140.443 208.95 140.259 209.145 140.129C209.339 139.999 209.567 139.93 209.8 139.93C209.955 139.929 210.109 139.959 210.253 140.017C210.397 140.076 210.528 140.163 210.637 140.273C210.747 140.383 210.834 140.513 210.893 140.657C210.952 140.801 210.981 140.955 210.98 141.11Z" fill="#263238"/>
<path d="M215.56 142.29C216.212 142.29 216.74 141.762 216.74 141.11C216.74 140.458 216.212 139.93 215.56 139.93C214.908 139.93 214.38 140.458 214.38 141.11C214.38 141.762 214.908 142.29 215.56 142.29Z" fill="#263238"/>
<path d="M222.5 141.11C222.473 141.403 222.337 141.675 222.12 141.873C221.903 142.072 221.619 142.182 221.325 142.182C221.031 142.182 220.747 142.072 220.53 141.873C220.313 141.675 220.177 141.403 220.15 141.11C220.135 140.947 220.154 140.782 220.206 140.626C220.258 140.471 220.343 140.328 220.453 140.206C220.564 140.085 220.698 139.988 220.848 139.922C220.999 139.856 221.161 139.822 221.325 139.822C221.489 139.822 221.651 139.856 221.802 139.922C221.952 139.988 222.086 140.085 222.197 140.206C222.308 140.328 222.392 140.471 222.444 140.626C222.496 140.782 222.515 140.947 222.5 141.11Z" fill="#263238"/>
<path d="M227.09 142.29C227.742 142.29 228.27 141.762 228.27 141.11C228.27 140.458 227.742 139.93 227.09 139.93C226.438 139.93 225.91 140.458 225.91 141.11C225.91 141.762 226.438 142.29 227.09 142.29Z" fill="#263238"/>
<path d="M232.86 142.29C233.512 142.29 234.04 141.762 234.04 141.11C234.04 140.458 233.512 139.93 232.86 139.93C232.208 139.93 231.68 140.458 231.68 141.11C231.68 141.762 232.208 142.29 232.86 142.29Z" fill="#263238"/>
<path d="M206.92 138.14C207.572 138.14 208.1 137.612 208.1 136.96C208.1 136.308 207.572 135.78 206.92 135.78C206.269 135.78 205.74 136.308 205.74 136.96C205.74 137.612 206.269 138.14 206.92 138.14Z" fill="#263238"/>
<path d="M212.68 138.14C213.332 138.14 213.86 137.612 213.86 136.96C213.86 136.308 213.332 135.78 212.68 135.78C212.028 135.78 211.5 136.308 211.5 136.96C211.5 137.612 212.028 138.14 212.68 138.14Z" fill="#263238"/>
<path d="M218.45 138.14C219.102 138.14 219.63 137.612 219.63 136.96C219.63 136.308 219.102 135.78 218.45 135.78C217.798 135.78 217.27 136.308 217.27 136.96C217.27 137.612 217.798 138.14 218.45 138.14Z" fill="#263238"/>
<path d="M224.21 138.14C224.862 138.14 225.39 137.612 225.39 136.96C225.39 136.308 224.862 135.78 224.21 135.78C223.559 135.78 223.03 136.308 223.03 136.96C223.03 137.612 223.559 138.14 224.21 138.14Z" fill="#263238"/>
<path d="M231.15 137C231.152 137.234 231.084 137.464 230.955 137.659C230.826 137.855 230.642 138.008 230.426 138.098C230.21 138.189 229.972 138.213 229.742 138.168C229.512 138.123 229.301 138.01 229.136 137.844C228.97 137.679 228.857 137.468 228.812 137.238C228.767 137.008 228.791 136.77 228.882 136.554C228.972 136.338 229.125 136.154 229.321 136.025C229.516 135.896 229.746 135.828 229.98 135.83C230.29 135.83 230.588 135.953 230.807 136.173C231.027 136.392 231.15 136.69 231.15 137Z" fill="#263238"/>
<path opacity="0.4" d="M223.03 175.56H194.56V180.7H223.03V175.56Z" fill="white"/>
<path opacity="0.4" d="M197.1 184.88H220.15V193.63C220.15 194.611 219.76 195.553 219.066 196.246C218.373 196.94 217.431 197.33 216.45 197.33H207.8C206.394 197.33 205.002 197.053 203.703 196.515C202.404 195.976 201.224 195.187 200.231 194.193C199.237 193.198 198.449 192.017 197.912 190.718C197.375 189.419 197.099 188.026 197.1 186.62V184.88Z" fill="white"/>
<path d="M275.85 95.6802H161.04C158.93 95.6802 157.22 97.3905 157.22 99.5002V101.02C157.22 103.13 158.93 104.84 161.04 104.84H275.85C277.96 104.84 279.67 103.13 279.67 101.02V99.5002C279.67 97.3905 277.96 95.6802 275.85 95.6802Z" fill="#00042D"/>
<path d="M211.78 269.14H147.1C144.808 269.14 142.95 270.998 142.95 273.29V302.91C142.95 305.202 144.808 307.06 147.1 307.06H211.78C214.072 307.06 215.93 305.202 215.93 302.91V273.29C215.93 270.998 214.072 269.14 211.78 269.14Z" fill="#00042D"/>
<path d="M211.78 312.24H147.1C144.808 312.24 142.95 314.098 142.95 316.39V346.01C142.95 348.302 144.808 350.16 147.1 350.16H211.78C214.072 350.16 215.93 348.302 215.93 346.01V316.39C215.93 314.098 214.072 312.24 211.78 312.24Z" fill="#00042D"/>
<path d="M289.78 269.14H225.1C222.808 269.14 220.95 270.998 220.95 273.29V302.91C220.95 305.202 222.808 307.06 225.1 307.06H289.78C292.072 307.06 293.93 305.202 293.93 302.91V273.29C293.93 270.998 292.072 269.14 289.78 269.14Z" fill="#00042D"/>
<path d="M289.78 312.24H225.1C222.808 312.24 220.95 314.098 220.95 316.39V346.01C220.95 348.302 222.808 350.16 225.1 350.16H289.78C292.072 350.16 293.93 348.302 293.93 346.01V316.39C293.93 314.098 292.072 312.24 289.78 312.24Z" fill="#00042D"/>
<path d="M193.84 280.42H174.23C173.912 280.42 173.607 280.294 173.382 280.069C173.157 279.844 173.03 279.538 173.03 279.22C173.03 278.902 173.157 278.597 173.382 278.371C173.607 278.146 173.912 278.02 174.23 278.02H193.84C194.159 278.02 194.464 278.146 194.689 278.371C194.914 278.597 195.04 278.902 195.04 279.22C195.04 279.538 194.914 279.844 194.689 280.069C194.464 280.294 194.159 280.42 193.84 280.42Z" fill="white"/>
<path d="M203.84 286.35H174.23C173.911 286.348 173.606 286.219 173.381 285.992C173.156 285.766 173.03 285.459 173.03 285.14C173.03 284.822 173.157 284.517 173.382 284.292C173.607 284.067 173.912 283.94 174.23 283.94H203.84C204.159 283.94 204.464 284.067 204.689 284.292C204.914 284.517 205.04 284.822 205.04 285.14C205.042 285.299 205.012 285.456 204.952 285.602C204.892 285.749 204.804 285.883 204.692 285.995C204.581 286.108 204.448 286.197 204.302 286.258C204.156 286.319 203.999 286.35 203.84 286.35Z" fill="white"/>
<path d="M203.84 292.27H174.23C173.912 292.27 173.607 292.144 173.382 291.919C173.157 291.694 173.03 291.388 173.03 291.07C173.03 290.752 173.157 290.447 173.382 290.222C173.607 289.997 173.912 289.87 174.23 289.87H203.84C204.159 289.87 204.464 289.997 204.689 290.222C204.914 290.447 205.04 290.752 205.04 291.07C205.04 291.388 204.914 291.694 204.689 291.919C204.464 292.144 204.159 292.27 203.84 292.27Z" fill="white"/>
<path d="M186.84 298.2H174.23C173.911 298.197 173.606 298.069 173.381 297.842C173.156 297.615 173.03 297.309 173.03 296.99C173.03 296.672 173.157 296.367 173.382 296.142C173.607 295.916 173.912 295.79 174.23 295.79H186.84C187.159 295.79 187.464 295.916 187.689 296.142C187.914 296.367 188.04 296.672 188.04 296.99C188.042 297.148 188.012 297.306 187.952 297.452C187.892 297.599 187.804 297.733 187.692 297.845C187.581 297.958 187.448 298.047 187.302 298.108C187.156 298.169 186.999 298.2 186.84 298.2Z" fill="white"/>
<path d="M193.84 323.52H174.23C173.912 323.52 173.607 323.394 173.382 323.169C173.157 322.944 173.03 322.638 173.03 322.32C173.03 322.001 173.156 321.695 173.381 321.468C173.606 321.241 173.911 321.113 174.23 321.11H193.84C193.999 321.11 194.156 321.141 194.302 321.202C194.448 321.263 194.581 321.353 194.692 321.465C194.804 321.578 194.892 321.711 194.952 321.858C195.012 322.005 195.042 322.162 195.04 322.32C195.04 322.638 194.914 322.944 194.689 323.169C194.464 323.394 194.159 323.52 193.84 323.52Z" fill="white"/>
<path d="M203.84 329.44H174.23C173.912 329.44 173.607 329.314 173.382 329.089C173.157 328.864 173.03 328.558 173.03 328.24C173.03 327.922 173.157 327.617 173.382 327.392C173.607 327.166 173.912 327.04 174.23 327.04H203.84C204.159 327.04 204.464 327.166 204.689 327.392C204.914 327.617 205.04 327.922 205.04 328.24C205.04 328.558 204.914 328.864 204.689 329.089C204.464 329.314 204.159 329.44 203.84 329.44Z" fill="white"/>
<path d="M203.84 335.37H174.23C173.912 335.37 173.607 335.244 173.382 335.018C173.157 334.793 173.03 334.488 173.03 334.17C173.03 333.851 173.156 333.545 173.381 333.318C173.606 333.091 173.911 332.963 174.23 332.96H203.84C203.999 332.96 204.156 332.991 204.302 333.052C204.448 333.113 204.581 333.202 204.692 333.315C204.804 333.427 204.892 333.561 204.952 333.708C205.012 333.854 205.042 334.012 205.04 334.17C205.04 334.488 204.914 334.793 204.689 335.018C204.464 335.244 204.159 335.37 203.84 335.37Z" fill="white"/>
<path d="M186.84 341.29H174.23C173.912 341.29 173.607 341.164 173.382 340.939C173.157 340.714 173.03 340.408 173.03 340.09C173.03 339.772 173.157 339.467 173.382 339.242C173.607 339.017 173.912 338.89 174.23 338.89H186.84C187.159 338.89 187.464 339.017 187.689 339.242C187.914 339.467 188.04 339.772 188.04 340.09C188.04 340.408 187.914 340.714 187.689 340.939C187.464 341.164 187.159 341.29 186.84 341.29Z" fill="white"/>
<path d="M273.84 280.42H254.23C253.912 280.42 253.607 280.294 253.382 280.069C253.157 279.844 253.03 279.538 253.03 279.22C253.03 278.902 253.157 278.597 253.382 278.371C253.607 278.146 253.912 278.02 254.23 278.02H273.84C274.159 278.02 274.464 278.146 274.689 278.371C274.914 278.597 275.04 278.902 275.04 279.22C275.04 279.538 274.914 279.844 274.689 280.069C274.464 280.294 274.159 280.42 273.84 280.42Z" fill="white"/>
<path d="M283.84 286.35H254.23C253.911 286.348 253.606 286.219 253.381 285.992C253.156 285.766 253.03 285.459 253.03 285.14C253.03 284.822 253.157 284.517 253.382 284.292C253.607 284.067 253.912 283.94 254.23 283.94H283.84C284.159 283.94 284.464 284.067 284.689 284.292C284.914 284.517 285.04 284.822 285.04 285.14C285.042 285.299 285.012 285.456 284.952 285.602C284.892 285.749 284.804 285.883 284.692 285.995C284.581 286.108 284.448 286.197 284.302 286.258C284.156 286.319 283.999 286.35 283.84 286.35Z" fill="white"/>
<path d="M283.84 292.27H254.23C253.912 292.27 253.607 292.144 253.382 291.919C253.157 291.694 253.03 291.388 253.03 291.07C253.03 290.752 253.157 290.447 253.382 290.222C253.607 289.997 253.912 289.87 254.23 289.87H283.84C284.159 289.87 284.464 289.997 284.689 290.222C284.914 290.447 285.04 290.752 285.04 291.07C285.04 291.228 285.009 291.384 284.949 291.529C284.889 291.675 284.8 291.807 284.689 291.919C284.577 292.03 284.445 292.118 284.299 292.179C284.154 292.239 283.998 292.27 283.84 292.27Z" fill="white"/>
<path d="M266.84 298.2H254.23C253.911 298.197 253.606 298.069 253.381 297.842C253.156 297.615 253.03 297.309 253.03 296.99C253.03 296.672 253.157 296.367 253.382 296.142C253.607 295.916 253.912 295.79 254.23 295.79H266.84C267.159 295.79 267.464 295.916 267.689 296.142C267.914 296.367 268.04 296.672 268.04 296.99C268.042 297.148 268.012 297.306 267.952 297.452C267.892 297.599 267.804 297.733 267.692 297.845C267.581 297.958 267.448 298.047 267.302 298.108C267.156 298.169 266.999 298.2 266.84 298.2Z" fill="white"/>
<path d="M273.84 323.52H254.23C253.912 323.52 253.607 323.394 253.382 323.169C253.157 322.944 253.03 322.638 253.03 322.32C253.03 322.001 253.156 321.695 253.381 321.468C253.606 321.241 253.911 321.113 254.23 321.11H273.84C273.999 321.11 274.156 321.141 274.302 321.202C274.448 321.263 274.581 321.353 274.692 321.465C274.804 321.578 274.892 321.711 274.952 321.858C275.012 322.005 275.042 322.162 275.04 322.32C275.04 322.638 274.914 322.944 274.689 323.169C274.464 323.394 274.159 323.52 273.84 323.52Z" fill="white"/>
<path d="M283.84 329.44H254.23C253.912 329.44 253.607 329.314 253.382 329.089C253.157 328.864 253.03 328.558 253.03 328.24C253.03 327.922 253.157 327.617 253.382 327.392C253.607 327.166 253.912 327.04 254.23 327.04H283.84C284.159 327.04 284.464 327.166 284.689 327.392C284.914 327.617 285.04 327.922 285.04 328.24C285.04 328.398 285.009 328.554 284.949 328.699C284.889 328.845 284.8 328.977 284.689 329.089C284.577 329.2 284.445 329.288 284.299 329.349C284.154 329.409 283.998 329.44 283.84 329.44Z" fill="white"/>
<path d="M283.84 335.37H254.23C253.912 335.37 253.607 335.244 253.382 335.018C253.157 334.793 253.03 334.488 253.03 334.17C253.03 333.851 253.156 333.545 253.381 333.318C253.606 333.091 253.911 332.963 254.23 332.96H283.84C283.999 332.96 284.156 332.991 284.302 333.052C284.448 333.113 284.581 333.202 284.692 333.315C284.804 333.427 284.892 333.561 284.952 333.708C285.012 333.854 285.042 334.012 285.04 334.17C285.04 334.328 285.009 334.484 284.949 334.629C284.889 334.775 284.8 334.907 284.689 335.018C284.577 335.13 284.445 335.218 284.299 335.279C284.154 335.339 283.998 335.37 283.84 335.37Z" fill="white"/>
<path d="M266.84 341.29H254.23C253.912 341.29 253.607 341.164 253.382 340.939C253.157 340.714 253.03 340.408 253.03 340.09C253.03 339.772 253.157 339.467 253.382 339.242C253.607 339.017 253.912 338.89 254.23 338.89H266.84C267.159 338.89 267.464 339.017 267.689 339.242C267.914 339.467 268.04 339.772 268.04 340.09C268.04 340.248 268.009 340.404 267.949 340.549C267.889 340.695 267.8 340.827 267.689 340.939C267.577 341.05 267.445 341.138 267.299 341.199C267.154 341.259 266.998 341.29 266.84 341.29Z" fill="white"/>
<path d="M165.786 287.767C167.421 283.8 165.529 279.258 161.562 277.623C157.594 275.989 153.052 277.88 151.418 281.848C149.783 285.816 151.675 290.357 155.642 291.992C159.61 293.626 164.152 291.735 165.786 287.767Z" fill="white" stroke="#263238" stroke-linecap="round" stroke-linejoin="round"/>
<path d="M158.6 299.2C160.434 299.2 161.92 297.714 161.92 295.88C161.92 294.046 160.434 292.56 158.6 292.56C156.767 292.56 155.28 294.046 155.28 295.88C155.28 297.714 156.767 299.2 158.6 299.2Z" fill="#263238"/>
<path d="M153.98 291H163.21V294.39C163.21 294.952 162.987 295.491 162.589 295.889C162.192 296.287 161.652 296.51 161.09 296.51H156.09C155.528 296.51 154.989 296.287 154.591 295.889C154.194 295.491 153.97 294.952 153.97 294.39V291H153.98Z" fill="white" stroke="#263238" stroke-linecap="round" stroke-linejoin="round"/>
<path d="M161.27 291.05L162.77 286.11H160.63L159.99 284.55L158.61 287.45L157.22 284.55L156.57 286.11H154.43L155.94 291.05" stroke="#263238" stroke-linecap="round" stroke-linejoin="round"/>
<path d="M237.44 297.72C235.012 297.045 232.873 295.593 231.349 293.586C229.825 291.58 229 289.13 229 286.61V280.85L237.44 278.5L245.87 280.85V286.61C245.871 289.128 245.047 291.578 243.525 293.584C242.003 295.59 239.866 297.043 237.44 297.72Z" fill="white" stroke="#263238" stroke-linecap="round" stroke-linejoin="round"/>
<path d="M237.44 295.45C235.609 294.805 234.024 293.609 232.901 292.026C231.778 290.443 231.173 288.551 231.17 286.61V282.49L237.44 280.74L243.71 282.49V286.61C243.706 288.551 243.102 290.443 241.979 292.026C240.856 293.609 239.27 294.805 237.44 295.45Z" fill="white" stroke="#263238" stroke-linecap="round" stroke-linejoin="round"/>
<path d="M238.75 286.18C238.75 285.942 238.686 285.708 238.565 285.502C238.443 285.297 238.268 285.129 238.058 285.016C237.848 284.902 237.611 284.848 237.373 284.858C237.135 284.868 236.904 284.943 236.705 285.074C236.505 285.205 236.345 285.388 236.241 285.602C236.138 285.817 236.094 286.056 236.115 286.293C236.136 286.531 236.221 286.758 236.361 286.952C236.501 287.145 236.691 287.296 236.91 287.39L236.7 289.63H238.15L237.95 287.39C238.186 287.288 238.387 287.119 238.529 286.904C238.671 286.689 238.748 286.438 238.75 286.18Z" fill="#263238"/>
<path d="M158.6 339.95C163.433 339.95 167.35 336.033 167.35 331.2C167.35 326.368 163.433 322.45 158.6 322.45C153.768 322.45 149.85 326.368 149.85 331.2C149.85 336.033 153.768 339.95 158.6 339.95Z" fill="white" stroke="#263238" stroke-linecap="round" stroke-linejoin="round"/>
<path d="M159.87 336.05C161.394 336.05 162.63 335.24 162.63 334.24C162.63 333.241 161.394 332.43 159.87 332.43C158.346 332.43 157.11 333.241 157.11 334.24C157.11 335.24 158.346 336.05 159.87 336.05Z" fill="#263238"/>
<path d="M159.54 324.62L157.64 334.24H157.11L158.5 327.24L158.86 325.41C159.124 325.193 159.354 324.937 159.54 324.65V324.62Z" fill="#263238"/>
<path d="M159.54 324.62L159.07 326.95C158.888 327.054 158.698 327.141 158.5 327.21C157.912 327.41 157.288 327.485 156.67 327.43C156.251 327.398 155.831 327.486 155.46 327.682C155.088 327.879 154.78 328.176 154.57 328.54C154.712 327.949 155.022 327.411 155.462 326.991C155.901 326.57 156.453 326.286 157.05 326.17C157.72 326.1 158.352 325.824 158.86 325.38C159.124 325.163 159.354 324.907 159.54 324.62Z" fill="#263238"/>
<path d="M229.5 333.48H232.21V337.22C232.21 337.451 232.119 337.672 231.955 337.835C231.792 337.998 231.571 338.09 231.34 338.09H230.34C230.109 338.09 229.888 337.998 229.725 337.835C229.562 337.672 229.47 337.451 229.47 337.22V333.48H229.5Z" fill="#263238"/>
<path d="M242.67 333.48H245.38V337.22C245.38 337.451 245.288 337.672 245.125 337.835C244.962 337.998 244.741 338.09 244.51 338.09H243.51C243.279 338.09 243.058 337.998 242.895 337.835C242.732 337.672 242.64 337.451 242.64 337.22V333.48H242.67Z" fill="#263238"/>
<path d="M246.12 330.57V335C242.72 335 238.55 335 234.39 335H228.75V330.55C228.748 330.265 228.83 329.986 228.984 329.746C229.139 329.506 229.36 329.317 229.62 329.2L230.54 328.79L231.4 327.11C231.74 326.45 232.12 325.68 232.4 325.05C232.497 324.883 232.636 324.744 232.802 324.646C232.968 324.548 233.157 324.495 233.35 324.49C236.03 324.23 238.73 324.23 241.41 324.49C241.611 324.488 241.809 324.538 241.985 324.637C242.16 324.735 242.307 324.878 242.41 325.05C242.73 325.68 243.11 326.45 243.41 327.11L244.26 328.79L245.2 329.21C245.471 329.32 245.704 329.507 245.868 329.75C246.031 329.992 246.119 330.278 246.12 330.57Z" fill="white" stroke="#263238" stroke-linecap="round" stroke-linejoin="round"/>
<path d="M242.25 328.05C239.044 327.84 235.827 327.84 232.62 328.05C232.95 327.24 233.29 326.43 233.62 325.61C236.16 325.41 238.711 325.41 241.25 325.61L242.25 328.05Z" fill="#263238"/>
<path d="M232.84 330.62C232.84 330.818 232.781 331.011 232.671 331.176C232.561 331.34 232.405 331.468 232.223 331.544C232.04 331.62 231.839 331.64 231.645 331.601C231.451 331.562 231.273 331.467 231.133 331.327C230.993 331.187 230.898 331.009 230.859 330.815C230.82 330.621 230.84 330.42 230.916 330.237C230.992 330.055 231.12 329.899 231.284 329.789C231.449 329.679 231.642 329.62 231.84 329.62C232.105 329.62 232.359 329.725 232.547 329.913C232.734 330.101 232.84 330.355 232.84 330.62Z" fill="#263238"/>
<path d="M243.99 330.62C243.99 330.818 243.932 331.011 243.822 331.176C243.712 331.34 243.556 331.468 243.373 331.544C243.19 331.62 242.989 331.64 242.795 331.601C242.601 331.562 242.423 331.467 242.283 331.327C242.143 331.187 242.048 331.009 242.009 330.815C241.971 330.621 241.991 330.42 242.066 330.237C242.142 330.055 242.27 329.899 242.435 329.789C242.599 329.679 242.792 329.62 242.99 329.62C243.255 329.62 243.51 329.725 243.697 329.913C243.885 330.101 243.99 330.355 243.99 330.62Z" fill="#263238"/>
<path d="M230 332.83H244.88" stroke="#263238" stroke-width="0.5" stroke-linecap="round" stroke-linejoin="round"/>
<path d="M234.3 330.04H240.58" stroke="#263238" stroke-width="0.5" stroke-linecap="round" stroke-linejoin="round"/>
<path d="M234.3 331.44H240.58" stroke="#263238" stroke-width="0.5" stroke-linecap="round" stroke-linejoin="round"/>
<path d="M191.07 364.63C191.07 365.192 190.904 365.741 190.592 366.208C190.279 366.675 189.836 367.039 189.317 367.254C188.798 367.469 188.227 367.525 187.676 367.415C187.125 367.306 186.619 367.035 186.222 366.638C185.825 366.241 185.554 365.735 185.445 365.184C185.335 364.633 185.391 364.062 185.606 363.543C185.821 363.024 186.185 362.581 186.652 362.269C187.119 361.957 187.668 361.79 188.23 361.79C188.983 361.793 189.703 362.093 190.235 362.625C190.767 363.157 191.068 363.878 191.07 364.63Z" fill="#00042D"/>
<path d="M206.18 364.39C206.18 364.954 206.013 365.506 205.699 365.974C205.385 366.443 204.94 366.809 204.418 367.024C203.897 367.239 203.323 367.295 202.77 367.185C202.217 367.074 201.709 366.801 201.311 366.402C200.913 366.002 200.642 365.493 200.534 364.94C200.425 364.386 200.483 363.813 200.7 363.292C200.917 362.772 201.284 362.327 201.754 362.015C202.224 361.704 202.776 361.538 203.34 361.54C203.714 361.54 204.084 361.614 204.429 361.757C204.774 361.901 205.088 362.111 205.352 362.375C205.616 362.64 205.825 362.954 205.967 363.3C206.109 363.646 206.181 364.016 206.18 364.39Z" fill="#00042D"/>
<path d="M221.29 364.14C221.29 364.704 221.122 365.256 220.809 365.724C220.495 366.193 220.05 366.559 219.528 366.774C219.007 366.989 218.433 367.045 217.88 366.935C217.327 366.824 216.819 366.551 216.421 366.152C216.023 365.752 215.752 365.243 215.643 364.69C215.535 364.136 215.592 363.563 215.81 363.042C216.027 362.522 216.394 362.077 216.864 361.765C217.334 361.454 217.886 361.288 218.45 361.29C218.824 361.29 219.194 361.364 219.539 361.507C219.884 361.651 220.198 361.861 220.462 362.125C220.725 362.39 220.934 362.704 221.077 363.05C221.219 363.396 221.291 363.766 221.29 364.14Z" fill="#00042D"/>
<path d="M236.4 363.89C236.402 364.455 236.236 365.007 235.924 365.477C235.612 365.947 235.167 366.314 234.645 366.531C234.124 366.748 233.55 366.805 232.997 366.696C232.443 366.586 231.934 366.314 231.535 365.915C231.136 365.516 230.864 365.007 230.754 364.454C230.645 363.9 230.702 363.326 230.919 362.805C231.136 362.284 231.503 361.839 231.973 361.526C232.443 361.214 232.996 361.048 233.56 361.05C234.313 361.05 235.036 361.349 235.568 361.882C236.101 362.414 236.4 363.137 236.4 363.89Z" fill="#00042D"/>
<path d="M251.51 363.64C251.512 364.204 251.347 364.756 251.035 365.226C250.723 365.696 250.278 366.063 249.758 366.28C249.237 366.497 248.664 366.555 248.11 366.447C247.557 366.338 247.048 366.067 246.648 365.669C246.249 365.271 245.976 364.763 245.866 364.21C245.755 363.657 245.811 363.083 246.026 362.562C246.241 362.04 246.607 361.595 247.076 361.281C247.545 360.967 248.096 360.8 248.66 360.8C249.413 360.803 250.135 361.102 250.669 361.634C251.202 362.166 251.505 362.887 251.51 363.64Z" fill="#00042D"/>
</svg>
