<svg width="50" height="51" viewBox="0 0 50 51" fill="none" xmlns="http://www.w3.org/2000/svg">
<circle cx="25" cy="25.6572" r="25" fill="#B300A1"/>
<path d="M36.5246 10.6572H13.4754C13.2128 10.6572 13 10.854 13 11.0967V31.9716C13 32.2143 13.2128 32.411 13.4754 32.411C13.7379 32.411 13.9507 32.2143 13.9507 31.9716V11.5361H36.0493V14.2989C36.0493 14.5416 36.2621 14.7383 36.5246 14.7383C36.7872 14.7383 37 14.5416 37 14.2989V11.0967C37 10.854 36.7872 10.6572 36.5246 10.6572V10.6572Z" fill="white"/>
<path d="M36.5246 15.9097C36.2621 15.9097 36.0493 16.1065 36.0493 16.3492V39.7782H13.9507V34.0219C13.9507 33.7792 13.7379 33.5824 13.4754 33.5824C13.2128 33.5824 13 33.7792 13 34.0219V40.2177C13 40.4604 13.2128 40.6571 13.4754 40.6571H36.5246C36.7872 40.6571 37 40.4604 37 40.2177V16.3492C37 16.1065 36.7872 15.9097 36.5246 15.9097Z" fill="white"/>
<path d="M15.0488 19.7979C15.0488 21.6721 16.6981 23.1968 18.7255 23.1968C20.7528 23.1968 22.4021 21.6721 22.4021 19.7979C22.4021 17.9237 20.7528 16.3989 18.7255 16.3989C16.6981 16.3989 15.0488 17.9237 15.0488 19.7979ZM18.7255 22.3179C17.2224 22.3179 15.9995 21.1874 15.9995 19.7979C15.9995 18.5583 16.973 17.5256 18.2501 17.317V19.7979C18.2501 20.0406 18.4629 20.2373 18.7255 20.2373H21.409C21.1833 21.418 20.0664 22.3179 18.7255 22.3179ZM21.409 19.3584H19.2008V17.317C20.3234 17.5004 21.2106 18.3206 21.409 19.3584Z" fill="white"/>
<path d="M15.7805 35.9911C15.5179 35.9911 15.3052 36.1878 15.3052 36.4305V38.3246C15.3052 38.5673 15.5179 38.7641 15.7805 38.7641H18.8538C19.1164 38.7641 19.3291 38.5673 19.3291 38.3246V36.4305C19.3291 36.1878 19.1164 35.9911 18.8538 35.9911H15.7805ZM18.3784 37.8852H16.2559V36.87H18.3784V37.8852Z" fill="white"/>
<path d="M20.9026 38.7638H23.9758C24.2384 38.7638 24.4511 38.5671 24.4511 38.3244V33.5892C24.4511 33.3465 24.2384 33.1497 23.9758 33.1497H20.9026C20.64 33.1497 20.4272 33.3465 20.4272 33.5892V38.3244C20.4272 38.5671 20.64 38.7638 20.9026 38.7638ZM21.378 34.0286H23.5004V37.8849H21.378V34.0286Z" fill="white"/>
<path d="M26.0247 29.5981C25.7621 29.5981 25.5493 29.7948 25.5493 30.0375V38.3242C25.5493 38.5669 25.7621 38.7636 26.0247 38.7636H29.0979C29.3604 38.7636 29.5732 38.5669 29.5732 38.3242V30.0375C29.5732 29.7948 29.3604 29.5981 29.0979 29.5981H26.0247ZM28.6225 37.8847H26.5V30.477H28.6225V37.8847Z" fill="white"/>
<path d="M34.2195 29.6597C34.4821 29.6597 34.6948 29.4629 34.6948 29.2202V27.6704C34.6948 27.4277 34.4821 27.231 34.2195 27.231H31.1467C30.8842 27.231 30.6714 27.4277 30.6714 27.6704V38.3241C30.6714 38.5668 30.8842 38.7635 31.1467 38.7635H34.2194C34.482 38.7635 34.6948 38.5668 34.6948 38.3241V31.2711C34.6948 31.0284 34.482 30.8316 34.2194 30.8316C33.9568 30.8316 33.7441 31.0284 33.7441 31.2711V37.8846H31.6221V28.1099H33.7441V29.2202C33.7441 29.4629 33.9569 29.6597 34.2195 29.6597Z" fill="white"/>
<path d="M30.1218 12.5511H19.8777C19.6151 12.5511 19.4023 12.7479 19.4023 12.9906V14.8847C19.4023 15.1274 19.6151 15.3241 19.8777 15.3241H30.1218C30.3844 15.3241 30.5972 15.1274 30.5972 14.8847V12.9906C30.5971 12.7479 30.3844 12.5511 30.1218 12.5511ZM29.6464 14.4452H20.3531V13.4301H29.6465V14.4452H29.6464Z" fill="white"/>
<path d="M34.4755 16.3989H24.9998C24.7372 16.3989 24.5244 16.5957 24.5244 16.8384C24.5244 17.0811 24.7372 17.2778 24.9998 17.2778H34.4755C34.7381 17.2778 34.9509 17.0811 34.9509 16.8384C34.9509 16.5957 34.7381 16.3989 34.4755 16.3989Z" fill="white"/>
<path d="M34.4755 18.3715H24.9998C24.7372 18.3715 24.5244 18.5683 24.5244 18.811C24.5244 19.0537 24.7372 19.2504 24.9998 19.2504H34.4755C34.7381 19.2504 34.9509 19.0537 34.9509 18.811C34.9509 18.5683 34.7381 18.3715 34.4755 18.3715Z" fill="white"/>
<path d="M34.9509 20.7841C34.9509 20.5414 34.7381 20.3446 34.4755 20.3446H24.9998C24.7372 20.3446 24.5244 20.5414 24.5244 20.7841C24.5244 21.0268 24.7372 21.2235 24.9998 21.2235H34.4755C34.7381 21.2235 34.9509 21.0268 34.9509 20.7841Z" fill="white"/>
<path d="M31.1094 22.7571C31.1094 22.5144 30.8967 22.3177 30.6341 22.3177H24.9998C24.7372 22.3177 24.5244 22.5144 24.5244 22.7571C24.5244 22.9998 24.7372 23.1966 24.9998 23.1966H30.6341C30.8966 23.1966 31.1094 22.9998 31.1094 22.7571Z" fill="white"/>
<path d="M25.0002 25.218H16.3567C16.0941 25.218 15.8813 25.4148 15.8813 25.6575C15.8813 25.9002 16.0941 26.0969 16.3567 26.0969H25.0002C25.2627 26.0969 25.4755 25.9002 25.4755 25.6575C25.4755 25.4148 25.2627 25.218 25.0002 25.218Z" fill="white"/>
<path d="M25.4755 27.6301C25.4755 27.3874 25.2627 27.1907 25.0002 27.1907H16.3567C16.0941 27.1907 15.8813 27.3874 15.8813 27.6301C15.8813 27.8728 16.0941 28.0696 16.3567 28.0696H25.0002C25.2627 28.0696 25.4755 27.8728 25.4755 27.6301Z" fill="white"/>
<path d="M21.634 29.6036C21.634 29.3609 21.4213 29.1642 21.1587 29.1642H16.3567C16.0941 29.1642 15.8813 29.3609 15.8813 29.6036C15.8813 29.8463 16.0941 30.0431 16.3567 30.0431H21.1587C21.4212 30.0431 21.634 29.8463 21.634 29.6036Z" fill="white"/>
</svg>
