<svg width="50" height="51" viewBox="0 0 50 51" fill="none" xmlns="http://www.w3.org/2000/svg">
<circle cx="25" cy="25.6572" r="25" fill="#812A1E"/>
<path d="M14.5 17.7822C14.5 17.4839 14.6383 17.1977 14.8844 16.9867C15.1306 16.7758 15.4644 16.6572 15.8125 16.6572H34.1875C34.5356 16.6572 34.8694 16.7758 35.1156 16.9867C35.3617 17.1977 35.5 17.4839 35.5 17.7822V20.0322C35.5 20.3306 35.3617 20.6167 35.1156 20.8277C34.8694 21.0387 34.5356 21.1572 34.1875 21.1572H15.8125C15.4644 21.1572 15.1306 21.0387 14.8844 20.8277C14.6383 20.6167 14.5 20.3306 14.5 20.0322V17.7822ZM14.5 26.7822C14.5 26.4839 14.6383 26.1977 14.8844 25.9867C15.1306 25.7758 15.4644 25.6572 15.8125 25.6572H23.6875C24.0356 25.6572 24.3694 25.7758 24.6156 25.9867C24.8617 26.1977 25 26.4839 25 26.7822V33.5322C25 33.8306 24.8617 34.1167 24.6156 34.3277C24.3694 34.5387 24.0356 34.6572 23.6875 34.6572H15.8125C15.4644 34.6572 15.1306 34.5387 14.8844 34.3277C14.6383 34.1167 14.5 33.8306 14.5 33.5322V26.7822ZM30.25 26.7822C30.25 26.4839 30.3883 26.1977 30.6344 25.9867C30.8806 25.7758 31.2144 25.6572 31.5625 25.6572H34.1875C34.5356 25.6572 34.8694 25.7758 35.1156 25.9867C35.3617 26.1977 35.5 26.4839 35.5 26.7822V33.5322C35.5 33.8306 35.3617 34.1167 35.1156 34.3277C34.8694 34.5387 34.5356 34.6572 34.1875 34.6572H31.5625C31.2144 34.6572 30.8806 34.5387 30.6344 34.3277C30.3883 34.1167 30.25 33.8306 30.25 33.5322V26.7822Z" stroke="white" stroke-width="1.5" stroke-linecap="round" stroke-linejoin="round"/>
</svg>
