<svg width="50" height="51" viewBox="0 0 50 51" fill="none" xmlns="http://www.w3.org/2000/svg">
<circle cx="25" cy="25.6572" r="25" fill="#000D8D"/>
<path d="M23.667 13.4003C23.2125 13.2393 22.736 13.1573 22.25 13.1573V14.1573C22.6215 14.1573 22.986 14.2198 23.333 14.3428L23.667 13.4003Z" fill="white"/>
<path d="M20.833 13.4001C19.1385 14.0011 18 15.6111 18 17.4071H19C19 16.0336 19.871 14.8021 21.167 14.3426L20.833 13.4001Z" fill="white"/>
<path d="M35 32.95V31.0666C37.833 30.5886 40 28.1241 40 25.1571C40 21.8486 37.3085 19.1572 34 19.1572C33.287 19.1572 32.594 19.2812 31.933 19.5262C31.6425 18.1737 30.438 17.1572 29 17.1572C28.9985 17.1572 28.997 17.1572 28.9955 17.1572C28.864 13.5507 25.888 10.6572 22.25 10.6572C18.528 10.6572 15.5 13.6852 15.5 17.4072C15.5 17.6832 15.517 17.9592 15.551 18.2337C12.397 18.6962 10 21.4181 10 24.6571C10 27.7241 12.138 30.2956 15 30.9756V32.95L11.6465 36.3035C11.5525 36.397 11.5 36.5245 11.5 36.657V38.657H12.5V36.864L15.8535 33.5105C15.9475 33.417 16 33.2895 16 33.157V31.1316C16.1655 31.1446 16.331 31.1571 16.5 31.1571H18V33.95L15.6465 36.3035C15.5525 36.397 15.5 36.5245 15.5 36.657V38.657H16.5V36.864L18.8535 34.5105C18.9475 34.417 19 34.2895 19 34.157V31.1571H21.5V34.95L20.1465 36.3035C20.0525 36.397 20 36.5245 20 36.657V38.657H21V36.864L22.3535 35.5105C22.4475 35.417 22.5 35.2895 22.5 35.157V31.1571H24.5V38.657H25.5V31.1571H27.5V35.157C27.5 35.2895 27.5525 35.417 27.6465 35.5105L29 36.864V38.657H30V36.657C30 36.5245 29.9475 36.397 29.8535 36.3035L28.5 34.95V31.1571H31V34.157C31 34.2895 31.0525 34.417 31.1465 34.5105L33.5 36.864V38.657H34.5V36.657C34.5 36.5245 34.4475 36.397 34.3535 36.3035L32 33.95V31.1571H34V33.157C34 33.2895 34.0525 33.417 34.1465 33.5105L37.5 36.864V38.657H38.5V36.657C38.5 36.5245 38.4475 36.397 38.3535 36.3035L35 32.95ZM16.5 30.1571C13.4675 30.1571 11 27.6896 11 24.6571C11 21.7606 13.2665 19.3522 16.16 19.1752C16.3045 19.1662 16.4385 19.0952 16.526 18.9802C16.6145 18.8652 16.648 18.7172 16.619 18.5752C16.54 18.1917 16.5 17.7987 16.5 17.4072C16.5 14.2367 19.0795 11.6572 22.25 11.6572C25.4205 11.6572 28 14.2367 28 17.4072C28 17.4632 27.996 17.5187 27.992 17.5737L27.985 17.6877C27.9775 17.8422 28.042 17.9917 28.1605 18.0922C28.278 18.1922 28.4355 18.2327 28.5875 18.2007C29.845 17.9362 30.9995 18.9197 30.9985 20.1486C30.9965 20.1636 30.9895 20.2266 30.9885 20.2416C30.979 20.4201 31.066 20.5906 31.2165 20.6876C31.367 20.7846 31.557 20.7941 31.717 20.7121C32.4335 20.3441 33.201 20.1571 34 20.1571C36.757 20.1571 39 22.4001 39 25.1571C39 27.9141 36.757 30.1571 34 30.1571H16.5Z" fill="white"/>
<path d="M37.5 39.6572H38.5V40.6572H37.5V39.6572Z" fill="white"/>
<path d="M33.5 39.6572H34.5V40.6572H33.5V39.6572Z" fill="white"/>
<path d="M29 39.6572H30V40.6572H29V39.6572Z" fill="white"/>
<path d="M11.5 39.6572H12.5V40.6572H11.5V39.6572Z" fill="white"/>
<path d="M15.5 39.6572H16.5V40.6572H15.5V39.6572Z" fill="white"/>
<path d="M20 39.6572H21V40.6572H20V39.6572Z" fill="white"/>
<path d="M24.5 39.6572H25.5V40.6572H24.5V39.6572Z" fill="white"/>
<path d="M22.5 21.6571H23.5V22.6571H22.5V21.6571Z" fill="white"/>
<path d="M22.5 23.6571H23.5V24.6571H22.5V23.6571Z" fill="white"/>
<path d="M22.5 25.6571H23.5V26.6571H22.5V25.6571Z" fill="white"/>
<path d="M24.5 21.6571H25.5V22.6571H24.5V21.6571Z" fill="white"/>
<path d="M24.5 23.6571H25.5V24.6571H24.5V23.6571Z" fill="white"/>
<path d="M24.5 25.6571H25.5V26.6571H24.5V25.6571Z" fill="white"/>
<path d="M26.5 21.6571H27.5V22.6571H26.5V21.6571Z" fill="white"/>
<path d="M26.5 23.6571H27.5V24.6571H26.5V23.6571Z" fill="white"/>
<path d="M26.5 25.6571H27.5V26.6571H26.5V25.6571Z" fill="white"/>
<path d="M28.5 27.657H26.5V28.657H29C29.2765 28.657 29.5 28.433 29.5 28.157V25.157H28.5V27.657Z" fill="white"/>
<path d="M24 19.6571H21C20.7235 19.6571 20.5 19.8811 20.5 20.1571V23.1571H21.5V20.6571H24V19.6571Z" fill="white"/>
<path d="M23.5 27.6571H25.5V28.6571H23.5V27.6571Z" fill="white"/>
<path d="M25 19.6571H26.5V20.6571H25V19.6571Z" fill="white"/>
<path d="M29 19.6571H27.5V20.6571H28.5V24.1571H29.5V20.1571C29.5 19.8811 29.2765 19.6571 29 19.6571Z" fill="white"/>
<path d="M21.5 24.1572H20.5V28.1572C20.5 28.4332 20.7235 28.6572 21 28.6572H22.5V27.6572H21.5V24.1572Z" fill="white"/>
</svg>
