<svg width="116" height="46" viewBox="0 0 116 46" fill="none" xmlns="http://www.w3.org/2000/svg">
<path fill-rule="evenodd" clip-rule="evenodd" d="M18.5834 11.1027V15.9457L26.8166 15.9457V25.12C26.7403 25.9285 26.4623 26.7098 26.002 27.3898C25.379 28.3102 24.4597 28.9895 23.397 29.3147C22.3342 29.6399 21.1922 29.5914 20.1608 29.1772C19.1295 28.7631 18.2711 28.0083 17.7284 27.0384L13.5396 29.3823C14.6177 31.3092 16.3232 32.8087 18.3722 33.6315C20.4212 34.4543 22.6901 34.5507 24.8015 33.9046C26.9129 33.2585 28.7393 31.9089 29.977 30.0804C30.9316 28.6701 31.4915 27.0405 31.613 25.3593L31.6596 25.2381L31.6596 15.9457L31.6596 11.829L31.6596 11.1027H18.5834Z" fill="#00042D"/>
<path d="M34.339 6.02438C32.1098 4.48607 29.5993 3.40191 26.9511 2.8338C24.3028 2.26569 21.5686 2.22476 18.9045 2.71334C16.2404 3.20192 13.6987 4.21045 11.4243 5.68134C9.15003 7.15223 7.18769 9.05668 5.64938 11.286C4.11107 13.5152 3.02691 16.0257 2.4588 18.6739C1.89069 21.3222 1.84976 24.0564 2.33834 26.7205C2.82692 29.3846 3.83545 31.9263 5.30634 34.2007C6.77723 36.475 8.68168 38.4373 10.911 39.9756" stroke="#00042D" stroke-width="3"/>
<path d="M14.9196 42.1316C19.3686 43.9234 24.303 44.1088 28.8738 42.6556C33.4447 41.2024 37.3662 38.2017 39.9637 34.1696C42.5612 30.1375 43.6722 25.3263 43.1056 20.5635C42.539 15.8008 40.3302 11.3845 36.8593 8.07433" stroke="#00042D" stroke-width="3"/>
<path d="M64.3 27.8C64.3 29.784 63.604 31.48 62.212 32.888C60.788 34.296 58.892 35 56.524 35V32C58.092 32 59.276 31.592 60.076 30.776C60.892 29.96 61.3 28.968 61.3 27.8V15.2H64.3V27.8ZM67.9094 27.488V15.2H70.9094V27.488C70.9094 28.912 71.4054 30.12 72.3974 31.112C73.3894 32.104 74.5974 32.6 76.0214 32.6C77.4294 32.6 78.6294 32.104 79.6214 31.112C80.6134 30.12 81.1094 28.912 81.1094 27.488V15.2H84.1094V27.488C84.1094 29.728 83.3174 31.64 81.7334 33.224C80.1494 34.808 78.2454 35.6 76.0214 35.6C73.7814 35.6 71.8694 34.808 70.2854 33.224C68.7014 31.64 67.9094 29.728 67.9094 27.488ZM93.7141 27.8C93.7141 29.784 93.0181 31.48 91.6261 32.888C90.2021 34.296 88.3061 35 85.9381 35V32C87.5061 32 88.6901 31.592 89.4901 30.776C90.3061 29.96 90.7141 28.968 90.7141 27.8V15.2H93.7141V27.8ZM97.3234 27.488V15.2H100.323V27.488C100.323 28.912 100.819 30.12 101.811 31.112C102.803 32.104 104.011 32.6 105.435 32.6C106.843 32.6 108.043 32.104 109.035 31.112C110.027 30.12 110.523 28.912 110.523 27.488V15.2H113.523V27.488C113.523 29.728 112.731 31.64 111.147 33.224C109.563 34.808 107.659 35.6 105.435 35.6C103.195 35.6 101.283 34.808 99.6994 33.224C98.1154 31.64 97.3234 29.728 97.3234 27.488Z" fill="#00042D"/>
</svg>
