<svg width="383" height="361" viewBox="0 0 383 361" fill="none" xmlns="http://www.w3.org/2000/svg">
<path d="M205.998 9.16679C190.132 -1.40398 166.094 -1.98905 149.475 4.02023C119.726 14.7695 123.692 38.7273 97.91 55.585C72.1277 72.4427 47.3369 66.4929 22.5462 88.3682C-2.24457 110.244 -4.48565 151.644 5.68847 171.011C15.8626 190.377 27.5043 204.587 17.588 237.916C7.67173 271.245 8.66336 309.958 48.3285 330.336C87.9937 350.714 118.734 307.27 144.517 316.205C170.299 325.14 218.889 364.696 272.437 352.895C325.985 341.095 302.186 300.498 336.893 288.945C371.6 277.393 391.432 237.509 379.533 195.395C367.633 153.28 337.884 145.179 344.826 118.692C350.062 98.6911 357.082 79.4436 343.735 60.1861C326.51 35.3359 297.029 24.6759 268.47 27.1946C257.83 28.1862 245.663 28.5135 234.547 25.9352C221.913 22.9802 216.073 15.89 205.998 9.16679Z" fill="#00042D"/>
<path opacity="0.7" d="M205.998 9.16679C190.132 -1.40398 166.094 -1.98905 149.475 4.02023C119.726 14.7695 123.692 38.7273 97.91 55.585C72.1277 72.4427 47.3369 66.4929 22.5462 88.3682C-2.24457 110.244 -4.48565 151.644 5.68847 171.011C15.8626 190.377 27.5043 204.587 17.588 237.916C7.67173 271.245 8.66336 309.958 48.3285 330.336C87.9937 350.714 118.734 307.27 144.517 316.205C170.299 325.14 218.889 364.696 272.437 352.895C325.985 341.095 302.186 300.498 336.893 288.945C371.6 277.393 391.432 237.509 379.533 195.395C367.633 153.28 337.884 145.179 344.826 118.692C350.062 98.6911 357.082 79.4436 343.735 60.1861C326.51 35.3359 297.029 24.6759 268.47 27.1946C257.83 28.1862 245.663 28.5135 234.547 25.9352C221.913 22.9802 216.073 15.89 205.998 9.16679Z" fill="white"/>
<path d="M359.393 156.791L192.63 196.287L192.472 196.178L344.439 120.418C344.558 119.843 344.667 119.268 344.826 118.673C347.255 109.381 350.071 100.248 351.053 91.2045L192.561 195.415H192.382L332.668 47.543C326.483 41.9444 319.43 37.3865 311.785 34.0469L192.204 194.622H192.016L264.692 27.4625C256.991 28.1067 249.246 27.9938 241.567 27.1254L191.599 193.997L191.421 194.086L202.854 7.25309C195.644 3.43407 187.725 1.13882 179.59 0.51001L190.806 193.62L190.677 193.759L136.504 10.8725C128.849 16.5942 124.535 23.7637 119.924 31.1613L189.943 193.541L189.864 193.709L90.7007 59.7301C84.0435 63.0021 77.0647 65.5743 69.8765 67.4053L189.14 193.749V193.947L25.6597 85.7703C24.6681 86.5934 23.5872 87.4462 22.546 88.3585C17.3859 92.9659 13.0527 98.4226 9.73415 104.492L188.376 194.245L188.436 194.423L0.20459 149.235C0.789651 157.693 2.71341 165.299 5.6883 171.001C6.18411 171.993 6.67993 172.885 7.18566 173.807L187.87 194.949L187.98 195.107L21.3858 214.087C21.3555 221.474 20.2771 228.819 18.1828 235.903L187.672 195.762L187.831 195.871L13.1949 282.946C14.3435 291.129 17.104 299.002 21.3164 306.11L187.702 196.664H187.88L57.5803 334.015C67.9825 336.99 77.75 335.998 86.9623 333.212L188.059 197.458H188.247L137.139 314.966C139.649 314.964 142.142 315.38 144.516 316.195C147.171 317.14 149.776 318.219 152.321 319.428L188.664 198.082L188.842 197.993L180.523 333.985C185.986 336.772 191.768 339.578 197.807 342.196L189.457 198.459L189.586 198.32L235.617 353.709C242.929 354.884 250.346 355.273 257.741 354.869L190.31 198.519L190.389 198.35L296.93 342.335C303.643 337.119 307.402 330.891 310.188 324.485L191.123 198.33V198.132L331.597 291.107C333.29 290.253 335.044 289.524 336.843 288.925C343.251 286.801 349.277 283.664 354.692 279.634L191.887 197.834L191.827 197.656L379.761 242.765C381.96 235.185 383.046 227.325 382.984 219.432L192.392 197.13L192.283 196.972L372.115 176.485C368.465 169.556 364.208 162.966 359.393 156.791ZM187.761 195.762L188.337 195.623L187.91 195.841L187.761 195.762ZM187.98 196.615H187.801L188.307 196.278L187.98 196.615ZM188.297 197.309H188.138L188.495 196.833L188.297 197.309ZM188.148 195.048L188.039 194.929L188.634 194.998L188.148 195.048ZM188.882 197.824L188.743 197.914L188.912 197.339L188.882 197.824ZM188.594 194.413L188.535 194.264L189.07 194.532L188.594 194.413ZM190.855 193.709V194.304L190.716 193.848L190.855 193.709ZM190.032 193.61L190.27 194.165L189.983 193.779L190.032 193.61ZM189.229 193.808L189.636 194.245L189.239 193.977L189.229 193.808ZM189.487 198.291V197.696L189.626 198.152L189.487 198.291ZM190.31 198.39L190.072 197.834L190.359 198.221L190.31 198.39ZM190.221 196.833H189.933L189.675 196.704L189.477 196.496L189.368 196.228V195.94L189.447 195.663L189.626 195.435L189.864 195.276L190.141 195.207H190.429L190.687 195.335L190.885 195.544L190.994 195.811V196.099L190.915 196.377L190.736 196.605L190.498 196.763L190.221 196.833ZM190.707 197.755L191.103 198.023V198.191L190.707 197.755ZM192.323 195.425H192.501L191.996 195.762L192.323 195.425ZM192.006 194.731H192.164L191.807 195.207L192.006 194.731ZM191.46 194.175L191.599 194.086L191.43 194.651L191.46 194.175ZM191.272 197.467L191.748 197.586L191.807 197.735L191.272 197.467ZM191.708 197.001L192.115 197.031L192.224 197.15L191.708 197.001ZM191.966 196.416L192.392 196.198L192.541 196.278L191.966 196.416Z" fill="white"/>
<path d="M188.149 360.769C273.858 360.769 343.339 357.191 343.339 352.776C343.339 348.362 273.858 344.784 188.149 344.784C102.439 344.784 32.9585 348.362 32.9585 352.776C32.9585 357.191 102.439 360.769 188.149 360.769Z" fill="#263238"/>
<path d="M96.7596 211.063H288.452C289.58 211.063 290.662 211.511 291.46 212.309C292.257 213.106 292.706 214.188 292.706 215.317V338.378H92.4956V215.317C92.4956 214.757 92.606 214.203 92.8204 213.686C93.0348 213.17 93.349 212.7 93.7451 212.305C94.1412 211.91 94.6113 211.597 95.1286 211.384C95.6459 211.17 96.2001 211.061 96.7596 211.063Z" fill="#00042D" stroke="#263238" stroke-linecap="round" stroke-linejoin="round"/>
<path d="M107.043 220.721H278.168C278.727 220.721 279.28 220.831 279.796 221.045C280.312 221.259 280.781 221.572 281.176 221.967C281.571 222.362 281.885 222.831 282.099 223.347C282.312 223.863 282.422 224.416 282.422 224.975V340.093H102.779V224.985C102.778 224.425 102.887 223.87 103.101 223.352C103.315 222.834 103.629 222.363 104.025 221.967C104.421 221.571 104.892 221.257 105.41 221.043C105.927 220.829 106.483 220.72 107.043 220.721Z" fill="#263238" stroke="#263238" stroke-linecap="round" stroke-linejoin="round"/>
<path d="M290.99 348.661H85.3064C75.8363 348.661 68.1611 342.929 68.1611 335.859H308.135C308.135 342.929 300.46 348.661 290.99 348.661Z" fill="#00042D" stroke="#263238" stroke-linecap="round" stroke-linejoin="round"/>
<path d="M191.748 93.832C178.54 106.396 144.755 119.089 105.357 146.012C105.357 146.012 107.817 236.984 191.748 286.714V93.832Z" fill="#00042D" stroke="#263238" stroke-linecap="round" stroke-linejoin="round"/>
<path d="M191.748 93.832C204.947 106.396 238.741 119.089 278.139 146.012C278.139 146.012 275.68 236.984 191.748 286.714V93.832Z" fill="#263238" stroke="#263238" stroke-linecap="round" stroke-linejoin="round"/>
<path d="M191.748 101.577C175.813 112.872 148.196 123.641 111.694 148.58C111.694 148.58 113.975 232.869 191.748 278.97C269.522 232.888 271.802 148.58 271.802 148.58C235.291 123.651 207.803 112.872 191.748 101.577Z" fill="#263238" stroke="#263238" stroke-linecap="round" stroke-linejoin="round"/>
<path d="M258.158 139.625C202.468 156.483 159.986 205.42 140.669 231.232C153.957 250.725 171.402 267.029 191.748 278.969C269.522 232.888 271.803 148.58 271.803 148.58C267.102 145.38 262.554 142.395 258.158 139.625Z" fill="#00042D" stroke="#263238" stroke-linecap="round" stroke-linejoin="round"/>
<path d="M222.072 186.569H162.366C161.051 186.569 159.79 186.047 158.86 185.117C157.931 184.187 157.408 182.926 157.408 181.611V153.508C157.562 144.383 161.296 135.683 167.803 129.284C174.311 122.885 183.073 119.3 192.2 119.3C201.326 119.3 210.088 122.885 216.596 129.284C223.104 135.683 226.837 144.383 226.991 153.508V181.611C226.991 182.919 226.474 184.175 225.553 185.103C224.631 186.032 223.38 186.559 222.072 186.569ZM167.364 176.653H217.114V153.508C216.984 146.997 214.306 140.796 209.656 136.238C205.005 131.679 198.752 129.125 192.239 129.125C185.727 129.125 179.474 131.679 174.823 136.238C170.172 140.796 167.494 146.997 167.364 153.508V176.653Z" fill="white" stroke="#263238" stroke-linecap="round" stroke-linejoin="round"/>
<path d="M229.728 173.024H153.769V237.212H229.728V173.024Z" fill="white" stroke="#263238" stroke-linecap="round" stroke-linejoin="round"/>
<path d="M199.641 199.679C199.641 198.217 199.254 196.781 198.518 195.518C197.783 194.255 196.726 193.209 195.455 192.487C194.183 191.765 192.744 191.393 191.282 191.409C189.82 191.425 188.389 191.828 187.133 192.577C185.878 193.326 184.844 194.395 184.136 195.674C183.428 196.953 183.071 198.396 183.103 199.858C183.135 201.319 183.553 202.746 184.316 203.993C185.078 205.241 186.158 206.263 187.444 206.957L186.056 221.534H196.686L195.298 206.957C196.613 206.25 197.711 205.2 198.476 203.918C199.241 202.637 199.644 201.171 199.641 199.679Z" fill="#263238" stroke="#263238" stroke-linecap="round" stroke-linejoin="round"/>
<path d="M341.405 187.204L341.286 185.717" stroke="#263238" stroke-linecap="round" stroke-linejoin="round"/>
<path d="M340.998 182.752C337.071 145.583 319.736 111.119 292.236 85.8081C264.736 60.4969 228.956 46.0732 191.59 45.2356C154.224 44.3981 117.834 57.2043 89.2271 81.2579C60.6207 105.311 41.7589 138.964 36.1708 175.919C35.7477 178.736 35.4172 181.562 35.1792 184.398" stroke="#263238" stroke-linecap="round" stroke-linejoin="round" stroke-dasharray="3.01 3.01"/>
<path d="M35.0008 185.865L34.8818 187.343" stroke="#263238" stroke-linecap="round" stroke-linejoin="round"/>
<path d="M69.1426 161.362L77.9284 125.614H51.2734L69.1426 161.362Z" fill="#263238" stroke="#263238" stroke-linecap="round" stroke-linejoin="round"/>
<path d="M69.1427 161.362L71.0962 126.973H54.1294L69.1427 161.362Z" fill="#00042D" stroke="#263238" stroke-linecap="round" stroke-linejoin="round"/>
<path d="M69.1428 161.362L67.3281 124.295H50.3613L69.1428 161.362Z" fill="#00042D" stroke="#263238" stroke-linecap="round" stroke-linejoin="round"/>
<path d="M37.47 122.579L33.0969 117.631H10.0713L20.8701 161.362H69.1427L61.4873 122.579H37.47Z" fill="#263238" stroke="#263238" stroke-linecap="round" stroke-linejoin="round"/>
<path d="M120.38 54.9006H62.8756C60.8657 54.9006 59.2363 56.53 59.2363 58.5399V89.6077C59.2363 91.6176 60.8657 93.247 62.8756 93.247H120.38C122.39 93.247 124.019 91.6176 124.019 89.6077V58.5399C124.019 56.53 122.39 54.9006 120.38 54.9006Z" fill="#263238" stroke="#263238" stroke-linecap="round" stroke-linejoin="round"/>
<path d="M124.019 62.1694H59.2363V76.0522H124.019V62.1694Z" fill="#00042D" stroke="#263238" stroke-linecap="round" stroke-linejoin="round"/>
<path d="M110.345 87.1188C110.345 86.5834 110.186 86.06 109.889 85.6148C109.591 85.1696 109.168 84.8226 108.674 84.6177C108.179 84.4128 107.635 84.3592 107.11 84.4636C106.585 84.5681 106.102 84.8259 105.724 85.2045C105.345 85.5831 105.087 86.0655 104.983 86.5906C104.878 87.1158 104.932 87.6601 105.137 88.1548C105.342 88.6494 105.689 89.0722 106.134 89.3697C106.579 89.6672 107.102 89.8259 107.638 89.8259C108.356 89.8259 109.044 89.5407 109.552 89.033C110.06 88.5253 110.345 87.8368 110.345 87.1188Z" fill="white" stroke="#263238" stroke-linecap="round" stroke-linejoin="round"/>
<path d="M117.871 87.1188C117.871 86.5834 117.713 86.06 117.415 85.6148C117.118 85.1696 116.695 84.8226 116.2 84.6177C115.706 84.4128 115.161 84.3592 114.636 84.4636C114.111 84.5681 113.629 84.8259 113.25 85.2045C112.871 85.5831 112.614 86.0655 112.509 86.5906C112.405 87.1158 112.458 87.6601 112.663 88.1548C112.868 88.6494 113.215 89.0722 113.66 89.3697C114.105 89.6672 114.629 89.8259 115.164 89.8259C115.882 89.8259 116.571 89.5407 117.078 89.033C117.586 88.5253 117.871 87.8368 117.871 87.1188Z" fill="white" stroke="#263238" stroke-linecap="round" stroke-linejoin="round"/>
<path d="M227.883 29.2078H158.508V74.1881H227.883V29.2078Z" fill="#00042D" stroke="#263238" stroke-linecap="round" stroke-linejoin="round"/>
<path d="M224.739 32.0635H161.89V70.9651H224.739V32.0635Z" fill="#263238" stroke="#263238" stroke-linecap="round" stroke-linejoin="round"/>
<path d="M180.275 59.1947C180.275 54.9505 176.824 47.6521 172.579 47.6521C168.335 47.6521 164.875 54.9505 164.875 59.1947C164.875 63.4388 168.325 64.49 172.579 64.49C176.834 64.49 180.275 63.4091 180.275 59.1947Z" fill="white" stroke="#263238" stroke-linecap="round" stroke-linejoin="round"/>
<path d="M172.579 49.0601C175.504 49.0601 177.875 46.6893 177.875 43.7648C177.875 40.8403 175.504 38.4695 172.579 38.4695C169.655 38.4695 167.284 40.8403 167.284 43.7648C167.284 46.6893 169.655 49.0601 172.579 49.0601Z" fill="white" stroke="#263238" stroke-linecap="round" stroke-linejoin="round"/>
<path d="M187.97 39.4712H200.791" stroke="white" stroke-width="2" stroke-linecap="round" stroke-linejoin="round"/>
<path d="M187.97 45.0242H200.791" stroke="white" stroke-width="2" stroke-linecap="round" stroke-linejoin="round"/>
<path d="M187.97 54.8613H217.887" stroke="white" stroke-width="2" stroke-linecap="round" stroke-linejoin="round"/>
<path d="M187.97 62.1296H217.887" stroke="white" stroke-width="2" stroke-linecap="round" stroke-linejoin="round"/>
<path d="M322.821 54.9006H271.227C268.034 54.9006 265.446 57.489 265.446 60.6818V87.5352C265.446 90.728 268.034 93.3164 271.227 93.3164H322.821C326.014 93.3164 328.603 90.728 328.603 87.5352V60.6818C328.603 57.489 326.014 54.9006 322.821 54.9006Z" fill="#263238" stroke="#263238" stroke-width="2" stroke-linecap="round" stroke-linejoin="round"/>
<path d="M299.548 73.1466L328.603 58.4507V57.7764C328.603 57.0137 328.3 56.2822 327.76 55.7429C327.221 55.2036 326.49 54.9006 325.727 54.9006H268.331C267.568 54.9006 266.835 55.2033 266.294 55.7423C265.754 56.2813 265.448 57.0128 265.446 57.7764V58.5796L293.975 73.216C294.845 73.6404 295.802 73.8552 296.77 73.8431C297.737 73.8311 298.689 73.5925 299.548 73.1466Z" fill="#00042D" stroke="#263238" stroke-width="2" stroke-linecap="round" stroke-linejoin="round"/>
<path d="M360.444 121.875H304.645C302.427 121.875 300.629 123.674 300.629 125.892V150.077C300.629 152.295 302.427 154.094 304.645 154.094H360.444C362.662 154.094 364.46 152.295 364.46 150.077V125.892C364.46 123.674 362.662 121.875 360.444 121.875Z" fill="#263238"/>
<path d="M300.639 145.665V162.968L310.287 151.862" fill="#263238"/>
<path d="M322.891 138.574C322.893 137.918 322.7 137.277 322.337 136.731C321.973 136.184 321.456 135.758 320.851 135.506C320.245 135.255 319.578 135.188 318.935 135.316C318.292 135.443 317.7 135.759 317.237 136.223C316.773 136.686 316.457 137.277 316.33 137.921C316.202 138.564 316.269 139.231 316.521 139.837C316.773 140.442 317.199 140.959 317.745 141.322C318.291 141.686 318.933 141.878 319.589 141.877C320.464 141.874 321.302 141.525 321.921 140.906C322.539 140.288 322.888 139.449 322.891 138.574Z" fill="#00042D"/>
<path d="M337.061 138.574C337.063 137.918 336.87 137.277 336.507 136.731C336.144 136.184 335.627 135.758 335.021 135.506C334.415 135.255 333.749 135.188 333.105 135.316C332.462 135.443 331.871 135.759 331.407 136.223C330.943 136.686 330.628 137.277 330.5 137.921C330.373 138.564 330.439 139.231 330.691 139.837C330.943 140.442 331.369 140.959 331.915 141.322C332.461 141.686 333.103 141.878 333.759 141.877C334.634 141.874 335.472 141.525 336.091 140.906C336.71 140.288 337.058 139.449 337.061 138.574Z" fill="#00042D"/>
<path d="M351.241 138.574C351.243 137.919 351.051 137.278 350.688 136.732C350.325 136.186 349.809 135.76 349.204 135.507C348.599 135.255 347.932 135.188 347.289 135.315C346.646 135.442 346.055 135.756 345.591 136.219C345.127 136.682 344.81 137.272 344.682 137.915C344.553 138.557 344.618 139.224 344.868 139.83C345.119 140.435 345.543 140.953 346.088 141.318C346.633 141.682 347.274 141.877 347.929 141.877C348.805 141.874 349.645 141.526 350.265 140.907C350.885 140.289 351.236 139.45 351.241 138.574Z" fill="#00042D"/>
<path d="M68.8055 202.257C68.6506 202.054 68.451 201.89 68.2223 201.776C67.9937 201.663 67.742 201.603 67.4867 201.603H24.6483L23.0022 196.644C22.8903 196.315 22.6781 196.029 22.3954 195.826C22.1126 195.623 21.7734 195.514 21.4255 195.514H10.5771C10.1587 195.546 9.76797 195.735 9.48293 196.043C9.19789 196.351 9.03955 196.755 9.03955 197.175C9.03955 197.594 9.19789 197.999 9.48293 198.307C9.76797 198.614 10.1587 198.804 10.5771 198.836H20.2256L30.6873 230.221C30.7978 230.551 31.0097 230.838 31.2928 231.041C31.5758 231.244 31.9157 231.353 32.264 231.351H32.8689C32.2731 232.27 31.9562 233.341 31.9566 234.435C31.9513 235.328 32.1548 236.21 32.5509 237.011C32.9469 237.811 33.5245 238.508 34.2376 239.046C34.9506 239.583 35.7795 239.947 36.658 240.107C37.5365 240.268 38.4404 240.221 39.2975 239.97C40.1547 239.719 40.9413 239.272 41.5948 238.663C42.2483 238.054 42.7505 237.301 43.0613 236.464C43.3722 235.627 43.4831 234.729 43.3852 233.841C43.2873 232.953 42.9834 232.101 42.4976 231.351H50.4307C49.8349 232.27 49.518 233.341 49.5183 234.435C49.4862 235.207 49.6105 235.978 49.8839 236.701C50.1572 237.424 50.5738 238.084 51.1087 238.641C51.6437 239.199 52.2859 239.643 52.9967 239.946C53.7075 240.249 54.4723 240.405 55.245 240.405C56.0178 240.405 56.7825 240.249 57.4934 239.946C58.2042 239.643 58.8464 239.199 59.3813 238.641C59.9162 238.084 60.3329 237.424 60.6062 236.701C60.8795 235.978 61.0038 235.207 60.9717 234.435C60.972 233.341 60.6552 232.27 60.0594 231.351H61.3386C61.5675 231.369 61.7976 231.339 62.0144 231.264C62.2313 231.188 62.4302 231.069 62.5987 230.913C62.7672 230.757 62.9016 230.568 62.9936 230.358C63.0855 230.147 63.133 229.92 63.133 229.69C63.133 229.461 63.0855 229.234 62.9936 229.023C62.9016 228.813 62.7672 228.624 62.5987 228.468C62.4302 228.312 62.2313 228.192 62.0144 228.117C61.7976 228.042 61.5675 228.012 61.3386 228.029H33.454L31.6194 222.546H62.7368C63.1024 222.545 63.4577 222.425 63.748 222.203C64.0383 221.98 64.2475 221.669 64.3432 221.316L69.0832 203.705C69.1526 203.458 69.1637 203.199 69.1155 202.948C69.0673 202.697 68.9612 202.46 68.8055 202.257ZM37.6783 236.835C37.2037 236.835 36.7397 236.694 36.3451 236.431C35.9504 236.167 35.6428 235.792 35.4612 235.354C35.2796 234.915 35.2321 234.433 35.3247 233.967C35.4173 233.502 35.6458 233.074 35.9814 232.738C36.317 232.403 36.7446 232.174 37.2101 232.082C37.6756 231.989 38.1581 232.037 38.5966 232.218C39.0351 232.4 39.4099 232.708 39.6736 233.102C39.9373 233.497 40.078 233.961 40.078 234.435C40.0754 235.071 39.8218 235.68 39.3723 236.129C38.9228 236.579 38.3139 236.833 37.6783 236.835ZM55.2996 236.835C54.8249 236.835 54.361 236.694 53.9663 236.431C53.5717 236.167 53.2641 235.792 53.0825 235.354C52.9008 234.915 52.8533 234.433 52.9459 233.967C53.0385 233.502 53.2671 233.074 53.6027 232.738C53.9383 232.403 54.3659 232.174 54.8314 232.082C55.2969 231.989 55.7794 232.037 56.2179 232.218C56.6564 232.4 57.0312 232.708 57.2949 233.102C57.5586 233.497 57.6993 233.961 57.6993 234.435C57.698 234.753 57.6341 235.067 57.5111 235.359C57.3882 235.652 57.2087 235.917 56.983 236.14C56.7573 236.363 56.4897 236.539 56.1957 236.658C55.9017 236.778 55.5871 236.838 55.2698 236.835H55.2996ZM59.7321 219.224H53.5741V204.964H59.7321V219.224ZM44.0842 204.964H50.2422V219.254H44.0842V204.964ZM40.7623 219.254H34.6042V204.964H40.7623V219.254ZM25.7589 204.964H31.2724V219.254H30.5286L25.7589 204.964ZM63.0541 213.373V204.964H65.315L63.0541 213.373Z" fill="#263238"/>
<path d="M339.024 194.225C334.283 194.223 329.648 195.627 325.705 198.26C321.762 200.893 318.688 204.636 316.873 209.016C315.058 213.396 314.582 218.216 315.507 222.866C316.431 227.516 318.714 231.787 322.067 235.14C325.419 238.493 329.691 240.775 334.341 241.7C338.991 242.624 343.811 242.149 348.191 240.334C352.571 238.518 356.314 235.445 358.947 231.502C361.58 227.559 362.984 222.924 362.982 218.182C362.974 211.831 360.448 205.742 355.957 201.25C351.465 196.759 345.376 194.232 339.024 194.225ZM339.024 197.2C341.008 197.2 343.17 199.798 344.697 204.141H333.352C334.909 199.798 337.011 197.2 339.024 197.2ZM345.559 207.116C346.288 210.249 346.69 213.449 346.759 216.665H331.28C331.349 213.449 331.751 210.249 332.48 207.116H345.559ZM346.809 219.67C346.727 223.416 346.174 227.138 345.163 230.746H332.926C331.934 227.149 331.398 223.441 331.329 219.709L346.809 219.67ZM328.345 216.695H318.101C318.342 213.308 319.404 210.03 321.195 207.146H329.406C328.733 210.286 328.361 213.484 328.295 216.695H328.345ZM328.345 219.67C328.394 223.404 328.87 227.12 329.763 230.746H322.216C319.811 227.54 318.382 223.708 318.101 219.709L328.345 219.67ZM330.695 233.721C331.278 235.347 332.058 236.895 333.015 238.332C330.003 237.422 327.234 235.847 324.914 233.721H330.695ZM333.918 233.721H344.121C342.664 237.192 340.79 239.215 339.024 239.215C337.259 239.215 335.385 237.152 333.918 233.721ZM347.344 233.721H353.125C350.805 235.847 348.036 237.422 345.024 238.332C345.982 236.895 346.761 235.347 347.344 233.721ZM348.276 230.746C349.204 227.125 349.71 223.408 349.784 219.67H359.978C359.693 223.686 358.249 227.533 355.823 230.746H348.276ZM349.784 216.695C349.718 213.484 349.346 210.286 348.673 207.146H356.884C358.675 210.03 359.737 213.308 359.978 216.695H349.784ZM354.643 204.171H347.89C347.25 202.014 346.298 199.963 345.064 198.082C348.739 199.203 352.038 201.308 354.603 204.171H354.643ZM333.055 198.082C331.82 199.961 330.871 202.013 330.239 204.171H323.476C326.04 201.308 329.339 199.203 333.015 198.082H333.055Z" fill="#263238"/>
</svg>
