<svg width="353" height="376" viewBox="0 0 353 376" fill="none" xmlns="http://www.w3.org/2000/svg">
<path d="M324.579 193.814C320.167 196.424 315.027 197.595 309.896 197.157C304.765 196.719 299.907 194.696 296.018 191.377C292.129 188.059 289.409 183.615 288.248 178.683C287.086 173.751 287.543 168.585 289.553 163.924C291.563 159.263 295.022 155.347 299.435 152.738C303.848 150.128 308.988 148.959 314.119 149.398C319.25 149.837 324.107 151.862 327.995 155.181C331.883 158.501 334.602 162.945 335.762 167.878C336.93 172.808 336.477 177.975 334.467 182.636C332.457 187.296 328.995 191.21 324.579 193.814Z" fill="#EBEBEB"/>
<path d="M319.458 170.63C319.44 172.071 318.987 173.475 318.157 174.663C317.328 175.852 316.158 176.772 314.797 177.307C313.435 177.842 311.943 177.969 310.508 177.671C309.073 177.372 307.761 176.663 306.736 175.632C305.712 174.6 305.021 173.294 304.752 171.877C304.483 170.46 304.647 168.996 305.224 167.671C305.801 166.346 306.764 165.218 307.993 164.431C309.221 163.644 310.659 163.233 312.126 163.249C313.1 163.26 314.063 163.459 314.96 163.836C315.856 164.213 316.668 164.76 317.348 165.445C318.029 166.131 318.566 166.942 318.928 167.831C319.29 168.721 319.47 169.672 319.458 170.63Z" fill="white"/>
<path d="M324.613 190.805V193.814C320.731 196.107 316.277 197.292 311.749 197.236C307.22 197.181 302.797 195.887 298.975 193.5L299.017 190.499C299.038 188.845 299.389 187.211 300.052 185.691C300.715 184.17 301.676 182.793 302.88 181.637C304.085 180.482 305.509 179.571 307.072 178.956C308.634 178.342 310.304 178.036 311.987 178.056C313.67 178.076 315.333 178.422 316.879 179.073C318.426 179.725 319.828 180.67 321.003 181.854C322.179 183.037 323.105 184.437 323.73 185.973C324.356 187.509 324.667 189.151 324.646 190.805H324.613Z" fill="white"/>
<path d="M50.4181 122.476C47.8727 123.982 44.9504 124.761 41.9797 124.724C39.0089 124.688 36.1074 123.838 33.601 122.27C30.6695 120.436 28.4263 117.712 27.2114 114.512C25.9965 111.312 25.8761 107.81 26.8687 104.536C27.8612 101.263 29.9124 98.3967 32.7114 96.3725C35.5103 94.3482 38.9044 93.2762 42.3791 93.3189C45.8537 93.3615 49.2195 94.5166 51.9661 96.609C54.7127 98.7014 56.6904 101.617 57.5994 104.914C58.5083 108.211 58.299 111.709 57.0031 114.878C55.7072 118.047 53.3954 120.715 50.4181 122.476Z" fill="#EBEBEB"/>
<path d="M47.0628 107.285C47.0527 108.23 46.7577 109.151 46.215 109.931C45.6723 110.712 44.9063 111.316 44.014 111.668C43.1216 112.02 42.1431 112.105 41.2021 111.91C40.2611 111.715 39.4001 111.251 38.7278 110.575C38.0556 109.899 37.6024 109.042 37.4256 108.113C37.2488 107.184 37.3564 106.224 37.7347 105.355C38.113 104.486 38.7451 103.747 39.5509 103.232C40.3567 102.716 41.3 102.447 42.2615 102.458C42.8994 102.464 43.5297 102.595 44.1164 102.841C44.703 103.087 45.2346 103.444 45.6805 103.893C46.1265 104.341 46.4781 104.871 46.7153 105.454C46.9525 106.036 47.0706 106.658 47.0628 107.285Z" fill="white"/>
<path d="M50.4436 120.501V122.476C47.8981 123.982 44.9759 124.761 42.0051 124.724C39.0344 124.688 36.1328 123.838 33.6265 122.27V120.311C33.6521 118.119 34.5626 116.027 36.1576 114.494C37.7527 112.962 39.9016 112.115 42.1317 112.141C44.3618 112.166 46.4904 113.061 48.0491 114.629C49.6079 116.197 50.4692 118.309 50.4436 120.501Z" fill="white"/>
<path d="M121.773 124.733H15.2871V53.1226H121.773V124.733ZM16.128 123.906H120.932V53.9491H16.128V123.906Z" fill="#EBEBEB"/>
<path d="M23.6114 57.7346C23.6114 58.1465 23.4872 58.5492 23.2543 58.8917C23.0215 59.2343 22.6906 59.5012 22.3034 59.6589C21.9162 59.8165 21.4901 59.8578 21.0791 59.7774C20.6681 59.697 20.2905 59.4987 19.9942 59.2074C19.6978 58.9161 19.496 58.545 19.4143 58.1409C19.3325 57.7369 19.3745 57.3181 19.5348 56.9375C19.6952 56.5569 19.9668 56.2316 20.3153 56.0028C20.6637 55.7739 21.0734 55.6517 21.4925 55.6517C22.0545 55.6517 22.5934 55.8712 22.9908 56.2618C23.3882 56.6524 23.6114 57.1822 23.6114 57.7346Z" fill="#A6A6A6"/>
<path d="M32.2638 57.7346C32.2638 58.1465 32.1395 58.5492 31.9067 58.8917C31.6738 59.2343 31.3429 59.5012 30.9557 59.6589C30.5685 59.8165 30.1425 59.8578 29.7314 59.7774C29.3204 59.697 28.9428 59.4987 28.6465 59.2074C28.3502 58.9161 28.1484 58.545 28.0666 58.1409C27.9848 57.7369 28.0268 57.3181 28.1872 56.9375C28.3476 56.5569 28.6191 56.2316 28.9676 56.0028C29.3161 55.7739 29.7257 55.6517 30.1448 55.6517C30.7068 55.6517 31.2458 55.8712 31.6432 56.2618C32.0405 56.6524 32.2638 57.1822 32.2638 57.7346Z" fill="#EBEBEB"/>
<path d="M40.9161 57.7346C40.9161 58.1465 40.7919 58.5492 40.559 58.8917C40.3262 59.2343 39.9953 59.5012 39.6081 59.6589C39.2209 59.8165 38.7948 59.8578 38.3838 59.7774C37.9728 59.697 37.5952 59.4987 37.2988 59.2074C37.0025 58.9161 36.8007 58.545 36.7189 58.1409C36.6372 57.7369 36.6791 57.3181 36.8395 56.9375C36.9999 56.5569 37.2715 56.2316 37.6199 56.0028C37.9684 55.7739 38.3781 55.6517 38.7972 55.6517C39.3592 55.6517 39.8981 55.8712 40.2955 56.2618C40.6929 56.6524 40.9161 57.1822 40.9161 57.7346Z" fill="#00042D"/>
<path d="M121.353 61.4043H15.7075V62.2308H121.353V61.4043Z" fill="#EBEBEB"/>
<path d="M80.728 143.523L25.2495 150.964L30.0503 185.548L85.5287 178.107L80.728 143.523Z" fill="#EBEBEB"/>
<path d="M80.7224 143.536C78.7716 145.942 76.7703 148.264 74.8364 150.636C72.9024 153.008 70.8339 155.306 68.8243 157.62C66.8146 159.935 64.62 162.431 62.501 164.811L62.3076 165.043C60.4409 167.142 58.563 169.244 56.6739 171.349L56.3964 171.647L56.0517 171.432C53.6636 169.903 51.2924 168.373 48.9128 166.828L48.6606 166.671C45.9698 164.927 43.2791 163.175 40.5968 161.389C37.9144 159.604 35.4675 157.984 32.9113 156.257C30.3551 154.529 27.8073 152.777 25.2764 150.967C27.9082 152.455 30.5149 154.033 33.1215 155.571C35.7282 157.108 38.3433 158.711 40.9499 160.315C43.8425 162.084 46.735 163.883 49.6275 165.712C51.7969 167.068 53.9635 168.445 56.1273 169.845C57.8091 167.952 59.5496 166.059 61.2734 164.191C63.5689 161.712 65.856 159.183 68.1684 156.703C70.2369 154.499 72.3166 152.295 74.4075 150.091C76.5097 147.867 78.5866 145.661 80.7224 143.536Z" fill="white"/>
<path d="M49.7874 166.489L49.7285 166.555C49.4763 166.836 49.2156 167.125 48.9549 167.382C47.7273 168.721 46.4324 170.018 45.1543 171.291C43.5735 172.853 41.9422 174.366 40.2941 175.87C38.6461 177.374 36.9812 178.821 35.249 180.251C33.5168 181.681 31.8015 183.094 29.9937 184.383C31.4736 182.73 33.0375 181.127 34.6184 179.573C36.1992 178.019 37.8388 176.49 39.4785 174.994C41.1182 173.498 42.8419 172.027 44.5236 170.597C45.8858 169.456 47.2732 168.324 48.7279 167.249C49.0558 166.993 49.3922 166.754 49.7285 166.506L49.7874 166.489Z" fill="white"/>
<path d="M85.2378 177.027C83.1357 176.201 81.0335 175.333 79.0491 174.407C77.0647 173.481 75.0046 172.49 73.0034 171.498C71.0021 170.506 69.0261 169.456 67.1174 168.365C65.5282 167.489 63.9474 166.58 62.4086 165.613L61.4164 164.993L61.3491 164.943H61.4332L62.602 165.398C64.2837 166.059 65.9066 166.787 67.5378 167.53C69.5811 168.456 71.5823 169.44 73.5752 170.44C75.568 171.44 77.5524 172.481 79.5032 173.572C81.454 174.663 83.3459 175.804 85.2378 177.027Z" fill="white"/>
<path d="M323.2 51.9324H254.536V94.7382H323.2V51.9324Z" fill="#EBEBEB"/>
<path d="M323.2 51.9324C320.425 54.5359 317.6 57.032 314.791 59.6025C311.983 62.173 309.149 64.6196 306.315 67.1074C303.482 69.5952 300.387 72.2649 297.411 74.8106L297.15 75.0586C294.521 77.3122 291.884 79.5632 289.238 81.8113L288.843 82.1254L288.464 81.8113C285.824 79.5632 283.192 77.3095 280.568 75.0503L280.291 74.8106C277.303 72.2649 274.332 69.6917 271.378 67.0909C268.553 64.6113 265.727 62.1317 262.911 59.6025C260.094 57.0734 257.294 54.5359 254.502 51.9324C257.453 54.164 260.388 56.5113 263.264 58.8008C266.139 61.0903 269.082 63.4624 271.967 65.8345C275.19 68.4519 278.405 71.1105 281.611 73.8105C284.016 75.8107 286.421 77.8219 288.826 79.8442C291.214 77.8275 293.619 75.8025 296.023 73.8105C299.23 71.1326 302.445 68.4739 305.668 65.8345C308.549 63.4762 311.447 61.1371 314.362 58.8173C317.356 56.5113 320.248 54.164 323.2 51.9324Z" fill="white"/>
<path d="M281.746 74.7858C281.719 74.8098 281.691 74.8319 281.661 74.8519C281.3 75.1577 280.947 75.4635 280.585 75.7528C278.861 77.1827 277.096 78.5547 275.305 79.8854C273.118 81.5385 270.882 83.1006 268.628 84.6628C266.375 86.2249 264.104 87.7126 261.784 89.1756C259.463 90.6385 257.125 92.0602 254.704 93.3661C256.781 91.5725 258.908 89.9029 261.136 88.2747C263.364 86.6464 265.567 85.0595 267.804 83.4974C270.041 81.9352 272.345 80.4392 274.666 78.9763C276.507 77.8109 278.382 76.662 280.308 75.5875C280.745 75.3395 281.191 75.0916 281.645 74.8519L281.746 74.7858Z" fill="white"/>
<path d="M323.04 93.358C320.61 92.052 318.264 90.6222 315.952 89.1675C313.639 87.7128 311.361 86.1837 309.09 84.6546C306.82 83.1256 304.609 81.5221 302.422 79.8773C300.64 78.5549 298.874 77.1911 297.167 75.7447C296.789 75.4389 296.435 75.133 296.074 74.8272C296.044 74.8073 296.016 74.7851 295.99 74.7611L296.091 74.8107L297.428 75.5546C299.353 76.6291 301.22 77.7779 303.07 78.9433C305.39 80.4063 307.661 81.9271 309.923 83.4644C312.185 85.0018 314.404 86.597 316.591 88.2418C318.777 89.8865 320.955 91.5644 323.04 93.358Z" fill="white"/>
<path d="M164.354 375.633C230.85 375.633 284.756 371.53 284.756 366.467C284.756 361.405 230.85 357.301 164.354 357.301C97.8575 357.301 43.9517 361.405 43.9517 366.467C43.9517 371.53 97.8575 375.633 164.354 375.633Z" fill="#EBEBEB"/>
<path d="M205.11 0.489502H204.269V114.186H205.11V0.489502Z" fill="#C7C7C7"/>
<path d="M170.366 146.71L173.132 152.678H236.264L239.013 146.71L212.139 128.419H197.248L170.366 146.71Z" fill="#00042D"/>
<path d="M195.381 110.806L197.248 128.419H212.139L214.006 110.806H195.381Z" fill="#00042D"/>
<path opacity="0.1" d="M170.374 146.71L173.132 152.678H236.272L239.021 146.71H170.374Z" fill="black"/>
<path opacity="0.1" d="M197.248 128.419L197.046 126.527L212.45 125.436L212.139 128.419H197.248Z" fill="black"/>
<path d="M147.822 0.489502H146.981V78.4062H147.822V0.489502Z" fill="#C7C7C7"/>
<path d="M113.078 110.93L115.845 116.898H178.976L181.726 110.93L154.852 92.6472H139.96L113.078 110.93Z" fill="#00042D"/>
<path d="M138.094 75.0256L139.96 92.6472H154.852L156.719 75.0256H138.094Z" fill="#00042D"/>
<path opacity="0.1" d="M113.086 110.938L115.844 116.898H178.976L181.734 110.938H113.086Z" fill="black"/>
<path opacity="0.1" d="M139.96 92.6473L139.742 90.6058L155.171 89.6222L154.852 92.6473H139.96Z" fill="black"/>
<path d="M291.499 259.771C291.751 255.597 292.353 251.45 293.299 247.373C294.19 243.695 295.451 239.934 297.814 236.884C298.853 235.451 300.17 234.234 301.69 233.304C303.21 232.373 304.901 231.747 306.668 231.462C310.141 231.049 313.395 232.57 315.993 234.711C319.205 237.372 321.669 240.901 323.981 244.315C326.513 248.136 328.815 252.099 330.876 256.184C330.952 256.316 330.742 256.432 330.675 256.299C328.884 252.84 326.82 249.524 324.503 246.381C322.39 243.364 320.012 240.535 317.397 237.926C315.018 235.645 311.991 233.504 308.535 233.396C305.079 233.289 301.934 235.182 299.874 237.785C297.562 240.695 296.384 244.323 295.502 247.861C294.609 251.738 294.029 255.679 293.769 259.647C293.088 267.838 292.929 276.078 292.718 284.286C292.609 288.931 292.55 293.584 292.5 298.229L292.449 305.296C292.534 307.57 292.441 309.847 292.172 312.107C292.088 312.561 291.331 312.52 291.247 312.107C290.967 309.967 290.863 307.808 290.936 305.651C290.902 303.42 290.874 301.188 290.852 298.956C290.807 294.62 290.79 290.281 290.801 285.939C290.784 277.202 290.894 268.466 291.499 259.771Z" fill="#263238"/>
<path d="M303.406 253.597C303.843 251.283 304.642 248.266 305.979 246.472C308.392 243.249 311.024 244.646 308.594 248.216C306.82 250.867 305.671 253.875 305.23 257.019C305.23 257.019 309.283 262.713 314.177 265.515C313.967 263.325 313.336 259.961 313.773 256.713C314.715 249.679 319.046 250.101 317.978 255.663C317.137 260.143 316.767 264.904 317.002 266.962C318.637 268.004 320.393 268.85 322.232 269.483C321.947 268.656 321.652 267.689 321.324 266.499C319.584 260.192 323.847 258.234 323.998 261.779C324.282 264.804 324.845 267.798 325.68 270.722C328.026 271.499 329.977 272.028 331.162 272.433C334.245 273.556 337 275.407 339.184 277.822C341.412 275.843 343.263 273.49 344.65 270.871C343.153 269.607 340.79 267.73 337.511 265.449C331.364 261.184 333.5 255.795 338.352 259.143C341.866 261.565 344.591 266.044 345.835 268.342C347.494 264.335 348.435 260.076 348.619 255.754C343.792 251.299 331.843 245.084 335.442 245.084C338.688 245.084 345.936 249.753 348.593 251.555C348.53 250.331 348.395 249.111 348.19 247.902C343.641 244.968 328.85 240.414 331.213 239.1C333.794 237.661 344.112 242.356 347.231 243.836C346.645 241.843 345.721 239.963 344.498 238.273C338.209 230.008 326.84 227.156 321.93 228.727C318.432 229.842 319.407 238.571 318.701 238.273C304.625 232.744 298.234 236.645 303.406 253.597ZM337.881 252.638C338.881 251.456 343.489 254.944 342.161 256.845C340.832 258.746 336.577 254.159 337.864 252.638H337.881ZM313.773 245.199C314.984 245.96 313.193 250.365 311.318 249.034C309.746 247.894 312.537 244.431 313.757 245.199H313.773Z" fill="#00042D"/>
<path d="M315.632 246.547C316.263 245.315 316.927 244.067 317.65 242.902C318.315 241.73 319.092 240.623 319.971 239.595C319.777 239.356 319.584 239.108 319.374 238.868C319.29 238.769 319.433 238.637 319.517 238.728C319.752 238.992 319.979 239.265 320.206 239.554C320.23 239.566 320.251 239.582 320.268 239.602C320.286 239.622 320.299 239.645 320.307 239.67C321.176 240.695 321.997 241.744 322.771 242.819C324.154 243.132 325.519 243.521 326.857 243.984C328.236 244.439 329.607 244.91 330.944 245.464C331.087 245.522 331.011 245.753 330.877 245.687C329.548 245.117 328.203 244.555 326.824 244.1C325.445 243.645 324.2 243.331 322.88 242.968C323.309 243.563 323.721 244.158 324.133 244.769C326.616 245.542 329.031 246.509 331.356 247.662C333.794 248.803 336.14 250.142 338.478 251.456C338.613 251.531 338.478 251.737 338.352 251.654C336.054 250.334 333.688 249.131 331.264 248.051C329.002 247.009 326.664 246.158 324.385 245.166C330.128 253.969 333.567 264.135 338.175 273.541C338.243 273.681 338.024 273.789 337.965 273.657C336.561 270.351 334.938 267.144 333.408 263.895C332.037 260.978 330.692 258.052 329.321 255.134C328.918 254.308 328.48 253.432 328.077 252.588C328.329 257.291 328.228 262.077 329.018 266.722C329.018 266.737 329.015 266.752 329.009 266.766C329.004 266.78 328.995 266.793 328.984 266.804C328.973 266.815 328.96 266.823 328.946 266.829C328.931 266.835 328.916 266.838 328.901 266.838C328.885 266.838 328.87 266.835 328.856 266.829C328.841 266.823 328.828 266.815 328.817 266.804C328.807 266.793 328.798 266.78 328.792 266.766C328.786 266.752 328.783 266.737 328.783 266.722C328.447 261.697 327.547 256.746 327.581 251.696C327.581 251.696 327.581 251.654 327.581 251.63C326.605 249.704 325.563 247.811 324.444 245.968C322.544 250.365 320.543 254.837 319.66 259.564C319.66 259.705 319.391 259.647 319.424 259.498C320.719 254.762 321.947 250.018 324.242 245.637C323.024 243.643 321.673 241.729 320.198 239.91C319.559 241.075 318.743 242.182 318.02 243.298C317.297 244.414 316.616 245.489 315.96 246.604C314.546 248.977 313.344 251.466 312.369 254.043C312.311 254.184 312.084 254.109 312.142 253.977C313.236 251.506 314.346 248.985 315.632 246.547Z" fill="#263238"/>
<path d="M270.344 257.258C274.027 253.622 278.306 248.861 283.999 248.869C289.498 248.869 293.543 253.225 295.864 257.713C298.294 262.408 299.168 267.722 299.858 272.888C300.67 279.078 301.164 285.304 301.338 291.543C301.438 295.006 301.422 298.477 301.338 301.94C301.326 305.452 301.045 308.959 300.497 312.429C300.396 312.983 299.479 313.008 299.446 312.429C299.277 309.511 299.395 306.577 299.446 303.66C299.496 300.742 299.446 297.874 299.311 295.039C299.092 289.253 298.664 283.468 297.966 277.682C297.36 272.632 296.881 267.449 295.342 262.573C293.963 258.176 291.365 253.151 286.833 251.216C280.644 248.588 274.598 253.399 270.554 257.465C270.419 257.539 270.226 257.366 270.344 257.258Z" fill="#263238"/>
<path d="M251.55 265.375C251.55 266.119 251.618 266.846 251.668 267.565C253.44 266.259 255.515 265.407 257.705 265.085C262.935 264.54 262.599 268.441 259.11 268.606C256.65 268.637 254.218 269.116 251.937 270.02C252.778 276.806 254.687 282.261 254.973 282.335C259.611 282.099 264.227 281.546 268.788 280.682C267.485 277.954 264.525 274.334 266.038 274.07C267.552 273.805 269.191 276.996 270.032 280.459C273.463 279.815 276.837 278.906 280.123 277.739C277.819 275.781 274.237 273.342 275.624 272.309C277.011 271.276 279.828 274.698 281.51 277.194C283.051 276.576 284.511 275.776 285.857 274.814C282.754 270.334 275.204 269.425 276.187 266.193C277.171 262.961 284.243 267.441 287.413 273.433C291.138 269.631 292.231 264.259 291.836 259.663C288.59 259.291 282.351 259.969 282.805 257.68C283.259 255.39 287.766 255.82 291.457 257.159C291.119 255.34 290.378 253.616 289.288 252.109C285.874 247.794 275.431 253.283 275.431 253.283C275.431 253.283 276.549 242.968 272.572 241.19C270.276 240.166 266.223 240.174 262.162 242.521C264.441 242.711 267.207 243.422 268.3 245.001C269.721 246.976 267.459 248.059 266.063 247.141C265.063 246.497 263.196 244.455 259.824 244.182C258.384 245.386 257.117 246.777 256.057 248.315C255.67 248.852 255.317 249.414 254.956 250.026C256.883 249.171 258.979 248.746 261.093 248.784C263.208 248.821 265.287 249.319 267.182 250.241C271.706 252.448 269.175 257.068 265.281 255.274C261.388 253.481 257.714 251.712 253.552 252.729C252.089 256.361 251.394 260.247 251.508 264.151C253.534 262.7 255.815 261.627 258.235 260.986C262.734 259.829 264.121 262.465 259.152 262.961C256.476 263.245 253.889 264.067 251.55 265.375ZM257.024 258.275C256.713 256.837 259.9 256.432 260.43 257.589C260.875 258.581 257.327 259.705 257.024 258.275ZM284.318 266.209C284.621 265.424 286.757 266.317 286.564 267.292C286.294 268.59 284.024 266.986 284.318 266.209ZM269.25 271.235C270.806 270.623 273.236 274.425 271.537 275.293C269.839 276.161 267.972 271.739 269.25 271.235Z" fill="#00042D"/>
<path d="M255.578 281.583C257.924 277.731 260.245 273.863 262.709 270.078C263.852 268.317 265.055 266.59 266.299 264.895L265.744 264.763L264.811 264.59C264.088 264.466 263.365 264.366 262.633 264.292C261.901 264.218 261.262 264.185 260.573 264.176C259.839 264.136 259.103 264.175 258.378 264.292C258.363 264.292 258.348 264.286 258.337 264.275C258.326 264.264 258.319 264.25 258.319 264.234C258.319 264.219 258.326 264.204 258.337 264.193C258.348 264.182 258.363 264.176 258.378 264.176C259.11 264.176 259.858 264.11 260.59 264.102C261.321 264.094 262.019 264.102 262.725 264.152C263.393 264.187 264.058 264.256 264.718 264.358C265.088 264.408 265.45 264.474 265.811 264.54C266.035 264.575 266.257 264.622 266.476 264.681C267.745 262.961 269.065 261.284 270.428 259.63C266.373 257.695 262.058 256.34 257.613 255.605C257.537 255.605 257.571 255.481 257.613 255.49C262.132 256.106 266.525 257.417 270.63 259.374L272.891 256.672C273.732 255.671 274.649 254.688 275.414 253.63C275.464 253.556 275.565 253.63 275.515 253.696C274.457 254.835 273.463 256.029 272.538 257.275C274.216 258.419 275.812 259.676 277.314 261.036C278.873 262.397 280.392 263.802 281.872 265.251C281.931 265.3 281.872 265.383 281.788 265.334C280.325 263.904 278.811 262.54 277.23 261.242C275.649 259.945 273.976 258.763 272.387 257.482C272.025 257.961 271.664 258.432 271.294 258.895C271.109 259.126 270.932 259.366 270.747 259.606L270.705 259.655C270.091 260.432 269.486 261.217 268.881 262.003C269.592 263.013 270.2 264.09 270.697 265.218C271.218 266.301 271.681 267.425 272.101 268.524C272.941 270.879 273.593 273.294 274.052 275.748C274.052 275.814 273.959 275.847 273.942 275.748C273.442 273.33 272.728 270.96 271.807 268.664C271.353 267.491 270.831 266.342 270.302 265.193C269.772 264.044 269.217 263.152 268.763 262.094C268.241 262.78 267.712 263.474 267.199 264.168C267.047 264.366 266.905 264.573 266.762 264.78C266.762 264.821 266.762 264.879 266.711 264.887C265.097 267.094 263.566 269.359 262.078 271.648C262.166 271.805 262.234 271.971 262.28 272.144C262.372 272.425 262.465 272.706 262.549 272.971C262.716 273.536 262.853 274.11 262.961 274.69C263.053 275.227 263.137 275.781 263.188 276.343C263.202 276.968 263.249 277.591 263.331 278.211C263.331 278.302 263.196 278.31 263.213 278.211C263.255 277.629 263.213 277.045 263.087 276.475C263.003 275.88 262.885 275.285 262.751 274.698C262.616 274.111 262.473 273.64 262.313 273.119C262.238 272.863 262.154 272.599 262.061 272.342C261.969 272.086 261.943 272.061 261.893 271.921C261.195 272.995 260.506 274.07 259.825 275.161C258.479 277.318 257.142 279.475 255.788 281.633C255.782 281.66 255.764 281.684 255.74 281.698C255.715 281.713 255.686 281.718 255.658 281.711C255.63 281.705 255.606 281.687 255.591 281.663C255.576 281.639 255.571 281.61 255.578 281.583Z" fill="#263238"/>
<path d="M291.743 311.181C291.802 308.999 292.155 306.792 292.399 304.626C292.643 302.461 292.887 300.262 293.122 298.08C293.585 293.873 293.837 289.575 294.804 285.451C295.548 281.863 297.367 278.576 300.026 276.012C301.405 274.657 303.215 273.808 305.155 273.607C307.104 273.554 309.016 274.135 310.595 275.26C312.391 276.566 313.939 278.172 315.169 280.004C316.499 281.815 317.693 283.718 318.743 285.699C318.743 285.773 318.659 285.823 318.617 285.749C316.638 282.442 314.015 279.552 310.898 277.244C309.51 276.123 307.816 275.431 306.029 275.252C305.157 275.236 304.291 275.392 303.481 275.71C302.671 276.028 301.934 276.502 301.312 277.103C298.722 279.318 297.217 282.575 296.326 285.773C295.266 289.559 294.93 293.551 294.4 297.436C294.081 299.742 293.786 302.056 293.475 304.37C293.164 306.684 292.971 309.023 292.475 311.288C292.439 311.362 292.38 311.422 292.307 311.46C292.234 311.498 292.15 311.512 292.069 311.5C291.987 311.488 291.911 311.451 291.852 311.393C291.794 311.336 291.755 311.261 291.743 311.181Z" fill="#263238"/>
<path d="M302.674 294.22C303.359 295.135 304.172 295.95 305.087 296.642C304.726 294.518 304.247 290.724 305.373 288.716C307.055 285.583 309.09 287.145 308.073 289.865C307.059 292.32 306.506 294.935 306.441 297.584C308.754 299.006 311.229 300.155 313.816 301.006C313.542 299.78 313.46 298.521 313.572 297.27C313.916 293.923 316.523 293.964 315.842 297.469C315.59 298.815 315.471 300.183 315.489 301.552C319.251 302.692 323.096 303.546 326.992 304.106C328.979 301.569 330.582 298.763 331.751 295.774C328.976 295.097 323.342 294.948 323.485 292.989C323.645 290.369 329.077 292.386 332.264 294.287C332.989 292.007 333.314 289.623 333.223 287.236C330.727 286.554 328.165 286.139 325.579 285.996C319.87 285.509 320.147 282.327 324.284 282.401C327.337 282.459 331.196 284.294 333.029 285.253C331.835 277.616 325.915 272.731 321.165 272.541C313.185 272.227 316.061 281.988 316.061 281.988C316.061 281.988 310.646 278.252 305.542 278.351C300.438 278.45 297.217 286.757 302.674 294.22ZM323.99 280.103C323.813 279.004 327.353 278.74 327.564 280.153C327.774 281.732 324.167 281.219 323.99 280.103ZM329.725 291.559C329.649 290.84 331.188 290.732 331.532 291.617C331.768 292.253 329.783 292.253 329.725 291.559ZM310.587 292.253C311.789 292.419 312.479 296.65 310.402 296.568C308.796 296.477 309.536 292.088 310.587 292.253Z" fill="#00042D"/>
<path d="M312.218 296.923C312.42 296.394 312.596 295.865 312.764 295.328C312.613 295.865 312.47 296.411 312.369 296.981C312.365 296.991 312.36 297 312.352 297.007C312.345 297.015 312.336 297.021 312.326 297.025C312.317 297.03 312.306 297.032 312.295 297.032C312.285 297.032 312.274 297.03 312.264 297.027C312.254 297.023 312.245 297.017 312.237 297.01C312.23 297.003 312.224 296.994 312.219 296.984C312.215 296.975 312.213 296.964 312.212 296.954C312.212 296.944 312.214 296.933 312.218 296.923Z" fill="#263238"/>
<path d="M314.329 290.129C314.699 289.046 315.119 287.972 315.548 286.906C315.775 286.344 316.019 285.773 316.271 285.253C316.448 284.755 316.685 284.281 316.977 283.839C316.732 283.396 316.516 282.937 316.33 282.467C316.33 282.426 316.372 282.384 316.406 282.426C316.996 283.168 317.517 283.962 317.961 284.798C318.188 285.162 318.398 285.542 318.609 285.914C319.061 285.953 319.511 286.022 319.954 286.12C320.433 286.203 320.912 286.302 321.383 286.41C321.854 286.517 322.334 286.616 322.804 286.732C323.275 286.848 323.746 286.997 324.225 287.063C324.335 287.063 324.284 287.253 324.183 287.211C323.696 287.043 323.196 286.916 322.687 286.831C322.233 286.732 321.77 286.649 321.308 286.592C320.845 286.534 320.383 286.468 319.912 286.418L318.861 286.335C319.046 286.666 319.248 286.988 319.433 287.319C319.457 287.376 319.485 287.431 319.517 287.484C319.902 287.479 320.287 287.524 320.66 287.616C321.072 287.691 321.501 287.765 321.896 287.856C322.737 288.038 323.578 288.228 324.377 288.451C326.109 288.931 327.808 289.468 329.514 290.013C329.607 290.013 329.514 290.187 329.456 290.154C327.761 289.598 326.037 289.129 324.293 288.749C323.452 288.567 322.661 288.385 321.846 288.22L320.61 287.964C320.289 287.913 319.971 287.841 319.66 287.749C320.5 289.344 321.341 290.972 322.123 292.625C323.805 296.221 325.176 299.932 326.597 303.626C326.597 303.717 326.487 303.775 326.454 303.684C325.082 300.014 323.493 296.426 321.694 292.939C321.375 292.303 321.047 291.675 320.727 291.03C320.727 291.162 320.669 291.294 320.643 291.427C320.559 291.856 320.484 292.295 320.408 292.733C320.257 293.609 320.105 294.485 319.971 295.361C319.591 297.157 319.377 298.982 319.332 300.816C319.332 300.932 319.155 300.923 319.172 300.816C319.315 299.948 319.315 299.039 319.374 298.163C319.433 297.287 319.5 296.32 319.609 295.411C319.718 294.501 319.828 293.65 319.979 292.774C320.055 292.336 320.13 291.898 320.215 291.46C320.235 291.131 320.318 290.808 320.458 290.509C319.996 289.592 319.533 288.666 319.054 287.749C318.575 286.831 318.163 286.021 317.709 285.17C317.515 284.806 317.305 284.443 317.103 284.071C316.957 284.522 316.78 284.964 316.574 285.393L315.96 286.881C315.497 287.972 315.077 289.079 314.648 290.187C314.043 291.757 313.378 293.361 312.882 294.997C313.37 293.344 313.782 291.708 314.329 290.129Z" fill="#263238"/>
<path d="M312.765 295.328C312.765 295.196 312.841 295.072 312.883 294.948C312.841 295.072 312.807 295.196 312.765 295.328Z" fill="#263238"/>
<path d="M278.399 306.933L278.962 318.611L280.4 348.714H311.999L313.446 318.611L314.001 306.933H278.399Z" fill="#37474F"/>
<path d="M278.399 306.933L278.962 318.611H313.446L314.001 306.933H278.399Z" fill="#263238"/>
<path d="M276.145 311.652H316.246V302.205H276.145V311.652Z" fill="#37474F"/>
<path d="M309.443 348.713H303.894V353.656H309.443V348.713Z" fill="#37474F"/>
<path d="M309.443 348.713H303.894V351.185H309.443V348.713Z" fill="#263238"/>
<path d="M288.506 348.713H282.965V353.656H288.506V348.713Z" fill="#37474F"/>
<path d="M288.506 348.713H282.965V351.185H288.506V348.713Z" fill="#263238"/>
<path d="M0 353.78L44.0104 353.582L88.0207 353.507L176.05 353.367L264.079 353.507L308.089 353.582L352.1 353.78L308.089 353.987L264.079 354.053L176.05 354.193L88.0207 354.053L44.0104 353.987L0 353.78Z" fill="#263238"/>
<path d="M176.243 246.042C175.318 246.042 174.351 246.042 173.384 245.984V245.365C174.36 245.406 175.344 245.422 176.277 245.422H176.731V246.042H176.218H176.243ZM180.977 245.894L180.935 245.274C182.054 245.199 183.172 245.1 184.299 244.968L184.374 245.588C183.239 245.712 182.104 245.819 180.977 245.894ZM169.205 245.72C168.112 245.621 166.977 245.505 165.842 245.365L165.918 244.745C167.044 244.885 168.163 245.009 169.281 245.1L169.205 245.72ZM188.545 244.943L188.419 244.34C189.52 244.125 190.614 243.885 191.681 243.612L191.841 244.216C190.74 244.488 189.63 244.736 188.52 244.943H188.545ZM161.638 244.745C160.536 244.555 159.418 244.348 158.325 244.125L158.451 243.521C159.544 243.745 160.654 243.951 161.747 244.133L161.638 244.745ZM154.188 243.199C153.086 242.935 151.993 242.645 150.925 242.372L151.093 241.777C152.153 242.075 153.246 242.364 154.339 242.604L154.188 243.199ZM195.835 243.001L195.625 242.414C196.685 242.05 197.727 241.645 198.736 241.215L198.988 241.777C197.996 242.215 196.937 242.662 195.861 243.001H195.835ZM146.889 241.116C144.879 240.463 143.711 239.992 143.694 239.992L143.938 239.414C143.938 239.414 145.098 239.876 147.091 240.529L146.889 241.116ZM202.781 239.934L202.47 239.389C203.437 238.86 204.395 238.281 205.32 237.678L205.665 238.199C204.757 238.81 203.798 239.356 202.806 239.934H202.781ZM209.087 235.76L208.7 235.273C209.592 234.595 210.466 233.901 211.299 233.198L211.711 233.669C210.895 234.397 210.012 235.083 209.112 235.76H209.087ZM214.822 230.867L214.385 230.421C215.175 229.652 215.957 228.859 216.705 228.057L217.168 228.479C216.411 229.289 215.654 230.09 214.847 230.867H214.822ZM219.909 225.313L219.413 224.933C220.111 224.106 220.783 223.181 221.414 222.296L221.935 222.652C221.313 223.552 220.615 224.478 219.934 225.305L219.909 225.313ZM224.231 219.172L223.693 218.85C224.273 217.907 224.82 216.94 225.332 215.982L225.887 216.271C225.4 217.238 224.82 218.213 224.256 219.172H224.231ZM227.704 212.518L227.132 212.27C227.561 211.287 227.973 210.254 228.368 209.221L228.965 209.435C228.595 210.485 228.183 211.518 227.729 212.518H227.704ZM230.268 205.485L229.663 205.311C229.974 204.27 230.251 203.195 230.504 202.129L231.118 202.269C230.891 203.344 230.605 204.427 230.294 205.468L230.268 205.485ZM231.9 198.186L231.277 198.087C231.445 197.013 231.58 195.913 231.689 194.831L232.312 194.889C232.236 195.988 232.093 197.095 231.925 198.186H231.9ZM232.572 190.748H231.942C231.942 190.268 231.942 189.789 231.942 189.309C231.942 188.69 231.942 188.07 231.942 187.458H232.572C232.572 188.078 232.572 188.698 232.572 189.326C232.614 189.764 232.606 190.252 232.597 190.739L232.572 190.748ZM235.742 190.029C235.288 190.029 234.843 190.029 234.389 190.029V189.409C235.495 189.471 236.604 189.471 237.71 189.409L237.752 190.029C237.138 189.996 236.449 190.02 235.751 190.02L235.742 190.029ZM230.176 189.533C229.061 189.334 227.958 189.078 226.871 188.764L227.048 188.169C228.113 188.476 229.193 188.727 230.285 188.921L230.176 189.533ZM241.99 189.392L241.864 188.789C242.95 188.575 244.022 188.299 245.076 187.962L245.269 188.549C244.202 188.889 243.115 189.168 242.015 189.384L241.99 189.392ZM222.919 187.285C221.887 186.825 220.882 186.309 219.909 185.739L220.229 185.21C221.183 185.765 222.168 186.267 223.18 186.714L222.919 187.285ZM249.213 186.896L248.935 186.342C249.925 185.845 250.885 185.293 251.811 184.689L252.156 185.202C251.206 185.827 250.22 186.398 249.204 186.913L249.213 186.896ZM216.419 183.367C215.864 182.929 215.309 182.458 214.78 181.97C214.477 181.689 214.183 181.408 213.939 181.143L214.385 180.705C214.662 180.986 214.948 181.259 215.225 181.532C215.747 182.011 216.285 182.466 216.831 182.904L216.419 183.367ZM231.673 183.317C231.546 182.218 231.387 181.127 231.202 180.069L231.824 179.961C232.017 181.036 232.177 182.144 232.295 183.268L231.673 183.317ZM255.536 182.681L255.116 182.218C255.949 181.496 256.741 180.729 257.487 179.92L257.949 180.342C257.187 181.17 256.379 181.957 255.528 182.697L255.536 182.681ZM211.231 177.862C210.602 176.932 210.083 175.933 209.684 174.887L210.273 174.68C210.651 175.691 211.142 176.659 211.736 177.565L211.231 177.862ZM260.598 177.036L260.077 176.68C260.556 176.019 261.01 175.316 261.439 174.614C261.582 174.382 261.725 174.151 261.859 173.911L262.406 174.217C262.263 174.457 262.128 174.697 261.985 174.928C261.54 175.713 261.069 176.416 260.59 177.093L260.598 177.036ZM230.327 176.019C230.024 174.928 229.688 173.878 229.318 172.895L229.915 172.68C230.285 173.68 230.63 174.746 230.933 175.854L230.327 176.019ZM209.625 170.754H208.995C209.034 169.617 209.285 168.496 209.735 167.448L210.315 167.688C209.901 168.661 209.668 169.7 209.625 170.754ZM264.281 170.589L263.709 170.349C264.13 169.374 264.55 168.341 264.912 167.291L265.509 167.489C265.122 168.522 264.71 169.564 264.273 170.547L264.281 170.589ZM227.594 169.266C227.075 168.312 226.467 167.408 225.778 166.563L226.266 166.167C226.98 167.042 227.61 167.98 228.149 168.969L227.594 169.266ZM212.736 164.514L212.35 164.034C213.259 163.314 214.305 162.78 215.427 162.464L215.595 163.059C214.554 163.34 213.58 163.82 212.728 164.472L212.736 164.514ZM222.659 164.001C221.711 163.476 220.683 163.105 219.615 162.902L219.732 162.29C220.868 162.511 221.961 162.907 222.97 163.464L222.659 164.001ZM266.736 163.514L266.122 163.357C266.391 162.373 266.652 161.323 266.921 160.158L267.535 160.29C267.258 161.431 266.997 162.489 266.728 163.472L266.736 163.514ZM268.418 156.24L267.796 156.116L268.443 152.876L269.057 152.992L268.418 156.24ZM269.915 148.958L269.301 148.818C269.57 147.628 269.839 146.57 270.142 145.595L270.747 145.76C270.419 146.686 270.15 147.735 269.881 148.917L269.915 148.958ZM272.017 141.859L271.428 141.644C271.804 140.577 272.245 139.534 272.748 138.519L273.312 138.8C272.813 139.784 272.369 140.794 271.983 141.826L272.017 141.859ZM275.523 135.403L275.01 135.031C275.682 134.135 276.415 133.284 277.205 132.486L277.65 132.916C276.875 133.683 276.153 134.5 275.49 135.362L275.523 135.403ZM280.778 130.254L280.4 129.75C281.316 129.096 282.268 128.492 283.251 127.94L283.562 128.485C282.587 129.018 281.646 129.608 280.745 130.254H280.778ZM287.295 126.692L287.043 126.122C287.926 125.758 288.859 125.411 289.826 125.088L290.028 125.675C289.044 125.948 288.128 126.287 287.261 126.651L287.295 126.692Z" fill="#263238"/>
<path d="M288.06 112.434L281.628 129.808L295.14 119.435L346.786 101.028L288.06 112.434Z" fill="#00042D"/>
<path opacity="0.1" d="M288.06 112.434L281.628 129.808L295.14 119.435L346.786 101.028L288.06 112.434Z" fill="black"/>
<path d="M296.873 123.485L281.628 129.808L295.14 119.435L296.873 123.485Z" fill="#263238"/>
<path d="M295.14 119.435L346.785 101.028L304.423 141.66L295.14 119.435Z" fill="#00042D"/>
<path d="M288.06 112.434L266.602 98.813L346.786 101.028L288.06 112.434Z" fill="#00042D"/>
<path d="M35.9801 353.648L176.05 354.243C210.096 327.968 213.611 289.03 189.318 265.433C174.629 251.15 155.962 254.027 138.211 251.754H138.161C131.972 250.927 125.901 249.547 120.133 246.555C101.827 237.066 91.5438 214.676 76.1141 195.839C74.197 193.484 72.1873 191.186 70.0852 188.971C57.4219 175.68 32.2467 175.25 19.0369 193.93C-14.4796 241.397 0.857584 312.09 35.9801 353.648Z" fill="#00042D"/>
<path opacity="0.1" d="M32.8688 245.017C36.5349 301.511 102.912 322.595 144.358 305.676C180.405 290.956 168.608 257.374 138.211 251.754H138.161C131.972 250.927 125.901 249.547 120.133 246.555C101.827 237.066 91.5436 214.676 76.1139 195.839C53.1502 184.119 30.178 203.658 32.8688 245.017Z" fill="black"/>
<path d="M164.74 362.508C162.579 361.731 113.759 323.38 112.842 320.76C112.489 319.768 117.753 312.495 124.371 303.792C125.8 301.924 127.288 299.998 128.81 298.056C138.674 285.418 149.445 272.243 149.445 272.243L182.179 297.799L160.645 322.918L155.919 328.43C155.919 328.43 167.927 351.333 168.625 354.309C169.323 357.284 166.901 363.335 164.74 362.508Z" fill="#AD6359"/>
<path d="M164.74 362.508C162.579 361.682 113.768 323.381 112.843 320.76C112.548 319.934 115.979 314.975 120.839 308.47C127.936 316.81 152.682 341.638 159.443 344.961C163.731 347.069 162.882 342.928 161.276 338.812C164.572 345.283 168.247 352.697 168.625 354.301C169.323 357.318 166.901 363.335 164.74 362.508Z" fill="#263238"/>
<path d="M215.234 248.687C212.997 265.4 171.089 313.652 166.246 319.19L165.119 320.446L130.476 294.262L130.871 293.758L161.402 254.465C161.402 254.465 110.951 283.393 85.6665 270.276C74.3065 264.375 65.8979 253.886 65.8979 253.886L98.8595 236.612C98.8595 236.612 107.983 239.513 113.81 238.678C133.906 235.785 178.934 218.982 189.621 219.403C203.42 219.957 217.294 233.347 215.234 248.687Z" fill="#37474F"/>
<path d="M172.367 239.86C171.232 241.116 170.179 242.441 169.214 243.827C168.137 245.224 167.036 246.596 165.96 247.96V248.001C166.153 247.588 166.338 247.175 166.54 246.778C167.221 245.39 167.767 243.96 168.566 242.645C168.571 242.63 168.571 242.612 168.565 242.597C168.559 242.581 168.547 242.568 168.533 242.559C168.518 242.551 168.501 242.547 168.484 242.549C168.468 242.552 168.452 242.559 168.44 242.571C167.599 243.885 166.657 245.133 165.918 246.514C165.581 247.167 165.27 247.828 164.976 248.497C164.816 248.861 164.648 249.233 164.505 249.605C164.426 249.78 164.359 249.959 164.303 250.142C163.824 250.787 163.345 251.431 162.882 252.093C161.856 253.556 160.948 255.101 159.905 256.556C159.847 256.63 159.973 256.705 160.032 256.63C161.083 255.267 162.268 253.994 163.336 252.638C164.404 251.283 165.463 249.844 166.481 248.415C167.498 246.985 168.448 245.613 169.449 244.216C170.537 242.841 171.54 241.403 172.451 239.91C172.476 239.877 172.409 239.819 172.367 239.86Z" fill="#263238"/>
<path d="M60.4238 191.657C59.9613 201.625 57.7078 213.519 62.0046 222.958C65.368 230.347 72.4732 235.355 79.8055 238.529C95.9499 245.547 118.544 246.464 129.853 230.71C134.369 224.421 135.142 211.312 127.65 206.518C123.807 204.038 119.242 203.493 114.886 202.336C112.174 201.715 109.64 200.501 107.472 198.784C105.304 197.066 103.559 194.89 102.366 192.417C97.1776 182.193 98.2118 174.713 97.228 163.654C97.2061 162.555 96.9509 161.473 96.4789 160.477C96.0068 159.481 95.3283 158.592 94.4868 157.869C92.6389 156.081 90.331 154.821 87.8104 154.224C85.6606 153.302 83.3112 152.922 80.9743 153.116C75.9964 153.629 71.212 158.141 67.3524 160.952C63.4929 163.762 61.6598 166.737 61.3571 171.589C60.9451 178.259 60.7349 184.962 60.4238 191.657Z" fill="#263238"/>
<path d="M59.1711 196.376C60.1969 187.285 61.3909 178.193 62.5345 169.101C62.5345 169.051 62.627 169.051 62.6186 169.101C61.9039 176.606 61.29 184.119 60.4744 191.616C59.6336 198.972 58.3386 206.493 58.1957 213.874C57.8762 230.479 75.2482 237.232 89.61 236.422C90.2659 236.422 90.2491 237.413 89.61 237.43C76.9972 237.752 61.9039 233.512 58.0864 220.015C55.9674 212.609 58.3302 203.815 59.1711 196.376Z" fill="#263238"/>
<path d="M96.4122 162.778C96.4122 162.605 96.6813 162.613 96.6897 162.778C97.1101 171.87 96.6897 182.615 102.021 190.541C104.626 194.459 108.379 197.508 112.784 199.286C116.273 200.683 119.973 200.807 123.614 201.509C137.908 204.261 138.018 223.189 127.65 230.57C127.431 230.727 127.154 230.363 127.364 230.198C134.663 224.487 137.068 214.097 131.123 206.477C126.347 200.36 117.181 202.344 110.673 199.038C97.1858 192.161 96.1683 176.036 96.4122 162.778Z" fill="#263238"/>
<path d="M81.8154 202.435C87.9873 211.146 109.068 235.083 123.698 238.356C131.762 240.166 170.711 245.522 176.05 240.744C182.306 235.149 179.413 214.072 174.436 213.882C159.258 213.295 131.182 216.213 124.169 214.709C120.999 214.014 104.182 203.352 86.2215 194.823C79.4274 191.583 77.8297 196.814 81.8154 202.435Z" fill="#AD6359"/>
<path d="M96.883 223.313L102.769 201.997C102.769 201.997 92.8889 196.608 86.9945 194.385C79.1914 191.442 76.2484 193.558 81.0329 202.501C84.2449 208.46 96.883 223.313 96.883 223.313Z" fill="#EBEBEB"/>
<path d="M95.4288 220.602C96.0678 217.445 96.7489 214.296 97.573 211.18C97.985 209.626 98.4138 208.072 98.8847 206.534C99.3556 204.997 99.9694 203.493 100.398 201.947C100.398 201.865 100.566 201.906 100.533 201.947C100.02 203.468 99.6919 205.072 99.2715 206.617C98.8511 208.163 98.4306 209.717 97.9934 211.27C97.1525 214.378 96.3117 217.486 95.5549 220.602C95.5381 220.734 95.412 220.693 95.4288 220.602Z" fill="#263238"/>
<path d="M101.853 205.352L96.8835 223.321C96.8835 223.321 84.2706 208.444 81.0417 202.501C79.5702 199.749 78.8219 197.641 78.7378 196.137L101.853 205.352Z" fill="#263238"/>
<path d="M50.0894 261.432C52.0317 262.052 107.133 246.373 107.133 246.373L100.625 227.569C100.625 227.569 103.845 221.519 102.306 215.701C100.314 207.931 85.6744 195.153 84.5308 194.401C79.9565 191.417 75.6261 191.417 71.7834 193.442C55.866 201.765 50.0894 261.432 50.0894 261.432Z" fill="#EBEBEB"/>
<path d="M92.1324 201.17C93.5535 202.823 95.0754 204.344 96.5385 205.931C95.8574 204.749 95.1763 203.559 94.4532 202.394C94.4532 202.394 94.4532 202.344 94.4532 202.394C95.525 203.759 96.4599 205.223 97.2448 206.766C98.3449 207.969 99.3592 209.244 100.28 210.584C101.422 212.175 102.275 213.948 102.803 215.825C103.26 217.722 103.317 219.691 102.971 221.61C102.55 223.821 101.928 225.989 101.113 228.09C101.012 228.371 100.608 228.189 100.684 227.917C101.718 224.247 102.895 220.371 102.063 216.535C101.23 212.7 98.8256 209.543 96.4797 206.526C95.0994 204.683 93.6025 202.928 91.9979 201.27C91.9643 201.195 92.0652 201.104 92.1324 201.17Z" fill="#263238"/>
<path d="M82.9503 226.214C85.3199 225.765 87.7201 225.489 90.1312 225.387C91.3252 225.387 92.5192 225.387 93.7132 225.445C94.3102 225.445 94.9072 225.445 95.5042 225.445C96.1282 225.465 96.7522 225.409 97.3625 225.28C97.413 225.28 97.4382 225.346 97.3625 225.363C96.8121 225.544 96.2504 225.69 95.6808 225.801C95.1242 225.886 94.5624 225.936 93.9991 225.95C92.7799 225.95 91.569 225.95 90.3498 225.999C87.9029 226.049 85.4476 226.098 83.0091 226.33C82.8578 226.421 82.841 226.231 82.9503 226.214Z" fill="#263238"/>
<path d="M77.8127 229.801C79.6598 229.081 81.5462 228.463 83.4632 227.95C84.4302 227.693 85.3972 227.503 86.3726 227.33L87.7852 227.107C88.2981 227.032 88.8279 227.024 89.3408 226.941C89.3996 226.941 89.4249 227.016 89.3408 227.024C88.8531 227.115 88.3822 227.288 87.9113 227.404L86.4651 227.76C85.5065 227.999 84.5479 228.255 83.5809 228.487C81.6554 228.95 79.7382 229.429 77.8295 229.958C77.8119 229.955 77.7958 229.946 77.7837 229.933C77.7716 229.92 77.7641 229.903 77.7622 229.886C77.7603 229.868 77.7642 229.85 77.7733 229.835C77.7823 229.82 77.7962 229.808 77.8127 229.801Z" fill="#263238"/>
<path d="M75.2398 194.5C75.4585 195.484 80.1252 201.939 84.6826 201.757C86.1625 201.707 86.2466 193.74 86.2466 193.74L86.3896 193.153L88.3908 184.929L77.2074 177.73C77.2074 177.73 75.1473 194.079 75.2398 194.5Z" fill="#AD6359"/>
<path d="M88.3905 184.921L86.3892 193.186C84.1361 192.317 82.0935 190.994 80.3931 189.301C78.6927 187.609 77.3724 185.584 76.5176 183.359C76.8623 180.524 77.1566 178.168 77.1987 177.821C77.2005 177.804 77.2005 177.788 77.1987 177.771L78.6197 178.598L88.3905 184.921Z" fill="#263238"/>
<path d="M99.2294 169.779C102.954 184.16 94.6131 187.962 91.4599 188.789C88.5926 189.5 78.7546 191.574 73.5413 177.656C68.328 163.737 73.9533 157.488 80.4111 155.513C86.8688 153.538 95.5128 155.406 99.2294 169.779Z" fill="#AD6359"/>
<path d="M96.421 167.994C96.0678 167.994 95.7315 167.994 95.3783 167.994C95.0088 168.034 94.6363 167.952 94.3188 167.762C94.2317 167.683 94.1738 167.577 94.154 167.462C94.1342 167.347 94.1537 167.229 94.2095 167.126C94.3469 166.937 94.5334 166.788 94.7494 166.695C94.9655 166.602 95.2031 166.568 95.4372 166.597C95.9248 166.58 96.4012 166.742 96.7741 167.051C96.8465 167.127 96.8959 167.222 96.9169 167.324C96.9379 167.426 96.9296 167.532 96.8929 167.629C96.8563 167.727 96.7928 167.813 96.7095 167.877C96.6261 167.941 96.5262 167.982 96.421 167.994Z" fill="#263238"/>
<path d="M86.5829 171.019C86.9277 170.911 87.222 170.762 87.5499 170.63C87.9072 170.537 88.2252 170.334 88.458 170.052C88.5114 169.947 88.5288 169.829 88.5075 169.714C88.4863 169.599 88.4276 169.494 88.3403 169.415C88.1432 169.286 87.9145 169.211 87.6779 169.198C87.4414 169.185 87.2056 169.234 86.995 169.341C86.5339 169.492 86.1471 169.808 85.9103 170.225C85.8596 170.323 85.8392 170.434 85.8517 170.543C85.8643 170.652 85.9091 170.755 85.9807 170.84C86.0523 170.924 86.1475 170.986 86.2545 171.018C86.3616 171.05 86.4758 171.05 86.5829 171.019Z" fill="#263238"/>
<path d="M89.0887 172.829C89.0887 172.829 89.0214 172.886 89.0298 172.928C89.2736 173.911 89.3745 175.077 88.5337 175.589C88.5337 175.589 88.5337 175.655 88.5337 175.639C89.6352 175.267 89.4418 173.721 89.0887 172.829Z" fill="#263238"/>
<path d="M87.9785 171.977C86.2968 172.184 86.8686 175.399 88.399 175.209C89.9293 175.019 89.3575 171.804 87.9785 171.977Z" fill="#263238"/>
<path d="M87.365 172.25C87.1043 172.473 86.8773 172.845 86.5241 172.936C86.1709 173.027 85.7757 172.746 85.4562 172.465C85.4562 172.465 85.4058 172.465 85.4058 172.515C85.5067 173.134 85.8514 173.721 86.5409 173.705C87.2304 173.688 87.5163 173.077 87.5668 172.432C87.592 172.308 87.4659 172.159 87.365 172.25Z" fill="#263238"/>
<path d="M94.9072 171.581C94.9072 171.581 94.9913 171.622 94.9997 171.663C95.1259 172.663 95.4454 173.787 96.4124 173.977V174.035C95.2688 174.011 94.8652 172.515 94.9072 171.581Z" fill="#263238"/>
<path d="M95.6471 170.357C97.2615 169.985 97.9005 173.184 96.4038 173.531C94.9071 173.878 94.2933 170.671 95.6471 170.357Z" fill="#263238"/>
<path d="M96.3703 170.44C96.6562 170.556 96.9757 170.82 97.2868 170.779C97.598 170.738 97.8418 170.333 98.0016 169.952C98.0016 169.952 98.052 169.952 98.0604 169.952C98.195 170.556 98.1193 171.234 97.5475 171.465C96.9757 171.696 96.5133 171.234 96.2442 170.638C96.1685 170.581 96.2526 170.39 96.3703 170.44Z" fill="#263238"/>
<path d="M90.4425 181.673C90.7115 181.887 90.9806 182.185 91.359 182.185C91.7394 182.143 92.1064 182.022 92.4353 181.83C92.4353 181.83 92.5025 181.83 92.4857 181.879C92.357 182.09 92.1726 182.263 91.952 182.38C91.7315 182.496 91.483 182.552 91.2329 182.54C91.026 182.498 90.8363 182.397 90.6869 182.25C90.5376 182.104 90.4351 181.917 90.392 181.714C90.3247 181.664 90.4004 181.639 90.4425 181.673Z" fill="#263238"/>
<path d="M94.1759 177.11C94.392 177.823 94.5716 178.545 94.714 179.276C94.714 179.342 94.5543 179.4 94.3188 179.449C93.7215 179.649 93.0797 179.683 92.4641 179.547C91.8485 179.411 91.2828 179.112 90.8293 178.68C90.8168 178.668 90.8095 178.651 90.8087 178.633C90.8078 178.615 90.8136 178.597 90.8248 178.583C90.836 178.569 90.8519 178.56 90.8697 178.556C90.8876 178.553 90.906 178.556 90.9218 178.565C91.9253 179.048 93.0621 179.196 94.1591 178.986C94.1591 178.788 93.3182 176.507 93.4443 176.507C94.0083 176.48 94.5735 176.525 95.126 176.639C94.2852 173.564 92.9987 170.647 92.2335 167.547C92.2315 167.526 92.2363 167.505 92.2472 167.487C92.2581 167.469 92.2746 167.455 92.2942 167.447C92.3139 167.438 92.3357 167.437 92.3565 167.441C92.3773 167.446 92.3961 167.457 92.4101 167.473C93.9155 170.555 95.1014 173.778 95.9501 177.094C96.0342 177.507 94.487 177.193 94.1759 177.11Z" fill="#263238"/>
<path d="M94.2431 179.176C93.9534 179.829 93.499 180.398 92.9229 180.829C92.603 181.058 92.2169 181.18 91.8214 181.177C90.9806 181.177 90.7535 180.441 90.7451 179.78C90.7443 179.429 90.7838 179.08 90.8628 178.738C91.9136 179.234 93.0976 179.387 94.2431 179.176Z" fill="#263238"/>
<path d="M92.9229 180.821C92.6029 181.05 92.2169 181.171 91.8214 181.168C90.9806 181.168 90.7535 180.433 90.7451 179.771C91.1752 179.682 91.6234 179.737 92.0181 179.927C92.4129 180.117 92.7314 180.432 92.9229 180.821Z" fill="#FF9CBD"/>
<path d="M74.5837 178.697C76.1645 178.185 79.1496 172.763 77.2072 165.134C77.2072 165.134 78.4685 172.101 78.2162 173.234C77.964 174.366 79.8979 170.192 78.4096 164.018C80.7453 164.882 83.1945 165.413 85.683 165.597C88.8446 165.597 90.6441 165.134 90.7954 164.869C90.9468 164.605 86.2548 164.398 84.7244 163.381C84.7244 163.381 93.5198 164.894 97.2027 164.208C97.6316 164.134 95.8321 155.571 89.2819 153.463C82.7316 151.355 74.9453 157.538 73.1879 160.422C73.1879 160.422 70.4972 161.547 68.5716 166.398C66.6461 171.25 72.8936 179.251 74.5837 178.697Z" fill="#263238"/>
<path d="M76.1479 178.143C76.1479 178.143 72.1371 174.102 70.262 175.581C68.3868 177.06 71.8932 183.284 74.5167 183.788C74.8487 183.881 75.1965 183.905 75.5386 183.86C75.8806 183.815 76.2095 183.701 76.5051 183.526C76.8006 183.351 77.0565 183.118 77.2569 182.842C77.4572 182.566 77.5978 182.252 77.6699 181.92L76.1479 178.143Z" fill="#AD6359"/>
<path d="M71.2791 177.366C71.237 177.366 71.237 177.424 71.2791 177.432C73.129 177.837 74.3062 179.275 75.2227 180.813C75.0901 180.661 74.9256 180.539 74.7406 180.455C74.5555 180.372 74.3543 180.328 74.1506 180.328C73.947 180.328 73.7457 180.372 73.5607 180.455C73.3756 180.539 73.2111 180.661 73.0785 180.813C73.0365 180.813 73.0785 180.912 73.1458 180.895C73.4342 180.749 73.7619 180.695 74.0831 180.741C74.4043 180.787 74.7028 180.931 74.9368 181.152C75.3288 181.505 75.6812 181.898 75.9879 182.325C76.0972 182.466 76.3579 182.325 76.2738 182.168C75.9206 179.945 73.6923 177.176 71.2791 177.366Z" fill="#263238"/>
<path d="M63.9135 206.691C59.4821 231.396 63.7705 249.902 68.0336 252.2C79.5281 258.366 107.133 245.852 114.92 243.364C118.031 242.364 103.736 218.693 100.507 220.164C92.9398 223.602 82.3366 229.437 81.9078 229.388C81.0669 229.305 80.0579 222.999 75.6686 204.592C72.1118 189.764 65.7297 196.591 63.9135 206.691Z" fill="#AD6359"/>
<path d="M140.011 208.452C140.801 211.56 132.847 212.816 132.847 212.816C134.169 213.283 135.284 214.189 136 215.378C137.16 217.527 134.234 220.246 134.234 220.246C135.502 221.009 136.507 222.129 137.118 223.462C138.018 225.627 135.437 228.793 135.437 228.793C136.208 230.125 136.465 231.686 136.16 233.19C135.184 237.174 128.97 238.744 125.321 240.463C121.411 242.306 114.937 242.984 112.002 244.282L99.2798 221.371C99.2798 221.371 111.573 208.576 118.619 206.592C122.513 205.468 138.808 203.708 140.011 208.452Z" fill="#AD6359"/>
<path d="M132.762 212.75C128.339 212.56 123.874 213.411 119.578 214.279C119.563 214.284 119.55 214.294 119.541 214.306C119.532 214.319 119.527 214.334 119.527 214.349C119.527 214.365 119.532 214.38 119.541 214.392C119.55 214.405 119.563 214.415 119.578 214.42C123.841 213.51 128.457 213.701 132.745 212.957C132.769 212.952 132.79 212.94 132.806 212.923C132.822 212.905 132.832 212.883 132.834 212.86C132.836 212.836 132.83 212.813 132.817 212.793C132.804 212.773 132.785 212.758 132.762 212.75Z" fill="#263238"/>
<path d="M134.007 219.965C132.998 220.017 132 220.198 131.039 220.503C130.004 220.767 128.979 221.048 127.944 221.329C125.893 221.924 123.849 222.561 121.831 223.255C121.739 223.255 121.764 223.429 121.831 223.404C123.875 222.817 125.935 222.263 128.012 221.751C129.046 221.495 130.088 221.255 131.123 221.015C132.123 220.845 133.102 220.568 134.04 220.189C134.055 220.172 134.065 220.153 134.071 220.133C134.077 220.112 134.079 220.091 134.076 220.069C134.073 220.048 134.065 220.028 134.053 220.01C134.041 219.992 134.025 219.977 134.007 219.965Z" fill="#263238"/>
<path d="M135.386 228.818C134.473 228.874 133.577 229.087 132.738 229.446L129.937 230.272C128.071 230.834 126.204 231.388 124.321 231.884C124.228 231.884 124.253 232.058 124.321 232.033C126.238 231.537 128.163 231.074 130.08 230.561C131.014 230.314 131.956 230.057 132.889 229.793C133.779 229.645 134.635 229.337 135.411 228.884C135.414 228.878 135.416 228.871 135.416 228.865C135.416 228.858 135.415 228.852 135.413 228.845C135.411 228.839 135.407 228.834 135.402 228.829C135.398 228.824 135.392 228.82 135.386 228.818Z" fill="#263238"/>
<path d="M81.874 229.388C84.8843 227.685 87.9366 226.082 90.9973 224.429L95.6304 222.065L97.9596 220.916C98.7516 220.51 99.5688 220.154 100.406 219.85L100.255 219.932C102.307 217.973 104.367 216.031 106.545 214.204C107.621 213.287 108.714 212.378 109.849 211.527C110.968 210.646 112.161 209.861 113.415 209.179C112.233 209.954 111.109 210.81 110.051 211.741C108.975 212.651 107.907 213.576 106.864 214.535C104.796 216.453 102.719 218.37 100.718 220.321L100.667 220.362L100.566 220.403C99.8515 220.66 99.0275 221.081 98.2623 221.428L95.9163 222.552L91.2664 224.842C88.1552 226.404 85.0525 227.933 81.874 229.388Z" fill="#263238"/>
<path d="M59.6416 228.181L79.7296 218.263C79.7296 218.263 77.2071 207.435 74.962 201.633C71.9854 193.963 68.3949 193.252 64.8717 202.691C62.4669 209.014 59.6416 228.181 59.6416 228.181Z" fill="#EBEBEB"/>
<path d="M60.7264 225.305C63.5433 223.652 66.3854 222.065 69.2947 220.594C70.7494 219.858 72.2209 219.139 73.6924 218.445C75.1639 217.751 76.7195 217.213 78.1826 216.502C78.2582 216.502 78.3171 216.593 78.233 216.626C76.7447 217.255 75.3152 218.098 73.8606 218.817C72.4059 219.536 70.9344 220.255 69.4797 220.99C66.5703 222.453 63.6526 223.908 60.7769 225.437C60.7012 225.47 60.6507 225.346 60.7264 225.305Z" fill="#263238"/>
<path d="M62.0466 226.958C61.273 227.421 60.491 227.851 59.7174 228.289L59.4399 228.446L59.482 228.123C59.7847 225.387 60.1799 222.676 60.6676 219.974C61.1553 217.271 61.7187 214.577 62.467 211.932C62.2988 213.295 62.1139 214.651 61.9036 216.006C61.6934 217.362 61.5 218.717 61.273 220.073C60.8358 222.776 60.3397 225.478 59.8015 228.173L59.5661 227.999C60.3901 227.685 61.2057 227.322 62.0466 226.958Z" fill="#263238"/>
<path d="M61.3656 214.684C61.4034 215.317 61.4034 215.952 61.3656 216.585C61.3462 217.218 61.2928 217.85 61.2059 218.478C61.0992 217.213 61.1387 215.94 61.3236 214.684H61.3656Z" fill="#263238"/>
<path d="M77.2827 219.519C78.0565 219.058 78.8535 218.636 79.6708 218.255C79.3428 216.982 78.9981 215.725 78.687 214.453C78.5272 213.816 78.3843 213.18 78.2497 212.543C78.1152 211.907 77.8882 211.039 77.7536 210.419C77.7536 210.32 77.8629 210.287 77.8881 210.378C78.1488 211.204 78.3086 211.775 78.5272 212.461C78.7458 213.147 78.8972 213.7 79.0653 214.32C79.4101 215.634 79.8389 217.023 80.1248 218.354C79.2189 218.83 78.2805 219.244 77.3164 219.594C77.3068 219.596 77.2966 219.595 77.2878 219.591C77.2789 219.586 77.2718 219.579 77.2678 219.57C77.2638 219.561 77.2631 219.551 77.2658 219.542C77.2685 219.533 77.2745 219.525 77.2827 219.519Z" fill="#263238"/>
<path d="M78.889 211.254C79.0236 212.034 79.0236 212.83 78.889 213.61C78.7434 212.831 78.7434 212.033 78.889 211.254Z" fill="#263238"/>
<path d="M157.879 242.158H99.4058V244.736H157.879V242.158Z" fill="#C7C7C7"/>
<path d="M111.918 242.158L109.917 244.736H157.879V242.158H111.918Z" fill="#A6A6A6"/>
<path d="M114.423 244.728H171.408L176.151 206.691H119.166L114.423 244.728Z" fill="#C7C7C7"/>
<path d="M141.819 225.71C141.804 226.157 141.881 226.601 142.046 227.018C142.211 227.434 142.461 227.813 142.779 228.132C143.097 228.451 143.478 228.704 143.898 228.874C144.319 229.044 144.77 229.129 145.224 229.123C146.149 229.119 147.036 228.76 147.696 228.123C148.356 227.485 148.736 226.619 148.756 225.71C148.769 225.267 148.692 224.827 148.529 224.414C148.366 224.002 148.121 223.625 147.807 223.308C147.493 222.99 147.118 222.738 146.703 222.565C146.288 222.393 145.843 222.304 145.392 222.305C144.461 222.296 143.563 222.648 142.894 223.286C142.225 223.923 141.839 224.794 141.819 225.71Z" fill="white"/>
<path d="M175.688 210.369C177.832 213.626 183.138 217.436 183.87 220.23C184.076 220.913 184.052 221.643 183.802 222.312C183.552 222.98 183.089 223.552 182.482 223.941C182.482 223.941 185.551 224.982 185.787 227.627C185.913 228.983 183.802 230.371 183.802 230.371C183.802 230.371 186.232 231.305 186.325 233.677C186.375 235.562 184.256 236.669 184.256 236.669C184.256 236.669 186.157 238.637 185.585 240.571C184.416 244.497 168.103 246.613 164.791 241.034C163.243 238.438 167.263 238.132 167.263 238.132C167.263 238.132 161.377 237.198 160.847 233.901C160.317 230.603 165.556 230.52 165.556 230.52C165.556 230.52 159.872 229.57 159.67 226.098C159.46 222.486 164.715 223.288 164.715 223.288C164.715 223.288 160.763 221.337 161.234 218.643C161.999 214.204 171.324 218.924 174.78 217.626L175.688 210.369Z" fill="#AD6359"/>
<path d="M183.92 236.876C183.931 236.876 183.942 236.881 183.95 236.888C183.958 236.896 183.962 236.907 183.962 236.918C183.962 236.928 183.958 236.939 183.95 236.947C183.942 236.955 183.931 236.959 183.92 236.959C178.53 239.038 172.623 239.456 166.985 238.157C166.809 238.108 166.8 237.81 166.985 237.818C172.647 238.317 178.352 237.999 183.92 236.876Z" fill="#263238"/>
<path d="M183.886 230.396C183.954 230.396 183.97 230.479 183.886 230.504C178.522 232.52 171.383 232.983 165.329 230.685C165.118 230.603 165.018 230.33 165.261 230.404C169.432 231.652 178.69 231.52 183.886 230.396Z" fill="#263238"/>
<path d="M164.278 222.966C170.164 224.983 176.134 224.941 182.247 224.032C182.323 224.032 182.331 224.131 182.247 224.164C179.38 225.404 175.419 225.586 172.325 225.47C169.454 225.418 166.647 224.626 164.185 223.172C164.126 223.115 164.169 222.924 164.278 222.966Z" fill="#263238"/>
<path d="M291.289 319.074C290.49 321.198 251.323 369.063 248.657 369.955C247.648 370.302 240.249 365.103 231.428 358.566C229.536 357.152 227.586 355.689 225.61 354.185C212.787 344.449 199.417 333.819 199.417 333.819L225.484 301.734L250.961 322.975L256.553 327.637C256.553 327.637 279.887 315.909 282.922 315.239C285.958 314.57 292.088 316.958 291.289 319.074Z" fill="#AD6359"/>
<path d="M291.297 319.082C290.456 321.198 251.323 369.062 248.657 369.963C247.774 370.269 241.989 366.327 234.666 360.963C242.141 355.615 270.511 330.497 274.32 323.694C276.322 320.116 273.395 320.14 269.813 321.132C275.699 318.297 281.543 315.553 282.964 315.231C285.991 314.57 292.088 316.958 291.297 319.082Z" fill="#263238"/>
<path d="M249.633 318.132L222.465 354.169L130.812 291.634L121.941 285.641C121.941 285.641 119.418 287.294 115.668 289.344C110.438 292.187 102.769 295.791 95.9837 296.783C84.5985 298.436 65.5952 298.262 56.001 285.649C47.9204 275.037 52.3097 261.184 52.3097 261.184L64.8048 255.886C64.8048 255.886 94.3777 231.669 113.574 230.942C121.705 230.619 133.553 236.727 144.526 243.017C155.499 249.307 249.633 318.132 249.633 318.132Z" fill="#37474F"/>
<path d="M121.941 285.641C121.941 285.641 119.418 287.294 115.668 289.344C109.008 281.508 94.9074 267.267 94.4785 266.763L121.941 285.641Z" fill="#263238"/>
<path d="M75.6432 247.745C73.8774 248.952 72.1621 250.225 70.4215 251.473C68.681 252.721 66.932 253.837 65.3007 255.167C63.6695 256.498 62.0718 257.969 60.5078 259.424C59.7595 260.126 59.0111 260.837 58.2796 261.565C57.5102 262.266 56.7988 263.026 56.1522 263.838C56.0934 263.912 56.2111 264.003 56.2783 263.962C57.1094 263.379 57.9015 262.744 58.6495 262.061C59.4904 261.374 60.3313 260.68 61.1217 259.994C62.7109 258.663 64.3337 257.374 65.9145 256.043C67.4953 254.713 68.95 253.275 70.514 251.911C72.078 250.547 73.9447 249.134 75.6769 247.778C75.7105 247.778 75.6769 247.72 75.6432 247.745Z" fill="#263238"/>
<path d="M243.259 316.843C241.494 318.711 239.896 320.727 238.214 322.703C236.532 324.678 234.926 326.678 233.295 328.67C230.041 332.679 226.753 336.655 223.55 340.705C221.792 342.928 220.052 345.168 218.42 347.474C218.345 347.581 218.513 347.697 218.597 347.606C222.103 343.812 225.324 339.771 228.561 335.779C231.798 331.786 235.061 327.794 238.273 323.703C240.022 321.488 241.83 319.281 243.436 316.959C243.478 316.868 243.318 316.76 243.259 316.843Z" fill="#263238"/>
<path d="M168.011 317.214C163.454 313.677 158.72 310.338 153.994 307.023C149.268 303.709 144.585 300.411 139.809 297.221C138.438 296.303 137.051 295.402 135.672 294.501C134.293 293.601 132.855 292.766 131.509 291.832C131.425 291.782 131.358 291.906 131.434 291.964C132.678 292.84 133.847 293.815 135.066 294.725C136.286 295.634 137.387 296.469 138.556 297.32C140.851 298.973 143.164 300.626 145.476 302.279C150.162 305.585 154.885 308.864 159.645 312.115C162.352 313.933 165.043 315.768 167.809 317.504C167.977 317.586 168.171 317.33 168.011 317.214Z" fill="#263238"/>
<path d="M197.332 280.029C193.128 276.599 188.604 273.508 184.181 270.334C179.758 267.16 175.268 263.879 170.778 260.697C166.287 257.515 161.881 254.366 157.425 251.208C153.111 248.142 148.814 245.026 144.257 242.307C141.734 240.827 139.212 239.447 136.58 238.174C134.031 236.891 131.376 235.824 128.642 234.984C128.623 234.976 128.602 234.976 128.583 234.984C128.564 234.991 128.549 235.006 128.541 235.025C128.534 235.043 128.534 235.064 128.542 235.083C128.549 235.102 128.565 235.116 128.584 235.124C130.837 236.356 133.191 237.389 135.47 238.579C137.749 239.769 139.927 240.992 142.104 242.29C146.628 244.993 150.9 248.076 155.188 251.084C164.101 257.382 172.997 263.714 181.978 269.929C187.023 273.4 191.917 277.07 197.113 280.269C197.298 280.401 197.483 280.153 197.332 280.029Z" fill="#263238"/>
<path d="M185.056 193.01C187.413 178.957 177.731 165.708 163.431 163.417C149.131 161.125 135.627 170.66 133.271 184.712C130.914 198.764 140.596 212.014 154.896 214.305C169.196 216.596 182.699 207.062 185.056 193.01Z" fill="#00042D"/>
<path d="M174.41 205.526H143.837V180.102L159.124 170.564L174.41 180.102V205.526Z" fill="#A6A6A6"/>
<path d="M172.686 205.27H145.569V171.87H165.707L172.686 178.4V205.27Z" fill="white"/>
<path d="M165.708 171.87L172.687 178.4H165.708V171.87Z" fill="#EBEBEB"/>
<path d="M148.217 178.499H163.294V177.622H148.217V178.499Z" fill="#DBDBDB"/>
<path d="M148.217 180.714H163.294V179.838H148.217V180.714Z" fill="#DBDBDB"/>
<path d="M148.217 182.929H163.294V182.053H148.217V182.929Z" fill="#DBDBDB"/>
<path d="M148.209 185.152H170.307V184.276H148.209V185.152Z" fill="#DBDBDB"/>
<path d="M148.209 187.367H170.307V186.491H148.209V187.367Z" fill="#DBDBDB"/>
<path d="M148.209 189.591H170.307V188.715H148.209V189.591Z" fill="#DBDBDB"/>
<path d="M148.209 191.806H170.307V190.93H148.209V191.806Z" fill="#DBDBDB"/>
<path d="M148.209 194.021H170.307V193.145H148.209V194.021Z" fill="#DBDBDB"/>
<path d="M148.209 196.244H170.307V195.368H148.209V196.244Z" fill="#DBDBDB"/>
<path d="M148.209 198.459H170.307V197.583H148.209V198.459Z" fill="#DBDBDB"/>
<path d="M148.209 200.683H170.307V199.807H148.209V200.683Z" fill="#DBDBDB"/>
<path d="M148.209 202.898H170.307V202.022H148.209V202.898Z" fill="#DBDBDB"/>
<path d="M174.41 186.458V205.518H143.845V186.458C145.157 187.185 146.443 187.954 147.747 188.706C149.05 189.458 150.337 190.227 151.615 191.004C153.05 191.864 154.482 192.734 155.911 193.616L159.124 195.591L162.327 193.616H162.285H162.336L166.624 191.012C167.91 190.235 169.205 189.475 170.5 188.715C171.795 187.954 173.099 187.194 174.41 186.458Z" fill="#EBEBEB"/>
<path d="M174.41 186.458C173.183 187.285 171.888 188.111 170.677 188.938C169.466 189.764 168.154 190.591 166.901 191.417C165.649 192.244 164.261 193.112 162.941 193.946L162.823 194.029L159.3 196.236L159.124 196.335L158.955 196.236L155.441 194.021L155.314 193.946C153.986 193.114 152.663 192.271 151.346 191.417C150.093 190.591 148.823 189.764 147.579 188.938C146.334 188.111 145.056 187.285 143.845 186.458C145.157 187.185 146.443 187.954 147.747 188.706C149.05 189.458 150.337 190.227 151.615 191.004C153.05 191.864 154.482 192.734 155.911 193.616L159.124 195.591L162.327 193.616L166.616 191.012C167.902 190.235 169.197 189.475 170.492 188.715C171.787 187.954 173.099 187.194 174.41 186.458Z" fill="#DBDBDB"/>
<path d="M155.953 193.599L155.474 194.004C154.709 194.641 153.918 195.252 153.12 195.839C152.144 196.575 151.152 197.269 150.151 197.963C149.151 198.658 148.133 199.327 147.099 199.972C146.065 200.616 145.031 201.261 143.946 201.84C144.879 201.013 145.838 200.302 146.813 199.575C147.788 198.848 148.789 198.145 149.781 197.451C150.774 196.757 151.799 196.087 152.834 195.434C153.674 194.913 154.515 194.409 155.356 193.93C155.55 193.814 155.751 193.707 155.953 193.599Z" fill="#DBDBDB"/>
<path d="M174.368 201.864C173.284 201.286 172.241 200.65 171.215 199.997C170.189 199.344 169.172 198.674 168.154 197.988C167.137 197.302 166.162 196.6 165.186 195.864C164.396 195.277 163.605 194.674 162.849 194.037L162.361 193.624H162.319H162.369L162.966 193.963C163.807 194.442 164.648 194.946 165.489 195.467C166.515 196.12 167.532 196.798 168.533 197.484C169.533 198.17 170.534 198.872 171.501 199.608C172.468 200.344 173.41 201.071 174.368 201.864Z" fill="#DBDBDB"/>
<path d="M165.392 184.741C166.211 181.343 164.072 177.936 160.616 177.131C157.159 176.326 153.692 178.428 152.873 181.826C152.054 185.224 154.192 188.631 157.649 189.436C161.106 190.241 164.573 188.139 165.392 184.741Z" fill="#00042D"/>
<path d="M155.869 183.805C156.788 184.559 157.659 185.367 158.476 186.227L157.887 186.268C158.207 185.714 158.551 185.177 158.905 184.615C159.258 184.053 159.611 183.549 159.989 183.036C160.73 181.986 161.542 180.987 162.419 180.044C161.905 181.22 161.307 182.358 160.628 183.45C160.309 183.995 159.947 184.532 159.603 185.103C159.258 185.673 158.888 186.161 158.501 186.681L158.207 187.086L157.912 186.723C157.168 185.794 156.486 184.82 155.869 183.805Z" fill="white"/>
</svg>
