<svg width="448" height="456" viewBox="0 0 448 456" fill="none" xmlns="http://www.w3.org/2000/svg">
<path d="M223.89 455.745C347.379 455.745 447.487 397.96 447.487 326.678C447.487 255.396 347.379 197.61 223.89 197.61C100.401 197.61 0.292969 255.396 0.292969 326.678C0.292969 397.96 100.401 455.745 223.89 455.745Z" fill="#F5F5F5"/>
<path d="M371.843 249.18C386.189 257.461 386.189 270.886 371.843 279.167C357.497 287.448 334.252 287.448 319.917 279.167C305.583 270.886 305.571 257.461 319.917 249.18C334.263 240.899 357.544 240.899 371.843 249.18Z" fill="#E0E0E0"/>
<path d="M135.11 387.672C173.599 409.832 235.929 409.832 274.383 387.672C312.838 365.511 312.873 329.459 274.383 307.264C235.894 285.068 173.564 285.103 135.11 307.264C96.6554 329.424 96.6438 365.441 135.11 387.672Z" fill="#E0E0E0"/>
<path d="M286.327 308.429C286.327 296.217 278.162 284.017 262.067 274.698C229.712 256.037 177.25 256.037 144.896 274.698C128.765 284.029 120.682 296.217 120.636 308.429V344.854C120.636 357.101 128.719 369.347 144.896 378.678C177.25 397.34 229.712 397.34 262.067 378.678C278.244 369.347 286.327 357.101 286.327 344.854V308.429Z" fill="#00042D"/>
<path d="M286.327 308.429C286.327 296.217 278.162 284.017 262.067 274.698C229.712 256.037 177.25 256.037 144.896 274.698C128.765 284.029 120.682 296.217 120.636 308.429V344.854C120.636 357.101 128.719 369.347 144.896 378.678C177.25 397.34 229.712 397.34 262.067 378.678C278.244 369.347 286.327 357.101 286.327 344.854V308.429Z" fill="#00042D"/>
<path d="M144.896 342.346C177.25 361.008 229.712 361.008 262.067 342.346C294.421 323.685 294.421 293.36 262.067 274.698C229.712 256.037 177.25 256.037 144.896 274.698C112.541 293.36 112.541 323.661 144.896 342.346Z" fill="#00042D"/>
<path opacity="0.3" d="M144.896 342.346C177.25 361.008 229.712 361.008 262.067 342.346C294.421 323.685 294.421 293.36 262.067 274.698C229.712 256.037 177.25 256.037 144.896 274.698C112.541 293.36 112.541 323.661 144.896 342.346Z" fill="black"/>
<path opacity="0.1" d="M263.349 377.896C262.93 378.153 262.51 378.421 262.066 378.678C229.712 397.339 177.25 397.339 144.907 378.678C135.296 373.138 128.566 366.606 124.671 359.608V323.3C128.578 330.298 135.331 336.806 144.907 342.346C145.828 342.871 146.773 343.396 147.73 343.897V344.037C147.73 344.037 149.304 373.709 180.749 382.9C222.247 395.042 260.923 378.946 263.349 377.896Z" fill="black"/>
<path opacity="0.1" d="M135.204 335.616C130.997 332.171 127.441 328 124.707 323.3V359.608C127.425 364.333 130.982 368.522 135.204 371.971V335.616Z" fill="black"/>
<path d="M273.019 272.004C273.019 264.295 266.592 256.177 255.407 249.715C241.947 241.948 223.018 237.492 203.481 237.492C183.945 237.492 164.992 241.948 151.556 249.715C140.359 256.177 133.944 264.295 133.944 272.004V308.523C133.944 316.232 140.37 324.35 151.556 330.811C165.015 338.579 183.945 343.046 203.481 343.046C223.018 343.046 241.971 338.579 255.407 330.811C266.604 324.35 273.019 316.232 273.019 308.523V272.004Z" fill="#263238"/>
<path d="M255.407 294.293C241.947 302.072 223.018 306.528 203.481 306.528C183.945 306.528 164.992 302.072 151.556 294.293C140.37 287.843 133.944 279.713 133.944 272.004V308.522C133.944 316.232 140.37 324.349 151.556 330.811C165.015 338.579 183.945 343.046 203.481 343.046C223.018 343.046 241.971 338.579 255.407 330.811C266.604 324.349 273.019 316.232 273.019 308.522V272.004C273.019 279.713 266.569 287.831 255.407 294.293ZM135.705 314.307C135.227 313.134 134.887 311.909 134.69 310.657C134.99 311.382 135.329 312.09 135.705 312.779V314.307ZM135.705 310.248C135.227 309.075 134.887 307.85 134.69 306.598C134.988 307.324 135.327 308.033 135.705 308.72V310.248ZM135.705 306.189C135.227 305.016 134.887 303.791 134.69 302.539C134.988 303.265 135.327 303.974 135.705 304.662V306.189ZM135.705 302.142C135.229 300.968 134.888 299.743 134.69 298.492C134.99 299.213 135.329 299.918 135.705 300.603V302.142ZM135.705 298.083C135.229 296.909 134.888 295.684 134.69 294.433C134.99 295.154 135.329 295.859 135.705 296.544V298.083ZM135.705 294.024C135.229 292.85 134.888 291.625 134.69 290.374C134.99 291.099 135.329 291.808 135.705 292.497V294.024ZM135.705 289.966C135.227 288.792 134.887 287.567 134.69 286.315C134.99 287.048 135.328 287.765 135.705 288.461V289.966ZM135.705 285.907C135.227 284.733 134.887 283.508 134.69 282.256C134.99 282.981 135.329 283.69 135.705 284.379V285.907ZM135.705 281.848C135.227 280.674 134.887 279.449 134.69 278.197C134.989 278.916 135.328 279.616 135.705 280.297V281.848ZM142.377 323.451C140.192 321.452 138.321 319.137 136.825 316.582V314.622C138.4 316.942 140.266 319.051 142.377 320.897V323.451ZM142.377 319.392C140.192 317.393 138.321 315.078 136.825 312.523V310.622C138.403 312.935 140.269 315.04 142.377 316.885V319.392ZM142.377 315.334C140.192 313.335 138.321 311.019 136.825 308.464V306.516C138.403 308.83 140.269 310.934 142.377 312.779V315.334ZM142.377 311.275C140.19 309.278 138.318 306.962 136.825 304.405V302.457C138.4 304.773 140.266 306.878 142.377 308.72V311.275ZM142.377 307.216C140.187 305.222 138.315 302.905 136.825 300.346V298.398C138.403 300.716 140.268 302.824 142.377 304.673V307.216ZM142.377 303.169C140.189 301.168 138.317 298.848 136.825 296.287V294.293C138.403 296.61 140.268 298.719 142.377 300.568V303.169ZM142.377 299.11C140.189 297.109 138.317 294.789 136.825 292.228V290.281C138.403 292.598 140.268 294.707 142.377 296.555V299.11ZM142.377 295.051C140.192 293.052 138.321 290.736 136.825 288.181V286.222C138.403 288.539 140.268 290.648 142.377 292.497V295.051ZM142.377 290.992C140.192 288.993 138.321 286.677 136.825 284.122V282.163C138.398 284.491 140.264 286.608 142.377 288.461V290.992ZM152.267 330.578L151.824 330.333C148.859 328.662 146.063 326.709 143.473 324.501V321.9C145.911 323.916 148.518 325.719 151.264 327.289C151.591 327.487 151.941 327.662 152.267 327.849V330.578ZM152.267 326.519L151.824 326.274C148.857 324.585 146.06 322.612 143.473 320.384V317.795C145.914 319.806 148.52 321.609 151.264 323.183L152.267 323.731V326.519ZM152.267 322.46C152.116 322.378 151.964 322.308 151.824 322.215C148.857 320.526 146.06 318.553 143.473 316.325V313.736C145.914 315.748 148.52 317.55 151.264 319.124L152.267 319.672V322.46ZM152.267 318.401C152.116 318.319 151.964 318.249 151.824 318.156C148.859 316.485 146.063 314.532 143.473 312.324V309.735C145.911 311.751 148.518 313.554 151.264 315.124L152.267 315.672V318.401ZM152.267 314.354L151.824 314.109C148.862 312.412 146.066 310.44 143.473 308.219V305.618C145.911 307.634 148.518 309.436 151.264 311.006L152.267 311.555V314.354ZM152.267 310.295L151.824 310.05C148.857 308.361 146.06 306.388 143.473 304.16V301.559C145.911 303.575 148.518 305.378 151.264 306.948L152.267 307.496V310.295ZM152.267 306.236L151.824 305.991C148.859 304.32 146.063 302.367 143.473 300.159V297.559C145.911 299.574 148.518 301.377 151.264 302.947L152.267 303.495V306.236ZM152.267 302.177L151.824 301.932C148.857 300.243 146.06 298.27 143.473 296.042V293.441C145.911 295.457 148.518 297.26 151.264 298.83C151.591 299.028 151.941 299.203 152.267 299.39V302.177ZM152.267 298.118L151.824 297.873C148.86 296.176 146.067 294.196 143.485 291.96V289.359C145.922 291.379 148.529 293.185 151.276 294.759L152.279 295.307L152.267 298.118ZM160.851 334.707C158.297 333.678 155.801 332.51 153.375 331.208V328.42C155.806 329.714 158.301 330.882 160.851 331.919V334.707ZM160.851 330.648C158.297 329.62 155.801 328.451 153.375 327.149V324.361C155.806 325.655 158.301 326.823 160.851 327.86V330.648ZM160.851 326.589C158.295 325.565 155.799 324.397 153.375 323.09V320.302C155.803 321.601 158.299 322.769 160.851 323.801V326.589ZM160.851 322.542C158.297 321.513 155.801 320.345 153.375 319.043V316.243C155.803 317.542 158.299 318.71 160.851 319.742V322.542ZM160.851 318.483C158.297 317.454 155.801 316.286 153.375 314.984V312.184C155.803 313.483 158.299 314.651 160.851 315.684V318.483ZM160.851 314.424C158.297 313.396 155.801 312.228 153.375 310.925V308.126C155.803 309.424 158.299 310.592 160.851 311.625V314.424ZM160.851 310.365C158.297 309.337 155.801 308.169 153.375 306.866V304.078C155.804 305.357 158.3 306.506 160.851 307.519V310.365ZM160.851 306.306C158.297 305.278 155.801 304.11 153.375 302.807V300.02C155.806 301.313 158.301 302.481 160.851 303.519V306.306ZM160.851 302.247C158.297 301.219 155.801 300.051 153.375 298.748V295.961C155.806 297.254 158.301 298.422 160.851 299.46V302.247ZM170.415 338.007C167.488 337.156 164.654 336.211 161.959 335.15V332.292C164.665 333.334 167.484 334.267 170.415 335.092V338.007ZM170.415 333.949C167.488 333.109 164.654 332.152 161.959 331.091V328.233C164.665 329.268 167.484 330.205 170.415 331.044V333.949ZM170.415 329.89C167.488 329.05 164.654 328.093 161.959 327.044V324.175C164.673 325.248 167.496 326.173 170.427 326.95L170.415 329.89ZM170.415 325.831C167.488 324.991 164.654 324.035 161.959 322.985V320.116C164.665 321.165 167.484 322.102 170.415 322.927V325.831ZM170.415 321.772C167.488 320.932 164.654 319.987 161.959 318.926V316.057C164.665 317.106 167.484 318.043 170.415 318.868V321.772ZM170.415 317.713C167.488 316.873 164.654 315.928 161.959 314.867V312.01C164.665 313.044 167.484 313.977 170.415 314.809V317.713ZM170.415 313.654C167.488 312.814 164.654 311.87 161.959 310.808V307.951C164.665 308.993 167.484 309.926 170.415 310.75V313.654ZM170.415 309.607C167.488 308.755 164.654 307.811 161.959 306.749V303.892C164.665 304.926 167.484 305.859 170.415 306.691V309.607ZM170.415 305.548C167.488 304.708 164.654 303.752 161.959 302.69V299.833C164.665 300.867 167.484 301.804 170.415 302.644V305.548ZM180.761 340.422C177.6 339.839 174.509 339.139 171.524 338.322V335.418C174.509 336.223 177.6 336.911 180.761 337.494V340.422ZM180.761 336.363C177.6 335.78 174.509 335.08 171.524 334.263V331.359C174.509 332.164 177.6 332.852 180.761 333.435V336.363ZM180.761 332.304C177.6 331.721 174.509 331.021 171.524 330.205V327.3C174.509 328.105 177.6 328.805 180.761 329.376V332.304ZM180.761 328.257C177.6 327.662 174.509 326.962 171.524 326.146V323.241C174.509 324.058 177.6 324.746 180.761 325.318V328.257ZM180.761 324.198C177.6 323.615 174.509 322.903 171.524 322.087V319.183C174.509 319.999 177.6 320.687 180.761 321.259V324.198ZM180.761 320.139C177.6 319.556 174.509 318.856 171.524 318.028V315.124C174.509 315.94 177.6 316.628 180.761 317.211V320.139ZM180.761 316.08C177.6 315.497 174.509 314.797 171.524 313.981V311.065C174.509 311.881 177.6 312.569 180.761 313.153V316.08ZM180.761 312.021C177.6 311.438 174.509 310.738 171.524 309.922V307.018C174.509 307.822 177.6 308.511 180.761 309.094V312.021ZM180.761 307.962C177.6 307.379 174.509 306.679 171.524 305.863V302.959C174.509 303.763 177.6 304.452 180.761 305.035V307.962ZM191.666 341.926C188.342 341.623 185.065 341.192 181.869 340.632V337.704C185.065 338.252 188.342 338.684 191.666 338.987V341.926ZM191.666 337.867C188.342 337.564 185.065 337.133 181.869 336.573V333.645C185.065 334.193 188.342 334.625 191.666 334.928V337.867ZM191.666 333.82C188.342 333.505 185.065 333.074 181.869 332.514V329.586C185.065 330.146 188.342 330.566 191.666 330.869V333.82ZM191.666 329.761C188.342 329.446 185.065 329.015 181.869 328.455V325.527C185.065 326.087 188.342 326.507 191.666 326.81V329.761ZM191.666 325.702C188.342 325.388 185.065 324.968 181.869 324.408V321.469C185.065 322.028 188.342 322.448 191.666 322.763V325.702ZM191.666 321.644C188.342 321.34 185.065 320.909 181.869 320.349V317.421C185.065 317.97 188.342 318.389 191.666 318.704V321.644ZM191.666 317.585C188.342 317.281 185.065 316.85 181.869 316.29V313.363C185.065 313.911 188.342 314.342 191.666 314.646V317.585ZM191.666 313.526C188.342 313.223 185.065 312.791 181.869 312.231V309.304C185.065 309.852 188.342 310.283 191.666 310.587V313.526ZM191.666 309.467C188.342 309.164 185.065 308.732 181.869 308.172V305.245C185.065 305.793 188.342 306.224 191.666 306.528V309.467ZM202.91 342.474C199.504 342.474 196.11 342.311 192.774 342.031V339.092C196.11 339.372 199.504 339.512 202.91 339.535V342.474ZM202.91 338.416C199.504 338.416 196.11 338.264 192.774 337.984V335.033C196.11 335.313 199.504 335.453 202.91 335.476V338.416ZM202.91 334.368C199.504 334.368 196.11 334.205 192.774 333.925V330.974C196.11 331.254 199.504 331.406 202.91 331.418V334.368ZM202.91 330.31C199.504 330.31 196.11 330.146 192.774 329.866V326.95C196.11 327.23 199.504 327.382 202.91 327.394V330.31ZM202.91 326.251C199.504 326.251 196.11 326.087 192.774 325.807V322.857C196.11 323.136 199.504 323.288 202.91 323.3V326.251ZM202.91 322.192C199.504 322.192 196.11 322.028 192.774 321.749V318.786C196.11 319.054 199.504 319.206 202.91 319.218V322.192ZM202.91 318.133C199.504 318.133 196.11 317.97 192.774 317.69V314.75C196.11 315.03 199.504 315.17 202.91 315.182V318.133ZM202.91 314.074C199.504 314.074 196.11 313.911 192.774 313.631V310.692C196.11 310.971 199.504 311.111 202.91 311.135V314.074ZM202.91 310.015C199.504 310.015 196.11 309.863 192.774 309.584V306.633C196.11 306.913 199.504 307.053 202.91 307.076V310.015ZM214.165 342.031C210.829 342.311 207.435 342.463 204.03 342.474V339.535C207.435 339.535 210.829 339.372 214.165 339.092V342.031ZM214.165 337.984C210.829 338.264 207.435 338.404 204.03 338.416V335.476C207.435 335.476 210.829 335.313 214.165 335.033V337.984ZM214.165 333.925C210.829 334.205 207.435 334.345 204.03 334.368V331.418C207.435 331.418 210.829 331.254 214.165 330.974V333.925ZM214.165 329.866C210.829 330.146 207.435 330.286 204.03 330.31V327.359C207.435 327.359 210.829 327.195 214.165 326.915V329.866ZM214.165 325.807C210.829 326.087 207.435 326.239 204.03 326.251V323.3C207.435 323.3 210.829 323.136 214.165 322.857V325.807ZM214.165 321.749C210.829 322.028 207.435 322.18 204.03 322.192V319.241C207.435 319.241 210.829 319.078 214.165 318.809V321.749ZM214.165 317.69C210.829 317.97 207.435 318.121 204.03 318.133V315.182C207.435 315.182 210.829 315.03 214.165 314.75V317.69ZM214.165 313.631C210.829 313.911 207.435 314.062 204.03 314.074V311.135C207.435 311.135 210.829 310.971 214.165 310.692V313.631ZM214.165 309.584C210.829 309.863 207.435 310.003 204.03 310.015V307.123C207.435 307.123 210.829 306.959 214.165 306.679V309.584ZM225.07 340.632C221.875 341.192 218.597 341.623 215.273 341.926V338.987C218.597 338.684 221.875 338.252 225.07 337.704V340.632ZM225.07 336.573C221.875 337.133 218.597 337.564 215.273 337.867V334.928C218.597 334.625 221.875 334.193 225.07 333.645V336.573ZM225.07 332.514C221.875 333.074 218.597 333.505 215.273 333.82V330.869C218.597 330.566 221.875 330.146 225.07 329.586V332.514ZM225.07 328.455C221.875 329.015 218.597 329.446 215.273 329.761V326.81C218.597 326.507 221.875 326.087 225.07 325.527V328.455ZM225.07 324.408C221.875 324.968 218.597 325.388 215.273 325.702V322.763C218.597 322.448 221.875 322.028 225.07 321.469V324.408ZM225.07 320.349C221.875 320.909 218.597 321.34 215.273 321.644V318.704C218.597 318.389 221.875 317.97 225.07 317.421V320.349ZM225.07 316.29C221.875 316.85 218.597 317.281 215.273 317.585V314.646C218.597 314.342 221.875 313.911 225.07 313.363V316.29ZM225.07 312.231C221.875 312.791 218.597 313.223 215.273 313.526V310.622C218.597 310.318 221.875 309.887 225.07 309.339V312.231ZM225.07 308.172C221.875 308.732 218.597 309.164 215.273 309.467V306.528C218.597 306.224 221.875 305.793 225.07 305.245V308.172ZM235.416 338.322C232.43 339.139 229.339 339.839 226.178 340.422V337.448C229.339 336.864 232.43 336.176 235.416 335.371V338.322ZM235.416 334.263C232.43 335.08 229.339 335.78 226.178 336.363V333.435C229.339 332.852 232.43 332.164 235.416 331.359V334.263ZM235.416 330.205C232.43 331.021 229.339 331.721 226.178 332.304V329.376C229.339 328.805 232.43 328.105 235.416 327.3V330.205ZM235.416 326.146C232.43 326.962 229.339 327.662 226.178 328.257V325.318C229.339 324.746 232.43 324.058 235.416 323.241V326.146ZM235.416 322.087C232.43 322.903 229.339 323.615 226.178 324.198V321.259C229.339 320.687 232.43 319.999 235.416 319.183V322.087ZM235.416 318.028C232.43 318.856 229.339 319.556 226.178 320.139V317.211C229.339 316.628 232.43 315.94 235.416 315.124V318.028ZM235.416 313.981C232.43 314.797 229.339 315.497 226.178 316.08V313.153C229.339 312.569 232.43 311.881 235.416 311.065V313.981ZM235.416 309.922C232.43 310.738 229.339 311.438 226.178 312.021V309.094C229.339 308.511 232.43 307.822 235.416 307.018V309.922ZM235.416 305.863C232.43 306.679 229.339 307.379 226.178 307.962V305.035C229.339 304.452 232.43 303.763 235.416 302.959V305.863ZM244.992 335.115C242.297 336.176 239.463 337.121 236.536 337.961V335.115C239.459 334.283 242.278 333.35 244.992 332.316V335.115ZM244.992 331.056C242.297 332.117 239.463 333.074 236.536 333.914V331.009C239.459 330.17 242.278 329.233 244.992 328.198V331.056ZM244.992 327.009C242.297 328.058 239.463 329.015 236.536 329.855V326.95C239.459 326.126 242.278 325.189 244.992 324.14V327.009ZM244.992 322.95C242.297 324 239.463 324.956 236.536 325.796V322.892C239.459 322.06 242.278 321.123 244.992 320.081V322.95ZM244.992 318.891C242.297 319.952 239.463 320.897 236.536 321.737V318.833C239.459 318.008 242.278 317.071 244.992 316.022V318.891ZM244.992 314.832C242.297 315.893 239.463 316.838 236.536 317.678V314.774C239.459 313.95 242.278 313.013 244.992 311.963V314.832ZM244.992 310.773C242.297 311.835 239.463 312.779 236.536 313.619V310.715C239.459 309.883 242.278 308.95 244.992 307.916V310.773ZM244.992 306.714C242.297 307.776 239.463 308.72 236.536 309.56V306.656C239.459 305.832 242.278 304.899 244.992 303.857V306.714ZM244.992 302.655C242.297 303.717 239.463 304.673 236.536 305.513V302.609C239.459 301.769 242.278 300.832 244.992 299.798V302.655ZM253.576 331.149C251.15 332.452 248.654 333.62 246.1 334.648V331.849C248.65 330.812 251.146 329.644 253.576 328.35V331.149ZM253.576 327.09C251.15 328.393 248.654 329.561 246.1 330.589V327.732C248.65 326.695 251.146 325.527 253.576 324.233V327.09ZM253.576 323.032C251.152 324.339 248.656 325.507 246.1 326.531V323.673C248.652 322.641 251.148 321.473 253.576 320.174V323.032ZM253.576 318.984C251.15 320.287 248.654 321.455 246.1 322.483V319.614C248.652 318.582 251.148 317.414 253.576 316.115V318.984ZM253.576 314.925C251.15 316.228 248.654 317.396 246.1 318.424V315.555C248.652 314.523 251.148 313.355 253.576 312.056V314.925ZM253.576 310.867C251.15 312.169 248.654 313.337 246.1 314.366V311.555C248.652 310.522 251.148 309.354 253.576 308.056V310.867ZM253.576 306.808C251.15 308.11 248.654 309.278 246.1 310.307V307.437C248.651 306.424 251.147 305.276 253.576 303.997V306.808ZM253.576 302.749C251.15 304.051 248.654 305.22 246.1 306.248V303.39C248.65 302.353 251.146 301.185 253.576 299.891V302.749ZM253.576 298.69C251.15 299.993 248.654 301.161 246.1 302.189V299.331C248.65 298.294 251.146 297.126 253.576 295.832V298.69ZM263.478 324.408C260.889 326.616 258.092 328.569 255.127 330.24L254.684 330.484V327.697C255.011 327.51 255.36 327.335 255.687 327.137C258.433 325.567 261.04 323.764 263.478 321.749V324.408ZM263.478 320.349C260.891 322.577 258.094 324.55 255.127 326.239L254.684 326.484V323.696L255.687 323.148C258.431 321.57 261.037 319.764 263.478 317.748V320.349ZM263.478 316.29C260.891 318.518 258.094 320.491 255.127 322.18C254.987 322.273 254.836 322.343 254.684 322.425V319.637L255.687 319.089C258.431 317.515 261.037 315.713 263.478 313.701V316.29ZM263.478 312.231C260.889 314.439 258.092 316.392 255.127 318.063C254.987 318.156 254.836 318.226 254.684 318.308V315.52L255.687 314.972C258.433 313.402 261.04 311.599 263.478 309.584V312.231ZM263.478 308.184C260.885 310.405 258.089 312.377 255.127 314.074L254.684 314.319V311.52L255.687 310.971C258.433 309.401 261.04 307.599 263.478 305.583V308.184ZM263.478 304.125C260.891 306.353 258.094 308.326 255.127 310.015L254.684 310.26V307.461L255.687 306.913C258.433 305.343 261.04 303.54 263.478 301.524V304.125ZM263.478 300.066C260.889 302.274 258.092 304.227 255.127 305.898L254.684 306.143V303.344L255.687 302.795C258.433 301.225 261.04 299.423 263.478 297.407V300.066ZM263.478 296.007C260.891 298.236 258.094 300.208 255.127 301.897L254.684 302.142V299.355C255.011 299.168 255.36 298.993 255.687 298.795C258.433 297.225 261.04 295.422 263.478 293.406V296.007ZM263.478 291.948C260.891 294.177 258.094 296.149 255.127 297.838L254.684 298.083V295.296L255.687 294.748C258.431 293.17 261.037 291.363 263.478 289.347V291.948ZM270.15 316.535C268.649 319.104 266.774 321.435 264.586 323.451V320.885C266.695 319.034 268.564 316.926 270.15 314.611V316.535ZM270.15 312.476C268.645 315.029 266.77 317.344 264.586 319.346V316.792C266.697 314.942 268.567 312.834 270.15 310.517V312.476ZM270.15 308.417C268.645 310.97 266.77 313.285 264.586 315.287V312.733C266.694 310.885 268.563 308.781 270.15 306.469V308.417ZM270.15 304.358C268.645 306.911 266.77 309.226 264.586 311.228V308.674C266.694 306.826 268.563 304.722 270.15 302.411V304.358ZM270.15 300.299C268.651 302.856 266.776 305.172 264.586 307.169V304.615C266.697 302.77 268.566 300.665 270.15 298.352V300.299ZM270.15 296.241C268.649 298.799 266.773 301.118 264.586 303.122V300.568C266.695 298.716 268.564 296.608 270.15 294.293V296.241ZM270.15 292.182C268.649 294.74 266.773 297.06 264.586 299.063V296.509C266.695 294.657 268.564 292.549 270.15 290.234V292.182ZM270.15 288.134C268.645 290.687 266.77 293.002 264.586 295.004V292.45C266.695 290.598 268.564 288.49 270.15 286.175V288.134ZM271.316 280.285C271.694 279.597 272.033 278.888 272.331 278.162C272.134 279.414 271.794 280.639 271.316 281.813V280.285ZM271.316 284.344C271.692 283.655 272.031 282.946 272.331 282.221C272.134 283.473 271.794 284.698 271.316 285.872V284.344ZM271.316 288.403C271.692 287.714 272.031 287.005 272.331 286.28C272.134 287.532 271.794 288.757 271.316 289.931V288.403ZM271.316 292.45C271.694 291.766 272.033 291.061 272.331 290.339C272.133 291.59 271.792 292.815 271.316 293.989V292.45ZM271.316 296.509C271.692 295.824 272.031 295.119 272.331 294.398C272.133 295.649 271.792 296.874 271.316 298.048V296.509ZM271.316 300.568C271.692 299.883 272.031 299.178 272.331 298.457C272.134 299.705 271.794 300.926 271.316 302.096V300.568ZM271.316 304.627C271.694 303.939 272.033 303.23 272.331 302.504C272.134 303.756 271.794 304.981 271.316 306.155V304.627ZM271.316 308.685C271.694 307.998 272.033 307.289 272.331 306.563C272.134 307.815 271.794 309.04 271.316 310.213V308.685ZM271.316 312.744C271.692 312.055 272.031 311.347 272.331 310.622C272.134 311.874 271.794 313.099 271.316 314.272V312.744ZM270.15 282.116V284.076C268.645 286.628 266.77 288.943 264.586 290.945V288.461C266.7 286.601 268.569 284.481 270.15 282.151V282.116Z" fill="#455A64"/>
<path d="M286.326 175.745C286.326 158.484 267.781 137.524 244.909 128.917C222.037 120.309 184.936 120.309 162.099 128.917C139.262 137.524 120.682 158.484 120.682 175.745V272.004C120.682 284.251 128.764 296.497 144.942 305.828C177.296 324.49 229.758 324.49 262.113 305.828C278.29 296.497 286.373 284.239 286.373 272.004V206.992L286.326 175.745Z" fill="#00042D"/>
<path opacity="0.3" d="M147.754 211.657C178.534 231.485 228.43 231.485 259.21 211.657C289.99 191.829 289.99 159.662 259.21 139.822C228.43 119.983 178.534 119.994 147.754 139.822C116.974 159.65 116.974 191.818 147.754 211.657Z" fill="white"/>
<path opacity="0.3" d="M151.357 206.047C180.143 224.604 226.82 224.604 255.605 206.047C284.391 187.491 284.391 157.411 255.605 138.866C226.82 120.321 180.143 120.309 151.357 138.866C122.572 157.422 122.572 187.491 151.357 206.047Z" fill="white"/>
<path opacity="0.1" d="M255.803 309.106L243.965 307.31C219.852 303.646 197.53 292.403 180.233 275.209C162.936 258.014 151.56 235.76 147.753 211.669C132.334 201.732 124.636 188.704 124.671 175.676V286.759C128.567 293.757 135.296 300.3 144.895 305.852C175.244 323.358 223.262 324.443 255.803 309.106Z" fill="black"/>
<path opacity="0.1" d="M135.203 201.113C128.205 193.264 124.647 184.458 124.706 175.664V286.746C127.428 291.469 130.984 295.658 135.203 299.11V201.113Z" fill="black"/>
<path d="M221.431 173.693V170.427H220.556C219.429 168.509 217.795 166.939 215.832 165.89C208.356 161.586 196.261 161.586 188.785 165.89C186.844 166.947 185.23 168.516 184.119 170.427H183.245V173.693C183.245 176.527 185.111 179.35 188.843 181.507C196.308 185.811 208.414 185.811 215.879 181.507C219.565 179.35 221.431 176.492 221.431 173.693Z" fill="#37474F"/>
<path d="M188.785 178.23C181.32 173.914 181.32 166.928 188.785 162.613C196.25 158.297 208.356 158.309 215.833 162.613C223.309 166.916 223.297 173.914 215.833 178.23C208.368 182.545 196.25 182.534 188.785 178.23Z" fill="#455A64"/>
<path d="M202.211 176.422C199.812 176.465 197.442 175.891 195.329 174.754C192.437 173.086 191.434 170.474 192.798 168.129C192.934 167.937 193.136 167.803 193.365 167.752C193.594 167.702 193.834 167.738 194.038 167.855C194.242 167.971 194.395 168.159 194.468 168.382C194.54 168.606 194.527 168.848 194.431 169.062C193.615 170.474 194.303 171.99 196.274 173.121C198.114 174.053 200.148 174.538 202.211 174.538C204.273 174.538 206.307 174.053 208.147 173.121C208.773 172.941 209.322 172.563 209.714 172.043C210.105 171.524 210.317 170.891 210.317 170.24C210.317 169.59 210.105 168.957 209.714 168.437C209.322 167.917 208.773 167.539 208.147 167.359C205.546 166.037 202.577 165.627 199.715 166.193C199.588 166.226 199.456 166.233 199.327 166.213C199.198 166.192 199.075 166.145 198.965 166.075C198.855 166.004 198.761 165.912 198.688 165.803C198.616 165.694 198.567 165.572 198.544 165.443C198.521 165.314 198.526 165.183 198.557 165.056C198.588 164.929 198.644 164.81 198.724 164.706C198.803 164.602 198.903 164.516 199.017 164.452C199.132 164.389 199.258 164.35 199.388 164.339C202.689 163.711 206.106 164.208 209.092 165.75C211.098 166.916 212.218 168.514 212.218 170.264C212.218 172.013 211.051 173.611 209.092 174.777C206.977 175.906 204.607 176.472 202.211 176.422Z" fill="#00042D"/>
<path d="M200.368 170.124C200.204 170.12 200.044 170.076 199.901 169.996L192.658 165.82C192.551 165.757 192.457 165.674 192.382 165.575C192.306 165.476 192.252 165.363 192.22 165.243C192.189 165.123 192.181 164.997 192.198 164.874C192.216 164.751 192.257 164.633 192.32 164.525C192.381 164.418 192.463 164.325 192.561 164.25C192.659 164.175 192.771 164.12 192.891 164.088C193.01 164.057 193.134 164.05 193.257 164.066C193.379 164.083 193.496 164.124 193.603 164.187L200.846 168.363C201.062 168.489 201.22 168.696 201.286 168.938C201.351 169.181 201.319 169.439 201.196 169.657C201.109 169.799 200.987 169.916 200.842 169.998C200.697 170.079 200.534 170.123 200.368 170.124Z" fill="#00042D"/>
<path d="M233.165 160.362V157.189H232.885C232.539 156.589 232.029 156.1 231.415 155.778C230.106 155.112 228.657 154.765 227.187 154.765C225.718 154.765 224.269 155.112 222.959 155.778C222.346 156.1 221.836 156.589 221.49 157.189H221.21V160.362C221.261 160.886 221.449 161.388 221.756 161.816C222.064 162.244 222.479 162.584 222.959 162.799C224.269 163.465 225.718 163.812 227.187 163.812C228.657 163.812 230.106 163.465 231.415 162.799C231.896 162.584 232.311 162.244 232.619 161.816C232.926 161.388 233.114 160.886 233.165 160.362Z" fill="#37474F"/>
<path d="M222.959 159.626C220.627 158.285 220.627 156.127 222.959 154.751C224.269 154.085 225.718 153.738 227.187 153.738C228.657 153.738 230.106 154.085 231.415 154.751C233.748 156.092 233.748 158.25 231.415 159.626C230.106 160.292 228.657 160.639 227.187 160.639C225.718 160.639 224.269 160.292 222.959 159.626Z" fill="#455A64"/>
<path d="M185.753 187.724V184.552H185.485C185.13 183.954 184.618 183.466 184.003 183.14C182.693 182.474 181.245 182.127 179.775 182.127C178.306 182.127 176.857 182.474 175.547 183.14C174.936 183.465 174.427 183.954 174.078 184.552H173.798V187.724C173.848 188.249 174.037 188.75 174.344 189.179C174.651 189.607 175.067 189.946 175.547 190.162C176.857 190.828 178.306 191.175 179.775 191.175C181.245 191.175 182.693 190.828 184.003 190.162C184.484 189.946 184.899 189.607 185.207 189.179C185.514 188.75 185.702 188.249 185.753 187.724Z" fill="#37474F"/>
<path d="M175.594 186.989C173.261 185.648 173.261 183.49 175.594 182.113C176.904 181.448 178.352 181.101 179.822 181.101C181.291 181.101 182.74 181.448 184.05 182.113C186.382 183.466 186.382 185.613 184.05 186.989C182.74 187.655 181.291 188.002 179.822 188.002C178.352 188.002 176.904 187.655 175.594 186.989Z" fill="#455A64"/>
<path d="M254.1 258.137L267.84 250.205C268.045 250.043 268.21 249.835 268.321 249.599C268.433 249.362 268.487 249.102 268.481 248.841V241.015C268.481 237.807 267.642 235.405 266.289 234.098C264.936 232.792 263.046 232.57 260.97 233.772C256.818 236.174 253.447 243.301 253.447 249.692V257.518C253.447 258.067 253.739 258.347 254.1 258.137Z" fill="#37474F"/>
<path d="M267.805 252.526L254.135 260.469C253.915 260.643 253.741 260.867 253.627 261.123C253.513 261.379 253.463 261.659 253.482 261.939C253.843 267.607 257.051 270.371 260.97 268.109C264.889 265.846 268.096 259.373 268.458 253.296C268.493 252.643 268.189 252.305 267.805 252.526Z" fill="#37474F"/>
<path d="M262.043 272.132C268.761 268.213 272.622 260.27 272.622 250.345C272.638 250.197 272.622 250.047 272.576 249.906C272.53 249.764 272.455 249.634 272.355 249.524C272.256 249.413 272.134 249.325 271.998 249.264C271.862 249.204 271.715 249.172 271.566 249.172C271.418 249.172 271.271 249.204 271.135 249.264C270.999 249.325 270.877 249.413 270.778 249.524C270.678 249.634 270.603 249.764 270.557 249.906C270.511 250.047 270.495 250.197 270.511 250.345C270.511 259.501 267.012 266.779 260.97 270.301C260.252 270.805 259.413 271.111 258.538 271.187C257.663 271.263 256.784 271.106 255.99 270.733C253.727 269.566 252.223 266.23 251.954 261.927C251.944 261.785 251.906 261.646 251.841 261.519C251.777 261.392 251.688 261.279 251.579 261.186C251.47 261.094 251.345 261.024 251.209 260.981C251.073 260.938 250.93 260.922 250.788 260.935C250.646 260.945 250.508 260.984 250.382 261.049C250.255 261.113 250.143 261.202 250.051 261.311C249.96 261.42 249.891 261.546 249.85 261.682C249.808 261.818 249.794 261.96 249.808 262.102C250.123 267.21 252.001 271.059 254.963 272.599C255.879 273.087 256.9 273.344 257.938 273.345C258.593 273.339 259.245 273.241 259.874 273.054V279.702L256.923 281.405C256.681 281.546 256.504 281.777 256.432 282.048C256.36 282.319 256.398 282.608 256.538 282.851C256.63 283.011 256.763 283.143 256.923 283.235C257.082 283.327 257.263 283.376 257.448 283.376C257.635 283.373 257.819 283.325 257.984 283.236L264.982 279.224C265.227 279.083 265.405 278.851 265.478 278.578C265.552 278.306 265.514 278.016 265.373 277.771C265.232 277.527 265 277.349 264.728 277.275C264.456 277.202 264.165 277.24 263.921 277.381L262.032 278.477V272.132H262.043Z" fill="#37474F"/>
<path d="M1.45931 154.576C1.14998 154.576 0.853315 154.453 0.634583 154.234C0.41585 154.015 0.292969 153.719 0.292969 153.409V149.339C0.292969 149.029 0.41585 148.733 0.634583 148.514C0.853315 148.295 1.14998 148.172 1.45931 148.172C1.76865 148.172 2.06531 148.295 2.28404 148.514C2.50278 148.733 2.62566 149.029 2.62566 149.339V153.409C2.62566 153.719 2.50278 154.015 2.28404 154.234C2.06531 154.453 1.76865 154.576 1.45931 154.576Z" fill="#00042D"/>
<path d="M7.31381 162.682C7.00447 162.682 6.70781 162.559 6.48907 162.34C6.27034 162.121 6.14746 161.824 6.14746 161.515V134.468C6.14746 134.158 6.27034 133.862 6.48907 133.643C6.70781 133.424 7.00447 133.301 7.31381 133.301C7.62314 133.301 7.91981 133.424 8.13854 133.643C8.35727 133.862 8.48015 134.158 8.48015 134.468V161.515C8.48015 161.824 8.35727 162.121 8.13854 162.34C7.91981 162.559 7.62314 162.682 7.31381 162.682Z" fill="#00042D"/>
<path d="M13.1693 153.187C12.8599 153.187 12.5633 153.064 12.3445 152.846C12.1258 152.627 12.0029 152.33 12.0029 152.021V137.197C12.0029 136.887 12.1258 136.591 12.3445 136.372C12.5633 136.153 12.8599 136.03 13.1693 136.03C13.4786 136.03 13.7753 136.153 13.994 136.372C14.2127 136.591 14.3356 136.887 14.3356 137.197V152.021C14.3356 152.33 14.2127 152.627 13.994 152.846C13.7753 153.064 13.4786 153.187 13.1693 153.187Z" fill="#00042D"/>
<path d="M19.0238 164.058C18.7144 164.058 18.4178 163.935 18.199 163.716C17.9803 163.498 17.8574 163.201 17.8574 162.892V119.574C17.8574 119.264 17.9803 118.968 18.199 118.749C18.4178 118.53 18.7144 118.407 19.0238 118.407C19.3331 118.407 19.6298 118.53 19.8485 118.749C20.0672 118.968 20.1901 119.264 20.1901 119.574V162.892C20.1901 163.201 20.0672 163.498 19.8485 163.716C19.6298 163.935 19.3331 164.058 19.0238 164.058Z" fill="#00042D"/>
<path d="M24.8797 142.468C24.5704 142.468 24.2737 142.345 24.055 142.127C23.8363 141.908 23.7134 141.611 23.7134 141.302V134.386C23.7134 134.076 23.8363 133.78 24.055 133.561C24.2737 133.342 24.5704 133.219 24.8797 133.219C25.1891 133.219 25.4857 133.342 25.7045 133.561C25.9232 133.78 26.0461 134.076 26.0461 134.386V141.302C26.0461 141.611 25.9232 141.908 25.7045 142.127C25.4857 142.345 25.1891 142.468 24.8797 142.468Z" fill="#00042D"/>
<path d="M30.7342 144.346C30.4249 144.346 30.1282 144.224 29.9095 144.005C29.6908 143.786 29.5679 143.489 29.5679 143.18V125.802C29.5679 125.492 29.6908 125.196 29.9095 124.977C30.1282 124.758 30.4249 124.635 30.7342 124.635C31.0436 124.635 31.3402 124.758 31.5589 124.977C31.7777 125.196 31.9006 125.492 31.9006 125.802V143.18C31.9006 143.489 31.7777 143.786 31.5589 144.005C31.3402 144.224 31.0436 144.346 30.7342 144.346Z" fill="#00042D"/>
<path d="M36.5897 153.56C36.2804 153.56 35.9837 153.438 35.765 153.219C35.5462 153 35.4233 152.703 35.4233 152.394V109.787C35.4233 109.478 35.5462 109.181 35.765 108.963C35.9837 108.744 36.2804 108.621 36.5897 108.621C36.899 108.621 37.1957 108.744 37.4144 108.963C37.6331 109.181 37.756 109.478 37.756 109.787V152.394C37.756 152.703 37.6331 153 37.4144 153.219C37.1957 153.438 36.899 153.56 36.5897 153.56Z" fill="#00042D"/>
<path opacity="0.5" d="M36.5897 153.56C36.2804 153.56 35.9837 153.438 35.765 153.219C35.5462 153 35.4233 152.703 35.4233 152.394V109.787C35.4233 109.478 35.5462 109.181 35.765 108.963C35.9837 108.744 36.2804 108.621 36.5897 108.621C36.899 108.621 37.1957 108.744 37.4144 108.963C37.6331 109.181 37.756 109.478 37.756 109.787V152.394C37.756 152.703 37.6331 153 37.4144 153.219C37.1957 153.438 36.899 153.56 36.5897 153.56Z" fill="white"/>
<path d="M42.4442 145.793C42.1348 145.793 41.8382 145.67 41.6194 145.451C41.4007 145.233 41.2778 144.936 41.2778 144.627V110.803C41.2778 110.493 41.4007 110.197 41.6194 109.978C41.8382 109.759 42.1348 109.636 42.4442 109.636C42.7535 109.636 43.0502 109.759 43.2689 109.978C43.4876 110.197 43.6105 110.493 43.6105 110.803V144.627C43.6105 144.936 43.4876 145.233 43.2689 145.451C43.0502 145.67 42.7535 145.793 42.4442 145.793Z" fill="#00042D"/>
<path d="M48.3001 149.852C47.9908 149.852 47.6941 149.729 47.4754 149.51C47.2567 149.291 47.1338 148.995 47.1338 148.685V99.9671C47.1338 99.6578 47.2567 99.3611 47.4754 99.1424C47.6941 98.9237 47.9908 98.8008 48.3001 98.8008C48.6095 98.8008 48.9061 98.9237 49.1249 99.1424C49.3436 99.3611 49.4665 99.6578 49.4665 99.9671V148.685C49.4665 148.995 49.3436 149.291 49.1249 149.51C48.9061 149.729 48.6095 149.852 48.3001 149.852Z" fill="#00042D"/>
<path d="M54.1546 133.803C53.8453 133.803 53.5486 133.68 53.3299 133.461C53.1112 133.242 52.9883 132.946 52.9883 132.636V109.309C52.9883 109 53.1112 108.703 53.3299 108.485C53.5486 108.266 53.8453 108.143 54.1546 108.143C54.464 108.143 54.7606 108.266 54.9794 108.485C55.1981 108.703 55.321 109 55.321 109.309V132.636C55.321 132.946 55.1981 133.242 54.9794 133.461C54.7606 133.68 54.464 133.803 54.1546 133.803Z" fill="#00042D"/>
<path d="M60.0101 121.521C59.7008 121.521 59.4041 121.398 59.1854 121.179C58.9666 120.96 58.8438 120.664 58.8438 120.354V114.779C58.8438 114.47 58.9666 114.173 59.1854 113.954C59.4041 113.736 59.7008 113.613 60.0101 113.613C60.3194 113.613 60.6161 113.736 60.8348 113.954C61.0536 114.173 61.1764 114.47 61.1764 114.779V120.354C61.1764 120.664 61.0536 120.96 60.8348 121.179C60.6161 121.398 60.3194 121.521 60.0101 121.521Z" fill="#00042D"/>
<path d="M65.8646 121.288C65.5553 121.288 65.2586 121.165 65.0399 120.946C64.8211 120.727 64.6982 120.431 64.6982 120.121V108.236C64.6982 107.927 64.8211 107.63 65.0399 107.411C65.2586 107.193 65.5553 107.07 65.8646 107.07C66.1739 107.07 66.4706 107.193 66.6893 107.411C66.9081 107.63 67.0309 107.927 67.0309 108.236V120.121C67.0309 120.431 66.9081 120.727 66.6893 120.946C66.4706 121.165 66.1739 121.288 65.8646 121.288Z" fill="#00042D"/>
<path d="M71.7201 127.959C71.4107 127.959 71.1141 127.837 70.8953 127.618C70.6766 127.399 70.5537 127.102 70.5537 126.793V94.8119C70.5537 94.5025 70.6766 94.2059 70.8953 93.9871C71.1141 93.7684 71.4107 93.6455 71.7201 93.6455C72.0294 93.6455 72.3261 93.7684 72.5448 93.9871C72.7635 94.2059 72.8864 94.5025 72.8864 94.8119V126.793C72.8864 127.102 72.7635 127.399 72.5448 127.618C72.3261 127.837 72.0294 127.959 71.7201 127.959Z" fill="#00042D"/>
<path d="M77.5745 141.664C77.2652 141.664 76.9685 141.541 76.7498 141.322C76.5311 141.103 76.4082 140.807 76.4082 140.497V74.3421C76.4082 74.0328 76.5311 73.7361 76.7498 73.5174C76.9685 73.2987 77.2652 73.1758 77.5745 73.1758C77.8839 73.1758 78.1805 73.2987 78.3993 73.5174C78.618 73.7361 78.7409 74.0328 78.7409 74.3421V140.497C78.7409 140.807 78.618 141.103 78.3993 141.322C78.1805 141.541 77.8839 141.664 77.5745 141.664Z" fill="#00042D"/>
<path d="M83.4305 129.487C83.1212 129.487 82.8245 129.364 82.6058 129.145C82.387 128.926 82.2642 128.63 82.2642 128.32V79.7655C82.2642 79.4561 82.387 79.1595 82.6058 78.9407C82.8245 78.722 83.1212 78.5991 83.4305 78.5991C83.7398 78.5991 84.0365 78.722 84.2552 78.9407C84.474 79.1595 84.5969 79.4561 84.5969 79.7655V128.32C84.5969 128.63 84.474 128.926 84.2552 129.145C84.0365 129.364 83.7398 129.487 83.4305 129.487Z" fill="#00042D"/>
<path d="M89.285 113.147C88.9757 113.147 88.679 113.024 88.4603 112.805C88.2415 112.586 88.1187 112.29 88.1187 111.98V89.3416C88.1187 89.0323 88.2415 88.7356 88.4603 88.5169C88.679 88.2982 88.9757 88.1753 89.285 88.1753C89.5943 88.1753 89.891 88.2982 90.1097 88.5169C90.3285 88.7356 90.4513 89.0323 90.4513 89.3416V111.98C90.4513 112.134 90.4212 112.285 90.3626 112.427C90.3039 112.568 90.218 112.697 90.1097 112.805C90.0014 112.913 89.8728 112.999 89.7313 113.058C89.5898 113.117 89.4382 113.147 89.285 113.147Z" fill="#00042D"/>
<path d="M95.1405 101.903C94.8311 101.903 94.5345 101.78 94.3157 101.561C94.097 101.343 93.9741 101.046 93.9741 100.737V93.8202C93.9741 93.5108 94.097 93.2142 94.3157 92.9954C94.5345 92.7767 94.8311 92.6538 95.1405 92.6538C95.4498 92.6538 95.7465 92.7767 95.9652 92.9954C96.1839 93.2142 96.3068 93.5108 96.3068 93.8202V100.737C96.3068 101.046 96.1839 101.343 95.9652 101.561C95.7465 101.78 95.4498 101.903 95.1405 101.903Z" fill="#00042D"/>
<path d="M153.563 66.7495C153.253 66.7495 152.957 66.6266 152.738 66.4079C152.519 66.1891 152.396 65.8925 152.396 65.5831V61.5243C152.396 61.2149 152.519 60.9183 152.738 60.6995C152.957 60.4808 153.253 60.3579 153.563 60.3579C153.872 60.3579 154.169 60.4808 154.388 60.6995C154.606 60.9183 154.729 61.2149 154.729 61.5243V65.5831C154.729 65.8925 154.606 66.1891 154.388 66.4079C154.169 66.6266 153.872 66.7495 153.563 66.7495Z" fill="#00042D"/>
<path d="M147.707 81.6201C147.398 81.6201 147.101 81.4972 146.882 81.2784C146.663 81.0597 146.541 80.763 146.541 80.4537V53.4178C146.541 53.1085 146.663 52.8118 146.882 52.5931C147.101 52.3744 147.398 52.2515 147.707 52.2515C148.016 52.2515 148.313 52.3744 148.532 52.5931C148.75 52.8118 148.873 53.1085 148.873 53.4178V80.4537C148.873 80.763 148.75 81.0597 148.532 81.2784C148.313 81.4972 148.016 81.6201 147.707 81.6201Z" fill="#00042D"/>
<path d="M141.852 78.8914C141.543 78.8914 141.246 78.7685 141.028 78.5498C140.809 78.331 140.686 78.0344 140.686 77.725V62.9124C140.686 62.6031 140.809 62.3064 141.028 62.0877C141.246 61.869 141.543 61.7461 141.852 61.7461C142.162 61.7461 142.458 61.869 142.677 62.0877C142.896 62.3064 143.019 62.6031 143.019 62.9124V77.725C143.019 78.0344 142.896 78.331 142.677 78.5498C142.458 78.7685 142.162 78.8914 141.852 78.8914Z" fill="#00042D"/>
<path d="M135.997 96.5262C135.688 96.5262 135.391 96.4033 135.172 96.1846C134.953 95.9659 134.831 95.6692 134.831 95.3599V52.0301C134.831 51.7208 134.953 51.4241 135.172 51.2054C135.391 50.9867 135.688 50.8638 135.997 50.8638C136.306 50.8638 136.603 50.9867 136.822 51.2054C137.04 51.4241 137.163 51.7208 137.163 52.0301V95.3599C137.163 95.6692 137.04 95.9659 136.822 96.1846C136.603 96.4033 136.306 96.5262 135.997 96.5262Z" fill="#00042D"/>
<path d="M130.142 81.7018C129.833 81.7018 129.536 81.5789 129.318 81.3601C129.099 81.1414 128.976 80.8447 128.976 80.5354V73.619C128.976 73.3096 129.099 73.013 129.318 72.7943C129.536 72.5755 129.833 72.4526 130.142 72.4526C130.452 72.4526 130.748 72.5755 130.967 72.7943C131.186 73.013 131.309 73.3096 131.309 73.619V80.5354C131.309 80.8447 131.186 81.1414 130.967 81.3601C130.748 81.5789 130.452 81.7018 130.142 81.7018Z" fill="#00042D"/>
<path d="M124.286 90.3331C123.977 90.3331 123.68 90.2103 123.462 89.9915C123.243 89.7728 123.12 89.4761 123.12 89.1668V71.7533C123.12 71.4439 123.243 71.1473 123.462 70.9285C123.68 70.7098 123.977 70.5869 124.286 70.5869C124.596 70.5869 124.892 70.7098 125.111 70.9285C125.33 71.1473 125.453 71.4439 125.453 71.7533V89.1668C125.453 89.4761 125.33 89.7728 125.111 89.9915C124.892 90.2103 124.596 90.3331 124.286 90.3331Z" fill="#00042D"/>
<path d="M118.421 106.311C118.111 106.311 117.815 106.188 117.596 105.97C117.377 105.751 117.254 105.454 117.254 105.145V62.5384C117.254 62.2291 117.377 61.9324 117.596 61.7137C117.815 61.495 118.111 61.3721 118.421 61.3721C118.73 61.3721 119.027 61.495 119.245 61.7137C119.464 61.9324 119.587 62.2291 119.587 62.5384V105.145C119.587 105.454 119.464 105.751 119.245 105.97C119.027 106.188 118.73 106.311 118.421 106.311Z" fill="#00042D"/>
<path d="M112.565 105.297C112.256 105.297 111.959 105.174 111.741 104.955C111.522 104.737 111.399 104.44 111.399 104.131V70.3065C111.399 69.9971 111.522 69.7005 111.741 69.4818C111.959 69.263 112.256 69.1401 112.565 69.1401C112.875 69.1401 113.171 69.263 113.39 69.4818C113.609 69.7005 113.732 69.9971 113.732 70.3065V104.131C113.732 104.44 113.609 104.737 113.39 104.955C113.171 105.174 112.875 105.297 112.565 105.297Z" fill="#00042D"/>
<path d="M106.711 116.121C106.401 116.121 106.105 115.998 105.886 115.779C105.667 115.56 105.544 115.264 105.544 114.954V66.2362C105.544 65.9268 105.667 65.6302 105.886 65.4114C106.105 65.1927 106.401 65.0698 106.711 65.0698C107.02 65.0698 107.317 65.1927 107.536 65.4114C107.754 65.6302 107.877 65.9268 107.877 66.2362V114.954C107.877 115.264 107.754 115.56 107.536 115.779C107.317 115.998 107.02 116.121 106.711 116.121Z" fill="#00042D"/>
<path opacity="0.7" d="M48.3001 149.852C47.9908 149.852 47.6941 149.729 47.4754 149.51C47.2567 149.291 47.1338 148.995 47.1338 148.685V99.9671C47.1338 99.6578 47.2567 99.3611 47.4754 99.1424C47.6941 98.9237 47.9908 98.8008 48.3001 98.8008C48.6095 98.8008 48.9061 98.9237 49.1249 99.1424C49.3436 99.3611 49.4665 99.6578 49.4665 99.9671V148.685C49.4665 148.995 49.3436 149.291 49.1249 149.51C48.9061 149.729 48.6095 149.852 48.3001 149.852Z" fill="white"/>
<path opacity="0.7" d="M83.4305 129.487C83.1212 129.487 82.8245 129.364 82.6058 129.145C82.387 128.926 82.2642 128.63 82.2642 128.32V79.7655C82.2642 79.4561 82.387 79.1595 82.6058 78.9407C82.8245 78.722 83.1212 78.5991 83.4305 78.5991C83.7398 78.5991 84.0365 78.722 84.2552 78.9407C84.474 79.1595 84.5969 79.4561 84.5969 79.7655V128.32C84.5969 128.63 84.474 128.926 84.2552 129.145C84.0365 129.364 83.7398 129.487 83.4305 129.487Z" fill="white"/>
<path opacity="0.7" d="M106.711 116.121C106.401 116.121 106.105 115.998 105.886 115.779C105.667 115.56 105.544 115.264 105.544 114.954V66.2362C105.544 65.9268 105.667 65.6302 105.886 65.4114C106.105 65.1927 106.401 65.0698 106.711 65.0698C107.02 65.0698 107.317 65.1927 107.536 65.4114C107.754 65.6302 107.877 65.9268 107.877 66.2362V114.954C107.877 115.264 107.754 115.56 107.536 115.779C107.317 115.998 107.02 116.121 106.711 116.121Z" fill="white"/>
<path d="M100.855 104.224C100.545 104.224 100.249 104.101 100.03 103.883C99.8114 103.664 99.6885 103.367 99.6885 103.058V84.8978C99.6885 84.5885 99.8114 84.2918 100.03 84.0731C100.249 83.8543 100.545 83.7314 100.855 83.7314C101.164 83.7314 101.461 83.8543 101.68 84.0731C101.898 84.2918 102.021 84.5885 102.021 84.8978V103.058C102.021 103.367 101.898 103.664 101.68 103.883C101.461 104.101 101.164 104.224 100.855 104.224Z" fill="#00042D"/>
<path d="M95.0003 101.308C94.691 101.308 94.3943 101.185 94.1756 100.967C93.9569 100.748 93.834 100.451 93.834 100.142V94.5785C93.834 94.2691 93.9569 93.9725 94.1756 93.7537C94.3943 93.535 94.691 93.4121 95.0003 93.4121C95.3097 93.4121 95.6063 93.535 95.8251 93.7537C96.0438 93.9725 96.1667 94.2691 96.1667 94.5785V100.142C96.1667 100.451 96.0438 100.748 95.8251 100.967C95.6063 101.185 95.3097 101.308 95.0003 101.308Z" fill="#00042D"/>
<path opacity="0.5" d="M19.0238 164.058C18.7144 164.058 18.4178 163.935 18.199 163.716C17.9803 163.498 17.8574 163.201 17.8574 162.892V119.574C17.8574 119.264 17.9803 118.968 18.199 118.749C18.4178 118.53 18.7144 118.407 19.0238 118.407C19.3331 118.407 19.6298 118.53 19.8485 118.749C20.0672 118.968 20.1901 119.264 20.1901 119.574V162.892C20.1901 163.201 20.0672 163.498 19.8485 163.716C19.6298 163.935 19.3331 164.058 19.0238 164.058Z" fill="white"/>
<path opacity="0.5" d="M65.8646 121.288C65.5553 121.288 65.2586 121.165 65.0399 120.946C64.8211 120.727 64.6982 120.431 64.6982 120.121V108.236C64.6982 107.927 64.8211 107.63 65.0399 107.411C65.2586 107.193 65.5553 107.07 65.8646 107.07C66.1739 107.07 66.4706 107.193 66.6893 107.411C66.9081 107.63 67.0309 107.927 67.0309 108.236V120.121C67.0309 120.431 66.9081 120.727 66.6893 120.946C66.4706 121.165 66.1739 121.288 65.8646 121.288Z" fill="white"/>
<path opacity="0.5" d="M77.5745 141.664C77.2652 141.664 76.9685 141.541 76.7498 141.322C76.5311 141.103 76.4082 140.807 76.4082 140.497V74.3421C76.4082 74.0328 76.5311 73.7361 76.7498 73.5174C76.9685 73.2987 77.2652 73.1758 77.5745 73.1758C77.8839 73.1758 78.1805 73.2987 78.3993 73.5174C78.618 73.7361 78.7409 74.0328 78.7409 74.3421V140.497C78.7409 140.807 78.618 141.103 78.3993 141.322C78.1805 141.541 77.8839 141.664 77.5745 141.664Z" fill="white"/>
<path opacity="0.5" d="M89.285 113.147C88.9757 113.147 88.679 113.024 88.4603 112.805C88.2415 112.586 88.1187 112.29 88.1187 111.98V89.3416C88.1187 89.0323 88.2415 88.7356 88.4603 88.5169C88.679 88.2982 88.9757 88.1753 89.285 88.1753C89.5943 88.1753 89.891 88.2982 90.1097 88.5169C90.3285 88.7356 90.4513 89.0323 90.4513 89.3416V111.98C90.4513 112.134 90.4212 112.285 90.3626 112.427C90.3039 112.568 90.218 112.697 90.1097 112.805C90.0014 112.913 89.8728 112.999 89.7313 113.058C89.5898 113.117 89.4382 113.147 89.285 113.147Z" fill="white"/>
<path opacity="0.5" d="M135.997 96.5262C135.688 96.5262 135.391 96.4033 135.172 96.1846C134.953 95.9659 134.831 95.6692 134.831 95.3599V52.0301C134.831 51.7208 134.953 51.4241 135.172 51.2054C135.391 50.9867 135.688 50.8638 135.997 50.8638C136.306 50.8638 136.603 50.9867 136.822 51.2054C137.04 51.4241 137.163 51.7208 137.163 52.0301V95.3599C137.163 95.6692 137.04 95.9659 136.822 96.1846C136.603 96.4033 136.306 96.5262 135.997 96.5262Z" fill="white"/>
<path opacity="0.5" d="M112.565 105.297C112.256 105.297 111.959 105.174 111.741 104.955C111.522 104.737 111.399 104.44 111.399 104.131V70.3065C111.399 69.9971 111.522 69.7005 111.741 69.4818C111.959 69.263 112.256 69.1401 112.565 69.1401C112.875 69.1401 113.171 69.263 113.39 69.4818C113.609 69.7005 113.732 69.9971 113.732 70.3065V104.131C113.732 104.44 113.609 104.737 113.39 104.955C113.171 105.174 112.875 105.297 112.565 105.297Z" fill="white"/>
<path d="M363.631 246.519C373.568 252.257 373.568 261.553 363.631 267.291C353.694 273.03 337.598 273.03 327.661 267.291C317.724 261.553 317.724 252.257 327.661 246.519C337.598 240.78 353.694 240.78 363.631 246.519Z" fill="#37474F"/>
<path d="M320.208 256.911C320.208 253.144 322.669 249.388 327.638 246.519C337.575 240.78 353.671 240.78 363.608 246.519C368.577 249.388 371.038 253.144 371.038 256.911V260.41C370.979 264.119 368.483 267.816 363.585 270.65C353.647 276.377 337.552 276.377 327.615 270.65C322.716 267.816 320.22 264.119 320.162 260.41L320.208 256.911Z" fill="#263238"/>
<path d="M363.631 246.519C373.568 252.257 373.568 261.553 363.631 267.291C353.694 273.03 337.598 273.03 327.661 267.291C317.724 261.553 317.724 252.257 327.661 246.519C337.598 240.78 353.694 240.78 363.631 246.519Z" fill="#37474F"/>
<path d="M342.905 104.096H348.387V255.266C348.402 255.53 348.335 255.791 348.195 256.015C348.055 256.239 347.849 256.413 347.606 256.514C347.006 256.819 346.342 256.979 345.67 256.979C344.997 256.979 344.333 256.819 343.733 256.514C343.49 256.413 343.284 256.239 343.144 256.015C343.004 255.791 342.937 255.53 342.952 255.266L342.905 104.096Z" fill="#455A64"/>
<path d="M309.921 98.8822L318.727 56.7305H372.612L381.418 98.8822C383.82 105.589 380.52 112.878 371.504 118.057C357.251 126.221 334.181 126.221 319.881 118.057C310.819 112.82 307.518 105.589 309.921 98.8822Z" fill="#00042D"/>
<path opacity="0.2" d="M309.921 98.8822L318.727 56.7305H372.612L381.418 98.8822C383.82 105.589 380.52 112.878 371.504 118.057C357.251 126.221 334.181 126.221 319.881 118.057C310.819 112.82 307.518 105.589 309.921 98.8822Z" fill="black"/>
<path d="M364.797 69.3971C354.218 75.5088 337.073 75.5088 326.494 69.3971C315.915 63.2854 315.915 53.3948 326.494 47.2365C337.073 41.0782 354.218 41.1365 364.797 47.2365C375.376 53.3365 375.376 63.2971 364.797 69.3971Z" fill="#00042D"/>
<path d="M364.797 69.3971C354.218 75.5088 337.073 75.5088 326.494 69.3971C315.915 63.2854 315.915 53.3948 326.494 47.2365C337.073 41.0782 354.218 41.1365 364.797 47.2365C375.376 53.3365 375.376 63.2971 364.797 69.3971Z" fill="#00042D"/>
<path d="M345.646 70.1436C351.427 70.2583 357.141 68.889 362.243 66.1663C366.115 63.9269 368.25 61.1394 368.25 58.2935C368.25 55.4476 366.115 52.66 362.243 50.4323C357.092 47.8478 351.409 46.502 345.646 46.502C339.883 46.502 334.2 47.8478 329.049 50.4323C325.176 52.66 323.042 55.4593 323.042 58.2935C323.042 61.1277 325.176 63.9269 329.049 66.1663C334.15 68.889 339.864 70.2583 345.646 70.1436Z" fill="#00042D"/>
<path opacity="0.35" d="M345.646 70.1436C351.427 70.2583 357.141 68.889 362.243 66.1663C366.115 63.9269 368.25 61.1394 368.25 58.2935C368.25 55.4476 366.115 52.66 362.243 50.4323C357.092 47.8478 351.409 46.502 345.646 46.502C339.883 46.502 334.2 47.8478 329.049 50.4323C325.176 52.66 323.042 55.4593 323.042 58.2935C323.042 61.1277 325.176 63.9269 329.049 66.1663C334.15 68.889 339.864 70.2583 345.646 70.1436Z" fill="black"/>
<path d="M376.73 20.41C376.484 20.4088 376.242 20.3463 376.026 20.2282C375.81 20.1101 375.627 19.9401 375.493 19.7335C372.301 14.7254 367.899 10.6009 362.695 7.73939C357.491 4.87791 351.65 3.37145 345.711 3.35868C339.772 3.3459 333.925 4.82721 328.708 7.66627C323.491 10.5053 319.072 14.6109 315.858 19.6052C315.648 19.93 315.317 20.158 314.939 20.2389C314.56 20.3198 314.165 20.2471 313.84 20.0368C313.515 19.8264 313.288 19.4957 313.207 19.1173C313.126 18.7389 313.198 18.3438 313.409 18.019C316.89 12.6162 321.673 8.1752 327.319 5.10438C332.965 2.03356 339.293 0.431466 345.72 0.445403C352.147 0.459339 358.467 2.08886 364.1 5.18414C369.733 8.27941 374.497 12.7411 377.954 18.159C378.161 18.486 378.23 18.8812 378.147 19.2589C378.064 19.6366 377.836 19.9664 377.511 20.1767C377.278 20.3261 377.007 20.4069 376.73 20.41Z" fill="#00042D"/>
<path d="M370.419 25.0287C370.17 25.0306 369.925 24.9669 369.708 24.8441C369.491 24.7213 369.31 24.5436 369.183 24.3289C366.72 20.3059 363.267 16.9812 359.153 14.6719C355.04 12.3627 350.404 11.1459 345.686 11.1377C340.969 11.1295 336.329 12.3302 332.207 14.6252C328.086 16.9201 324.621 20.2328 322.144 24.2472C322.048 24.4192 321.918 24.5697 321.761 24.6899C321.605 24.8101 321.426 24.8973 321.235 24.9464C321.044 24.9954 320.846 25.0053 320.651 24.9753C320.456 24.9453 320.269 24.8761 320.102 24.7719C319.935 24.6678 319.79 24.5307 319.677 24.3692C319.564 24.2076 319.485 24.0248 319.445 23.8318C319.405 23.6389 319.404 23.4398 319.443 23.2466C319.482 23.0533 319.56 22.87 319.672 22.7076C322.411 18.2719 326.242 14.6119 330.797 12.0765C335.353 9.54106 340.482 8.21481 345.695 8.22417C350.909 8.23353 356.033 9.57817 360.58 12.1299C365.126 14.6816 368.943 18.3554 371.667 22.801C371.867 23.1312 371.929 23.5266 371.839 23.902C371.75 24.2773 371.516 24.6024 371.189 24.8071C370.959 24.9525 370.692 25.0294 370.419 25.0287Z" fill="#00042D"/>
<path d="M364.121 29.6475C363.863 29.6484 363.609 29.5809 363.386 29.4518C363.163 29.3227 362.978 29.1367 362.85 28.9126C361.114 25.8833 358.609 23.366 355.588 21.6154C352.567 19.8647 349.138 18.9428 345.646 18.9428C342.155 18.9428 338.725 19.8647 335.704 21.6154C332.683 23.366 330.178 25.8833 328.443 28.9126C328.357 29.096 328.235 29.2596 328.084 29.3931C327.932 29.5267 327.754 29.6273 327.561 29.6884C327.369 29.7496 327.166 29.7701 326.965 29.7486C326.764 29.727 326.569 29.6639 326.394 29.5633C326.219 29.4627 326.066 29.3268 325.947 29.1641C325.827 29.0014 325.742 28.8156 325.698 28.6184C325.653 28.4212 325.65 28.217 325.689 28.0187C325.728 27.8204 325.808 27.6323 325.923 27.4664C327.91 23.9878 330.782 21.0964 334.246 19.0854C337.711 17.0744 341.646 16.0151 345.652 16.0151C349.658 16.0151 353.593 17.0744 357.058 19.0854C360.522 21.0964 363.394 23.9878 365.381 27.4664C365.571 27.8008 365.621 28.1969 365.521 28.5683C365.42 28.9397 365.177 29.2563 364.844 29.4492C364.626 29.5803 364.376 29.649 364.121 29.6475Z" fill="#00042D"/>
<path d="M333.457 34.2663C333.234 34.269 333.014 34.2169 332.816 34.1147C332.47 33.944 332.206 33.6432 332.081 33.2781C331.956 32.913 331.982 32.5135 332.151 32.1669C333.389 29.647 335.309 27.5245 337.692 26.0402C340.075 24.5558 342.826 23.769 345.634 23.769C348.442 23.769 351.193 24.5558 353.576 26.0402C355.959 27.5245 357.879 29.647 359.117 32.1669C359.286 32.5135 359.312 32.913 359.187 33.2781C359.062 33.6432 358.798 33.944 358.452 34.1147C358.281 34.2002 358.094 34.2508 357.903 34.2636C357.712 34.2764 357.521 34.2511 357.339 34.1893C357.158 34.1274 356.991 34.0302 356.848 33.9033C356.704 33.7764 356.588 33.6222 356.504 33.4499C355.504 31.4204 353.956 29.7113 352.035 28.5163C350.114 27.3212 347.897 26.6878 345.634 26.6878C343.372 26.6878 341.154 27.3212 339.233 28.5163C337.312 29.7113 335.764 31.4204 334.764 33.4499C334.643 33.6935 334.457 33.8988 334.226 34.043C333.995 34.1871 333.729 34.2644 333.457 34.2663Z" fill="#00042D"/>
<path d="M331.91 322.493C332.054 322.418 332.214 322.378 332.376 322.376H340.704L344.203 324.371L342.22 337.422L338.721 335.428L335.735 331.987V340.49L333.403 339.638L323.267 328.756C323.178 328.655 323.113 328.535 323.077 328.406C323.04 328.276 323.033 328.14 323.055 328.007C323.077 327.874 323.129 327.748 323.206 327.638C323.283 327.527 323.383 327.435 323.5 327.368L331.91 322.493Z" fill="#00042D"/>
<path d="M335.759 340.489L333.426 339.638L323.29 328.756C323.176 328.624 323.103 328.462 323.078 328.29C323.053 328.117 323.079 327.941 323.151 327.783C323.224 327.624 323.34 327.49 323.487 327.396C323.634 327.302 323.804 327.252 323.978 327.251H333.426L335.759 329.246V340.489Z" fill="#00042D"/>
<path opacity="0.2" d="M335.759 340.489L333.426 339.638L323.29 328.756C323.176 328.624 323.103 328.462 323.078 328.29C323.053 328.117 323.079 327.941 323.151 327.783C323.224 327.624 323.34 327.49 323.487 327.396C323.634 327.302 323.804 327.252 323.978 327.251H333.426L335.759 329.246V340.489Z" fill="black"/>
<path d="M333.403 316.988C333.479 315.608 333.879 314.264 334.57 313.067C335.26 311.87 336.223 310.851 337.38 310.095C338.612 309.468 339.975 309.141 341.357 309.141C342.74 309.141 344.102 309.468 345.335 310.095L382.658 331.474C383.817 332.229 384.783 333.246 385.476 334.444C386.169 335.641 386.57 336.985 386.647 338.367V369.088C386.57 370.47 386.169 371.814 385.476 373.012C384.783 374.209 383.817 375.227 382.658 375.982C381.423 376.609 380.059 376.935 378.675 376.935C377.29 376.935 375.926 376.609 374.691 375.982L337.019 354.334C333.438 352.293 333.415 350.24 333.415 347.709L333.403 316.988Z" fill="#00042D"/>
<path opacity="0.2" d="M333.403 316.988C333.479 315.608 333.879 314.264 334.57 313.067C335.26 311.87 336.223 310.851 337.38 310.095C338.612 309.468 339.975 309.141 341.357 309.141C342.74 309.141 344.102 309.468 345.335 310.095L382.658 331.474C383.817 332.229 384.783 333.246 385.476 334.444C386.169 335.641 386.57 336.985 386.647 338.367V369.088C386.57 370.47 386.169 371.814 385.476 373.012C384.783 374.209 383.817 375.227 382.658 375.982C381.423 376.609 380.059 376.935 378.675 376.935C377.29 376.935 375.926 376.609 374.691 375.982L337.019 354.334C333.438 352.293 333.415 350.24 333.415 347.709L333.403 316.988Z" fill="black"/>
<path opacity="0.2" d="M386.623 369.1C386.547 370.481 386.146 371.826 385.453 373.023C384.76 374.221 383.794 375.238 382.634 375.993C381.512 376.561 380.282 376.884 379.026 376.943C377.769 377.001 376.515 376.793 375.345 376.331C377.223 377.043 378.645 375.97 378.645 373.695V342.974C378.599 341.589 378.197 340.24 377.479 339.055L385.445 334.459C386.16 335.646 386.562 336.994 386.612 338.378L386.623 369.1Z" fill="black"/>
<path d="M333.53 315.868C333.997 314.177 335.536 313.629 337.379 314.702L374.702 336.092C375.882 336.822 376.851 337.847 377.513 339.067L385.468 334.483C384.806 333.264 383.837 332.238 382.657 331.509L345.369 310.165C344.133 309.543 342.769 309.219 341.386 309.219C340.002 309.219 338.638 309.543 337.403 310.165C336.404 310.803 335.546 311.638 334.88 312.618C334.214 313.599 333.755 314.704 333.53 315.868Z" fill="#00042D"/>
<path d="M348.064 341.528C348.064 343.405 346.746 344.164 345.113 343.231C344.254 342.671 343.539 341.917 343.027 341.029C342.514 340.141 342.218 339.145 342.162 338.122C342.162 336.244 343.48 335.486 345.113 336.419C345.972 336.979 346.687 337.733 347.199 338.62C347.712 339.508 348.008 340.504 348.064 341.528Z" fill="#FAFAFA"/>
<path d="M358.105 349.727C359.254 349.064 359.254 346.912 358.104 344.92C356.954 342.929 355.09 341.852 353.941 342.515C352.792 343.179 352.792 345.331 353.942 347.323C355.092 349.314 356.956 350.391 358.105 349.727Z" fill="#FAFAFA"/>
<path d="M369.862 354.136C369.862 356.014 368.544 356.772 366.911 355.839C366.052 355.279 365.338 354.525 364.825 353.637C364.312 352.75 364.016 351.754 363.96 350.73C363.96 348.852 365.278 348.082 366.911 349.027C367.77 349.587 368.485 350.341 368.998 351.229C369.51 352.116 369.807 353.112 369.862 354.136Z" fill="#FAFAFA"/>
</svg>
