<svg width="50" height="51" viewBox="0 0 50 51" fill="none" xmlns="http://www.w3.org/2000/svg">
<circle cx="25" cy="25.6572" r="25" fill="#C65F00"/>
<path d="M21.2266 28.3895C22.1027 27.8263 23.0083 27.2436 23.0083 26.1802C23.0795 24.8629 22.076 23.7341 20.7593 23.6505C19.4427 23.7341 18.4392 24.8629 18.5104 26.1802C18.5104 26.4562 18.7342 26.6799 19.0101 26.6799C19.2862 26.6799 19.5099 26.4561 19.5099 26.1802C19.4413 25.4153 19.9962 24.7357 20.7593 24.65C21.5225 24.7357 22.0773 25.4153 22.0087 26.1802C22.0087 26.6634 21.5089 27.0197 20.6863 27.5489C19.7712 28.1371 18.7342 28.8037 18.5178 30.062C18.4928 30.2073 18.5331 30.3561 18.628 30.4688C18.7229 30.5815 18.8627 30.6466 19.0101 30.6467H22.5084C22.7844 30.6467 23.0082 30.423 23.0082 30.147C23.0082 29.871 22.7844 29.6473 22.5084 29.6473H19.7312C20.1374 29.1291 20.6465 28.7008 21.2266 28.3895Z" fill="white"/>
<path d="M28.0057 27.6483H27.5059V24.1502C27.5059 23.9351 27.3683 23.7442 27.1642 23.6762C26.9601 23.6082 26.7354 23.6783 26.6063 23.8504L23.6078 27.8482C23.4942 27.9997 23.4759 28.2022 23.5606 28.3715C23.6452 28.5408 23.8182 28.6478 24.0075 28.6478H26.5064V30.147C26.5064 30.423 26.7301 30.6467 27.0061 30.6467C27.2821 30.6467 27.5059 30.423 27.5059 30.147V28.6478H28.0056C28.2816 28.6478 28.5053 28.4241 28.5053 28.1481C28.5053 27.8721 28.2816 27.6483 28.0057 27.6483ZM26.5064 27.6483H25.0071L26.5064 25.6494V27.6483Z" fill="white"/>
<path d="M36.5017 10.6572H29.505C27.5739 10.6595 26.0089 12.2243 26.0067 14.1553V14.4482C19.8732 13.1443 13.6655 16.3182 11.1314 22.0534C8.59728 27.7887 10.4307 34.5148 15.5247 38.1712C20.6186 41.8276 27.5784 41.4127 32.202 37.1773C36.8256 32.9419 37.847 26.0455 34.6495 20.6518H36.5017C38.4328 20.6496 39.9978 19.0847 40 17.1537V14.1554C39.9978 12.2243 38.4328 10.6595 36.5017 10.6572V10.6572ZM35.5022 27.3981C35.5124 32.6176 32.2185 37.2719 27.2925 38.9986C22.3665 40.7253 16.8873 39.1461 13.6361 35.0627C10.385 30.9793 10.0737 25.286 12.8605 20.8726C15.6474 16.4592 20.9219 14.2925 26.0066 15.4721V17.1537C26.0067 17.4729 26.051 17.7906 26.1381 18.0977C22.3614 16.93 18.2536 18.1603 15.7408 21.2118C13.228 24.2632 12.8087 28.5305 14.6794 32.0126C16.5501 35.4946 20.34 37.501 24.2716 37.0907C28.2033 36.6805 31.4971 33.9349 32.6085 30.1416C32.6858 29.8767 32.5336 29.5992 32.2686 29.522C32.0037 29.4447 31.7262 29.5968 31.6489 29.8618C30.3789 34.1872 26.0288 36.8385 21.6021 35.9853C17.1753 35.1321 14.1223 31.054 14.5511 26.5665C14.9798 22.079 18.7497 18.6526 23.2579 18.653C24.4991 18.6522 25.7262 18.9175 26.8562 19.431C27.4049 20.073 28.169 20.4927 29.0052 20.6114V22.151C29.0025 22.5421 29.2305 22.898 29.5869 23.059C29.9442 23.2258 30.3664 23.1648 30.6619 22.9036L30.7118 22.8571C31.3812 23.9222 31.7996 25.1256 31.9353 26.3762L31.3555 25.7965C31.1595 25.6071 30.8477 25.6098 30.655 25.8026C30.4622 25.9954 30.4595 26.3071 30.6489 26.5031L32.1482 28.0023C32.3433 28.1974 32.6597 28.1974 32.8548 28.0023L34.3541 26.5031C34.5435 26.3071 34.5408 25.9953 34.348 25.8026C34.1552 25.6098 33.8435 25.6071 33.6475 25.7965L32.9588 26.4851C32.8139 24.9512 32.3068 23.4735 31.479 22.174L33.1882 20.6518H33.464C34.7955 22.6496 35.5047 24.9973 35.5022 27.3981ZM39.0005 17.1537C38.9989 18.5329 37.8811 19.6506 36.5017 19.6523H33.1882C32.9465 19.6531 32.7131 19.7408 32.5305 19.8992L30.0048 22.1509V20.6113C30.0028 20.1166 29.6392 19.6978 29.1496 19.6263C27.922 19.4454 27.0109 18.3945 27.0062 17.1537V14.1553C27.0078 12.7761 28.1256 11.6583 29.505 11.6566H36.5017C37.8811 11.6583 38.9989 12.776 39.0006 14.1553V17.1537H39.0005Z" fill="white"/>
<path d="M29.0051 14.1556H29.5049C29.7809 14.1556 30.0046 13.9318 30.0046 13.6559C30.0046 13.38 29.7808 13.1562 29.5049 13.1562H29.0051C28.7291 13.1562 28.5054 13.38 28.5054 13.6559C28.5054 13.9318 28.7291 14.1556 29.0051 14.1556Z" fill="white"/>
<path d="M37.0016 13.1562H31.5041C31.2281 13.1562 31.0044 13.38 31.0044 13.6559C31.0044 13.9318 31.2282 14.1556 31.5041 14.1556H37.0016C37.2776 14.1556 37.5013 13.9318 37.5013 13.6559C37.5013 13.38 37.2775 13.1562 37.0016 13.1562Z" fill="white"/>
<path d="M37.0014 15.155H29.0051C28.7291 15.155 28.5054 15.3788 28.5054 15.6547C28.5054 15.9307 28.7291 16.1544 29.0051 16.1544H37.0013C37.2773 16.1544 37.5011 15.9307 37.5011 15.6547C37.5011 15.3788 37.2773 15.155 37.0014 15.155Z" fill="white"/>
<path d="M32.5034 17.1539H29.0051C28.7291 17.1539 28.5054 17.3776 28.5054 17.6536C28.5054 17.9296 28.7291 18.1533 29.0051 18.1533H32.5034C32.7795 18.1533 33.0032 17.9295 33.0032 17.6536C33.0032 17.3776 32.7795 17.1539 32.5034 17.1539Z" fill="white"/>
</svg>
