<svg width="50" height="51" viewBox="0 0 50 51" fill="none" xmlns="http://www.w3.org/2000/svg">
<circle cx="25" cy="25.6572" r="25" fill="#0052A3"/>
<path d="M37.1935 18.4341H36.607C37.131 17.8496 37.4746 17.126 37.5961 16.3505C37.7177 15.575 37.6121 14.781 37.292 14.0643C36.9719 13.3475 36.4511 12.7388 35.7925 12.3117C35.1339 11.8845 34.3657 11.6572 33.5806 11.6572C32.7956 11.6572 32.0274 11.8845 31.3688 12.3117C30.7102 12.7388 30.1894 13.3475 29.8693 14.0643C29.5492 14.781 29.4436 15.575 29.5651 16.3505C29.6867 17.126 30.0302 17.8496 30.5543 18.4341H25V13.9185C25 13.7988 24.9524 13.6839 24.8677 13.5992C24.783 13.5145 24.6682 13.467 24.5484 13.467H22.7419C22.6222 13.467 22.5073 13.5145 22.4226 13.5992C22.3379 13.6839 22.2903 13.7988 22.2903 13.9185V18.4341H21.8387V12.1123C21.8387 11.9925 21.7911 11.8777 21.7064 11.793C21.6217 11.7083 21.5069 11.6607 21.3871 11.6607H19.5806C19.4609 11.6607 19.346 11.7083 19.2613 11.793C19.1766 11.8777 19.129 11.9925 19.129 12.1123V18.4341H18.6774V15.2732C18.6774 15.1534 18.6298 15.0386 18.5451 14.9539C18.4605 14.8692 18.3456 14.8216 18.2258 14.8216H16.4194C16.2996 14.8216 16.1847 14.8692 16.1 14.9539C16.0153 15.0386 15.9677 15.1534 15.9677 15.2732V18.4341H12.8065C12.3275 18.4346 11.8684 18.6251 11.5297 18.9637C11.191 19.3023 11.0005 19.7614 11 20.2403V33.787C11.0005 34.2659 11.191 34.725 11.5297 35.0636C11.8684 35.4022 12.3275 35.5927 12.8065 35.5932H22.1153L21.513 37.3994H20.0323C19.9125 37.3994 19.7976 37.447 19.7129 37.5317C19.6282 37.6164 19.5806 37.7312 19.5806 37.851V38.7541H15.0645C14.9447 38.7541 14.8299 38.8017 14.7452 38.8864C14.6605 38.9711 14.6129 39.0859 14.6129 39.2057C14.6129 39.3254 14.6605 39.4403 14.7452 39.525C14.8299 39.6097 14.9447 39.6572 15.0645 39.6572H34.9355C35.0553 39.6572 35.1701 39.6097 35.2548 39.525C35.3395 39.4403 35.3871 39.3254 35.3871 39.2057C35.3871 39.0859 35.3395 38.9711 35.2548 38.8864C35.1701 38.8017 35.0553 38.7541 34.9355 38.7541H30.4194V37.851C30.4194 37.7312 30.3718 37.6164 30.2871 37.5317C30.2024 37.447 30.0875 37.3994 29.9677 37.3994H28.487L27.8847 35.5932H37.1935C37.6725 35.5927 38.1316 35.4022 38.4703 35.0636C38.809 34.725 38.9995 34.2659 39 33.787V20.2403C38.9995 19.7614 38.809 19.3023 38.4703 18.9637C38.1316 18.6251 37.6725 18.4346 37.1935 18.4341ZM34.0323 12.5966C34.7072 12.6951 35.3323 13.0088 35.8146 13.491C36.297 13.9733 36.6107 14.5983 36.7092 15.2732H34.0323V12.5966ZM33.7675 16.1763H36.7092C36.6312 16.7189 36.4133 17.2319 36.077 17.6648C35.7406 18.0977 35.2974 18.4356 34.7909 18.6453C34.2843 18.855 33.7319 18.9293 33.188 18.8609C32.644 18.7925 32.1272 18.5838 31.6884 18.2551L33.7675 16.1763ZM30.4194 15.7247C30.4204 14.965 30.6948 14.231 31.1922 13.6567C31.6897 13.0824 32.3771 12.7061 33.129 12.5966V15.5379L31.0499 17.6168C30.64 17.0712 30.4187 16.4071 30.4194 15.7247ZM23.1935 14.3701H24.0968V22.9496H23.1935V14.3701ZM21.8387 19.3372H22.2903V22.9496H21.8387V19.3372ZM20.0323 12.5638H20.9355V22.9496H20.0323V12.5638ZM18.6774 19.3372H19.129V22.9496H18.6774V19.3372ZM16.871 15.7247H17.7742V22.9496H16.871V15.7247ZM29.5161 38.3026V38.7541H20.4839V38.3026H29.5161ZM22.4653 37.3994L23.0677 35.5932H26.9323L27.5347 37.3994H22.4653ZM38.0968 33.787C38.0965 34.0264 38.0012 34.2559 37.8319 34.4252C37.6626 34.5945 37.433 34.6898 37.1935 34.6901H12.8065C12.567 34.6898 12.3374 34.5945 12.1681 34.4252C11.9988 34.2559 11.9035 34.0264 11.9032 33.787V32.8839H38.0968V33.787ZM38.0968 31.9808H11.9032V20.2403C11.9035 20.0009 11.9988 19.7714 12.1681 19.6021C12.3374 19.4328 12.567 19.3375 12.8065 19.3372H15.9677V22.9496H15.5161V20.2403C15.5161 20.1205 15.4685 20.0057 15.3839 19.921C15.2992 19.8363 15.1843 19.7887 15.0645 19.7887H13.2581C13.1383 19.7887 13.0234 19.8363 12.9387 19.921C12.854 20.0057 12.8065 20.1205 12.8065 20.2403V23.4012C12.8065 23.521 12.854 23.6358 12.9387 23.7205C13.0234 23.8052 13.1383 23.8528 13.2581 23.8528H27.7097C27.8295 23.8528 27.9443 23.8052 28.029 23.7205C28.1137 23.6358 28.1613 23.521 28.1613 23.4012V20.2403C28.1613 20.1205 28.1137 20.0057 28.029 19.921C27.9443 19.8363 27.8295 19.7887 27.7097 19.7887H25.9032C25.7835 19.7887 25.6686 19.8363 25.5839 19.921C25.4992 20.0057 25.4516 20.1205 25.4516 20.2403V22.9496H25V19.3372H31.7223C32.2968 19.6339 32.934 19.7887 33.5806 19.7887C34.2273 19.7887 34.8645 19.6339 35.439 19.3372H37.1935C37.433 19.3375 37.6626 19.4328 37.8319 19.6021C38.0012 19.7714 38.0965 20.0009 38.0968 20.2403V31.9808ZM14.6129 20.6919V22.9496H13.7097V20.6919H14.6129ZM26.3548 22.9496V20.6919H27.2581V22.9496H26.3548Z" fill="white"/>
<path d="M15.9679 33.3353H13.2583C13.1385 33.3353 13.0236 33.3829 12.9389 33.4676C12.8542 33.5523 12.8066 33.6671 12.8066 33.7869C12.8066 33.9066 12.8542 34.0215 12.9389 34.1062C13.0236 34.1909 13.1385 34.2384 13.2583 34.2384H15.9679C16.0877 34.2384 16.2026 34.1909 16.2873 34.1062C16.372 34.0215 16.4195 33.9066 16.4195 33.7869C16.4195 33.6671 16.372 33.5523 16.2873 33.4676C16.2026 33.3829 16.0877 33.3353 15.9679 33.3353Z" fill="white"/>
<path d="M17.7743 33.3353H17.3227C17.2029 33.3353 17.0881 33.3829 17.0034 33.4676C16.9187 33.5523 16.8711 33.6671 16.8711 33.7869C16.8711 33.9066 16.9187 34.0215 17.0034 34.1062C17.0881 34.1909 17.2029 34.2384 17.3227 34.2384H17.7743C17.8941 34.2384 18.009 34.1909 18.0937 34.1062C18.1784 34.0215 18.2259 33.9066 18.2259 33.7869C18.2259 33.6671 18.1784 33.5523 18.0937 33.4676C18.009 33.3829 17.8941 33.3353 17.7743 33.3353Z" fill="white"/>
<path d="M29.9677 22.9496C30.0271 22.9497 30.0858 22.938 30.1406 22.9153C30.1954 22.8926 30.2452 22.8593 30.2871 22.8173L31.9612 21.1433H35.8387C35.9585 21.1433 36.0734 21.0958 36.158 21.0111C36.2427 20.9264 36.2903 20.8116 36.2903 20.6918C36.2903 20.572 36.2427 20.4572 36.158 20.3725C36.0734 20.2878 35.9585 20.2402 35.8387 20.2402H31.7742C31.7149 20.2402 31.6562 20.2519 31.6014 20.2746C31.5466 20.2973 31.4968 20.3306 31.4548 20.3725L29.6484 22.1787C29.5852 22.2419 29.5422 22.3223 29.5248 22.4099C29.5074 22.4975 29.5163 22.5883 29.5505 22.6708C29.5847 22.7533 29.6426 22.8239 29.7168 22.8735C29.7911 22.9231 29.8784 22.9496 29.9677 22.9496Z" fill="white"/>
<path d="M35.8385 27.9169C35.6012 27.917 35.3681 27.9795 35.1625 28.0981C34.9569 28.2167 34.7861 28.3872 34.6672 28.5925L29.9393 25.8346C29.8753 25.5269 29.7062 25.251 29.4611 25.0543C29.2159 24.8575 28.91 24.7521 28.5957 24.7561C28.2813 24.7601 27.9782 24.8733 27.7381 25.0762C27.4981 25.2792 27.3361 25.5592 27.2799 25.8685L22.5222 29.4364C22.3927 29.2371 22.2131 29.0754 22.0013 28.9675C21.7896 28.8596 21.5531 28.8094 21.3158 28.8219C21.0785 28.8343 20.8486 28.9091 20.6493 29.0385C20.45 29.168 20.2884 29.3476 20.1805 29.5594L15.4781 27.6002C15.4039 27.2909 15.2233 27.0175 14.9678 26.828C14.7123 26.6384 14.3983 26.5447 14.0807 26.5634C13.7631 26.582 13.4622 26.7118 13.2306 26.9299C12.9991 27.148 12.8516 27.4406 12.8141 27.7565C12.7766 28.0724 12.8515 28.3914 13.0255 28.6577C13.1995 28.924 13.4617 29.1205 13.7661 29.213C14.0705 29.3055 14.3977 29.2879 14.6905 29.1634C14.9833 29.039 15.2229 28.8155 15.3675 28.5321L20.0699 30.4913C20.1425 30.7934 20.3168 31.0614 20.5635 31.2503C20.8102 31.4391 21.1144 31.5375 21.425 31.5287C21.7357 31.52 22.0338 31.4047 22.2696 31.2023C22.5053 30.9998 22.6642 30.7225 22.7197 30.4168L27.4775 26.8489C27.6035 27.0431 27.7772 27.2017 27.9821 27.3095C28.1869 27.4173 28.416 27.4708 28.6474 27.4649C28.8788 27.4589 29.1048 27.3937 29.3038 27.2755C29.5028 27.1573 29.6682 26.99 29.7841 26.7897L34.5119 29.5476C34.5641 29.7983 34.6863 30.0291 34.8643 30.2132C35.0424 30.3973 35.2689 30.5272 35.5178 30.5878C35.7667 30.6483 36.0276 30.6372 36.2703 30.5555C36.5131 30.4738 36.7277 30.325 36.8894 30.1264C37.051 29.9277 37.153 29.6873 37.1835 29.433C37.214 29.1788 37.1719 28.9211 37.0619 28.6898C36.9519 28.4585 36.7786 28.2631 36.562 28.1263C36.3455 27.9895 36.0947 27.9169 35.8385 27.9169ZM14.6127 27.9191C14.6124 28.0391 14.5645 28.154 14.4795 28.2387C14.3945 28.3234 14.2794 28.3708 14.1594 28.3707C14.0394 28.3705 13.9244 28.3228 13.8396 28.2379C13.7549 28.153 13.7072 28.038 13.7072 27.918C13.7072 27.798 13.7549 27.683 13.8396 27.5981C13.9244 27.5132 14.0394 27.4655 14.1594 27.4653C14.2794 27.4652 14.3945 27.5126 14.4795 27.5973C14.5645 27.682 14.6124 27.7969 14.6127 27.9169V27.9191ZM21.3869 30.6262C21.2672 30.626 21.1524 30.5784 21.0678 30.4938C20.9831 30.4091 20.9355 30.2944 20.9353 30.1747V30.1724C20.9357 30.0832 20.9626 29.9961 21.0125 29.9221C21.0624 29.8482 21.1331 29.7907 21.2156 29.7568C21.2982 29.723 21.3889 29.7144 21.4764 29.7321C21.5638 29.7497 21.6441 29.7929 21.707 29.8562C21.77 29.9194 21.8128 29.9999 21.83 30.0874C21.8472 30.1749 21.8382 30.2656 21.8039 30.348C21.7697 30.4304 21.7118 30.5007 21.6376 30.5503C21.5634 30.5998 21.4761 30.6262 21.3869 30.6262ZM28.6127 26.5622C28.5234 26.5622 28.4361 26.5357 28.3618 26.4861C28.2875 26.4365 28.2297 26.366 28.1955 26.2835C28.1613 26.2009 28.1524 26.1101 28.1698 26.0226C28.1872 25.935 28.2302 25.8545 28.2934 25.7913C28.3565 25.7282 28.437 25.6852 28.5246 25.6678C28.6122 25.6503 28.703 25.6593 28.7855 25.6935C28.8681 25.7276 28.9386 25.7855 28.9882 25.8598C29.0378 25.934 29.0643 26.0213 29.0643 26.1106C29.0642 26.2304 29.0165 26.3451 28.9319 26.4298C28.8472 26.5144 28.7324 26.562 28.6127 26.5622ZM35.8385 29.7231C35.7492 29.7231 35.6619 29.6966 35.5876 29.647C35.5134 29.5974 35.4555 29.5269 35.4213 29.4443C35.3871 29.3618 35.3782 29.271 35.3956 29.1834C35.413 29.0959 35.456 29.0154 35.5192 28.9522C35.5823 28.8891 35.6628 28.8461 35.7504 28.8287C35.838 28.8112 35.9288 28.8202 36.0113 28.8544C36.0939 28.8885 36.1644 28.9464 36.214 29.0207C36.2636 29.0949 36.2901 29.1822 36.2901 29.2715C36.29 29.3913 36.2423 29.506 36.1577 29.5907C36.073 29.6753 35.9582 29.7229 35.8385 29.7231Z" fill="white"/>
<path d="M32.2257 30.626H29.0644C28.9446 30.626 28.8298 30.6736 28.7451 30.7582C28.6604 30.8429 28.6128 30.9578 28.6128 31.0775C28.6128 31.1973 28.6604 31.3121 28.7451 31.3968C28.8298 31.4815 28.9446 31.5291 29.0644 31.5291H32.2257C32.3455 31.5291 32.4603 31.4815 32.545 31.3968C32.6297 31.3121 32.6773 31.1973 32.6773 31.0775C32.6773 30.9578 32.6297 30.8429 32.545 30.7582C32.4603 30.6736 32.3455 30.626 32.2257 30.626Z" fill="white"/>
<path d="M32.2259 29.2712H30.871C30.7513 29.2712 30.6364 29.3188 30.5517 29.4035C30.467 29.4882 30.4194 29.603 30.4194 29.7228C30.4194 29.8426 30.467 29.9574 30.5517 30.0421C30.6364 30.1268 30.7513 30.1744 30.871 30.1744H32.2259C32.3457 30.1744 32.4605 30.1268 32.5452 30.0421C32.6299 29.9574 32.6775 29.8426 32.6775 29.7228C32.6775 29.603 32.6299 29.4882 32.5452 29.4035C32.4605 29.3188 32.3457 29.2712 32.2259 29.2712Z" fill="white"/>
<path d="M13.2583 25.2076H18.226C18.3458 25.2076 18.4606 25.16 18.5453 25.0753C18.63 24.9906 18.6776 24.8758 18.6776 24.756C18.6776 24.6362 18.63 24.5214 18.5453 24.4367C18.4606 24.352 18.3458 24.3044 18.226 24.3044H13.2583C13.1385 24.3044 13.0236 24.352 12.9389 24.4367C12.8542 24.5214 12.8066 24.6362 12.8066 24.756C12.8066 24.8758 12.8542 24.9906 12.9389 25.0753C13.0236 25.16 13.1385 25.2076 13.2583 25.2076Z" fill="white"/>
<path d="M19.5805 25.2076H20.0321C20.1519 25.2076 20.2668 25.16 20.3515 25.0753C20.4362 24.9906 20.4837 24.8758 20.4837 24.756C20.4837 24.6362 20.4362 24.5214 20.3515 24.4367C20.2668 24.352 20.1519 24.3044 20.0321 24.3044H19.5805C19.4607 24.3044 19.3459 24.352 19.2612 24.4367C19.1765 24.5214 19.1289 24.6362 19.1289 24.756C19.1289 24.8758 19.1765 24.9906 19.2612 25.0753C19.3459 25.16 19.4607 25.2076 19.5805 25.2076Z" fill="white"/>
</svg>
