<svg width="473" height="297" viewBox="0 0 473 297" fill="none" xmlns="http://www.w3.org/2000/svg">
<path d="M177.255 282.504C173.472 273.924 166.725 266.994 158.25 262.982C149.838 259.045 131.08 260.858 131.08 260.858L81.7837 260.752C82.7963 265.085 86.0322 276.202 88.4043 279.941C90.7764 283.68 94.3522 286.838 98.629 288.048C103.862 289.528 109.406 287.999 114.837 287.645C124.389 287.029 133.736 290.116 142.934 292.771C152.132 295.427 161.896 297.678 171.201 295.427C173.842 294.782 176.61 293.607 177.892 291.214C179.315 288.572 178.437 285.28 177.255 282.504Z" fill="#E0E0E0"/>
<path d="M25.8876 107.749C25.8876 107.749 20.2796 107.345 20.7965 119.921C21.3134 132.497 22.595 139.202 22.595 139.202C22.595 139.202 22.4322 141.985 20.2725 141.44C18.1129 140.894 14.0485 138.182 12.0375 140.243C10.0265 142.304 10.6992 145.575 13.4537 149.377C16.2081 153.18 21.9507 161.726 22.4747 162.505C22.9986 163.284 23.1827 164.693 21.6533 164.552C20.1238 164.41 9.7858 160.912 8.41919 165.918C7.05259 170.924 16.4772 180.25 17.4897 181.291C18.5023 182.331 18.559 182.983 18.1483 183.613C17.7376 184.243 14.3742 182.735 11.3931 181.864C8.41211 180.993 4.80797 180.455 4.24858 183.436C3.68919 186.417 7.85273 195.035 23.4093 204.112L30.8938 207.851L37.9746 203.333C52.5399 192.712 55.8112 183.726 54.9686 180.845C54.126 177.963 50.5856 178.812 47.7108 179.981C44.8359 181.149 41.6354 182.983 41.1681 182.402C40.7007 181.822 40.6866 181.156 41.5858 180.023C42.4851 178.89 50.9396 168.694 49.0774 163.822C47.2151 158.951 37.2807 163.496 35.7725 163.787C34.2642 164.077 34.3563 162.64 34.7528 161.832C35.1494 161.025 40.0422 151.919 42.4143 147.869C44.7864 143.819 45.19 140.519 42.91 138.664C40.6299 136.809 36.9408 139.953 34.8449 140.717C32.749 141.482 32.3099 138.714 32.3099 138.714C32.3099 138.714 32.9118 131.923 32.1683 119.355C31.4248 106.786 25.7531 107.806 25.7531 107.806" fill="#EBEBEB"/>
<path d="M26.3339 119C26.3339 119 26.3339 119.085 26.3339 119.262C26.3339 119.439 26.3339 119.701 26.3905 120.034C26.4401 120.742 26.5038 121.72 26.5959 123.001C26.7658 125.586 26.9853 129.317 27.2402 133.934C27.7571 143.139 28.3519 155.92 28.968 170.011C29.584 184.102 30.1505 196.868 30.6107 206.123C30.8444 210.733 31.0356 214.464 31.1701 217.056C31.2338 218.338 31.2834 219.336 31.3188 220.03C31.3188 220.363 31.3188 220.618 31.3188 220.802C31.3235 220.891 31.3235 220.981 31.3188 221.071C31.3188 221.071 31.3188 220.979 31.3188 220.809C31.3188 220.639 31.3188 220.363 31.2622 220.037C31.2126 219.329 31.1418 218.345 31.0568 217.063C30.8869 214.486 30.6674 210.754 30.4125 206.137C29.8956 196.932 29.3008 184.144 28.6847 170.025C28.0687 155.906 27.5022 143.174 27.042 133.913C26.8012 129.31 26.6171 125.579 26.4826 122.98C26.4189 121.698 26.3693 120.7 26.3339 120.006C26.3339 119.68 26.3339 119.418 26.3339 119.234C26.3301 119.156 26.3301 119.078 26.3339 119Z" fill="#E0E0E0"/>
<path d="M17.5747 144.237C17.7443 144.343 17.899 144.472 18.035 144.619C18.3253 144.881 18.743 145.27 19.2245 145.759C20.2159 146.743 21.54 148.124 22.9774 149.689L26.6382 153.697L27.7499 154.907C27.9002 155.042 28.0312 155.197 28.1393 155.368C27.9681 155.26 27.8111 155.132 27.672 154.985C27.3888 154.723 26.9639 154.334 26.4895 153.838C25.5123 152.847 24.2024 151.445 22.765 149.887L19.1183 145.908C18.6722 145.44 18.304 145.037 17.9925 144.704C17.8324 144.568 17.6918 144.411 17.5747 144.237Z" fill="#E0E0E0"/>
<path d="M28.8827 155.113C28.8261 155.056 31.5663 152.195 34.9935 148.74C38.4206 145.285 41.26 142.488 41.3166 142.544C41.3733 142.601 38.633 145.462 35.1988 148.917C31.7646 152.373 28.9393 155.169 28.8827 155.113Z" fill="#E0E0E0"/>
<path d="M28.8545 176.801C29.0167 176.672 29.1923 176.56 29.3785 176.469L30.8371 175.647C32.0763 174.939 33.7757 173.99 35.6167 172.857C37.4577 171.724 39.0934 170.655 40.2688 169.862L41.685 168.935C41.8481 168.807 42.0265 168.7 42.216 168.616C42.0778 168.772 41.9208 168.91 41.7487 169.027C41.4371 169.267 40.9769 169.614 40.4033 170.032C39.2492 170.868 37.6276 171.972 35.7796 173.105C33.9315 174.238 32.2391 175.18 30.9504 175.824C30.3202 176.15 29.8033 176.405 29.4422 176.568C29.2582 176.673 29.0604 176.751 28.8545 176.801Z" fill="#E0E0E0"/>
<path d="M16.4556 169.211C16.6362 169.272 16.8096 169.352 16.9725 169.451L18.332 170.209C19.472 170.853 21.0298 171.767 22.7504 172.787C24.4711 173.806 26.0147 174.748 27.1264 175.442C27.6858 175.789 28.1319 176.072 28.4434 176.277C28.609 176.37 28.7634 176.482 28.9037 176.61C28.7183 176.556 28.5417 176.475 28.3797 176.369L27.0273 175.647C25.8872 174.996 24.3224 174.089 22.6017 173.063C20.8811 172.036 19.3375 171.101 18.2258 170.414C17.6664 170.067 17.2203 169.784 16.9158 169.579C16.7473 169.476 16.5926 169.353 16.4556 169.211Z" fill="#E0E0E0"/>
<path d="M13.999 188.393C14.2304 188.472 14.4515 188.579 14.6575 188.711L16.3994 189.667C17.8581 190.488 19.8761 191.643 22.0641 192.931C24.2521 194.22 26.3126 195.403 27.7288 196.266L29.4282 197.307C29.6423 197.426 29.844 197.566 30.03 197.725C29.802 197.638 29.5817 197.531 29.3715 197.406L27.6155 196.408C26.1497 195.587 24.1388 194.433 21.9508 193.144C19.7628 191.855 17.7023 190.673 16.2861 189.809L14.5938 188.768C14.3836 188.663 14.1843 188.537 13.999 188.393Z" fill="#E0E0E0"/>
<path d="M29.7397 197.357C29.9402 197.187 30.1587 197.04 30.3912 196.918L32.211 195.814C33.7404 194.879 35.8576 193.576 38.1589 192.082C40.4601 190.588 42.4994 189.179 43.9793 188.152L45.7283 186.934C45.9339 186.774 46.1544 186.634 46.3868 186.516C46.2067 186.706 46.0074 186.877 45.792 187.026C45.3955 187.338 44.8219 187.777 44.0926 188.315C42.6764 189.384 40.6159 190.821 38.3146 192.323C36.0134 193.824 33.875 195.098 32.3101 195.991C31.5241 196.43 30.8939 196.784 30.4407 197.017C30.2173 197.15 29.9828 197.264 29.7397 197.357Z" fill="#E0E0E0"/>
<path d="M40.9627 210.272H20.2583L27.0205 261.424H34.2076L40.9627 210.272Z" fill="#E0E0E0"/>
<path d="M21.3345 216.56C21.3345 216.56 21.3345 216.631 21.4478 216.744C21.5823 216.9 21.7523 217.022 21.9434 217.098C22.3045 217.223 22.6894 217.264 23.0686 217.217C23.4478 217.171 23.8113 217.038 24.1314 216.829C24.9669 216.369 25.6963 215.463 26.815 215.066C28.0574 214.665 29.3979 214.69 30.6245 215.137C31.8693 215.567 33.0579 216.144 34.165 216.858C35.0927 217.435 36.0579 217.951 37.0539 218.401C37.7294 218.706 38.4446 218.913 39.1782 219.017C39.3772 219.048 39.5786 219.063 39.7801 219.06C39.9146 219.06 39.9854 219.06 39.9854 219.06C39.0067 218.908 38.0536 218.622 37.1531 218.21C36.1791 217.731 35.2334 217.197 34.3207 216.61C33.1994 215.869 31.9883 215.274 30.7166 214.839C29.4196 214.37 28.0013 214.355 26.6947 214.797C26.1424 215.021 25.6324 215.337 25.1865 215.732C24.8112 216.063 24.4138 216.368 23.9969 216.645C23.7071 216.846 23.3773 216.981 23.0302 217.042C22.683 217.103 22.3268 217.089 21.9859 216.999C21.7434 216.895 21.5224 216.746 21.3345 216.56Z" fill="#F5F5F5"/>
<path d="M22.0919 225.978C22.0919 225.978 22.2547 225.772 22.5805 225.432C23.0483 224.968 23.6112 224.611 24.2303 224.384C25.1528 224.051 26.1324 223.904 27.1122 223.953C28.3203 224.04 29.5216 224.203 30.7093 224.441C31.9247 224.673 33.1677 224.726 34.3984 224.597C35.4028 224.467 36.3816 224.185 37.3015 223.761C37.9217 223.484 38.5084 223.137 39.0505 222.728C39.2593 222.592 39.4457 222.425 39.6028 222.232C38.8378 222.728 38.038 223.168 37.2095 223.549C36.3018 223.912 35.3489 224.15 34.3771 224.257C33.1758 224.367 31.9648 224.308 30.7801 224.08C29.5765 223.842 28.3582 223.686 27.1334 223.613C26.114 223.576 25.0983 223.755 24.1524 224.137C23.5132 224.389 22.9446 224.792 22.4955 225.312C22.3772 225.455 22.2729 225.609 22.1839 225.772C22.1061 225.921 22.0777 225.978 22.0919 225.978Z" fill="#F5F5F5"/>
<path d="M38.6191 231.026C38.4485 230.892 38.2538 230.791 38.0455 230.729C37.4961 230.521 36.9184 230.397 36.332 230.361C35.4653 230.306 34.5952 230.356 33.7404 230.509C32.7703 230.665 31.7365 230.934 30.6531 231.161C29.6419 231.401 28.6052 231.518 27.5659 231.508C26.726 231.488 25.8973 231.31 25.123 230.984C24.4089 230.649 23.7741 230.166 23.2607 229.568C23.3387 229.772 23.4594 229.958 23.6148 230.113C24.009 230.558 24.4912 230.918 25.031 231.168C25.8254 231.544 26.6876 231.756 27.5659 231.791C28.6306 231.821 29.6948 231.712 30.731 231.465C31.8356 231.232 32.8553 230.955 33.8041 230.757C34.6368 230.597 35.4842 230.526 36.332 230.545C37.1115 230.609 37.8799 230.771 38.6191 231.026Z" fill="#F5F5F5"/>
<path d="M23.9192 238.121C24.5519 237.846 25.2548 237.774 25.9301 237.916C26.6659 238.096 27.3786 238.36 28.0544 238.702C28.9117 239.111 29.8346 239.365 30.7805 239.453C32.5127 239.607 34.2491 239.206 35.7371 238.306C36.1804 238.034 36.5934 237.716 36.9692 237.357C37.2241 237.088 37.3515 236.932 37.3303 236.918C36.7839 237.347 36.2116 237.742 35.6167 238.1C34.1504 238.902 32.4814 239.256 30.8159 239.12C28.8545 239.007 27.3463 237.838 25.9868 237.704C25.4646 237.613 24.9278 237.659 24.429 237.838C24.0749 237.959 23.9121 238.107 23.9192 238.121Z" fill="#F5F5F5"/>
<path d="M25.0733 247.935C25.6676 247.955 26.2585 247.839 26.801 247.595C27.8419 247.249 29.1306 246.448 30.6318 245.854C31.331 245.565 32.0777 245.409 32.8339 245.393C33.4471 245.391 34.0527 245.529 34.6041 245.797C35.1056 246.063 35.5411 246.438 35.8787 246.894C35.8497 246.736 35.7815 246.588 35.6804 246.463C35.4291 246.094 35.0912 245.792 34.6962 245.585C34.1208 245.267 33.4768 245.094 32.8197 245.082C32.0237 245.082 31.2351 245.236 30.4972 245.535C28.9394 246.158 27.6649 246.951 26.6948 247.369C25.7247 247.787 25.0662 247.872 25.0733 247.935Z" fill="#F5F5F5"/>
<path d="M26.0859 252.503C26.4997 252.709 26.9408 252.854 27.3959 252.935C28.4759 253.188 29.5709 253.372 30.6743 253.487C31.7779 253.594 32.8875 253.624 33.9952 253.579C34.4584 253.588 34.9206 253.533 35.3689 253.416C35.3689 253.317 33.2447 253.416 30.7097 253.147C28.1748 252.878 26.1143 252.404 26.0859 252.503Z" fill="#F5F5F5"/>
<path d="M411.933 123.838L348.971 138.223L358.667 180.663L421.629 166.277L411.933 123.838Z" fill="#F5F5F5"/>
<path d="M412.261 124.283C412.13 124.533 411.976 124.77 411.8 124.991L410.384 126.924L405.137 134.005C400.627 139.981 394.452 148.166 387.605 157.23L387.464 157.421L387.244 157.315L386.727 157.067L360.195 144.18L352.18 140.222L350.055 139.117C349.795 138.999 349.546 138.856 349.312 138.692C349.585 138.775 349.851 138.882 350.105 139.011L352.314 140.016L360.415 143.783L387.017 156.529L387.541 156.784L387.18 156.869C394.077 147.848 400.301 139.698 404.882 133.75C407.127 130.847 408.961 128.489 410.278 126.796L411.765 124.927C411.908 124.696 412.074 124.48 412.261 124.283Z" fill="#E0E0E0"/>
<path d="M358.998 181.113C358.857 181.036 362.263 174.139 366.603 165.706C370.944 157.272 374.59 150.489 374.732 150.56C374.874 150.63 371.468 157.534 367.127 165.975C362.787 174.415 359.133 181.184 358.998 181.113Z" fill="#E0E0E0"/>
<path d="M395.536 145.249C395.635 145.122 401.632 149.83 408.933 155.757C416.233 161.684 422.06 166.598 421.954 166.725C421.848 166.853 415.858 162.144 408.557 156.21C401.257 150.276 395.429 145.377 395.536 145.249Z" fill="#E0E0E0"/>
<path d="M131.457 8.44295L125.683 33.4531L162.788 42.0194L168.562 17.0093L131.457 8.44295Z" fill="#F5F5F5"/>
<path d="M168.623 17.3478C168.489 17.4451 168.347 17.5304 168.198 17.6028L166.959 18.2684L162.357 20.6617L147.083 28.4506L146.956 28.5143L146.864 28.4081L146.651 28.139L135.895 14.5013L132.667 10.3307L131.803 9.19072C131.692 9.06567 131.597 8.92778 131.52 8.78003C131.642 8.89202 131.753 9.0153 131.852 9.14823L132.773 10.2528L136.087 14.3456L146.927 27.9479L147.14 28.2098L146.927 28.1674L162.243 20.4493L166.895 18.148L168.17 17.539C168.314 17.4592 168.466 17.3951 168.623 17.3478Z" fill="#E0E0E0"/>
<path d="M125.741 33.7896C125.685 33.7117 129.282 30.9573 133.743 27.5726C138.204 24.188 141.893 21.5539 141.949 21.6318C142.006 21.7097 138.409 24.4641 133.948 27.8488C129.487 31.2334 125.798 33.8675 125.741 33.7896Z" fill="#E0E0E0"/>
<path d="M154.362 24.1668C154.447 24.1244 156.423 28.1675 158.766 33.1878C161.11 38.2081 162.937 42.315 162.852 42.3929C162.767 42.4708 160.799 38.3922 158.455 33.3719C156.111 28.3516 154.27 24.2022 154.362 24.1668Z" fill="#E0E0E0"/>
<path d="M366.668 14.7214L339.558 26.3687L347.41 44.6435L374.519 32.9962L366.668 14.7214Z" fill="#F5F5F5"/>
<path d="M366.844 14.9121C366.804 15.0315 366.754 15.1475 366.695 15.2591L366.228 16.2433C365.796 17.1213 365.187 18.3676 364.451 19.8545L358.482 31.7362L358.432 31.8353H358.326L358.071 31.7716L345.092 28.1604L341.162 26.9495L340.1 26.6309L339.731 26.5034C339.861 26.5157 339.99 26.5418 340.114 26.5813L341.19 26.8504L345.141 27.8913L358.142 31.4317L358.397 31.5025L358.248 31.5733C360.599 26.9495 362.73 22.7718 364.281 19.7271C365.053 18.2401 365.697 17.0222 366.136 16.1867L366.646 15.2237C366.701 15.1131 366.767 15.0086 366.844 14.9121Z" fill="#E0E0E0"/>
<path d="M347.584 44.8004C347.513 44.8004 348.476 41.3946 349.708 37.2452C350.941 33.0958 352.073 29.782 352.144 29.782C352.215 29.782 351.252 33.1808 350.02 37.3302C348.788 41.4795 347.669 44.8217 347.584 44.8004Z" fill="#E0E0E0"/>
<path d="M361.052 25.6751C361.087 25.6043 364.175 27.2258 367.942 29.2934C371.709 31.361 374.732 33.0816 374.697 33.1454C374.661 33.2091 371.581 31.5947 367.814 29.5271C364.047 27.4595 361.017 25.7388 361.052 25.6751Z" fill="#E0E0E0"/>
<path d="M357.469 78.144H105.83C100.133 78.144 95.5137 82.763 95.5137 88.4608V247.879C95.5137 253.577 100.133 258.196 105.83 258.196H357.469C363.167 258.196 367.786 253.577 367.786 247.879V88.4608C367.786 82.763 363.167 78.144 357.469 78.144Z" fill="#455A64"/>
<path d="M84.8711 246.569H379.859V249.72C379.859 253.063 378.531 256.268 376.167 258.632C373.804 260.996 370.598 262.324 367.255 262.324H97.475C94.1322 262.324 90.9264 260.996 88.5627 258.632C86.199 256.268 84.8711 253.063 84.8711 249.72V246.569Z" fill="#455A64"/>
<path d="M359.714 85.2957H102.821V237.342H359.714V85.2957Z" fill="#263238"/>
<path d="M204.813 244.876L208.467 250.704H259.98L263.379 244.876H204.813Z" fill="#263238"/>
<path d="M352.64 90.4434H110.433C109.154 90.4434 108.118 91.48 108.118 92.7588V234.546C108.118 235.824 109.154 236.861 110.433 236.861H352.64C353.919 236.861 354.956 235.824 354.956 234.546V92.7588C354.956 91.48 353.919 90.4434 352.64 90.4434Z" fill="#EBEBEB"/>
<path d="M354.687 237.073H107.849L108.118 101.39H354.687V237.073Z" fill="#FAFAFA"/>
<path d="M128.362 96.1011C128.363 96.4921 128.248 96.8747 128.032 97.2005C127.816 97.5263 127.508 97.7806 127.147 97.9313C126.786 98.0819 126.389 98.122 126.005 98.0466C125.621 97.9712 125.269 97.7836 124.992 97.5076C124.715 97.2316 124.526 96.8796 124.449 96.4962C124.372 96.1127 124.411 95.7152 124.56 95.3538C124.71 94.9924 124.963 94.6834 125.288 94.466C125.613 94.2486 125.995 94.1326 126.386 94.1326C126.645 94.1316 126.902 94.1819 127.142 94.2804C127.381 94.3789 127.599 94.5237 127.783 94.7066C127.966 94.8895 128.112 95.1068 128.211 95.3461C128.311 95.5854 128.362 95.842 128.362 96.1011Z" fill="#263238"/>
<path d="M116.409 96.1011C116.411 96.4924 116.296 96.8753 116.079 97.2013C115.863 97.5272 115.554 97.7815 115.193 97.9319C114.832 98.0823 114.434 98.1221 114.05 98.0461C113.666 97.9701 113.313 97.7818 113.037 97.505C112.76 97.2283 112.572 96.8757 112.496 96.4918C112.42 96.1079 112.459 95.7101 112.61 95.3488C112.76 94.9876 113.014 94.6791 113.34 94.4626C113.666 94.246 114.049 94.1312 114.441 94.1326C114.699 94.1316 114.956 94.1819 115.195 94.2805C115.434 94.3791 115.652 94.5241 115.835 94.707C116.018 94.89 116.163 95.1074 116.261 95.3466C116.36 95.5859 116.41 95.8423 116.409 96.1011Z" fill="#263238"/>
<path d="M122.145 96.1011C122.146 96.4924 122.031 96.8753 121.815 97.2013C121.598 97.5272 121.29 97.7815 120.929 97.9319C120.567 98.0823 120.17 98.1221 119.786 98.0461C119.402 97.9701 119.049 97.7818 118.772 97.505C118.496 97.2283 118.307 96.8757 118.231 96.4918C118.155 96.1079 118.195 95.7101 118.346 95.3488C118.496 94.9876 118.75 94.6791 119.076 94.4626C119.402 94.246 119.785 94.1312 120.176 94.1326C120.435 94.1316 120.692 94.1819 120.931 94.2805C121.17 94.3791 121.388 94.5241 121.57 94.707C121.753 94.89 121.898 95.1074 121.997 95.3466C122.096 95.5859 122.146 95.8423 122.145 96.1011Z" fill="#263238"/>
<path d="M365.442 244.876C365.442 244.976 305.014 245.054 230.489 245.054C155.963 245.054 95.5137 244.976 95.5137 244.876C95.5137 244.777 155.934 244.699 230.489 244.699C305.043 244.699 365.442 244.784 365.442 244.876Z" fill="#263238"/>
<path d="M187.154 154.39L287.581 153.456L290.52 221.722L186.531 220.979L187.154 154.39Z" fill="#00042D"/>
<path d="M187.154 154.405L234.595 115.849C235.57 115.057 236.788 114.625 238.044 114.625C239.3 114.625 240.518 115.057 241.492 115.849L287.574 153.463" fill="#00042D"/>
<g opacity="0.3">
<path opacity="0.3" d="M187.154 154.405L234.595 115.849C235.57 115.057 236.788 114.625 238.044 114.625C239.3 114.625 240.518 115.057 241.492 115.849L287.574 153.463" fill="black"/>
</g>
<path d="M186.531 220.964C186.41 220.844 194.426 212.05 204.445 201.322C214.465 190.595 222.692 182.02 222.82 182.119C222.947 182.218 214.925 191.027 204.898 201.761C194.872 212.496 186.658 221.092 186.531 220.964Z" fill="white" stroke="white"/>
<path d="M290.52 221.722C290.393 221.842 282.547 213.225 272.995 202.554C263.443 191.883 255.803 183.082 255.93 182.969C256.058 182.855 263.903 191.466 273.462 202.144C283.022 212.821 290.648 221.609 290.52 221.722Z" fill="white" stroke="white"/>
<g opacity="0.5">
<path opacity="0.5" d="M287.581 153.456L237.237 193.845L187.154 154.39" fill="black"/>
</g>
<path d="M192.224 158.115L191.997 126.747L279.934 125.529L280.989 158.526L237.229 193.314L192.224 158.115Z" fill="#FAFAFA"/>
<path d="M192.224 158.115C192.224 158.115 192.514 158.32 193.059 158.738L195.453 160.586L204.559 167.667C212.404 173.792 223.677 182.537 237.322 193.215H237.138L280.876 158.398L280.812 158.547C280.607 152.252 280.395 145.646 280.182 138.926C280.033 134.401 279.892 129.926 279.75 125.543L279.934 125.72L192.004 126.882L192.118 126.761C192.16 136.625 192.203 144.463 192.224 149.831C192.224 152.514 192.224 154.582 192.224 155.991C192.224 156.699 192.224 157.216 192.224 157.584C192.224 157.952 192.224 158.129 192.224 158.129C192.224 158.129 192.224 157.952 192.224 157.598C192.224 157.244 192.224 156.706 192.224 156.019C192.224 154.603 192.181 152.55 192.153 149.873C192.104 144.484 192.026 136.646 191.934 126.761V126.648H192.047L279.927 125.373H280.111V125.557C280.253 129.94 280.395 134.408 280.543 138.933C280.756 145.653 280.968 152.259 281.166 158.554V158.646L281.096 158.703L237.308 193.47L237.216 193.548L237.124 193.47L204.396 167.788L195.361 160.664L193.003 158.795L192.224 158.115Z" fill="#263238"/>
<path d="M266.07 141.348C266.07 141.447 252.616 141.638 236.033 141.773C219.45 141.907 205.996 141.935 205.996 141.836C205.996 141.737 219.45 141.546 236.033 141.404C252.616 141.263 266.07 141.241 266.07 141.348Z" fill="#263238"/>
<path d="M266.084 150.206C266.084 150.305 252.63 150.503 236.054 150.638C219.478 150.772 206.017 150.8 206.017 150.694C206.017 150.588 219.471 150.404 236.054 150.269C252.637 150.135 266.084 150.106 266.084 150.206Z" fill="#263238"/>
<path d="M266.105 160.416C266.105 160.523 252.652 160.714 236.075 160.848C219.499 160.983 206.039 161.011 206.039 160.905C206.039 160.799 219.492 160.615 236.075 160.48C252.659 160.346 266.105 160.317 266.105 160.416Z" fill="#263238"/>
<path d="M266.127 170.627C266.127 170.733 253.303 170.917 237.477 171.045C221.652 171.172 208.821 171.201 208.821 171.094C208.821 170.988 221.645 170.804 237.477 170.677C253.31 170.549 266.127 170.528 266.127 170.627Z" fill="#263238"/>
<path d="M254.91 179.612C254.795 179.645 254.676 179.659 254.556 179.655L253.544 179.697L249.833 179.789L237.576 180.016C232.79 180.101 228.449 180.129 225.312 180.129H221.602H220.589C220.47 180.132 220.351 180.12 220.235 180.094C220.35 180.062 220.47 180.047 220.589 180.051L221.595 180.009L225.312 179.917L237.569 179.697C242.356 179.605 246.689 179.577 249.826 179.577H253.544H254.556C254.675 179.577 254.794 179.589 254.91 179.612Z" fill="#263238"/>
<path d="M243.581 188.251C241.462 188.442 239.335 188.508 237.208 188.449C235.082 188.516 232.955 188.46 230.835 188.279C232.954 188.093 235.082 188.027 237.208 188.081C239.334 188.018 241.462 188.075 243.581 188.251Z" fill="#263238"/>
<path d="M473 261.715C473 261.821 367.113 261.899 236.5 261.899C105.887 261.899 0 261.821 0 261.715C0 261.609 105.866 261.531 236.5 261.531C367.134 261.531 473 261.616 473 261.715Z" fill="#263238"/>
<path d="M255.449 125.253C255.548 125.253 255.59 125.664 255.541 126.152C255.491 126.641 255.371 127.023 255.272 127.016C255.172 127.009 255.13 126.598 255.179 126.11C255.229 125.621 255.342 125.239 255.449 125.253Z" fill="#263238"/>
<path d="M256.39 118.356C256.483 118.936 256.457 119.529 256.312 120.098C256.279 120.686 256.127 121.262 255.866 121.79C255.794 120.621 255.973 119.45 256.39 118.356Z" fill="#263238"/>
<path d="M257.778 111.53C257.836 112.118 257.771 112.711 257.587 113.272C257.515 113.857 257.324 114.42 257.028 114.929C256.971 114.343 257.039 113.752 257.226 113.194C257.292 112.607 257.48 112.041 257.778 111.53Z" fill="#263238"/>
<path d="M259.669 104.839C259.575 106.01 259.23 107.148 258.656 108.174C258.649 107.584 258.762 106.998 258.989 106.453C259.098 105.873 259.33 105.323 259.669 104.839Z" fill="#263238"/>
<path d="M262.097 98.3103C262.055 98.8984 261.894 99.4717 261.623 99.9955C261.462 100.563 261.185 101.092 260.809 101.546C260.855 100.966 261.016 100.4 261.283 99.8822C261.439 99.3063 261.717 98.7703 262.097 98.3103Z" fill="#263238"/>
<path d="M265.114 92.0439C264.807 93.1748 264.267 94.2288 263.528 95.1382C263.623 94.5576 263.837 94.003 264.158 93.5096C264.597 92.6528 265.022 91.9943 265.114 92.0439Z" fill="#263238"/>
<path d="M268.754 86.1101C268.591 86.6771 268.313 87.2048 267.939 87.6608C267.43 88.4681 266.941 89.077 266.856 89.0274C266.997 88.4541 267.261 87.918 267.628 87.4555C268.166 86.6554 268.669 86.0535 268.754 86.1101Z" fill="#263238"/>
<path d="M273.044 80.6293C272.822 81.1755 272.492 81.6715 272.074 82.088C271.458 82.7961 270.899 83.3696 270.814 83.3059C270.729 83.2422 271.168 82.5978 271.791 81.8543C272.414 81.1108 272.966 80.5656 273.044 80.6293Z" fill="#263238"/>
<path d="M277.944 75.6942C278.015 75.772 277.505 76.3668 276.811 77.0254C276.117 77.6839 275.494 78.1583 275.395 78.0875C275.296 78.0167 275.827 77.4219 276.528 76.7563C277.229 76.0907 277.881 75.6163 277.944 75.6942Z" fill="#263238"/>
<path d="M283.425 71.4031C283.482 71.488 282.901 72.0191 282.129 72.5856C281.692 72.9785 281.179 73.2773 280.621 73.4636C280.557 73.3857 281.138 72.8546 281.917 72.2882C282.351 71.8901 282.865 71.5884 283.425 71.4031Z" fill="#263238"/>
<path d="M289.43 67.884C288.537 68.6475 287.491 69.2123 286.364 69.5409C286.314 69.4489 286.958 69.0099 287.78 68.5496C288.276 68.2121 288.838 67.9851 289.43 67.884Z" fill="#263238"/>
<path d="M295.873 65.2642C295.405 65.6212 294.871 65.8812 294.301 66.0289C293.77 66.286 293.191 66.4283 292.602 66.4467C293.068 66.0871 293.603 65.8268 294.174 65.6819C294.703 65.4216 295.283 65.279 295.873 65.2642Z" fill="#263238"/>
<path d="M302.642 63.6851C302.12 63.9514 301.549 64.1103 300.964 64.1524C300.404 64.3308 299.814 64.3911 299.229 64.3295C300.294 63.8297 301.469 63.6081 302.642 63.6851Z" fill="#263238"/>
<path d="M309.589 63.3027C309.03 63.4866 308.439 63.5541 307.854 63.501C307.268 63.5713 306.674 63.5158 306.112 63.3381C306.67 63.1522 307.26 63.0823 307.847 63.1328C308.433 63.0645 309.027 63.1224 309.589 63.3027Z" fill="#263238"/>
<path d="M316.514 64.1168C315.93 64.2042 315.335 64.1705 314.765 64.0177C314.174 63.9849 313.598 63.8281 313.072 63.5574C314.246 63.5013 315.418 63.6919 316.514 64.1168Z" fill="#263238"/>
<path d="M323.163 66.1066C321.996 65.964 320.873 65.5729 319.87 64.9595C320.46 64.9779 321.039 65.1127 321.577 65.356C322.152 65.4913 322.693 65.7471 323.163 66.1066Z" fill="#263238"/>
<path d="M329.358 69.2646C328.783 69.1378 328.239 68.897 327.758 68.5565C327.22 68.3151 326.738 67.9656 326.342 67.5298C326.919 67.6522 327.464 67.8934 327.942 68.2379C328.778 68.7264 329.415 69.1796 329.358 69.2646Z" fill="#263238"/>
<path d="M334.81 73.5699C334.276 73.3291 333.795 72.985 333.394 72.5573C332.686 71.9342 332.148 71.3536 332.212 71.2757C332.275 71.1978 332.92 71.6439 333.628 72.2811C334.336 72.9184 334.881 73.499 334.81 73.5699Z" fill="#263238"/>
<path d="M338.252 77.5352C338.167 77.5918 337.862 77.3298 337.544 76.9474C337.225 76.5651 337.069 76.204 337.147 76.1332C337.225 76.0623 337.53 76.3314 337.855 76.7209C338.181 77.1103 338.337 77.4714 338.252 77.5352Z" fill="#263238"/>
<path d="M370.993 120.197C370.4 120.121 369.829 119.924 369.315 119.617C368.423 119.206 367.736 118.795 367.786 118.703C368.38 118.785 368.952 118.983 369.471 119.284C370.035 119.483 370.552 119.793 370.993 120.197Z" fill="#263238"/>
<path d="M377.678 122.541C376.49 122.434 375.338 122.082 374.293 121.507C375.482 121.61 376.635 121.963 377.678 122.541Z" fill="#263238"/>
<path d="M384.667 123.638C384.078 123.761 383.471 123.761 382.882 123.638C382.284 123.635 381.694 123.507 381.147 123.263C381.734 123.145 382.338 123.145 382.925 123.263C383.525 123.27 384.117 123.397 384.667 123.638Z" fill="#263238"/>
<path d="M391.734 123.419C391.178 123.641 390.583 123.747 389.985 123.73C389.393 123.84 388.785 123.824 388.2 123.681C388.759 123.462 389.356 123.354 389.956 123.362C390.546 123.258 391.151 123.277 391.734 123.419Z" fill="#263238"/>
<path d="M398.687 122.116C398.172 122.423 397.602 122.625 397.009 122.711C396.434 122.89 395.83 122.95 395.231 122.888C395.756 122.598 396.334 122.418 396.931 122.357C397.493 122.156 398.091 122.074 398.687 122.116Z" fill="#263238"/>
<path d="M405.258 119.503C405.307 119.595 404.62 119.999 403.728 120.417C403.213 120.722 402.638 120.915 402.043 120.983C403.001 120.272 404.095 119.769 405.258 119.503Z" fill="#263238"/>
<path d="M411.128 115.559C411.191 115.637 410.639 116.218 409.853 116.813C409.411 117.221 408.88 117.521 408.302 117.691C408.246 117.606 408.855 117.103 409.634 116.522C410.07 116.114 410.576 115.788 411.128 115.559Z" fill="#263238"/>
<path d="M415.943 110.39C415.75 110.963 415.428 111.484 415.001 111.913C414.371 112.67 413.762 113.194 413.691 113.124C413.62 113.053 414.102 112.415 414.718 111.707C415.334 110.999 415.858 110.334 415.943 110.39Z" fill="#263238"/>
<path d="M419.257 104.131C419.234 104.735 419.066 105.325 418.768 105.851C418.572 106.423 418.248 106.941 417.819 107.367C417.925 106.779 418.131 106.214 418.428 105.696C418.616 105.132 418.896 104.603 419.257 104.131Z" fill="#263238"/>
<path d="M420.602 97.2339C420.772 97.8136 420.798 98.4259 420.68 99.0183C420.679 99.6239 420.528 100.22 420.241 100.753C420.169 100.163 420.193 99.5652 420.312 98.9829C420.311 98.3878 420.409 97.7968 420.602 97.2339Z" fill="#263238"/>
<path d="M419.547 90.2522C419.888 90.7516 420.106 91.324 420.184 91.9233C420.376 92.4953 420.427 93.1048 420.333 93.7006C420.069 93.1693 419.897 92.5971 419.823 92.0083C419.634 91.4423 419.541 90.8488 419.547 90.2522Z" fill="#263238"/>
<path d="M416.467 83.9079C416.545 83.8442 417.083 84.4531 417.578 85.3241C417.932 85.8113 418.16 86.3778 418.244 86.9739C418.152 87.0235 417.741 86.3437 417.26 85.5082C416.91 85.0218 416.642 84.4812 416.467 83.9079Z" fill="#263238"/>
<path d="M411.552 78.8523C412.127 79.0449 412.644 79.3756 413.061 79.8153C413.811 80.4596 414.3 81.0969 414.229 81.1677C414.158 81.2385 413.521 80.7216 412.813 80.0914C412.105 79.4612 411.496 78.9373 411.552 78.8523Z" fill="#263238"/>
<path d="M405.13 75.9774C405.736 75.9206 406.345 76.0206 406.901 76.2677C407.491 76.4035 408.038 76.6832 408.494 77.082C407.904 77.0187 407.327 76.8609 406.787 76.6147C406.206 76.4885 405.647 76.2736 405.13 75.9774Z" fill="#263238"/>
<path d="M398.114 76.0978C398.629 75.7764 399.22 75.598 399.827 75.5809C400.419 75.4458 401.036 75.4653 401.619 75.6375C400.455 75.9014 399.27 76.0555 398.078 76.0978H398.114Z" fill="#263238"/>
<path d="M392.01 79.5107C391.932 79.447 392.42 78.8026 393.22 78.1866C393.669 77.774 394.223 77.4924 394.821 77.3723C394.87 77.4714 394.205 77.9034 393.405 78.484C392.604 79.0646 392.087 79.5815 392.01 79.5107Z" fill="#263238"/>
<path d="M389.206 85.8693C389.071 85.2741 389.108 84.653 389.312 84.0778C389.395 83.4716 389.653 82.903 390.055 82.4421C389.992 83.0287 389.861 83.6061 389.666 84.1628C389.587 84.7492 389.432 85.3228 389.206 85.8693Z" fill="#263238"/>
<path d="M390.586 92.7306C390.167 92.2914 389.871 91.749 389.73 91.1586C389.471 90.6067 389.368 89.9946 389.432 89.3884C389.723 89.9057 389.94 90.461 390.077 91.0383C390.328 91.5746 390.499 92.1447 390.586 92.7306Z" fill="#263238"/>
<path d="M395.217 97.9989C394.637 97.8185 394.112 97.4917 393.695 97.05C392.944 96.3986 392.484 95.733 392.562 95.6693C392.64 95.6055 393.213 96.1366 393.935 96.7739C394.658 97.4111 395.274 97.9139 395.217 97.9989Z" fill="#263238"/>
<path d="M401.647 100.881C401.043 100.913 400.44 100.799 399.891 100.548C399.299 100.416 398.751 100.135 398.297 99.7336C398.888 99.7969 399.464 99.9547 400.004 100.201C400.586 100.332 401.142 100.562 401.647 100.881Z" fill="#263238"/>
<path d="M408.671 101.546C407.506 101.847 406.281 101.82 405.13 101.468C405.712 101.346 406.31 101.317 406.901 101.383C407.496 101.335 408.095 101.39 408.671 101.546Z" fill="#263238"/>
<path d="M415.645 100.258C414.604 100.855 413.419 101.159 412.218 101.136C412.74 100.852 413.309 100.662 413.896 100.576C414.458 100.374 415.049 100.266 415.645 100.258Z" fill="#263238"/>
<path d="M422.018 97.3191C421.597 97.7461 421.093 98.0833 420.538 98.3104C420.039 98.6425 419.478 98.8691 418.888 98.976C419.806 98.2132 420.871 97.649 422.018 97.3191Z" fill="#263238"/>
<path d="M427.683 93.0989C427.754 93.1768 427.194 93.7432 426.437 94.3664C426.01 94.7884 425.505 95.1227 424.95 95.3506C424.886 95.2656 425.452 94.6991 426.203 94.0831C426.629 93.6631 427.131 93.329 427.683 93.0989Z" fill="#263238"/>
<path d="M432.533 87.9227C432.611 87.9864 432.158 88.6308 431.521 89.3884C430.883 90.1461 430.303 90.6842 430.232 90.6134C430.161 90.5426 430.607 89.9053 431.238 89.1477C431.868 88.39 432.448 87.8448 432.533 87.9227Z" fill="#263238"/>
<path d="M436.421 82.0174C436.285 82.6015 436.029 83.1512 435.67 83.6318C435.16 84.4744 434.686 85.1117 434.601 85.048C434.738 84.4641 434.994 83.9147 435.352 83.4335C435.854 82.6051 436.329 81.9678 436.421 82.0174Z" fill="#263238"/>
<path d="M439.295 75.5454C439.252 76.1446 439.091 76.7294 438.821 77.266C438.664 77.846 438.378 78.3833 437.985 78.838C438.046 78.2448 438.212 77.6671 438.474 77.1315C438.638 76.5528 438.917 76.0132 439.295 75.5454Z" fill="#263238"/>
<path d="M441.271 68.7266C441.307 69.3238 441.217 69.9219 441.009 70.4826C440.917 71.0761 440.705 71.6446 440.386 72.1537C440.436 70.9617 440.738 69.7938 441.271 68.7266Z" fill="#263238"/>
<path d="M442.51 61.7874C442.607 62.3791 442.578 62.9849 442.425 63.5647C442.393 64.1623 442.241 64.7474 441.979 65.2853C441.881 64.6935 441.91 64.0878 442.064 63.508C442.097 62.9106 442.249 62.3257 442.51 61.7874Z" fill="#263238"/>
<path d="M443.161 54.7349C443.326 55.9202 443.237 57.127 442.899 58.2753C442.766 57.6895 442.749 57.0832 442.85 56.4909C442.835 55.8906 442.941 55.2933 443.161 54.7349Z" fill="#263238"/>
<path d="M443.388 47.6611C443.562 48.2341 443.613 48.8374 443.537 49.4313C443.59 50.0303 443.515 50.6337 443.317 51.2016C443.153 50.6243 443.103 50.0207 443.169 49.4243C443.125 48.8278 443.199 48.2286 443.388 47.6611Z" fill="#263238"/>
<path d="M443.339 40.5803C443.528 41.15 443.601 41.7522 443.551 42.3505C443.622 42.9455 443.567 43.5488 443.388 44.1207C443.199 43.5509 443.127 42.9489 443.176 42.3505C443.113 41.7555 443.169 41.154 443.339 40.5803Z" fill="#263238"/>
<path d="M443.261 36.2256C443.36 36.2256 443.452 36.4026 443.459 36.6292C443.466 36.8558 443.388 37.0328 443.282 37.0399C443.176 37.047 443.091 36.8629 443.091 36.6363C443.091 36.4097 443.133 36.2256 443.261 36.2256Z" fill="#263238"/>
<path d="M458.748 15.2003L410.619 20.4287L414.144 52.8734L462.272 47.645L458.748 15.2003Z" fill="#00042D"/>
<path d="M414.123 52.9079L410.583 20.4493L458.732 15.2236L462.273 47.6893L414.123 52.9079ZM410.639 20.4634L414.18 52.8725L462.273 47.6468L458.732 15.2378L410.639 20.4634Z" fill="#263238"/>
<path d="M458.945 15.6204C458.826 15.7933 458.691 15.9545 458.541 16.1019L457.33 17.426L452.806 22.2268L437.73 37.9604L437.61 38.0949L437.454 37.9958L437.086 37.7621L418.478 25.8593L412.813 22.2126L411.298 21.2001C411.116 21.0883 410.943 20.9629 410.781 20.8248C410.979 20.9047 411.169 21.0043 411.347 21.1222L412.905 22.0639L418.57 25.6043L437.27 37.401L437.638 37.6347H437.362L452.586 21.9931L457.21 17.2914L458.477 16.0311C458.62 15.8804 458.777 15.7429 458.945 15.6204Z" fill="white" stroke="white"/>
<path d="M414.335 53.2621C414.236 53.1983 417.373 48.3551 421.338 42.4567C425.303 36.5584 428.61 31.8355 428.709 31.8921C428.809 31.9488 425.679 36.7991 421.706 42.6975C417.734 48.5958 414.434 53.3329 414.335 53.2621Z" fill="white" stroke="white"/>
<path d="M444.677 29.7818C444.769 29.6969 448.826 33.7259 453.74 38.7745C458.654 43.8231 462.57 47.9796 462.485 48.0716C462.4 48.1637 458.343 44.1347 453.421 39.079C448.5 34.0233 444.578 29.8314 444.677 29.7818Z" fill="white" stroke="white"/>
<path d="M238.957 113.584C239.056 113.584 239.205 113.945 239.29 114.426C239.375 114.908 239.354 115.311 239.254 115.333C239.155 115.354 239.007 114.972 238.922 114.483C238.837 113.994 238.858 113.598 238.957 113.584Z" fill="#263238"/>
<path d="M237.824 106.673C238.091 107.202 238.248 107.781 238.285 108.372C238.438 108.945 238.471 109.542 238.384 110.128C238.112 109.601 237.955 109.022 237.923 108.429C237.771 107.857 237.737 107.259 237.824 106.673Z" fill="#263238"/>
<path d="M236.812 99.7478C237.071 100.281 237.215 100.862 237.237 101.454C237.376 102.029 237.398 102.627 237.3 103.21C237.038 102.679 236.893 102.097 236.875 101.504C236.735 100.929 236.714 100.331 236.812 99.7478Z" fill="#263238"/>
<path d="M236.018 92.8015C236.256 93.3445 236.381 93.9297 236.387 94.5222C236.511 95.1008 236.511 95.6995 236.387 96.2782C236.15 95.7354 236.027 95.1498 236.025 94.5576C235.901 93.9791 235.898 93.381 236.018 92.8015Z" fill="#263238"/>
<path d="M235.53 85.8057C235.84 86.9448 235.908 88.1366 235.728 89.3036C235.417 88.1645 235.349 86.9726 235.53 85.8057Z" fill="#263238"/>
<path d="M235.459 78.8027C235.705 79.9701 235.705 81.1758 235.459 82.3432C235.276 81.7795 235.215 81.1831 235.282 80.5942C235.212 79.9912 235.273 79.3804 235.459 78.8027Z" fill="#263238"/>
<path d="M235.898 71.8208C236.027 72.4004 236.039 72.9997 235.934 73.5839C235.944 74.176 235.833 74.7639 235.608 75.3117C235.47 74.7359 235.456 74.1374 235.566 73.5556C235.555 72.9605 235.668 72.3697 235.898 71.8208Z" fill="#263238"/>
<path d="M236.946 64.9028C237.033 65.49 236.992 66.0889 236.826 66.6589C236.783 67.2509 236.617 67.8274 236.337 68.3512C236.302 67.1722 236.509 65.9984 236.946 64.9028Z" fill="#263238"/>
<path d="M238.738 58.1406C238.745 58.7325 238.635 59.3199 238.412 59.8684C238.298 60.4503 238.069 61.0038 237.739 61.4969C237.723 60.9027 237.832 60.3117 238.058 59.7621C238.167 59.1794 238.398 58.6266 238.738 58.1406Z" fill="#263238"/>
<path d="M241.351 51.6477C241.289 52.2383 241.106 52.8097 240.812 53.3259C240.628 53.8892 240.332 54.4094 239.941 54.8553C240.185 53.6993 240.668 52.6068 241.358 51.6477H241.351Z" fill="#263238"/>
<path d="M244.764 45.5438C244.626 46.1198 244.373 46.6618 244.02 47.137C243.524 47.9584 243.05 48.5532 242.958 48.5532C243.098 47.9767 243.353 47.4347 243.709 46.96C244.204 46.1174 244.679 45.4872 244.764 45.5438Z" fill="#263238"/>
<path d="M248.962 39.9429C249.04 40.0137 248.615 40.651 248.013 41.4228C247.411 42.1946 246.852 42.7328 246.767 42.6691C246.983 42.1168 247.309 41.6135 247.723 41.1892C248.332 40.4386 248.891 39.8792 248.962 39.9429Z" fill="#263238"/>
<path d="M253.94 35.0219C254.004 35.1069 253.48 35.6946 252.772 36.346C252.064 36.9975 251.426 37.4577 251.356 37.3869C251.285 37.3161 251.809 36.7284 252.524 36.0699C253.239 35.4113 253.876 34.944 253.94 35.0219Z" fill="#263238"/>
<path d="M259.661 31C259.711 31.0921 259.095 31.5806 258.281 32.0975C257.816 32.4646 257.281 32.7322 256.709 32.8835C256.652 32.8056 257.268 32.31 258.082 31.786C258.552 31.4221 259.088 31.155 259.661 31Z" fill="#263238"/>
<path d="M266.034 28.1321C265.575 28.5075 265.041 28.7825 264.469 28.9393C263.943 29.2102 263.367 29.3694 262.777 29.4066C263.237 29.0326 263.77 28.7578 264.342 28.5994C264.867 28.3275 265.444 28.1683 266.034 28.1321Z" fill="#263238"/>
<path d="M271.147 26.8718C271.147 26.9709 270.793 27.1267 270.318 27.2187C269.844 27.3108 269.433 27.3037 269.412 27.2187C269.391 27.1338 269.766 26.9638 270.248 26.8718C270.729 26.7797 271.133 26.7726 271.147 26.8718Z" fill="#263238"/>
<path d="M233.481 0.28544L220.684 33.3796L269.781 52.3638L282.577 19.2696L233.481 0.28544Z" fill="#00042D"/>
<path d="M269.78 52.3911L220.667 33.3932L233.477 0.283203L282.589 19.274L269.78 52.3911ZM220.71 33.372L269.78 52.3415L282.568 19.2811L233.498 0.311527L220.71 33.372Z" fill="#263238"/>
<path d="M282.582 19.7342C282.384 19.8422 282.175 19.9299 281.959 19.9962L280.125 20.6618L273.363 23.041L250.931 30.7449L250.747 30.8086L250.648 30.6387L250.407 30.228L238.37 9.43159L234.766 3.10133L233.81 1.36652C233.686 1.16956 233.581 0.96085 233.498 0.743408C233.645 0.9227 233.775 1.11463 233.887 1.31695L234.928 3.00927L238.625 9.24749C241.768 14.5864 246.059 21.901 250.797 29.9731L251.037 30.3838L250.754 30.2776L273.257 22.7011L280.069 20.4706L281.931 19.8829C282.142 19.81 282.361 19.7602 282.582 19.7342Z" fill="white" stroke="white"/>
<path d="M220.689 33.8393C220.625 33.7261 226.07 30.6176 232.853 26.9001C239.637 23.1827 245.181 20.2583 245.245 20.3716C245.309 20.4849 239.863 23.5934 233.08 27.3179C226.297 31.0424 220.752 33.9526 220.689 33.8393Z" fill="white" stroke="white"/>
<path d="M261.729 26.2416C261.856 26.2062 263.761 32.1187 265.977 39.4474C268.194 46.776 269.907 52.7594 269.78 52.7948C269.652 52.8302 267.748 46.9247 265.531 39.589C263.315 32.2532 261.601 26.3053 261.729 26.2416Z" fill="white" stroke="white"/>
<path d="M218.338 121.33C218.437 121.33 218.487 121.741 218.451 122.229C218.416 122.718 218.296 123.107 218.196 123.1C218.097 123.093 218.041 122.69 218.083 122.201C218.126 121.713 218.239 121.323 218.338 121.33Z" fill="#263238"/>
<path d="M218.515 114.129C218.699 114.712 218.761 115.326 218.699 115.935C218.754 116.541 218.689 117.152 218.508 117.733C218.329 117.151 218.269 116.54 218.331 115.935C218.274 115.326 218.337 114.713 218.515 114.129Z" fill="#263238"/>
<path d="M218.026 106.963C218.377 108.125 218.49 109.346 218.359 110.553C218.121 109.991 218.003 109.386 218.012 108.776C217.899 108.176 217.904 107.561 218.026 106.963Z" fill="#263238"/>
<path d="M216.83 99.8398C217.117 100.378 217.295 100.967 217.354 101.575C217.528 102.16 217.584 102.774 217.516 103.38C217.23 102.842 217.052 102.252 216.992 101.645C216.814 101.061 216.758 100.446 216.83 99.8398Z" fill="#263238"/>
<path d="M214.868 92.9077C215.466 93.9649 215.84 95.1339 215.966 96.3419C215.621 95.8403 215.38 95.2744 215.258 94.6779C215.009 94.1204 214.876 93.5181 214.868 92.9077Z" fill="#263238"/>
<path d="M212.114 86.2588C212.519 86.7133 212.828 87.2458 213.02 87.8237C213.323 88.3538 213.518 88.9386 213.594 89.5443C213.192 89.087 212.884 88.5553 212.687 87.9794C212.383 87.4502 212.188 86.865 212.114 86.2588Z" fill="#263238"/>
<path d="M208.538 80.0064C208.623 79.9498 209.133 80.5871 209.671 81.4226C210.031 81.9176 210.29 82.478 210.436 83.0724C210.344 83.122 209.862 82.4706 209.352 81.6138C208.977 81.1374 208.7 80.591 208.538 80.0064Z" fill="#263238"/>
<path d="M204.126 74.3204C204.204 74.2496 204.785 74.8161 205.422 75.5808C205.855 76.0123 206.2 76.5247 206.435 77.089C206.35 77.1457 205.776 76.5792 205.139 75.8216C204.705 75.3933 204.361 74.883 204.126 74.3204Z" fill="#263238"/>
<path d="M198.972 69.3073C199.035 69.2294 199.68 69.7109 200.43 70.3765C201.181 71.0421 201.712 71.6511 201.641 71.7219C201.089 71.4653 200.593 71.1019 200.182 70.6527C199.432 69.9871 198.887 69.3852 198.972 69.3073Z" fill="#263238"/>
<path d="M193.116 65.1013C193.701 65.2707 194.245 65.5574 194.716 65.9439C195.545 66.4962 196.175 67.0131 196.132 67.0981C195.549 66.9216 195.005 66.633 194.532 66.2484C193.689 65.7032 193.059 65.1863 193.116 65.1013Z" fill="#263238"/>
<path d="M186.701 61.8298C187.306 61.9075 187.889 62.1074 188.414 62.4175C188.99 62.6171 189.52 62.9301 189.972 63.3381C189.367 63.2604 188.784 63.0605 188.258 62.7503C187.684 62.5486 187.155 62.2358 186.701 61.8298Z" fill="#263238"/>
<path d="M179.854 59.6562C180.464 59.6348 181.073 59.7334 181.645 59.9465C182.247 60.0474 182.823 60.269 183.337 60.5979C182.727 60.6165 182.119 60.5179 181.546 60.3076C180.945 60.2031 180.37 59.9817 179.854 59.6562Z" fill="#263238"/>
<path d="M172.695 58.7427C173.897 58.5406 175.131 58.6403 176.285 59.0331C175.08 59.1303 173.868 59.0323 172.695 58.7427Z" fill="#263238"/>
<path d="M165.515 59.2385C166.667 58.853 167.887 58.7083 169.098 58.8136C168.541 59.0649 167.938 59.1998 167.327 59.2101C166.731 59.3367 166.115 59.3464 165.515 59.2385Z" fill="#263238"/>
<path d="M158.562 61.0936C159.062 60.7468 159.628 60.5059 160.226 60.3855C160.784 60.1423 161.387 60.0169 161.996 60.0173C161.493 60.3606 160.928 60.6012 160.332 60.7254C159.771 60.9615 159.17 61.0866 158.562 61.0936Z" fill="#263238"/>
<path d="M152.075 64.2163C152.026 64.1242 152.691 63.671 153.576 63.1966C154.079 62.8489 154.648 62.6079 155.248 62.4885C154.316 63.268 153.237 63.853 152.075 64.2092V64.2163Z" fill="#263238"/>
<path d="M146.325 68.5354C146.255 68.4646 146.821 67.884 147.586 67.2396C148.017 66.8064 148.53 66.4623 149.094 66.2271C149.151 66.312 148.584 66.8927 147.826 67.5228C147.401 67.9597 146.89 68.3044 146.325 68.5354Z" fill="#263238"/>
<path d="M141.617 73.9736C141.798 73.3872 142.111 72.8498 142.53 72.4016C143.146 71.6086 143.748 71.0563 143.819 71.12C143.89 71.1837 143.429 71.8281 142.82 72.6282C142.211 73.4283 141.702 74.0302 141.617 73.9736Z" fill="#263238"/>
<path d="M138.99 78.6398C138.898 78.5973 138.99 78.2078 139.21 77.7617C139.429 77.3156 139.67 76.997 139.762 77.0536C139.854 77.1103 139.762 77.4927 139.542 77.9317C139.323 78.3707 139.082 78.6893 138.99 78.6398Z" fill="#263238"/>
<path d="M93.998 120.417C93.998 120.318 94.3733 120.19 94.8548 120.126C95.3363 120.063 95.7399 120.126 95.7541 120.204C95.7683 120.282 95.393 120.438 94.8973 120.495C94.4017 120.551 94.0051 120.537 93.998 120.417Z" fill="#263238"/>
<path d="M86.9883 119.638C87.5838 119.631 88.1766 119.72 88.7443 119.9C89.3371 119.961 89.916 120.119 90.4579 120.367C89.2567 120.481 88.0487 120.235 86.9883 119.659V119.638Z" fill="#263238"/>
<path d="M80.6438 116.501C81.2139 116.679 81.7501 116.952 82.2299 117.308C83.0654 117.804 83.7381 118.222 83.6956 118.321C83.0986 118.214 82.5341 117.972 82.0458 117.613C81.1961 117.117 80.5871 116.586 80.6438 116.501Z" fill="#263238"/>
<path d="M75.3759 111.771C75.4538 111.707 76.0344 112.245 76.7212 112.939C77.4081 113.633 77.9391 114.221 77.8754 114.299C77.8117 114.377 77.1673 113.902 76.4592 113.201C75.7512 112.5 75.298 111.842 75.3759 111.771Z" fill="#263238"/>
<path d="M71.2124 106.036C71.3045 105.986 71.8072 106.602 72.3383 107.452C72.7134 107.919 72.9926 108.455 73.1596 109.031C73.0747 109.094 72.5719 108.471 72.0338 107.65C71.6504 107.175 71.3706 106.625 71.2124 106.036Z" fill="#263238"/>
<path d="M68.1528 99.6416C68.5429 100.097 68.8368 100.627 69.0167 101.199C69.301 101.729 69.4813 102.308 69.5478 102.906C69.154 102.452 68.8576 101.921 68.6768 101.348C68.3906 100.82 68.2124 100.24 68.1528 99.6416Z" fill="#263238"/>
<path d="M66.1208 92.844C66.4403 93.3534 66.6546 93.9216 66.751 94.5151C66.9604 95.0782 67.052 95.6783 67.0201 96.2782C66.6955 95.7714 66.4808 95.2021 66.3899 94.6071C66.1809 94.0439 66.0893 93.4439 66.1208 92.844Z" fill="#263238"/>
<path d="M64.889 85.8552C65.1483 86.3968 65.2998 86.9836 65.3351 87.583C65.4836 88.1659 65.5125 88.7729 65.42 89.3673C65.1544 88.8281 65.0026 88.24 64.9739 87.6396C64.8212 87.0573 64.7922 86.4494 64.889 85.8552Z" fill="#263238"/>
<path d="M64.2092 78.7957C64.5494 79.9431 64.6459 81.1491 64.4924 82.3361C64.2656 81.7814 64.1547 81.1862 64.1667 80.5871C64.0554 79.9936 64.0699 79.3833 64.2092 78.7957Z" fill="#263238"/>
<path d="M63.9118 73.478C64.018 73.478 64.1172 73.8675 64.1384 74.356C64.1596 74.8446 64.0959 75.2412 63.9968 75.2482C63.8977 75.2553 63.7914 74.8588 63.7702 74.3702C63.749 73.8816 63.8127 73.4851 63.9118 73.478Z" fill="#263238"/>
<path d="M90.5771 30.5453L31.7017 33.3218L33.5732 73.0083L92.4487 70.2318L90.5771 30.5453Z" fill="#00042D"/>
<path d="M33.549 73.0253L31.6797 33.3231L90.5781 30.5474L92.4474 70.2496L33.549 73.0253ZM31.7151 33.3231L33.5844 72.9757L92.4262 70.2001L90.5569 30.5474L31.7151 33.3231Z" fill="#263238"/>
<path d="M90.7834 31.0142C90.6273 31.215 90.4518 31.4 90.2594 31.5665L88.6875 33.0818L82.8458 38.5836L63.3452 56.6185L63.1823 56.7672L63.0053 56.6397L62.5804 56.3282L40.821 40.4812C38.0878 38.4561 35.8644 36.8063 34.2642 35.6309L32.501 34.2855C32.2868 34.1405 32.0875 33.9745 31.9062 33.7899C32.1364 33.909 32.3566 34.0463 32.5648 34.2005L34.3916 35.4468L41.0476 40.1626L62.892 55.8821L63.3239 56.1936H62.9841L82.5838 38.2791L88.5459 32.9047L90.1886 31.4886C90.3698 31.3101 90.5691 31.1511 90.7834 31.0142Z" fill="white" stroke="white"/>
<path d="M33.7757 73.478C33.6624 73.386 37.833 67.7355 43.0941 60.86C48.3551 53.9845 52.7169 48.4827 52.8302 48.5676C52.9435 48.6526 48.78 54.3102 43.5189 61.1857C38.2579 68.0612 33.8961 73.563 33.7757 73.478Z" fill="white" stroke="white"/>
<path d="M72.3805 47.1513C72.4938 47.0522 77.1247 52.2495 82.7186 58.7497C88.3124 65.2499 92.7663 70.603 92.6317 70.7022C92.4972 70.8013 87.8947 65.604 82.2937 59.0967C76.6928 52.5894 72.2673 47.2504 72.3805 47.1513Z" fill="white" stroke="white"/>
</svg>
