<svg width="116" height="45" viewBox="0 0 116 45" fill="none" xmlns="http://www.w3.org/2000/svg">
<path fill-rule="evenodd" clip-rule="evenodd" d="M18.5834 10.4932V15.3362L26.8166 15.3362V24.5105C26.7403 25.319 26.4623 26.1003 26.002 26.7803C25.379 27.7007 24.4597 28.38 23.397 28.7052C22.3342 29.0304 21.1922 28.9819 20.1608 28.5677C19.1295 28.1536 18.2711 27.3988 17.7284 26.4289L13.5396 28.7728C14.6177 30.6997 16.3232 32.1992 18.3722 33.022C20.4212 33.8448 22.6901 33.9412 24.8015 33.2951C26.9129 32.649 28.7393 31.2994 29.977 29.4709C30.9316 28.0606 31.4915 26.431 31.613 24.7498L31.6596 24.6286L31.6596 15.3362L31.6596 11.2195L31.6596 10.4932H18.5834Z" fill="white"/>
<path d="M34.339 5.415C32.1098 3.87669 29.5993 2.79253 26.9511 2.22442C24.3028 1.65632 21.5686 1.61538 18.9045 2.10397C16.2404 2.59255 13.6987 3.60108 11.4243 5.07197C9.15003 6.54286 7.18769 8.44731 5.64938 10.6766C4.11107 12.9058 3.02691 15.4163 2.4588 18.0645C1.89069 20.7128 1.84976 23.447 2.33834 26.1111C2.82692 28.7752 3.83545 31.317 5.30634 33.5913C6.77723 35.8656 8.68168 37.8279 10.911 39.3662" stroke="white" stroke-width="3"/>
<path d="M14.9196 41.5222C19.3686 43.3141 24.303 43.4994 28.8738 42.0462C33.4447 40.5931 37.3662 37.5923 39.9637 33.5602C42.5612 29.5282 43.6722 24.7169 43.1056 19.9542C42.539 15.1915 40.3302 10.7751 36.8593 7.46496" stroke="white" stroke-width="3"/>
<path d="M64.3 27.1906C64.3 29.1746 63.604 30.8706 62.212 32.2786C60.788 33.6866 58.892 34.3906 56.524 34.3906V31.3906C58.092 31.3906 59.276 30.9826 60.076 30.1666C60.892 29.3506 61.3 28.3586 61.3 27.1906V14.5906H64.3V27.1906ZM67.9094 26.8786V14.5906H70.9094V26.8786C70.9094 28.3026 71.4054 29.5106 72.3974 30.5026C73.3894 31.4946 74.5974 31.9906 76.0214 31.9906C77.4294 31.9906 78.6294 31.4946 79.6214 30.5026C80.6134 29.5106 81.1094 28.3026 81.1094 26.8786V14.5906H84.1094V26.8786C84.1094 29.1186 83.3174 31.0306 81.7334 32.6146C80.1494 34.1986 78.2454 34.9906 76.0214 34.9906C73.7814 34.9906 71.8694 34.1986 70.2854 32.6146C68.7014 31.0306 67.9094 29.1186 67.9094 26.8786ZM93.7141 27.1906C93.7141 29.1746 93.0181 30.8706 91.6261 32.2786C90.2021 33.6866 88.3061 34.3906 85.9381 34.3906V31.3906C87.5061 31.3906 88.6901 30.9826 89.4901 30.1666C90.3061 29.3506 90.7141 28.3586 90.7141 27.1906V14.5906H93.7141V27.1906ZM97.3234 26.8786V14.5906H100.323V26.8786C100.323 28.3026 100.819 29.5106 101.811 30.5026C102.803 31.4946 104.011 31.9906 105.435 31.9906C106.843 31.9906 108.043 31.4946 109.035 30.5026C110.027 29.5106 110.523 28.3026 110.523 26.8786V14.5906H113.523V26.8786C113.523 29.1186 112.731 31.0306 111.147 32.6146C109.563 34.1986 107.659 34.9906 105.435 34.9906C103.195 34.9906 101.283 34.1986 99.6994 32.6146C98.1154 31.0306 97.3234 29.1186 97.3234 26.8786Z" fill="white"/>
</svg>
