<svg width="490" height="522" viewBox="0 0 490 522" fill="none" xmlns="http://www.w3.org/2000/svg">
<path d="M469.511 97.3318C469.525 96.6883 469.354 96.0544 469.017 95.506C468.68 94.9576 468.192 94.518 467.611 94.2398C467.031 93.9617 466.383 93.8568 465.744 93.9377C465.106 94.0186 464.504 94.2819 464.011 94.6961C463.519 95.1102 463.156 95.6576 462.966 96.2727C462.777 96.8878 462.769 97.5445 462.943 98.1642C463.117 98.7838 463.466 99.34 463.948 99.7662C464.431 100.192 465.026 100.471 465.662 100.567V159.81H433.307V205.776H434.423V160.926H466.778V100.578C467.538 100.437 468.226 100.036 468.725 99.4437C469.223 98.8518 469.501 98.1055 469.511 97.3318ZM466.22 99.5631C465.774 99.5741 465.335 99.4513 464.96 99.2104C464.584 98.9695 464.29 98.6217 464.114 98.2117C463.938 97.8018 463.889 97.3486 463.974 96.9107C464.058 96.4727 464.272 96.07 464.587 95.7546C464.902 95.4392 465.305 95.2256 465.743 95.1413C466.181 95.057 466.634 95.1059 467.044 95.2816C467.454 95.4574 467.802 95.752 468.043 96.1273C468.284 96.5027 468.406 96.9417 468.395 97.3876C468.381 97.9601 468.148 98.5053 467.743 98.9103C467.338 99.3152 466.792 99.549 466.22 99.5631Z" fill="#4D7AC1"/>
<path d="M416.918 125.38C416.15 125.468 415.437 125.819 414.898 126.373C414.36 126.928 414.03 127.651 413.964 128.421C413.899 129.191 414.101 129.96 414.538 130.597C414.975 131.235 415.619 131.702 416.36 131.918V205.777H417.476V131.918C418.218 131.702 418.861 131.235 419.298 130.597C419.735 129.96 419.937 129.191 419.872 128.421C419.806 127.651 419.476 126.928 418.938 126.373C418.399 125.819 417.686 125.468 416.918 125.38ZM416.918 130.858C416.475 130.869 416.038 130.748 415.664 130.51C415.289 130.271 414.995 129.927 414.817 129.52C414.64 129.114 414.587 128.663 414.667 128.227C414.747 127.79 414.955 127.388 415.265 127.07C415.574 126.752 415.972 126.534 416.406 126.443C416.84 126.353 417.292 126.394 417.703 126.561C418.114 126.728 418.466 127.014 418.713 127.382C418.961 127.75 419.093 128.183 419.094 128.627C419.094 129.209 418.866 129.769 418.46 130.185C418.053 130.602 417.5 130.844 416.918 130.858Z" fill="#4D7AC1"/>
<path d="M339.969 52.1803H279.655C279.515 51.3528 279.07 50.6081 278.406 50.0936C277.743 49.5792 276.911 49.3327 276.075 49.4028C275.239 49.473 274.459 49.8548 273.891 50.4726C273.323 51.0903 273.008 51.8989 273.008 52.7382C273.008 53.5774 273.323 54.386 273.891 55.0038C274.459 55.6215 275.239 56.0033 276.075 56.0735C276.911 56.1437 277.743 55.8971 278.406 55.3827C279.07 54.8683 279.515 54.1235 279.655 53.296H338.853V67.7999H384.853V66.6842H339.969V52.1803ZM276.42 54.9361C275.976 54.9472 275.539 54.8258 275.165 54.5874C274.791 54.3491 274.496 54.0046 274.319 53.598C274.141 53.1913 274.089 52.741 274.169 52.3046C274.248 51.8681 274.456 51.4653 274.766 51.1477C275.076 50.83 275.473 50.6119 275.908 50.5212C276.342 50.4305 276.793 50.4713 277.204 50.6384C277.615 50.8055 277.967 51.0914 278.215 51.4594C278.463 51.8275 278.595 52.261 278.595 52.7047C278.595 53.287 278.368 53.8462 277.961 54.2631C277.555 54.68 277.002 54.9215 276.42 54.9361Z" fill="#4D7AC1"/>
<path d="M328.556 76.9368C327.913 76.923 327.28 77.0947 326.732 77.4314C326.184 77.768 325.745 78.2554 325.467 78.8352C325.188 79.415 325.083 80.0627 325.163 80.7008C325.244 81.3388 325.506 81.9402 325.919 82.4331C326.332 82.926 326.879 83.2894 327.493 83.4799C328.107 83.6704 328.763 83.6799 329.383 83.5074C330.002 83.3348 330.559 82.9874 330.986 82.5067C331.413 82.0261 331.693 81.4325 331.792 80.7971H383.347V79.6814H331.792C331.653 78.9205 331.254 78.2313 330.664 77.731C330.074 77.2306 329.33 76.95 328.556 76.9368ZM328.556 82.4148C328.11 82.4258 327.671 82.303 327.296 82.0621C326.921 81.8212 326.626 81.4734 326.45 81.0634C326.274 80.6535 326.226 80.2003 326.31 79.7623C326.394 79.3244 326.608 78.9217 326.923 78.6063C327.239 78.2909 327.641 78.0773 328.079 77.993C328.517 77.9087 328.97 77.9576 329.38 78.1333C329.79 78.3091 330.138 78.6036 330.379 78.979C330.62 79.3544 330.743 79.7934 330.732 80.2392C330.718 80.8118 330.484 81.357 330.079 81.7619C329.674 82.1669 329.129 82.4007 328.556 82.4148Z" fill="#4D7AC1"/>
<path d="M254.53 164.161C255.298 164.073 256.011 163.722 256.549 163.168C257.088 162.614 257.418 161.89 257.484 161.12C257.549 160.351 257.347 159.582 256.91 158.944C256.473 158.307 255.829 157.84 255.088 157.623V106.079H253.972V157.579C253.23 157.795 252.587 158.262 252.15 158.9C251.713 159.537 251.51 160.306 251.576 161.076C251.642 161.846 251.972 162.569 252.51 163.123C253.049 163.678 253.762 164.029 254.53 164.117V164.161ZM254.53 158.683C254.973 158.672 255.41 158.793 255.784 159.032C256.159 159.27 256.453 159.615 256.631 160.021C256.808 160.428 256.86 160.878 256.781 161.315C256.701 161.751 256.493 162.154 256.183 162.472C255.874 162.789 255.476 163.007 255.042 163.098C254.608 163.189 254.156 163.148 253.745 162.981C253.334 162.814 252.982 162.528 252.735 162.16C252.487 161.792 252.354 161.358 252.354 160.915C252.357 160.334 252.586 159.778 252.992 159.363C253.398 158.949 253.95 158.709 254.53 158.694V158.683Z" fill="#4D7AC1"/>
<path d="M265.642 146.645V95.1006H264.527V146.645C263.699 146.785 262.954 147.231 262.44 147.894C261.925 148.557 261.679 149.389 261.749 150.225C261.819 151.062 262.201 151.841 262.819 152.409C263.437 152.977 264.245 153.292 265.084 153.292C265.924 153.292 266.732 152.977 267.35 152.409C267.968 151.841 268.35 151.062 268.42 150.225C268.49 149.389 268.243 148.557 267.729 147.894C267.214 147.231 266.47 146.785 265.642 146.645ZM265.084 152.067C264.641 152.067 264.207 151.935 263.839 151.687C263.471 151.439 263.185 151.088 263.018 150.677C262.851 150.266 262.81 149.814 262.901 149.38C262.992 148.946 263.21 148.548 263.527 148.238C263.845 147.929 264.248 147.721 264.684 147.641C265.121 147.561 265.571 147.614 265.978 147.791C266.384 147.968 266.729 148.263 266.967 148.637C267.205 149.012 267.327 149.448 267.316 149.892C267.301 150.474 267.06 151.027 266.643 151.434C266.226 151.84 265.667 152.068 265.084 152.067Z" fill="#4D7AC1"/>
<path d="M58.2031 348.45V347.335H6.64729C6.50742 346.507 6.06178 345.762 5.39869 345.248C4.7356 344.734 3.90345 344.487 3.06715 344.557C2.23085 344.627 1.45143 345.009 0.883356 345.627C0.315278 346.245 0 347.053 0 347.892C0 348.732 0.315278 349.54 0.883356 350.158C1.45143 350.776 2.23085 351.158 3.06715 351.228C3.90345 351.298 4.7356 351.051 5.39869 350.537C6.06178 350.023 6.50742 349.278 6.64729 348.45H58.2031ZM3.41181 350.079C2.97048 350.079 2.53907 349.948 2.17212 349.703C1.80518 349.458 1.51918 349.109 1.35029 348.702C1.1814 348.294 1.13721 347.845 1.22331 347.413C1.30941 346.98 1.52193 346.582 1.83399 346.27C2.14606 345.958 2.54365 345.745 2.97649 345.659C3.40933 345.573 3.85799 345.617 4.26572 345.786C4.67345 345.955 5.02194 346.241 5.26712 346.608C5.51231 346.975 5.64317 347.407 5.64317 347.848C5.64317 348.44 5.40809 349.007 4.98962 349.426C4.57116 349.844 4.0036 350.079 3.41181 350.079Z" fill="#4D7AC1"/>
<path d="M14.3901 355.144C13.7472 355.131 13.1139 355.302 12.566 355.639C12.0181 355.976 11.5787 356.463 11.3006 357.043C11.0224 357.623 10.9171 358.27 10.9974 358.908C11.0776 359.546 11.34 360.148 11.7531 360.641C12.1661 361.133 12.7125 361.497 13.3267 361.687C13.9409 361.878 14.597 361.887 15.2165 361.715C15.836 361.542 16.3926 361.195 16.8199 360.714C17.2471 360.234 17.5268 359.64 17.6256 359.005H69.1814V357.889H17.6256C17.4865 357.128 17.0881 356.439 16.4983 355.938C15.9084 355.438 15.1635 355.157 14.3901 355.144ZM14.3901 360.622C13.9464 360.622 13.5129 360.49 13.1448 360.242C12.7768 359.994 12.4909 359.643 12.3238 359.232C12.1567 358.821 12.1159 358.369 12.2066 357.935C12.2973 357.5 12.5154 357.103 12.8331 356.793C13.1508 356.484 13.5536 356.276 13.99 356.196C14.4265 356.116 14.8768 356.168 15.2834 356.346C15.69 356.523 16.0345 356.818 16.2728 357.192C16.5112 357.566 16.6326 358.003 16.6215 358.447C16.6098 359.031 16.3696 359.587 15.9524 359.996C15.5352 360.405 14.9743 360.634 14.3901 360.634V360.622Z" fill="#4D7AC1"/>
<path d="M258.457 463.109C257.685 463.121 256.942 463.4 256.352 463.899C255.763 464.397 255.363 465.083 255.222 465.842H196.024V433.487H150.024V434.603H194.908V466.958H255.222C255.328 467.576 255.609 468.151 256.031 468.615C256.454 469.079 257 469.413 257.606 469.577C258.211 469.741 258.851 469.728 259.45 469.541C260.049 469.353 260.581 468.998 260.985 468.518C261.389 468.037 261.647 467.452 261.729 466.83C261.81 466.208 261.713 465.575 261.447 465.007C261.182 464.438 260.759 463.958 260.229 463.621C259.7 463.285 259.085 463.107 258.457 463.109ZM258.457 468.576C258.03 468.565 257.615 468.428 257.264 468.182C256.914 467.937 256.644 467.593 256.488 467.195C256.331 466.796 256.296 466.361 256.386 465.942C256.476 465.524 256.688 465.142 256.994 464.843C257.301 464.544 257.688 464.343 258.109 464.263C258.529 464.184 258.964 464.23 259.358 464.396C259.752 464.562 260.089 464.841 260.326 465.197C260.562 465.554 260.689 465.972 260.689 466.4C260.674 466.982 260.433 467.535 260.016 467.942C259.599 468.348 259.04 468.576 258.457 468.576Z" fill="#4D7AC1"/>
<path d="M227.129 420.389C227.772 420.401 228.405 420.228 228.952 419.89C229.499 419.551 229.937 419.062 230.213 418.482C230.49 417.901 230.593 417.253 230.511 416.615C230.429 415.977 230.164 415.376 229.75 414.885C229.335 414.393 228.788 414.031 228.173 413.843C227.558 413.654 226.902 413.647 226.283 413.822C225.664 413.996 225.108 414.345 224.682 414.828C224.257 415.31 223.979 415.904 223.882 416.54H150.024V417.656H223.882C224.024 418.417 224.425 419.105 225.017 419.603C225.609 420.101 226.355 420.379 227.129 420.389ZM227.129 414.911C227.57 414.911 228.002 415.042 228.369 415.287C228.735 415.533 229.021 415.881 229.19 416.289C229.359 416.697 229.403 417.145 229.317 417.578C229.231 418.011 229.019 418.408 228.707 418.721C228.395 419.033 227.997 419.245 227.564 419.331C227.131 419.417 226.683 419.373 226.275 419.204C225.867 419.035 225.519 418.749 225.274 418.382C225.028 418.015 224.898 417.584 224.898 417.143C224.898 416.551 225.133 415.983 225.551 415.565C225.97 415.146 226.537 414.911 227.129 414.911Z" fill="#4D7AC1"/>
<path d="M37.8981 488.435H23.3942V515.29C22.5667 515.43 21.8219 515.875 21.3075 516.538C20.7931 517.202 20.5465 518.034 20.6167 518.87C20.6869 519.706 21.0687 520.486 21.6864 521.054C22.3042 521.622 23.1128 521.937 23.952 521.937C24.7913 521.937 25.5999 521.622 26.2176 521.054C26.8354 520.486 27.2172 519.706 27.2874 518.87C27.3576 518.034 27.111 517.202 26.5966 516.538C26.0821 515.875 25.3374 515.43 24.5099 515.29V489.551H39.0138V443.562H37.8981V488.435ZM26.1276 518.559C26.1275 519.002 25.9951 519.436 25.7473 519.804C25.4996 520.172 25.1478 520.458 24.7368 520.625C24.3258 520.792 23.8743 520.833 23.44 520.742C23.0057 520.652 22.6083 520.434 22.2986 520.116C21.9889 519.798 21.7809 519.395 21.7012 518.959C21.6215 518.522 21.6737 518.072 21.8512 517.666C22.0287 517.259 22.3233 516.914 22.6975 516.676C23.0717 516.438 23.5085 516.316 23.952 516.327C24.5284 516.342 25.0768 516.579 25.4823 516.988C25.8879 517.398 26.1192 517.949 26.1276 518.525V518.559Z" fill="#4D7AC1"/>
<path d="M52.0109 496.613V445.068H50.8952V496.613C50.0677 496.753 49.3229 497.199 48.8085 497.862C48.2941 498.525 48.0475 499.357 48.1177 500.193C48.1879 501.029 48.5697 501.809 49.1874 502.377C49.8052 502.945 50.6138 503.26 51.453 503.26C52.2923 503.26 53.1009 502.945 53.7186 502.377C54.3364 501.809 54.7182 501.029 54.7884 500.193C54.8585 499.357 54.612 498.525 54.0976 497.862C53.5831 497.199 52.8384 496.753 52.0109 496.613ZM51.453 502.024C51.0117 502.024 50.5803 501.893 50.2133 501.648C49.8464 501.403 49.5604 501.054 49.3915 500.647C49.2226 500.239 49.1784 499.79 49.2645 499.357C49.3506 498.925 49.5631 498.527 49.8752 498.215C50.1873 497.903 50.5849 497.69 51.0177 497.604C51.4505 497.518 51.8992 497.562 52.3069 497.731C52.7147 497.9 53.0632 498.186 53.3083 498.553C53.5535 498.92 53.6844 499.351 53.6844 499.793C53.6921 500.088 53.6396 500.381 53.5302 500.656C53.4207 500.93 53.2567 501.179 53.0479 501.388C52.8392 501.596 52.5901 501.76 52.3159 501.87C52.0417 501.979 51.7481 502.032 51.453 502.024Z" fill="#4D7AC1"/>
<path d="M404.567 34.24H419.071V7.38547C419.878 7.24579 420.603 6.80863 421.102 6.16039C421.602 5.51216 421.84 4.70003 421.77 3.88451C421.7 3.069 421.327 2.30946 420.724 1.75602C420.121 1.20258 419.332 0.895508 418.513 0.895508C417.695 0.895508 416.906 1.20258 416.303 1.75602C415.7 2.30946 415.327 3.069 415.256 3.88451C415.186 4.70003 415.425 5.51216 415.925 6.16039C416.424 6.80863 417.149 7.24579 417.956 7.38547V33.1243H403.452V79.124H404.567V34.24ZM416.327 4.11652C416.327 3.67519 416.458 3.24378 416.703 2.87683C416.948 2.50989 417.296 2.22389 417.704 2.055C418.112 1.88611 418.561 1.84192 418.993 1.92802C419.426 2.01412 419.824 2.22664 420.136 2.5387C420.448 2.85076 420.66 3.24835 420.747 3.6812C420.833 4.11404 420.788 4.56269 420.62 4.97042C420.451 5.37815 420.165 5.72664 419.798 5.97183C419.431 6.21702 418.999 6.34788 418.558 6.34788C417.972 6.34795 417.409 6.11746 416.992 5.70621C416.574 5.29496 416.335 4.73596 416.327 4.14998V4.11652Z" fill="#4D7AC1"/>
<path d="M390.453 26.0623V77.6069H391.569V26.0623C392.396 25.9225 393.141 25.4768 393.656 24.8137C394.17 24.1506 394.417 23.3185 394.346 22.4822C394.276 21.6459 393.894 20.8665 393.277 20.2984C392.659 19.7303 391.85 19.415 391.011 19.415C390.172 19.415 389.363 19.7303 388.746 20.2984C388.128 20.8665 387.746 21.6459 387.676 22.4822C387.606 23.3185 387.852 24.1506 388.367 24.8137C388.881 25.4768 389.626 25.9225 390.453 26.0623ZM391.011 20.6513C391.441 20.6513 391.862 20.7789 392.22 21.0179C392.578 21.257 392.856 21.5967 393.021 21.9943C393.186 22.3918 393.229 22.8293 393.145 23.2513C393.061 23.6733 392.854 24.061 392.549 24.3652C392.245 24.6695 391.858 24.8767 391.436 24.9606C391.014 25.0446 390.576 25.0015 390.179 24.8368C389.781 24.6722 389.441 24.3933 389.202 24.0355C388.963 23.6778 388.836 23.2571 388.836 22.8268C388.85 22.2543 389.083 21.7091 389.488 21.3041C389.893 20.8992 390.439 20.6654 391.011 20.6513Z" fill="#4D7AC1"/>
<path opacity="0.5" d="M466.22 401.033C466.221 401.414 466.147 401.792 466.002 402.145C465.857 402.497 465.643 402.818 465.374 403.087C465.104 403.357 464.784 403.57 464.431 403.716C464.078 403.861 463.7 403.935 463.319 403.933H3.86913C3.48872 403.933 3.11205 403.858 2.76074 403.712C2.40943 403.567 2.09038 403.353 1.82191 403.083C1.55344 402.814 1.34082 402.494 1.19626 402.142C1.0517 401.79 0.978045 401.413 0.979514 401.033C0.979514 400.266 1.28395 399.531 1.82586 398.989C2.36777 398.448 3.10276 398.143 3.86913 398.143H463.297C463.677 398.142 464.054 398.215 464.406 398.36C464.758 398.504 465.078 398.717 465.347 398.986C465.617 399.254 465.831 399.573 465.977 399.924C466.122 400.276 466.198 400.652 466.198 401.033H466.22Z" fill="#4D7AC1"/>
<path d="M199.527 115.774H69.0809C60.3251 115.774 53.2271 122.872 53.2271 131.628V382.289C53.2271 391.044 60.3251 398.142 69.0809 398.142H199.527C208.283 398.142 215.381 391.044 215.381 382.289V131.628C215.381 122.872 208.283 115.774 199.527 115.774Z" fill="#00042D"/>
<path d="M144.87 380.515C144.872 382.608 144.253 384.655 143.092 386.396C141.931 388.137 140.279 389.494 138.346 390.296C136.413 391.098 134.285 391.308 132.232 390.9C130.18 390.493 128.294 389.485 126.814 388.005C125.334 386.525 124.327 384.64 123.919 382.587C123.511 380.534 123.722 378.407 124.524 376.474C125.325 374.541 126.683 372.889 128.424 371.728C130.165 370.566 132.211 369.948 134.304 369.95C135.692 369.95 137.066 370.223 138.347 370.754C139.629 371.285 140.794 372.063 141.775 373.044C142.756 374.025 143.534 375.19 144.065 376.472C144.596 377.754 144.87 379.128 144.87 380.515Z" fill="white"/>
<path d="M155.112 133.725C155.112 134.337 154.868 134.925 154.435 135.358C154.002 135.791 153.415 136.034 152.802 136.034H115.795C115.182 136.034 114.595 135.791 114.162 135.358C113.729 134.925 113.485 134.337 113.485 133.725C113.485 133.112 113.729 132.525 114.162 132.092C114.595 131.659 115.182 131.416 115.795 131.416H152.802C153.415 131.416 154.002 131.659 154.435 132.092C154.868 132.525 155.112 133.112 155.112 133.725Z" fill="white"/>
<path d="M136.401 124.833C136.403 125.249 136.282 125.656 136.052 126.003C135.823 126.35 135.495 126.62 135.111 126.78C134.728 126.94 134.305 126.983 133.897 126.902C133.489 126.822 133.114 126.622 132.82 126.328C132.526 126.034 132.326 125.659 132.246 125.251C132.165 124.843 132.208 124.42 132.368 124.037C132.528 123.653 132.799 123.326 133.145 123.096C133.492 122.866 133.899 122.745 134.315 122.747C134.867 122.75 135.396 122.971 135.787 123.361C136.177 123.752 136.398 124.281 136.401 124.833Z" fill="white"/>
<path d="M208.274 141.748H60.334V364.327H208.274V141.748Z" fill="#DCC5F9"/>
<path opacity="0.5" d="M60.334 364.327L208.263 141.748V364.327H60.334Z" fill="#D0B7F9"/>
<path d="M195.555 153.306H73.0527V207.706H195.555V153.306Z" fill="white"/>
<g opacity="0.4">
<path opacity="0.4" d="M124.263 166.449L142.582 190.637L152.624 177.371L168.054 197.744H147.971H137.194H100.543L124.263 166.449Z" fill="#4D7AC1"/>
<path opacity="0.4" d="M139.961 171.904C139.963 172.647 140.186 173.373 140.6 173.99C141.014 174.607 141.602 175.087 142.29 175.37C142.977 175.653 143.733 175.726 144.461 175.579C145.19 175.433 145.859 175.074 146.383 174.548C146.908 174.022 147.265 173.352 147.409 172.623C147.553 171.894 147.478 171.138 147.193 170.452C146.908 169.765 146.427 169.179 145.809 168.766C145.19 168.354 144.464 168.133 143.721 168.133C143.226 168.133 142.736 168.231 142.279 168.421C141.822 168.61 141.408 168.888 141.058 169.238C140.709 169.589 140.432 170.005 140.244 170.462C140.056 170.92 139.959 171.41 139.961 171.904Z" fill="#4D7AC1"/>
</g>
<path d="M128.391 226.383H73.0527V228.848H128.391V226.383Z" fill="#00042D"/>
<path d="M128.391 232.43H73.0527V234.896H128.391V232.43Z" fill="#00042D"/>
<path d="M128.391 238.477H73.0527V240.943H128.391V238.477Z" fill="#00042D"/>
<path d="M128.391 244.524H73.0527V246.99H128.391V244.524Z" fill="#00042D"/>
<path d="M128.391 215.562H73.0527V221.006H128.391V215.562Z" fill="white"/>
<path d="M195.555 215.562H140.217V221.006H195.555V215.562Z" fill="white"/>
<path d="M195.555 226.383H140.217V228.848H195.555V226.383Z" fill="#00042D"/>
<path d="M195.555 232.43H140.217V234.896H195.555V232.43Z" fill="#00042D"/>
<path d="M195.555 238.477H140.217V240.943H195.555V238.477Z" fill="#00042D"/>
<path d="M195.555 244.524H140.217V246.99H195.555V244.524Z" fill="#00042D"/>
<path d="M128.391 265.075H73.0527V267.541H128.391V265.075Z" fill="#00042D"/>
<path d="M128.391 271.122H73.0527V273.588H128.391V271.122Z" fill="#00042D"/>
<path d="M128.391 277.158H73.0527V279.624H128.391V277.158Z" fill="#00042D"/>
<path d="M128.391 283.205H73.0527V285.671H128.391V283.205Z" fill="#00042D"/>
<path d="M128.391 254.242H73.0527V259.687H128.391V254.242Z" fill="white"/>
<path d="M195.555 254.242H140.217V259.687H195.555V254.242Z" fill="white"/>
<path d="M195.555 265.075H140.217V267.541H195.555V265.075Z" fill="#00042D"/>
<path d="M195.555 271.122H140.217V273.588H195.555V271.122Z" fill="#00042D"/>
<path d="M195.555 277.158H140.217V279.624H195.555V277.158Z" fill="#00042D"/>
<path d="M195.555 283.205H140.217V285.671H195.555V283.205Z" fill="#00042D"/>
<path d="M129.462 296.761H73.0527V353.17H129.462V296.761Z" fill="white"/>
<g opacity="0.4">
<path opacity="0.4" d="M94.7304 315.839L105.653 330.253L111.644 322.354L120.849 334.493H108.866H102.44H80.5835L94.7304 315.839Z" fill="#4D7AC1"/>
<path opacity="0.4" d="M104.046 319.085C104.046 319.527 104.177 319.958 104.422 320.325C104.667 320.692 105.016 320.978 105.423 321.147C105.831 321.316 106.28 321.36 106.713 321.274C107.145 321.188 107.543 320.975 107.855 320.663C108.167 320.351 108.38 319.954 108.466 319.521C108.552 319.088 108.508 318.639 108.339 318.231C108.17 317.824 107.884 317.475 107.517 317.23C107.15 316.985 106.719 316.854 106.277 316.854C105.685 316.854 105.118 317.089 104.699 317.508C104.281 317.926 104.046 318.494 104.046 319.085Z" fill="#4D7AC1"/>
</g>
<path d="M195.555 296.761H140.217V302.205H195.555V296.761Z" fill="white"/>
<path d="M195.555 307.583H140.217V310.049H195.555V307.583Z" fill="#00042D"/>
<path d="M195.555 313.63H140.217V316.096H195.555V313.63Z" fill="#00042D"/>
<path d="M195.555 319.677H140.217V322.142H195.555V319.677Z" fill="#00042D"/>
<path d="M195.555 325.724H140.217V328.189H195.555V325.724Z" fill="#00042D"/>
<path d="M195.555 331.76H140.217V334.225H195.555V331.76Z" fill="#00042D"/>
<path d="M195.555 337.807H140.217V340.272H195.555V337.807Z" fill="#00042D"/>
<path d="M195.555 343.854H140.217V346.319H195.555V343.854Z" fill="#00042D"/>
<path d="M195.555 349.9H140.217V352.366H195.555V349.9Z" fill="#00042D"/>
<path d="M395.943 225.111H181.464C176.596 225.111 172.65 229.057 172.65 233.925V380.648C172.65 385.516 176.596 389.462 181.464 389.462H395.943C400.811 389.462 404.757 385.516 404.757 380.648V233.925C404.757 229.057 400.811 225.111 395.943 225.111Z" fill="#4D7AC1"/>
<path d="M396.267 235.822H181.129V378.741H396.267V235.822Z" fill="#00042D"/>
<path d="M155.033 378.786V387.99C155.042 390.68 156.115 393.257 158.017 395.159C159.919 397.061 162.496 398.134 165.186 398.143H412.221C414.911 398.134 417.488 397.061 419.39 395.159C421.292 393.257 422.365 390.68 422.374 387.99V378.786H155.033Z" fill="#00042D"/>
<path d="M243.507 378.786V381.898C243.51 382.809 243.873 383.681 244.517 384.325C245.16 384.969 246.033 385.332 246.943 385.335H330.53C331.441 385.332 332.313 384.969 332.957 384.325C333.601 383.681 333.964 382.809 333.967 381.898V378.786H243.507Z" fill="#4D7AC1"/>
<path d="M234.827 245.428H190.2V248.775H234.827V245.428Z" fill="#4D7AC1"/>
<path d="M350.111 245.428H251.183V248.775H350.111V245.428Z" fill="#DCC5F9"/>
<path d="M221.026 256.585H190.2V259.932H221.026V256.585Z" fill="#4D7AC1"/>
<path d="M300.653 256.585H232.328V259.932H300.653V256.585Z" fill="#DCC5F9"/>
<path d="M223.927 267.742H190.2V271.089H223.927V267.742Z" fill="#4D7AC1"/>
<path d="M311.072 267.742H236.299V271.089H311.072V267.742Z" fill="#DCC5F9"/>
<path d="M210.416 278.898H190.2V282.245H210.416V278.898Z" fill="#4D7AC1"/>
<path d="M341.554 278.898H217.824V282.245H341.554V278.898Z" fill="#DCC5F9"/>
<path d="M234.827 290.056H190.2V293.403H234.827V290.056Z" fill="#4D7AC1"/>
<path d="M350.111 290.056H251.183V293.403H350.111V290.056Z" fill="#DCC5F9"/>
<path d="M221.026 301.212H190.2V304.559H221.026V301.212Z" fill="#4D7AC1"/>
<path d="M300.653 301.212H232.328V304.559H300.653V301.212Z" fill="#DCC5F9"/>
<path d="M228.602 312.369H190.2V315.716H228.602V312.369Z" fill="#4D7AC1"/>
<path d="M327.797 312.369H242.681V315.716H327.797V312.369Z" fill="#DCC5F9"/>
<path d="M210.416 323.526H190.2V326.873H210.416V323.526Z" fill="#4D7AC1"/>
<path d="M341.554 323.526H217.824V326.873H341.554V323.526Z" fill="#DCC5F9"/>
<path d="M238.665 334.683H190.2V338.03H238.665V334.683Z" fill="#4D7AC1"/>
<path d="M363.878 334.683H256.438V338.03H363.878V334.683Z" fill="#DCC5F9"/>
<path d="M231.614 345.84H190.2V349.187H231.614V345.84Z" fill="#4D7AC1"/>
<path d="M338.586 345.84H246.788V349.187H338.586V345.84Z" fill="#DCC5F9"/>
<path d="M226.828 356.997H190.2V360.344H226.828V356.997Z" fill="#4D7AC1"/>
<path d="M321.46 356.997H240.261V360.344H321.46V356.997Z" fill="#DCC5F9"/>
<path d="M212.156 368.153H190.2V371.5H212.156V368.153Z" fill="#4D7AC1"/>
<path d="M354.584 368.153H220.2V371.5H354.584V368.153Z" fill="#DCC5F9"/>
<path d="M447.487 326.895V314.89H440.983C440.074 309.327 437.89 304.05 434.601 299.472L439.187 294.897L430.719 286.429L426.133 291.015C421.558 287.725 416.285 285.537 410.726 284.622V278.14H398.777V284.622C393.214 285.537 387.937 287.725 383.358 291.015L378.772 286.429L370.316 294.897L374.89 299.472C371.59 304.048 369.391 309.325 368.464 314.89H361.981V326.862H368.464C369.375 332.421 371.559 337.694 374.845 342.269L370.271 346.855L378.728 355.323L383.313 350.737C387.892 354.027 393.169 356.215 398.732 357.13V363.612H410.748V357.13C416.308 356.215 421.581 354.027 426.156 350.737L430.741 355.323L439.209 346.855L434.624 342.269C437.901 337.704 440.078 332.442 440.983 326.895H447.487ZM404.757 345.538C399.885 345.538 395.122 344.093 391.071 341.387C387.02 338.68 383.862 334.832 381.998 330.331C380.133 325.83 379.645 320.876 380.596 316.098C381.546 311.319 383.893 306.93 387.338 303.485C390.783 300.04 395.172 297.693 399.951 296.743C404.729 295.792 409.683 296.28 414.184 298.145C418.685 300.009 422.533 303.167 425.239 307.218C427.946 311.269 429.391 316.032 429.391 320.904C429.393 324.139 428.756 327.343 427.519 330.333C426.281 333.322 424.467 336.038 422.179 338.326C419.891 340.614 417.175 342.428 414.186 343.666C411.196 344.903 407.992 345.54 404.757 345.538Z" fill="#4D7AC1"/>
<path d="M271.534 233.11V217.112H262.876C261.651 209.682 258.73 202.634 254.341 196.516L260.466 190.391L249.153 179.078L243.028 185.203C236.908 180.816 229.861 177.896 222.432 176.668V168.01H206.433V176.668C199.004 177.893 191.956 180.814 185.838 185.203L179.713 179.078L168.4 190.391L174.525 196.516C170.131 202.632 167.21 209.68 165.99 217.112H157.332V233.11H165.99C167.21 240.542 170.131 247.59 174.525 253.706L168.4 259.831L179.713 271.144L185.838 265.019C191.951 269.428 198.999 272.368 206.433 273.61V282.267H222.432V273.61C229.861 272.382 236.908 269.462 243.028 265.075L249.153 271.2L260.466 259.887L254.33 253.762C258.727 247.647 261.652 240.598 262.876 233.166L271.534 233.11ZM214.433 257.99C207.923 257.99 201.56 256.06 196.147 252.443C190.735 248.827 186.516 243.687 184.025 237.673C181.534 231.659 180.883 225.041 182.152 218.657C183.422 212.272 186.557 206.408 191.16 201.805C195.763 197.202 201.627 194.067 208.012 192.797C214.396 191.527 221.014 192.179 227.028 194.67C233.042 197.161 238.182 201.38 241.799 206.792C245.415 212.205 247.345 218.568 247.345 225.078C247.345 229.4 246.494 233.679 244.84 237.673C243.186 241.666 240.762 245.294 237.706 248.35C234.649 251.407 231.021 253.831 227.028 255.485C223.035 257.139 218.755 257.99 214.433 257.99Z" fill="#4D7AC1"/>
<path d="M389.662 151.365V140.844H383.949C383.142 135.936 381.21 131.281 378.304 127.244L382.354 123.194L374.879 115.719L370.84 119.769C366.829 116.85 362.197 114.898 357.307 114.068V108.344H346.708V114.068C341.801 114.852 337.142 116.761 333.096 119.646L329.058 115.596L321.583 123.071L325.633 127.121C322.709 131.194 320.777 135.893 319.987 140.844H314.275V151.41H319.987C320.799 156.317 322.73 160.971 325.633 165.01L321.605 169.015L329.08 176.479L333.119 172.429C337.161 175.333 341.819 177.265 346.73 178.075V183.787H357.307V178.075C362.214 177.263 366.868 175.331 370.907 172.429L374.946 176.479L382.421 169.015L378.371 164.965C381.273 160.926 383.205 156.272 384.016 151.365H389.662ZM351.952 167.81C347.653 167.81 343.451 166.536 339.877 164.147C336.303 161.759 333.517 158.365 331.872 154.394C330.227 150.422 329.797 146.053 330.636 141.837C331.474 137.621 333.544 133.748 336.584 130.709C339.623 127.669 343.496 125.599 347.712 124.761C351.927 123.922 356.297 124.353 360.269 125.998C364.24 127.642 367.634 130.428 370.022 134.002C372.41 137.576 373.685 141.778 373.685 146.077C373.685 151.835 371.4 157.358 367.331 161.433C363.263 165.508 357.743 167.801 351.985 167.81H351.952Z" fill="#4D7AC1"/>
<path d="M358.925 211.823H288.815V141.713H358.925V211.823ZM289.931 210.707H357.809V142.829H289.931V210.707Z" fill="#00042D"/>
<path d="M352.866 147.761H294.851V205.777H352.866V147.761Z" fill="#00042D"/>
<path d="M318.833 180.545C317.977 180.545 317.201 180.361 316.505 179.993C315.817 179.617 315.273 179.101 314.873 178.445C314.481 177.781 314.285 177.033 314.285 176.201C314.285 175.369 314.481 174.625 314.873 173.969C315.273 173.305 315.817 172.789 316.505 172.421C317.201 172.045 317.981 171.857 318.845 171.857C319.573 171.857 320.229 171.985 320.813 172.241C321.405 172.497 321.901 172.865 322.301 173.345L321.053 174.497C320.485 173.841 319.781 173.513 318.941 173.513C318.421 173.513 317.957 173.629 317.549 173.861C317.141 174.085 316.821 174.401 316.589 174.809C316.365 175.217 316.253 175.681 316.253 176.201C316.253 176.721 316.365 177.185 316.589 177.593C316.821 178.001 317.141 178.321 317.549 178.553C317.957 178.777 318.421 178.889 318.941 178.889C319.781 178.889 320.485 178.557 321.053 177.893L322.301 179.045C321.901 179.533 321.405 179.905 320.813 180.161C320.221 180.417 319.561 180.545 318.833 180.545ZM329.05 177.173H330.61V178.481H328.894L328.654 180.401H327.298L327.538 178.481H325.774L325.534 180.401H324.19L324.43 178.481H322.858V177.173H324.586L324.838 175.229H323.266V173.921H324.994L325.234 172.001H326.578L326.338 173.921H328.102L328.342 172.001H329.686L329.446 173.921H331.006L331.018 175.229H329.29L329.05 177.173ZM327.694 177.173L327.946 175.229H326.182L325.93 177.173H327.694Z" fill="white"/>
<path d="M282.947 132.699H235.051V84.8027H282.947V132.699ZM236.166 131.583H281.831V85.9184H236.166V131.583Z" fill="#00042D"/>
<path d="M278.673 89.0864H239.334V128.425H278.673V89.0864Z" fill="#00042D"/>
<path d="M252.343 111.758C251.735 111.758 251.175 111.647 250.661 111.424C250.156 111.193 249.741 110.868 249.416 110.448L250.571 109.062C251.059 109.721 251.616 110.05 252.24 110.05C253.088 110.05 253.512 109.554 253.512 108.561V104.285H250.353V102.616H255.579V108.445C255.579 109.55 255.305 110.38 254.757 110.936C254.209 111.484 253.405 111.758 252.343 111.758ZM260.587 111.758C259.876 111.758 259.187 111.664 258.519 111.476C257.86 111.279 257.33 111.026 256.927 110.718L257.633 109.152C258.019 109.434 258.477 109.661 259.007 109.832C259.538 110.003 260.069 110.089 260.599 110.089C261.19 110.089 261.627 110.003 261.909 109.832C262.192 109.652 262.333 109.417 262.333 109.126C262.333 108.912 262.247 108.736 262.076 108.599C261.913 108.454 261.699 108.338 261.434 108.253C261.177 108.167 260.826 108.073 260.381 107.97C259.696 107.808 259.136 107.645 258.699 107.482C258.263 107.32 257.886 107.059 257.569 106.699C257.261 106.34 257.107 105.86 257.107 105.261C257.107 104.739 257.248 104.268 257.531 103.849C257.813 103.421 258.237 103.083 258.802 102.834C259.375 102.586 260.073 102.462 260.895 102.462C261.468 102.462 262.029 102.53 262.577 102.667C263.125 102.804 263.604 103.001 264.015 103.258L263.373 104.837C262.543 104.367 261.712 104.131 260.882 104.131C260.3 104.131 259.868 104.225 259.585 104.414C259.311 104.602 259.174 104.85 259.174 105.158C259.174 105.466 259.333 105.698 259.649 105.852C259.975 105.997 260.467 106.143 261.126 106.288C261.811 106.451 262.371 106.614 262.808 106.776C263.245 106.939 263.617 107.196 263.925 107.547C264.242 107.898 264.4 108.373 264.4 108.972C264.4 109.485 264.255 109.956 263.964 110.384C263.681 110.804 263.253 111.137 262.68 111.386C262.106 111.634 261.408 111.758 260.587 111.758Z" fill="white"/>
<path d="M427.316 102.52H375.794V50.9863H427.316V102.52ZM376.994 101.32H426.115V52.1867H376.994V101.32Z" fill="#00042D"/>
<path d="M422.718 55.5957H380.392V97.9225H422.718V55.5957Z" fill="#00042D"/>
<path d="M384.561 73.5748C385.057 73.5748 385.486 73.6575 385.849 73.8228C386.217 73.9881 386.499 74.2228 386.697 74.5268C386.894 74.8308 386.993 75.1908 386.993 75.6068C386.993 76.0175 386.894 76.3775 386.697 76.6868C386.499 76.9908 386.217 77.2255 385.849 77.3908C385.486 77.5508 385.057 77.6308 384.561 77.6308H383.433V79.1748H382.137V73.5748H384.561ZM384.489 76.5748C384.878 76.5748 385.174 76.4921 385.377 76.3268C385.579 76.1561 385.681 75.9161 385.681 75.6068C385.681 75.2921 385.579 75.0521 385.377 74.8868C385.174 74.7161 384.878 74.6308 384.489 74.6308H383.433V76.5748H384.489ZM390.606 77.1908V79.1748H389.31V77.1748L387.142 73.5748H388.518L390.014 76.0628L391.51 73.5748H392.782L390.606 77.1908ZM394.383 74.6308H392.591V73.5748H397.471V74.6308H395.679V79.1748H394.383V74.6308ZM403.304 73.5748V79.1748H402.008V76.8788H399.464V79.1748H398.168V73.5748H399.464V75.7828H402.008V73.5748H403.304ZM407.341 79.2708C406.76 79.2708 406.234 79.1455 405.765 78.8948C405.301 78.6441 404.936 78.3001 404.669 77.8628C404.408 77.4201 404.277 76.9241 404.277 76.3748C404.277 75.8255 404.408 75.3321 404.669 74.8948C404.936 74.4521 405.301 74.1055 405.765 73.8548C406.234 73.6041 406.76 73.4788 407.341 73.4788C407.922 73.4788 408.445 73.6041 408.909 73.8548C409.373 74.1055 409.738 74.4521 410.005 74.8948C410.272 75.3321 410.405 75.8255 410.405 76.3748C410.405 76.9241 410.272 77.4201 410.005 77.8628C409.738 78.3001 409.373 78.6441 408.909 78.8948C408.445 79.1455 407.922 79.2708 407.341 79.2708ZM407.341 78.1668C407.672 78.1668 407.97 78.0921 408.237 77.9428C408.504 77.7881 408.712 77.5748 408.861 77.3028C409.016 77.0308 409.093 76.7215 409.093 76.3748C409.093 76.0281 409.016 75.7188 408.861 75.4468C408.712 75.1748 408.504 74.9641 408.237 74.8148C407.97 74.6601 407.672 74.5828 407.341 74.5828C407.01 74.5828 406.712 74.6601 406.445 74.8148C406.178 74.9641 405.968 75.1748 405.813 75.4468C405.664 75.7188 405.589 76.0281 405.589 76.3748C405.589 76.7215 405.664 77.0308 405.813 77.3028C405.968 77.5748 406.178 77.7881 406.445 77.9428C406.712 78.0921 407.01 78.1668 407.341 78.1668ZM416.515 73.5748V79.1748H415.451L412.659 75.7748V79.1748H411.379V73.5748H412.451L415.235 76.9748V73.5748H416.515Z" fill="white"/>
<path d="M445.446 247.559H388.401V190.537H445.446V247.559ZM389.539 246.444H444.33V191.652H389.517L389.539 246.444Z" fill="#00042D"/>
<path d="M440.426 195.545H393.411V242.56H440.426V195.545Z" fill="#00042D"/>
<path d="M403.284 223.015C402.811 223.015 402.374 222.928 401.974 222.755C401.581 222.575 401.257 222.321 401.004 221.995L401.904 220.915C402.284 221.428 402.717 221.685 403.204 221.685C403.864 221.685 404.194 221.298 404.194 220.525V217.195H401.734V215.895H405.804V220.435C405.804 221.295 405.591 221.941 405.164 222.375C404.737 222.801 404.111 223.015 403.284 223.015ZM411.868 221.395H408.618L407.998 222.895H406.338L409.458 215.895H411.058L414.188 222.895H412.488L411.868 221.395ZM411.358 220.165L410.248 217.485L409.138 220.165H411.358ZM421.263 215.895L418.233 222.895H416.633L413.613 215.895H415.363L417.493 220.895L419.653 215.895H421.263ZM426.223 221.395H422.973L422.353 222.895H420.693L423.813 215.895H425.413L428.543 222.895H426.843L426.223 221.395ZM425.713 220.165L424.603 217.485L423.493 220.165H425.713Z" fill="white"/>
<path d="M91.9528 387.187H34.9302V330.153H91.9528V387.187ZM36.0459 386.071H90.8371V331.269H36.0459V386.071Z" fill="#00042D"/>
<path d="M86.9432 335.163H39.9282V382.178H86.9432V335.163Z" fill="#00042D"/>
<path d="M53.7416 353.717C54.4236 353.717 55.0139 353.831 55.5126 354.058C56.0186 354.286 56.4073 354.608 56.6786 355.026C56.9499 355.444 57.0856 355.939 57.0856 356.511C57.0856 357.076 56.9499 357.571 56.6786 357.996C56.4073 358.414 56.0186 358.737 55.5126 358.964C55.0139 359.184 54.4236 359.294 53.7416 359.294H52.1906V361.417H50.4086V353.717H53.7416ZM53.6426 357.842C54.1779 357.842 54.5849 357.729 54.8636 357.501C55.1423 357.267 55.2816 356.937 55.2816 356.511C55.2816 356.079 55.1423 355.749 54.8636 355.521C54.5849 355.287 54.1779 355.169 53.6426 355.169H52.1906V357.842H53.6426ZM65.4198 353.717V361.417H63.6378V358.26H60.1398V361.417H58.3578V353.717H60.1398V356.753H63.6378V353.717H65.4198ZM70.5746 353.717C71.2566 353.717 71.8469 353.831 72.3456 354.058C72.8516 354.286 73.2403 354.608 73.5116 355.026C73.7829 355.444 73.9186 355.939 73.9186 356.511C73.9186 357.076 73.7829 357.571 73.5116 357.996C73.2403 358.414 72.8516 358.737 72.3456 358.964C71.8469 359.184 71.2566 359.294 70.5746 359.294H69.0236V361.417H67.2416V353.717H70.5746ZM70.4756 357.842C71.0109 357.842 71.4179 357.729 71.6966 357.501C71.9753 357.267 72.1146 356.937 72.1146 356.511C72.1146 356.079 71.9753 355.749 71.6966 355.521C71.4179 355.287 71.0109 355.169 70.4756 355.169H69.0236V357.842H70.4756Z" fill="white"/>
<path d="M169.359 453.358H99.249V383.249H169.359V453.358ZM100.365 452.242H168.243V384.364H100.365V452.242Z" fill="#00042D"/>
<path d="M163.311 389.295H105.296V447.311H163.311V389.295Z" fill="#00042D"/>
<path d="M124.396 422.442C123.326 422.442 122.356 422.212 121.486 421.752C120.626 421.282 119.946 420.637 119.446 419.817C118.956 418.987 118.711 418.052 118.711 417.012C118.711 415.972 118.956 415.042 119.446 414.222C119.946 413.392 120.626 412.747 121.486 412.287C122.356 411.817 123.331 411.582 124.411 411.582C125.321 411.582 126.141 411.742 126.871 412.062C127.611 412.382 128.231 412.842 128.731 413.442L127.171 414.882C126.461 414.062 125.581 413.652 124.531 413.652C123.881 413.652 123.301 413.797 122.791 414.087C122.281 414.367 121.881 414.762 121.591 415.272C121.311 415.782 121.171 416.362 121.171 417.012C121.171 417.662 121.311 418.242 121.591 418.752C121.881 419.262 122.281 419.662 122.791 419.952C123.301 420.232 123.881 420.372 124.531 420.372C125.581 420.372 126.461 419.957 127.171 419.127L128.731 420.567C128.231 421.177 127.611 421.642 126.871 421.962C126.131 422.282 125.306 422.442 124.396 422.442ZM137.109 417.927H134.499V420.477H132.564V417.927H129.969V416.097H132.564V413.547H134.499V416.097H137.109V417.927ZM146.176 417.927H143.566V420.477H141.631V417.927H139.036V416.097H141.631V413.547H143.566V416.097H146.176V417.927Z" fill="white"/>
<path d="M67.597 471.253H19.7007V423.368H67.597V471.253ZM20.8164 470.138H66.4813V424.484H20.8164V470.138Z" fill="#00042D"/>
<path d="M63.3244 427.642H23.9854V466.981H63.3244V427.642Z" fill="#00042D"/>
<path d="M37.9047 444.442L33.9087 445.906L37.9047 447.358V448.858L32.1927 446.686V445.126L37.9047 442.954V444.442ZM42.1963 440.002H43.8643L39.9043 451.306H38.2363L42.1963 440.002ZM49.7875 445.126V446.686L44.0755 448.858V447.358L48.0715 445.906L44.0755 444.442V442.954L49.7875 445.126Z" fill="white"/>
<path d="M121.975 83.5751L112.425 87.0672L121.975 90.537V94.1184L108.331 88.9304V85.204L121.975 80.0161V83.5751Z" fill="#4D7AC1"/>
<path d="M135.107 72.9653H139.09L129.629 99.9649H125.646L135.107 72.9653Z" fill="#4D7AC1"/>
<path d="M156.116 85.204V88.9304L142.471 94.1184V90.537L152.021 87.0672L142.471 83.5751V80.0161L156.116 85.204Z" fill="#4D7AC1"/>
<path d="M212.369 49.8821H208.185V45.6982H205.953V49.8821H201.77V52.1134H205.953V56.2972H208.185V52.1134H212.369V49.8821Z" fill="#4D7AC1"/>
<path d="M445.724 125.815H441.541V121.631H439.309V125.815H435.125V128.047H439.309V132.23H441.541V128.047H445.724V125.815Z" fill="#4D7AC1"/>
<path d="M480.11 227.744H475.926V223.561H473.695V227.744H469.511V229.976H473.695V234.16H475.926V229.976H480.11V227.744Z" fill="#4D7AC1"/>
<path d="M56.7528 44.5827H52.569V40.3989H50.3376V44.5827H46.1538V46.8141H50.3376V50.9979H52.569V46.8141H56.7528V44.5827Z" fill="#4D7AC1"/>
<path d="M34.4618 163.046H30.278V158.862H28.0466V163.046H23.8628V165.277H28.0466V169.461H30.278V165.277H34.4618V163.046Z" fill="#4D7AC1"/>
<path d="M474.811 279.457H470.627V275.273H468.396V279.457H464.212V281.688H468.396V285.872H470.627V281.688H474.811V279.457Z" fill="#4D7AC1"/>
<path d="M25.9598 270.007H21.776V265.823H19.5447V270.007H15.3608V272.238H19.5447V276.422H21.776V272.238H25.9598V270.007Z" fill="#4D7AC1"/>
<path d="M256.482 432.372H252.298V428.188H250.067V432.372H245.883V434.603H250.067V438.787H252.298V434.603H256.482V432.372Z" fill="#4D7AC1"/>
<path d="M369.178 470.138H364.994V465.954H362.762V470.138H358.579V472.369H362.762V476.553H364.994V472.369H369.178V470.138Z" fill="#4D7AC1"/>
<g opacity="0.5">
<path opacity="0.5" d="M309.176 467.103C304.516 467.105 299.961 465.726 296.087 463.139C292.212 460.552 289.191 456.873 287.407 452.569C285.623 448.265 285.156 443.529 286.064 438.959C286.973 434.389 289.216 430.192 292.511 426.897C295.805 423.603 300.003 421.359 304.572 420.451C309.142 419.543 313.879 420.01 318.183 421.794C322.487 423.578 326.165 426.598 328.752 430.473C331.339 434.348 332.719 438.903 332.717 443.562C332.708 449.803 330.225 455.786 325.812 460.198C321.399 464.611 315.416 467.094 309.176 467.103ZM309.176 421.126C304.739 421.132 300.405 422.454 296.72 424.923C293.034 427.393 290.164 430.899 288.471 434.999C286.778 439.1 286.338 443.61 287.208 447.96C288.077 452.31 290.217 456.305 293.356 459.439C296.495 462.573 300.493 464.707 304.844 465.57C309.196 466.433 313.705 465.987 317.803 464.288C321.901 462.588 325.403 459.713 327.867 456.024C330.33 452.335 331.645 447.998 331.645 443.562C331.64 437.608 329.269 431.899 325.056 427.692C320.842 423.485 315.13 421.123 309.176 421.126Z" fill="#00042D"/>
<path opacity="0.5" d="M474.811 369.47C471.977 369.472 469.206 368.634 466.849 367.061C464.492 365.488 462.654 363.251 461.568 360.634C460.482 358.017 460.197 355.136 460.748 352.356C461.3 349.577 462.663 347.023 464.666 345.019C466.669 343.014 469.222 341.649 472.001 341.095C474.78 340.541 477.661 340.824 480.279 341.908C482.897 342.992 485.135 344.828 486.71 347.184C488.284 349.54 489.125 352.31 489.125 355.144C489.122 358.941 487.613 362.581 484.93 365.267C482.246 367.952 478.607 369.464 474.811 369.47ZM474.811 341.946C472.197 341.943 469.642 342.717 467.468 344.167C465.294 345.618 463.599 347.681 462.597 350.095C461.596 352.509 461.334 355.166 461.843 357.73C462.352 360.293 463.611 362.648 465.459 364.496C467.307 366.344 469.662 367.602 472.225 368.112C474.789 368.621 477.446 368.359 479.86 367.357C482.274 366.356 484.337 364.661 485.788 362.487C487.238 360.313 488.011 357.758 488.009 355.144C488.003 351.646 486.611 348.292 484.137 345.818C481.663 343.344 478.309 341.952 474.811 341.946Z" fill="#00042D"/>
<path opacity="0.5" d="M433.307 450.602C430.97 450.602 428.686 449.909 426.743 448.611C424.8 447.313 423.286 445.468 422.392 443.309C421.497 441.15 421.263 438.774 421.719 436.482C422.175 434.19 423.3 432.085 424.953 430.433C426.605 428.78 428.71 427.655 431.002 427.199C433.294 426.743 435.67 426.977 437.829 427.872C439.988 428.766 441.833 430.28 443.131 432.223C444.429 434.166 445.122 436.45 445.122 438.787C445.116 441.919 443.87 444.921 441.655 447.135C439.441 449.35 436.439 450.596 433.307 450.602ZM433.307 428.088C431.191 428.088 429.123 428.715 427.363 429.891C425.604 431.067 424.232 432.738 423.422 434.693C422.613 436.648 422.401 438.799 422.813 440.875C423.226 442.95 424.245 444.857 425.742 446.353C427.238 447.849 429.144 448.868 431.22 449.281C433.295 449.694 435.447 449.482 437.402 448.672C439.357 447.862 441.028 446.491 442.204 444.732C443.379 442.972 444.007 440.903 444.007 438.787C444.004 435.951 442.876 433.231 440.87 431.225C438.864 429.219 436.144 428.091 433.307 428.088Z" fill="#00042D"/>
<path opacity="0.5" d="M34.9295 112.628C30.2708 112.63 25.7162 111.25 21.8416 108.664C17.967 106.077 14.9465 102.4 13.1622 98.0963C11.3779 93.7929 10.9099 89.057 11.8174 84.4876C12.7249 79.9182 14.9672 75.7206 18.2605 72.4256C21.5539 69.1307 25.7505 66.8865 30.3194 65.9768C34.8884 65.0671 39.6245 65.5329 43.9287 67.3152C48.233 69.0975 51.912 72.1162 54.5004 75.9895C57.0888 79.8629 58.4704 84.4169 58.4704 89.0755C58.4645 95.3182 55.9828 101.304 51.5696 105.719C47.1564 110.134 41.1721 112.619 34.9295 112.628ZM34.9295 66.6503C30.491 66.6481 26.1516 67.9624 22.4603 70.4269C18.7689 72.8914 15.8915 76.3953 14.1919 80.4955C12.4924 84.5957 12.0471 89.1078 12.9125 93.4611C13.7778 97.8144 15.9149 101.813 19.0534 104.952C22.1918 108.09 26.1907 110.227 30.5439 111.093C34.8972 111.958 39.4093 111.513 43.5095 109.813C47.6097 108.114 51.1137 105.236 53.5782 101.545C56.0427 97.8534 57.3569 93.514 57.3547 89.0755C57.3459 83.1307 54.9804 77.4319 50.7767 73.2283C46.5731 69.0246 40.8743 66.6591 34.9295 66.6503Z" fill="#00042D"/>
<path opacity="0.5" d="M140.216 54.3109C137.383 54.3131 134.612 53.4748 132.255 51.9021C129.897 50.3293 128.06 48.0928 126.974 45.4754C125.888 42.8579 125.602 39.9772 126.154 37.1976C126.705 34.4181 128.069 31.8645 130.072 29.8599C132.075 27.8554 134.627 26.4899 137.406 25.9362C140.186 25.3826 143.067 25.6656 145.685 26.7496C148.303 27.8335 150.541 29.6696 152.116 32.0256C153.69 34.3817 154.531 37.1518 154.531 39.9855C154.528 43.782 153.019 47.4224 150.336 50.1079C147.652 52.7935 144.013 54.305 140.216 54.3109ZM140.216 26.787C137.603 26.7848 135.047 27.5579 132.873 29.0086C130.699 30.4592 129.004 32.5222 128.003 34.9364C127.002 37.3506 126.739 40.0076 127.249 42.571C127.758 45.1345 129.017 47.4893 130.865 49.3374C132.713 51.1854 135.067 52.4438 137.631 52.9531C140.194 53.4625 142.851 53.1999 145.266 52.1987C147.68 51.1975 149.743 49.5027 151.193 47.3287C152.644 45.1546 153.417 42.5991 153.415 39.9855C153.409 36.4869 152.017 33.1332 149.543 30.6593C147.069 28.1854 143.715 26.7929 140.216 26.787Z" fill="#00042D"/>
<path opacity="0.5" d="M25.9485 237.908C23.775 237.908 21.6503 237.263 19.843 236.056C18.0358 234.848 16.6273 233.132 15.7955 231.124C14.9637 229.116 14.7461 226.906 15.1701 224.774C15.5942 222.643 16.6408 220.684 18.1777 219.147C19.7146 217.611 21.6728 216.564 23.8045 216.14C25.9363 215.716 28.1459 215.933 30.154 216.765C32.162 217.597 33.8784 219.006 35.0859 220.813C36.2934 222.62 36.938 224.745 36.938 226.918C36.935 229.832 35.7763 232.625 33.716 234.686C31.6557 236.746 28.8622 237.905 25.9485 237.908ZM25.9485 217.056C23.9952 217.056 22.0857 217.635 20.4617 218.72C18.8377 219.806 17.5722 221.349 16.8252 223.153C16.0782 224.958 15.8833 226.944 16.2652 228.86C16.6471 230.775 17.5886 232.535 18.9706 233.915C20.3526 235.296 22.113 236.235 24.029 236.615C25.9451 236.995 27.9308 236.797 29.7348 236.048C31.5388 235.299 33.0801 234.032 34.1637 232.407C35.2473 230.782 35.8245 228.872 35.8223 226.918C35.8238 225.62 35.5695 224.334 35.0741 223.135C34.5787 221.935 33.8518 220.844 32.9349 219.925C32.0181 219.006 30.9292 218.277 29.7304 217.779C28.5317 217.281 27.2466 217.024 25.9485 217.022V217.056Z" fill="#00042D"/>
</g>
</svg>
