<svg width="16" height="17" viewBox="0 0 16 17" fill="none" xmlns="http://www.w3.org/2000/svg">
<path d="M15.12 11.2994C14.0267 11.2994 12.9689 11.1216 11.9822 10.8016C11.6711 10.6949 11.3244 10.7749 11.0844 11.0149L9.68889 12.766C7.17333 11.566 4.81778 9.29937 3.56444 6.69492L5.29778 5.21937C5.53778 4.97048 5.60889 4.62381 5.51111 4.3127C5.18222 3.32603 5.01333 2.26826 5.01333 1.17492C5.01333 0.694922 4.61333 0.294922 4.13333 0.294922H1.05778C0.577778 0.294922 0 0.508255 0 1.17492C0 9.4327 6.87111 16.2949 15.12 16.2949C15.7511 16.2949 16 15.7349 16 15.246V12.1794C16 11.6994 15.6 11.2994 15.12 11.2994Z" fill="white"/>
</svg>
